<svg xmlns="http://www.w3.org/2000/svg" width="29.276" height="26.386" viewBox="0 0 29.276 26.386">
  <g id="Group_90" data-name="Group 90" transform="translate(0.15 0.15)">
    <path id="Path_143" data-name="Path 143" d="M200.46,138.23H189.694a.424.424,0,0,0,0,.849H200.46a.424.424,0,0,0,0-.849Z" transform="translate(-178.558 -131.852)" fill="#fff" stroke="#fff" stroke-width="0.3"/>
    <path id="Path_144" data-name="Path 144" d="M150.08,190.01a.424.424,0,0,0-.424-.424H135.842a.424.424,0,0,0,0,.849h13.813A.424.424,0,0,0,150.08,190.01Z" transform="translate(-127.754 -180.302)" fill="#fff" stroke="#fff" stroke-width="0.3"/>
    <path id="Path_145" data-name="Path 145" d="M135.842,240.94a.424.424,0,0,0,0,.849h13.62a.424.424,0,0,0,0-.849Z" transform="translate(-127.754 -228.749)" fill="#fff" stroke="#fff" stroke-width="0.3"/>
    <path id="Path_146" data-name="Path 146" d="M38.384,31.45h1.984V34.23a.424.424,0,0,0,.849,0V27.5a1.955,1.955,0,0,0-.349-1.117h16.74a1.447,1.447,0,0,1,1.445,1.445V41.219a.424.424,0,1,0,.849,0V27.827a2.3,2.3,0,0,0-2.294-2.294H39.251A1.968,1.968,0,0,0,37.285,27.5v2.852a1.1,1.1,0,0,0,1.1,1.1Zm-.25-3.951a1.117,1.117,0,1,1,2.234,0v3.1H38.384a.25.25,0,0,1-.25-.25Z" transform="translate(-35.175 -25.533)" fill="#fff" stroke="#fff" stroke-width="0.3"/>
    <path id="Path_147" data-name="Path 147" d="M26.815,215.849h-.3v-.906a1.179,1.179,0,0,0-1.177-1.177H10.123a1.179,1.179,0,0,0-1.177,1.177v.906h-2.9V207.2a.424.424,0,0,0-.849,0v8.648H4.281c-1.2,0-1.763.558-3.856,1.486a.749.749,0,0,0,0,1.351c2.094.928,2.653,1.486,3.856,1.486h.913v.14A2.3,2.3,0,0,0,7.488,222.6H24.213a2.3,2.3,0,0,0,2.3-2.3v-.133h.3a2.161,2.161,0,1,0,0-4.322ZM4.706,219.322v-.888h4.24v.888Zm4.24-1.737H4.706V216.7h4.24ZM.98,218.01a14.432,14.432,0,0,1,2.877-1.276v2.552A14.448,14.448,0,0,1,.98,218.01Zm6.508,3.746a1.447,1.447,0,0,1-1.445-1.445v-.14h2.9v.133a1.454,1.454,0,0,1-1.452,1.452ZM25.665,220.3a1.454,1.454,0,0,1-1.452,1.452H9.278a2.29,2.29,0,0,0,.517-1.452v-5.362a.329.329,0,0,1,.329-.329H25.337a.329.329,0,0,1,.328.329V220.3Zm1.15-.982h-.3V216.7h.3a1.312,1.312,0,0,1,0,2.624Z" transform="translate(0 -196.519)" fill="#fff" stroke="#fff" stroke-width="0.3"/>
  </g>
</svg>
