<svg xmlns="http://www.w3.org/2000/svg" width="25.455" height="25.455" viewBox="0 0 25.455 25.455">
  <path id="Path_135" data-name="Path 135" d="M23.446,16.76a14.53,14.53,0,0,1-4.567-.727,1.957,1.957,0,0,0-1.987.421L14,18.636a16.142,16.142,0,0,1-7.184-7.182L8.942,8.632a2.028,2.028,0,0,0,.5-2.05,14.57,14.57,0,0,1-.73-4.573A2.012,2.012,0,0,0,6.7,0H2.01A2.012,2.012,0,0,0,0,2.01,23.473,23.473,0,0,0,23.446,25.455a2.012,2.012,0,0,0,2.01-2.01V18.77A2.012,2.012,0,0,0,23.446,16.76Zm.67,6.685a.671.671,0,0,1-.67.67A22.131,22.131,0,0,1,1.34,2.01a.671.671,0,0,1,.67-.67H6.7a.671.671,0,0,1,.67.67,15.9,15.9,0,0,0,.793,4.984.742.742,0,0,1-.23.764L5.493,10.986a.67.67,0,0,0-.062.707,17.578,17.578,0,0,0,8.331,8.331.667.667,0,0,0,.709-.062l3.3-2.5a.672.672,0,0,1,.682-.159,15.9,15.9,0,0,0,4.995.8.671.671,0,0,1,.67.67v4.676Z" fill="#fff"/>
</svg>
