<svg xmlns="http://www.w3.org/2000/svg" width="15.966" height="15.966" viewBox="0 0 15.966 15.966">
  <path id="Path_48" data-name="Path 48" d="M14.613,10.446a9.056,9.056,0,0,1-2.847-.453,1.22,1.22,0,0,0-1.238.262l-1.8,1.36A10.061,10.061,0,0,1,4.25,7.139L5.573,5.38A1.264,1.264,0,0,0,5.883,4.1a9.081,9.081,0,0,1-.455-2.85A1.254,1.254,0,0,0,4.175,0H1.253A1.254,1.254,0,0,0,0,1.253,14.63,14.63,0,0,0,14.613,15.866a1.254,1.254,0,0,0,1.253-1.253V11.7A1.254,1.254,0,0,0,14.613,10.446Zm.418,4.167a.418.418,0,0,1-.418.418A13.794,13.794,0,0,1,.835,1.253.418.418,0,0,1,1.253.835H4.175a.418.418,0,0,1,.418.418,9.913,9.913,0,0,0,.494,3.106.462.462,0,0,1-.144.476L3.424,6.847a.417.417,0,0,0-.038.441A10.956,10.956,0,0,0,8.577,12.48a.416.416,0,0,0,.442-.038l2.056-1.558a.419.419,0,0,1,.425-.1,9.907,9.907,0,0,0,3.113.5.418.418,0,0,1,.418.418v2.914Z" transform="translate(0.05 0.05)" fill="#00608a" stroke="#00608a" stroke-width="0.1"/>
</svg>
