<svg xmlns="http://www.w3.org/2000/svg" width="17.208" height="18.67" viewBox="0 0 17.208 18.67">
  <g id="doctor_2_" data-name="doctor (2)" transform="translate(-20.62 0.15)">
    <g id="Group_64" data-name="Group 64" transform="translate(20.799 0)">
      <path id="Path_29" data-name="Path 29" d="M31.907,8.917a7.511,7.511,0,0,0,1.75-4.473,4.444,4.444,0,0,0-8.888,0,7.511,7.511,0,0,0,1.75,4.473,7.978,7.978,0,0,0-5.551,9.452H37.458A8,8,0,0,0,31.907,8.917ZM29.213.593a3.846,3.846,0,0,1,3.5,2.264,2.661,2.661,0,0,1-2.98-.13,3.123,3.123,0,0,0-3.356.141l-.9.629A3.856,3.856,0,0,1,29.213.593ZM25.362,4.444c0-.047,0-.094.007-.141l1.352-.951a2.529,2.529,0,0,1,2.716-.116,3.25,3.25,0,0,0,3.486.192,3.889,3.889,0,0,1,.141,1.013c0,2.1-1.725,5.334-3.851,5.334S25.362,6.549,25.362,4.444Zm11.6,13.333h-15.5a7.391,7.391,0,0,1,2.788-7.062,8.411,8.411,0,0,0,.738,2.39,2.371,2.371,0,0,0-.973,2.788l.492,1.4,1.117-.394-.2-.56-.56.2-.3-.839a1.778,1.778,0,1,1,3.356-1.179l.293.839-.56.2.2.56,1.117-.394-.492-1.4a2.369,2.369,0,0,0-2.962-1.468,7.764,7.764,0,0,1-.727-2.52,7.487,7.487,0,0,1,2.195-.933,3.036,3.036,0,0,0,4.441,0,7.363,7.363,0,0,1,2.52,1.154,7.7,7.7,0,0,1-.868,2.231,1.149,1.149,0,0,0-.318-.051,1.186,1.186,0,1,0,1.186,1.186,1.175,1.175,0,0,0-.354-.843,8.377,8.377,0,0,0,.868-2.126A7.438,7.438,0,0,1,36.966,17.777Zm-3.605-3.851a.593.593,0,1,1-.593-.593A.6.6,0,0,1,33.361,13.926Z" transform="translate(-20.799 0)" fill="#00608a" stroke="#00608a" stroke-width="0.3"/>
    </g>
  </g>
</svg>
