<svg xmlns="http://www.w3.org/2000/svg" width="27.06" height="29.473" viewBox="0 0 27.06 29.473">
  <path id="Path_29" data-name="Path 29" d="M38.622,14.307A12.051,12.051,0,0,0,41.43,7.13a7.13,7.13,0,0,0-14.261,0,12.051,12.051,0,0,0,2.808,7.177C19.517,17.823,20.613,27.5,21.072,29.473H47.528A12.835,12.835,0,0,0,38.622,14.307ZM34.3.952a6.171,6.171,0,0,1,5.622,3.632,4.27,4.27,0,0,1-4.781-.209,5.01,5.01,0,0,0-5.384.226L28.318,5.61A6.186,6.186,0,0,1,34.3.952ZM28.121,7.13c0-.075.006-.151.012-.226L30.3,5.378a4.057,4.057,0,0,1,4.357-.186,5.215,5.215,0,0,0,5.593.307,6.24,6.24,0,0,1,.226,1.625c0,3.377-2.767,8.558-6.179,8.558S28.121,10.507,28.121,7.13ZM46.739,28.522H21.866A11.858,11.858,0,0,1,26.34,17.191a13.5,13.5,0,0,0,1.184,3.835A3.8,3.8,0,0,0,25.963,25.5l.789,2.24,1.793-.632-.313-.9-.9.313-.476-1.346a2.853,2.853,0,1,1,5.384-1.891l.47,1.346-.9.313.313.9,1.793-.632-.789-2.245a3.8,3.8,0,0,0-4.752-2.356,12.458,12.458,0,0,1-1.166-4.044,12.012,12.012,0,0,1,3.522-1.5,5.322,5.322,0,0,0,3.562,1.549,5.322,5.322,0,0,0,3.562-1.549A11.814,11.814,0,0,1,41.9,16.918a12.347,12.347,0,0,1-1.392,3.58A1.843,1.843,0,0,0,40,20.417a1.9,1.9,0,1,0,1.9,1.9,1.884,1.884,0,0,0-.569-1.352,13.441,13.441,0,0,0,1.392-3.411A11.934,11.934,0,0,1,46.739,28.522Zm-5.784-6.179A.952.952,0,1,1,40,21.391.956.956,0,0,1,40.954,22.343Z" transform="translate(-20.799)" fill="#fff"/>
</svg>
