<svg xmlns="http://www.w3.org/2000/svg" width="24.067" height="21.454" viewBox="0 0 24.067 21.454">
  <g id="Group_572" data-name="Group 572" transform="translate(-1845.231 -115.844)">
    <path id="Path_27" data-name="Path 27" d="M23.81,36.271,12.4,27.918a.625.625,0,0,0-.739,0L.255,36.271A.625.625,0,1,0,.994,37.28L12.033,29.2,23.071,37.28a.625.625,0,0,0,.739-1.009Z" transform="translate(1845.232 88.047)" fill="#fff"/>
    <path id="Path_28" data-name="Path 28" d="M74.586,232.543a.625.625,0,0,0-.625.625v9.953h-5v-5.433a3.127,3.127,0,1,0-6.254,0v5.433h-5v-9.953a.625.625,0,0,0-1.251,0v10.579a.625.625,0,0,0,.625.625H63.33a.625.625,0,0,0,.623-.577.472.472,0,0,0,0-.049v-6.059a1.876,1.876,0,0,1,3.752,0v6.059a.458.458,0,0,0,0,.048.625.625,0,0,0,.623.577h6.253a.625.625,0,0,0,.625-.625V233.168A.625.625,0,0,0,74.586,232.543Z" transform="translate(1791.433 -107.074)" fill="#fff"/>
  </g>
</svg>
