<svg xmlns="http://www.w3.org/2000/svg" width="27.06" height="20.612" viewBox="0 0 27.06 20.612">
  <g id="youtube" transform="translate(0 -61)">
    <path id="Path_141" data-name="Path 141" d="M203.554,170.084l-6.342-3.964a.793.793,0,0,0-1.213.672v7.928a.793.793,0,0,0,1.213.672l6.342-3.964a.793.793,0,0,0,0-1.345Zm-5.97,3.206v-5.067l4.054,2.534Z" transform="translate(-185.64 -99.451)" fill="#fff"/>
    <path id="Path_142" data-name="Path 142" d="M23.1,61H3.964A3.968,3.968,0,0,0,0,64.964V77.648a3.968,3.968,0,0,0,3.964,3.964H23.1a3.968,3.968,0,0,0,3.964-3.964V64.964A3.968,3.968,0,0,0,23.1,61Zm2.378,16.648A2.381,2.381,0,0,1,23.1,80.026H3.964a2.381,2.381,0,0,1-2.378-2.378V64.964a2.381,2.381,0,0,1,2.378-2.378H23.1a2.381,2.381,0,0,1,2.378,2.378Z" fill="#fff"/>
  </g>
</svg>
