<svg xmlns="http://www.w3.org/2000/svg" width="43.834" height="42.394" viewBox="0 0 43.834 42.394">
  <g id="physical-therapy" transform="translate(0 -8.413)">
    <path id="Path_334" data-name="Path 334" d="M42.78,40h-2.6a4.238,4.238,0,0,0,1.368-2.355,5.733,5.733,0,0,0,.011-2.054A7.4,7.4,0,0,1,41.61,32.9h0a1.768,1.768,0,0,0-.4-1.832c-.543-.477-1.429-.5-2.634-.06a3.02,3.02,0,0,0-1.015.616,4.824,4.824,0,0,0-5.809,1.931,9.963,9.963,0,0,0-3.034-1.322.642.642,0,1,0-.325,1.243,8.519,8.519,0,0,1,2.767,1.232c-.02.054-.039.108-.057.162a4.643,4.643,0,0,0-.223,1.926,5.312,5.312,0,0,0,1.48,3.2H26.08V38h1.707a.642.642,0,0,0,0-1.284H20.4v-2.4a2.382,2.382,0,0,0,.243-.124,9.719,9.719,0,0,1,4.9-1.1h.011a.642.642,0,0,0,.01-1.284,13.251,13.251,0,0,0-2.15.138V28.536a5.416,5.416,0,0,0,1.523-1.677,4.818,4.818,0,0,0,.683-2.708c.007-.17.015-.355.026-.562,0-.006,0-.011,0-.017s0-.011,0-.017V21.98a3.391,3.391,0,0,0-3.387-3.387h-.224a5.133,5.133,0,0,0,1.587-3.367V13.909a5.6,5.6,0,0,0-1.533-4.067,4.885,4.885,0,0,0-3.4-1.429h-.02a4.888,4.888,0,0,0-3.405,1.429,5.6,5.6,0,0,0-1.534,4.067v1.318a5.132,5.132,0,0,0,1.588,3.367h-.226a3.314,3.314,0,0,0-2.957,1.783L8.389,26.449c-.423-.759-1.471-2.392-2.711-2.487a1.242,1.242,0,0,0-1.066.3A1.171,1.171,0,0,0,4.44,25.33l.9,5.151a1.593,1.593,0,0,0,.445,1.063,1.372,1.372,0,0,0,1.1.173c.086-.009.184-.02.294-.03a7.271,7.271,0,0,1,3.632.584,10.828,10.828,0,0,1,1.44.8v3.442H7.03c-.755,0-.776-.043-.873-.248C6.031,36,4.884,33.66,3.32,33.541a1.24,1.24,0,0,0-1.068.3,1.159,1.159,0,0,0-.169,1.07L2.972,40H1.052A1.053,1.053,0,0,0,0,41.049v5.033a1.055,1.055,0,0,0,1.052,1.055h1.6V48.33a2.48,2.48,0,0,0,2.477,2.477H38.7a2.48,2.48,0,0,0,2.477-2.477V47.137h1.6a1.056,1.056,0,0,0,1.055-1.055V41.049A1.055,1.055,0,0,0,42.78,40Zm-4.506-3.818a3.769,3.769,0,0,1-.291-2.964,1.749,1.749,0,0,1,1.033-1,3.276,3.276,0,0,1,1.069-.237.488.488,0,0,1,.278.054c.022.019.085.176-.007.587h0a8.705,8.705,0,0,0-.074,3.118,4.725,4.725,0,0,1,.016,1.609c-.364,1.532-1.252,2.27-3.344,2.534l.017-.014C38.747,38.332,38.66,37.014,38.274,36.179Zm-6.114.479a3.349,3.349,0,0,1,.165-1.386,3.862,3.862,0,0,1,3.1-2.661,3.668,3.668,0,0,1,1.37.114,5.011,5.011,0,0,0,.311,3.992c.628,1.361-1.763,2.808-2.522,3.225a3.853,3.853,0,0,1-2.426-3.284ZM24.8,38v2H19.207a1,1,0,0,1,.1-2Zm-2.67-5.786a8.732,8.732,0,0,0-2.136.869l-.034.02c-.071-.084-.164-.2-.25-.313-.1-.134-.234-.3-.39-.492a13.667,13.667,0,0,0-1.3-1.34l3.537-1.427c.185-.075.377-.157.573-.249v2.93Zm-5.577-2.048a.8.8,0,0,1-.591-1.48l.017-.007,3.244-1.406.763,1.507ZM18.671,9.7a3.713,3.713,0,0,1,3.613,3.437c-1.4-.267-4.265-.84-4.6-.927h0a2.068,2.068,0,0,0-.519-.069,2.383,2.383,0,0,0-1.4.552,3.565,3.565,0,0,1-.707.414A3.711,3.711,0,0,1,18.671,9.7Zm-3.666,5.53v-.765a4.069,4.069,0,0,0,1.494-.717c.421-.293.556-.374.865-.294h0c.23.06,3.561.741,4.969,1v.776a4.456,4.456,0,0,1-2.505,3.412.651.651,0,0,0-.059.027c-.08.036-.16.07-.242.1a2.441,2.441,0,0,1-.857.177,2.472,2.472,0,0,1-.856-.176c-.078-.029-.156-.062-.233-.1a.652.652,0,0,0-.064-.03,4.459,4.459,0,0,1-2.513-3.414ZM20.153,19.9v.193a1.6,1.6,0,0,1-1.481,1.7,1.6,1.6,0,0,1-1.484-1.7V19.9q.091.038.183.073a3.438,3.438,0,0,0,2.6,0q.09-.034.18-.071Zm-6.932,1.151a2.028,2.028,0,0,1,1.863-1.173H15.9v.215a2.883,2.883,0,0,0,2.768,2.979,2.882,2.882,0,0,0,2.766-2.979v-.215h.819a2.105,2.105,0,0,1,2.1,2.1v1.559c-.011.2-.018.389-.026.558a3.56,3.56,0,0,1-.512,2.12A4.977,4.977,0,0,1,21.176,28.3l-.783-1.547a2.873,2.873,0,0,0,.812-.637A.636.636,0,0,0,21.29,26l.774-1.274a.642.642,0,1,0-1.1-.667l-.737,1.213a1.772,1.772,0,0,1-.726.475L15.473,27.5a2.059,2.059,0,0,0-.891.7,8.252,8.252,0,0,0-1.83-.721l1.307-2.126a.642.642,0,1,0-1.094-.673l-1.548,2.516c-.62-.1-1.243-.162-1.846-.211Zm-4.216,9.4a8.727,8.727,0,0,0-1.94-.038c-.117.011-.386.039-.422.043-.013-.069-.907-5.168-.907-5.168a4.985,4.985,0,0,1,1.691,2.095,1.23,1.23,0,0,0,.831.8c.4.051.691.043.822.052.17.012.342.026.516.04Zm4.534,3.647a5.035,5.035,0,0,1,1.5,2.2,4.8,4.8,0,0,1-1.5.2ZM8.152,37.8H12.2c2.492,0,3.35-.147,3.824-.656a1.153,1.153,0,0,0,.3-.894c-.081-1.185-1.716-3.639-4.968-5.143a7.6,7.6,0,0,0-1.089-.4l.623-2.3a8.577,8.577,0,0,1,3.285,1.031,2.08,2.08,0,0,0,2.472,2.029,13.5,13.5,0,0,1,1.676,1.642c.146.179.266.333.372.468a5.353,5.353,0,0,0,.418.495v2.65A2.284,2.284,0,0,0,17.246,40H8.152ZM5,36.815a1.78,1.78,0,0,0,1.872.983V40H4.276l-.9-5.138A4.4,4.4,0,0,1,5,36.815ZM42.55,45.853H23.45a.642.642,0,1,0,0,1.284H39.9V48.33A1.194,1.194,0,0,1,38.7,49.522H5.129A1.194,1.194,0,0,1,3.937,48.33V47.137H20.625a.642.642,0,1,0,0-1.284H1.284V41.281H42.55Z" transform="translate(0 0)" fill="#fff"/>
  </g>
</svg>
