<svg xmlns="http://www.w3.org/2000/svg" width="46.067" height="42.742" viewBox="0 0 46.067 42.742">
  <g id="injection" transform="translate(-5.001 -23.114)">
    <path id="Path_330" data-name="Path 330" d="M441.659,36.327a.551.551,0,0,0-.456-.242h0a.551.551,0,0,0-.456.242c-.072.106-1.761,2.6-2.2,3.525a4.4,4.4,0,0,0-.512,1.921,3.164,3.164,0,0,0,6.328,0,4.193,4.193,0,0,0-.512-1.923C443.414,38.919,441.73,36.432,441.659,36.327Zm-.456,7.507a2.065,2.065,0,0,1-2.063-2.061,3.389,3.389,0,0,1,.407-1.452c.268-.569,1.12-1.883,1.656-2.694.535.809,1.385,2.121,1.657,2.695a3.124,3.124,0,0,1,.406,1.451A2.065,2.065,0,0,1,441.2,43.834Z" transform="translate(-393.3 -11.78)" fill="#fff"/>
    <path id="Path_331" data-name="Path 331" d="M10.347,65.361a1.694,1.694,0,1,0,2.4-2.4l-1.227-1.228,3.654-3.654,2.625,2.625a1.8,1.8,0,1,0,2.545-2.545l-.2-.2L36.135,41.968a2,2,0,0,0,.187-2.611L38.4,37.275a1.658,1.658,0,0,0,.3-1.921l2.648-2.648a2.267,2.267,0,0,0,.34-2.765l5.888-5.888a.551.551,0,1,0-.779-.779l-5.885,5.885a2.268,2.268,0,0,0-2.767.342L35.5,32.151a1.659,1.659,0,0,0-1.921.3L31.5,34.537a2,2,0,0,0-2.612.186L12.894,50.718l-.2-.2h0a1.8,1.8,0,0,0-2.546,2.546l2.625,2.625L9.12,59.342,7.892,58.115a1.694,1.694,0,1,0-2.4,2.4ZM38.93,30.281a1.164,1.164,0,0,1,1.646,1.646l-2.59,2.59L36.34,32.871Zm-4.569,2.952a.555.555,0,0,1,.785,0l2.479,2.479a.555.555,0,0,1,0,.784l-2.065,2.065L32.3,35.3ZM29.668,35.5a.9.9,0,0,1,1.273,0l4.415,4.415a.9.9,0,0,1,0,1.273l-1.433,1.433-2.036-2.036a.551.551,0,1,0-.779.779L33.144,43.4l-1.188,1.188-.823-.823a.551.551,0,1,0-.779.779l.823.823-1.188,1.189-2.036-2.036a.551.551,0,1,0-.779.779l2.036,2.036-1.188,1.188L27.2,47.7a.551.551,0,0,0-.779.779l.823.823-1.188,1.188-2.036-2.036a.551.551,0,1,0-.779.779l2.036,2.036-1.188,1.188-.823-.823a.551.551,0,0,0-.779.779l.823.823-1.189,1.188-2.036-2.036a.551.551,0,1,0-.779.779L21.342,55.2l-1.981,1.981L13.673,51.5ZM10.928,52.286a.7.7,0,0,1,.988-.988l7.645,7.644a.7.7,0,1,1-.988.988Zm2.625,4.182.838.838-3.654,3.654L9.9,60.121ZM6.275,58.894a.593.593,0,0,1,.838,0l4.85,4.85a.593.593,0,1,1-.838.838l-4.85-4.85a.593.593,0,0,1,0-.838Z" fill="#fff"/>
    <path id="Path_332" data-name="Path 332" d="M272.976,169.447a.6.6,0,1,0-.422-1.018h0a.6.6,0,0,0,.422,1.018Z" transform="translate(-242.842 -131.821)" fill="#fff"/>
    <path id="Path_333" data-name="Path 333" d="M192.266,188.928a.549.549,0,0,0,.389-.161L199,182.422a.551.551,0,1,0-.779-.779l-6.345,6.345a.551.551,0,0,0,.389.94Z" transform="translate(-169.58 -143.835)" fill="#fff"/>
  </g>
</svg>
