<svg xmlns="http://www.w3.org/2000/svg" width="38.905" height="41.447" viewBox="0 0 38.905 41.447">
  <g id="medicine" transform="translate(-15.701)">
    <g id="Group_501" data-name="Group 501" transform="translate(23.796 10.199)">
      <g id="Group_500" data-name="Group 500" transform="translate(0)">
        <path id="Path_211" data-name="Path 211" d="M116.506,125.994a.81.81,0,1,0,.81.81A.81.81,0,0,0,116.506,125.994Z" transform="translate(-115.696 -125.994)" fill="#fff"/>
      </g>
    </g>
    <g id="Group_503" data-name="Group 503" transform="translate(24.605 22.099)">
      <g id="Group_502" data-name="Group 502">
        <path id="Path_212" data-name="Path 212" d="M132.981,276.224h-2.428V273.8a.809.809,0,1,0-1.619,0v2.428h-2.428a.809.809,0,1,0,0,1.619h2.428v2.428a.809.809,0,1,0,1.619,0v-2.428h2.428a.809.809,0,1,0,0-1.619Z" transform="translate(-125.696 -272.986)" fill="#fff"/>
      </g>
    </g>
    <g id="Group_505" data-name="Group 505" transform="translate(15.701)">
      <g id="Group_504" data-name="Group 504" transform="translate(0)">
        <path id="Path_213" data-name="Path 213" d="M53.738,26.065a6.472,6.472,0,0,0-8.846-2.37l-3.288,1.9V18.564a4.077,4.077,0,0,0-.809-2.428l-4.047-5.4v-2.3a2.432,2.432,0,0,0,1.619-2.289V2.428A2.431,2.431,0,0,0,35.938,0H21.367a2.431,2.431,0,0,0-2.428,2.428V6.152a2.432,2.432,0,0,0,1.619,2.289v2.3l-4.048,5.4a4.076,4.076,0,0,0-.809,2.428V34.241a4.052,4.052,0,0,0,4.047,4.047H32.757a6.469,6.469,0,0,0,8.8,2.289l9.814-5.666A6.481,6.481,0,0,0,53.738,26.065ZM20.558,2.428a.81.81,0,0,1,.809-.81h14.57a.81.81,0,0,1,.81.81V6.152a.81.81,0,0,1-.81.809H21.367a.81.81,0,0,1-.809-.809V2.428ZM17.806,17.107l4.209-5.612a.809.809,0,0,0,.162-.486V8.58H35.128V10.2H27.843a.81.81,0,1,0,0,1.619h7.69L39.5,17.106a2.449,2.449,0,0,1,.469,1.188H17.337A2.448,2.448,0,0,1,17.806,17.107Zm1.943,19.562a2.431,2.431,0,0,1-2.428-2.428v-.818H32.027a6.486,6.486,0,0,0,.039,3.246H19.748Zm12.913-4.857H17.32v-11.9H39.985v6.615l-4.907,2.833A6.428,6.428,0,0,0,32.662,31.812Zm8.083,7.363a4.857,4.857,0,1,1-4.857-8.412l4.394-2.537,4.857,8.412Zm9.814-5.666-4.018,2.32-4.857-8.412L45.7,25.1a4.857,4.857,0,1,1,4.857,8.412Z" transform="translate(-15.701)" fill="#fff"/>
      </g>
    </g>
  </g>
</svg>
