<svg id="blood" xmlns="http://www.w3.org/2000/svg" width="41" height="41" viewBox="0 0 41 41">
  <g id="Group_511" data-name="Group 511" transform="translate(11.449 6.557)">
    <g id="Group_510" data-name="Group 510">
      <rect id="Rectangle_1232" data-name="Rectangle 1232" width="1.212" height="1.323" transform="matrix(0.428, -0.904, 0.904, 0.428, 0, 1.096)" fill="#fff"/>
    </g>
  </g>
  <g id="Group_513" data-name="Group 513" transform="translate(2.645 8.81)">
    <g id="Group_512" data-name="Group 512">
      <path id="Path_229" data-name="Path 229" d="M40.255,106.576l-7.3,15.416A9.959,9.959,0,0,0,32,126.228h1.323a8.636,8.636,0,0,1,.825-3.67l7.3-15.416Z" transform="translate(-32 -106.576)" fill="#fff"/>
    </g>
  </g>
  <g id="Group_515" data-name="Group 515" transform="translate(0 0)">
    <g id="Group_514" data-name="Group 514" transform="translate(0 0)">
      <path id="Path_230" data-name="Path 230" d="M27.113,13.226a13.786,13.786,0,0,0-6.968,1.894L13.162.378a.662.662,0,0,0-1.2,0L1.207,23.094A12.539,12.539,0,0,0,12.59,41a12.463,12.463,0,0,0,7.071-2.188,13.88,13.88,0,1,0,7.451-25.587ZM12.539,39.677A11.216,11.216,0,0,1,2.4,23.659L12.565,2.206l6.461,13.64A13.844,13.844,0,0,0,18.5,37.987,11.2,11.2,0,0,1,12.539,39.677Zm14.574,0A12.565,12.565,0,1,1,39.677,27.113,12.578,12.578,0,0,1,27.113,39.677Z" transform="translate(0 0)" fill="#fff"/>
    </g>
  </g>
  <g id="Group_517" data-name="Group 517" transform="translate(21.161 16.532)">
    <g id="Group_516" data-name="Group 516">
      <path id="Path_231" data-name="Path 231" d="M261.952,200c-3.281,0-5.952,2.077-5.952,4.629s2.67,4.629,5.952,4.629,5.952-2.077,5.952-4.629S265.233,200,261.952,200Zm0,7.935c-2.553,0-4.629-1.483-4.629-3.306s2.076-3.306,4.629-3.306,4.629,1.483,4.629,3.306S264.5,207.935,261.952,207.935Z" transform="translate(-256 -200)" fill="#fff"/>
    </g>
  </g>
  <g id="Group_519" data-name="Group 519" transform="translate(24.916 19.551)">
    <g id="Group_518" data-name="Group 518">
      <path id="Path_232" data-name="Path 232" d="M305.392,236.52a5.625,5.625,0,0,1-3.543,0l-.425,1.253a6.934,6.934,0,0,0,4.393,0Z" transform="translate(-301.424 -236.52)" fill="#fff"/>
    </g>
  </g>
  <g id="Group_521" data-name="Group 521" transform="translate(30.674 28.713)">
    <g id="Group_520" data-name="Group 520">
      <path id="Path_233" data-name="Path 233" d="M373.82,347.352a5.611,5.611,0,0,1-2.74,2.246l.465,1.239a6.927,6.927,0,0,0,3.4-2.785Z" transform="translate(-371.08 -347.352)" fill="#fff"/>
    </g>
  </g>
  <g id="Group_523" data-name="Group 523" transform="translate(27.784 25.789)">
    <g id="Group_522" data-name="Group 522">
      <path id="Path_234" data-name="Path 234" d="M345.861,313.451a3.867,3.867,0,0,0-2.72-1.446,6.217,6.217,0,0,0-4.6,1.643c-2.435,2.11-3.156,5.45-1.608,7.445a3.867,3.867,0,0,0,2.72,1.446q.238.024.479.024a6.418,6.418,0,0,0,4.124-1.667C346.689,318.786,347.41,315.446,345.861,313.451Zm-2.473,6.446a5,5,0,0,1-3.607,1.327,2.521,2.521,0,0,1-1.8-.941c-1.125-1.45-.484-3.978,1.428-5.635a5.168,5.168,0,0,1,3.267-1.343c.114,0,.227.006.339.017a2.521,2.521,0,0,1,1.8.941C345.941,315.712,345.3,318.24,343.388,319.9Z" transform="translate(-336.116 -311.98)" fill="#fff"/>
    </g>
  </g>
  <g id="Group_525" data-name="Group 525" transform="translate(19.69 28.713)">
    <g id="Group_524" data-name="Group 524">
      <path id="Path_235" data-name="Path 235" d="M240.51,348.7a5.477,5.477,0,0,1-1.187-1.345l-1.123.7a6.921,6.921,0,0,0,3.4,2.785l.465-1.239A5.475,5.475,0,0,1,240.51,348.7Z" transform="translate(-238.2 -347.352)" fill="#fff"/>
    </g>
  </g>
  <g id="Group_527" data-name="Group 527" transform="translate(15.88 25.789)">
    <g id="Group_526" data-name="Group 526">
      <path id="Path_236" data-name="Path 236" d="M200.251,313.656a6.223,6.223,0,0,0-4.6-1.643,3.866,3.866,0,0,0-2.72,1.446c-1.549,2-.827,5.335,1.608,7.445a6.422,6.422,0,0,0,4.124,1.667c.161,0,.321-.008.479-.024a3.866,3.866,0,0,0,2.72-1.446C203.407,319.105,202.685,315.765,200.251,313.656Zm.563,6.634a2.524,2.524,0,0,1-1.8.941A5,5,0,0,1,195.4,319.9c-1.913-1.657-2.553-4.185-1.428-5.635a2.523,2.523,0,0,1,1.8-.941c.111-.011.224-.017.339-.017a5.17,5.17,0,0,1,3.268,1.343C201.3,316.312,201.938,318.839,200.813,320.29Z" transform="translate(-192.112 -311.988)" fill="#fff"/>
    </g>
  </g>
</svg>
