<svg xmlns="http://www.w3.org/2000/svg" width="55.497" height="46.005" viewBox="0 0 55.497 46.005">
  <g id="liver-cancer" transform="translate(0 -43.785)">
    <path id="Path_311" data-name="Path 311" d="M51.432,47.037H49.975a2.435,2.435,0,0,0-.534-2.5,2.45,2.45,0,0,0-1.765-.756H45.085a6.74,6.74,0,0,0-5.294,2.547l-.626.784-.541-.7a6.819,6.819,0,0,0-5.359-2.63H29.2a2.442,2.442,0,0,0-2.346,3.252H22.492A22.517,22.517,0,0,0,0,69.528v5.738a.813.813,0,1,0,1.626,0V69.528A20.826,20.826,0,0,1,2.3,64.251a6.149,6.149,0,0,0,8.438-5.706q0-.206-.014-.414a6.152,6.152,0,0,0,6.917-8.9,20.844,20.844,0,0,1,4.848-.57H32.861a2.455,2.455,0,0,1,1.929.947L36.6,51.956a.273.273,0,0,1,.057.166V70.1a.27.27,0,0,1-.188.258l-6.554,2.1A10.726,10.726,0,0,0,10.74,78.631a8,8,0,0,0-3.677,3.195A2.93,2.93,0,0,1,1.626,80.31V79.06A.813.813,0,0,0,0,79.06v1.25a4.556,4.556,0,0,0,8.455,2.357,6.371,6.371,0,0,1,2.36-2.266A10.731,10.731,0,1,0,30.852,73.87l1.075-.343a4.092,4.092,0,0,0,1.619,1.611,3.763,3.763,0,0,0,1.816.489,3.244,3.244,0,0,0,1.057-.175l3.108-1.068a2.982,2.982,0,0,0,2.012-2.819V70.454l2.649-.847a8.75,8.75,0,0,0,6.106-8.362,2.426,2.426,0,0,1,1.14-2.064L53.6,57.819a4.043,4.043,0,0,0,1.9-3.44V51.1a4.069,4.069,0,0,0-4.065-4.065ZM16.763,52.171a4.524,4.524,0,0,1-6.071,4.249,1.221,1.221,0,0,0-1.211.209A1.249,1.249,0,0,0,9.053,57.8a4.548,4.548,0,0,1,.062.746A4.519,4.519,0,0,1,2.78,62.686a20.964,20.964,0,0,1,13.243-13A4.472,4.472,0,0,1,16.763,52.171Zm4.7,35.993a9.1,9.1,0,1,1,9.1-9.1A9.115,9.115,0,0,1,21.462,88.164ZM53.871,54.379a2.426,2.426,0,0,1-1.14,2.064L50.568,57.8a4.043,4.043,0,0,0-1.9,3.44,7.13,7.13,0,0,1-4.975,6.813l-2.154.689V66.582a.813.813,0,1,0-1.626,0v4.982A1.355,1.355,0,0,1,39,72.846l-3.108,1.068a1.967,1.967,0,0,1-1.559-.2,2.556,2.556,0,0,1-.809-.7l3.447-1.1A1.891,1.891,0,0,0,38.287,70.1V52.122a1.906,1.906,0,0,0-.4-1.16l-1.815-2.347a4.091,4.091,0,0,0-3.216-1.578H29.153a.813.813,0,0,1-.812-.853.846.846,0,0,1,.858-.773h4.065a5.182,5.182,0,0,1,4.073,2l.752.973a1.363,1.363,0,0,0,2.131.017l.841-1.053a5.123,5.123,0,0,1,4.023-1.936h2.592a.813.813,0,0,1,.812.853.846.846,0,0,1-.858.773H45.407a4.044,4.044,0,0,0-3.176,1.528l-1.9,2.383a1.9,1.9,0,0,0-.415,1.184V62.789a.813.813,0,1,0,1.626,0V52.132a.273.273,0,0,1,.059-.169l1.9-2.383a2.426,2.426,0,0,1,1.906-.917h6.026A2.442,2.442,0,0,1,53.871,51.1Z" fill="#fff"/>
    <path id="Path_312" data-name="Path 312" d="M150.972,315.8h-1.3a4.371,4.371,0,0,0-.589-1.73l1.6-1.6a.813.813,0,1,0-1.15-1.15l-1.6,1.6a4.369,4.369,0,0,0-1.731-.59v-1.3a.813.813,0,0,0-1.626,0v1.3a4.369,4.369,0,0,0-1.731.59l-1.6-1.6a.813.813,0,1,0-1.15,1.15l1.6,1.6a4.37,4.37,0,0,0-.589,1.73h-1.3a.813.813,0,1,0,0,1.626h1.3a4.368,4.368,0,0,0,.59,1.73l-1.6,1.6a.813.813,0,0,0,1.15,1.15l1.6-1.6a4.37,4.37,0,0,0,1.73.589v1.3a.813.813,0,1,0,1.626,0v-1.3a4.37,4.37,0,0,0,1.73-.589l1.6,1.6a.813.813,0,0,0,1.15-1.15l-1.6-1.6a4.367,4.367,0,0,0,.59-1.73h1.3a.813.813,0,1,0,0-1.626Zm-5.583,3.522a2.71,2.71,0,1,1,2.71-2.72s0,.007,0,.011,0,.007,0,.01A2.38,2.38,0,0,1,145.389,319.321Z" transform="translate(-123.927 -237.552)" fill="#fff"/>
    <path id="Path_313" data-name="Path 313" d="M189.084,359.215a1.084,1.084,0,1,0,1.084,1.084A1.085,1.085,0,0,0,189.084,359.215Z" transform="translate(-167.622 -281.24)" fill="#fff"/>
    <path id="Path_314" data-name="Path 314" d="M121.378,198.724a2.439,2.439,0,1,0-2.439,2.439A2.442,2.442,0,0,0,121.378,198.724Zm-3.252,0a.813.813,0,1,1,.813.813A.814.814,0,0,1,118.126,198.724Z" transform="translate(-103.872 -135.97)" fill="#fff"/>
    <path id="Path_315" data-name="Path 315" d="M193.252,115.289A3.252,3.252,0,1,0,190,112.037,3.255,3.255,0,0,0,193.252,115.289Zm0-4.878a1.626,1.626,0,1,1-1.626,1.626A1.628,1.628,0,0,1,193.252,110.411Z" transform="translate(-169.405 -57.954)" fill="#fff"/>
  </g>
</svg>
