<svg xmlns="http://www.w3.org/2000/svg" width="43.505" height="41.3" viewBox="0 0 43.505 41.3">
  <g id="kidney" transform="translate(-19.001 -31.02)">
    <path id="Path_309" data-name="Path 309" d="M23.046,64.558a8.779,8.779,0,0,0,5.415,1.994,6.426,6.426,0,0,0,6.257-6.59,5.591,5.591,0,0,0-2.529-4.344,3.564,3.564,0,0,0,.693-.792,2.37,2.37,0,0,0,.34-.869,8.282,8.282,0,0,0,4.035-1.8c.266,4.347.94,15.761.35,19.414a.648.648,0,0,0,.634.752H42.6a.648.648,0,0,0,.64-.708c-.036-.383-.075-1.013-.113-1.809A11,11,0,0,0,60.087,56.641,14.273,14.273,0,0,0,62.5,48.179c.069-5.053-1.25-8.757-3.923-11.008a8.016,8.016,0,0,0-5.038-1.882,4.857,4.857,0,0,0-4.924,4.79c-.017,1.224.966,2.253,1.862,3.055a3.946,3.946,0,0,0-1.2,1.106c-1.525-.128-5.305-1.022-6.139-2.826-.922-1.994-.8-6.375-.528-9.7a.642.642,0,0,0-.648-.694l-3.791.047a.642.642,0,0,0-.633.681c.392,6.528.383,10.816-.027,12.743-.42,1.977-3.485,5.226-5.124,5.528a3.857,3.857,0,0,0-1.336-.735,4.337,4.337,0,0,0,1.744-3,4.863,4.863,0,0,0-4.982-4.729A8.013,8.013,0,0,0,22.8,43.494c-2.645,2.282-3.92,6-3.79,11.055C19.128,59.1,20.486,62.471,23.046,64.558Zm27.077,6.475a9.722,9.722,0,1,1,9.721-9.722A9.722,9.722,0,0,1,50.123,71.034ZM48.179,50.477a10.971,10.971,0,0,0-5.139,2.417,42.7,42.7,0,0,1,.552-5.787,10.181,10.181,0,0,0,5,.887,3.485,3.485,0,0,0,.537,1.017,3.859,3.859,0,0,0,.295.347,7.127,7.127,0,0,0-1.246,1.118Zm-24.54-6.01a6.725,6.725,0,0,1,4.208-1.631,3.577,3.577,0,0,1,3.664,3.478c.022.829-1.087,1.815-1.82,2.467-.114.1-.222.2-.323.289a.642.642,0,0,0-.161.719c.158.383.528.474.919.571a3.025,3.025,0,0,1,1.563.768.642.642,0,0,0,.465.2c1.545,0,3.313-1.65,4-2.359a10.087,10.087,0,0,0,2.611-4.209c.419-1.97.45-6.145.092-12.414l2.416-.03c-.339,4.738-.11,7.895.7,9.639,1.348,2.919,6.855,3.588,7.639,3.588a.642.642,0,0,0,.55-.31,2.9,2.9,0,0,1,1.7-1.319.642.642,0,0,0,.215-1.086c-.1-.09-.211-.186-.326-.285-.741-.643-1.862-1.615-1.85-2.445a3.572,3.572,0,0,1,3.621-3.522,6.727,6.727,0,0,1,4.228,1.579c2.364,1.992,3.53,5.358,3.466,10.008a13.613,13.613,0,0,1-1.824,7.225,11.009,11.009,0,0,0-9.079-5.079A4.794,4.794,0,0,1,50.844,50a.642.642,0,0,0-.093-1.228,2.032,2.032,0,0,1-.976-1.435.642.642,0,0,0-.688-.659,9.567,9.567,0,0,1-5.662-1.057.642.642,0,0,0-.894.4,39.661,39.661,0,0,0-.826,8.209,10.989,10.989,0,0,0,.082,14.262c.038,1.018.08,1.9.121,2.542H38.971c.457-4.5-.2-15.2-.457-19.383-.018-.3-.035-.574-.049-.8a.642.642,0,0,0-1.046-.461c-1.681,1.368-2.849,2.208-4.886,2.345a.642.642,0,0,0-.582.787.832.832,0,0,1-.157.621A2.179,2.179,0,0,1,30.771,55a.642.642,0,0,0-.079,1.23c.136.063,2.679,1.284,2.743,3.768a5.14,5.14,0,0,1-5.006,5.272,7.376,7.376,0,0,1-4.57-1.705c-2.257-1.841-3.456-4.884-3.564-9.047C20.174,49.866,21.3,46.485,23.639,44.467Zm27.139,5.554A.6.6,0,0,0,50.836,50,.417.417,0,0,1,50.779,50.021ZM30.747,56.245,30.7,56.23Z" transform="translate(0 0)" fill="#fff"/>
    <path id="Path_310" data-name="Path 310" d="M304.014,303.671h-3.029v-3.029a.642.642,0,0,0-.642-.642h-2.937a.642.642,0,0,0-.642.642v3.029h-3.121a.642.642,0,0,0-.642.642v2.937a.642.642,0,0,0,.642.643h3.121v3.121a.642.642,0,0,0,.642.642h2.937a.642.642,0,0,0,.642-.642v-3.121h3.029a.642.642,0,0,0,.642-.642v-2.937A.642.642,0,0,0,304.014,303.671Zm-.642,2.937h-3.029a.642.642,0,0,0-.643.643v3.121h-1.652v-3.121a.642.642,0,0,0-.643-.642h-3.121v-1.652h3.121a.642.642,0,0,0,.643-.642v-3.029H299.7v3.029a.642.642,0,0,0,.643.642h3.029Z" transform="translate(-248.851 -244.292)" fill="#fff"/>
  </g>
</svg>
