<svg xmlns="http://www.w3.org/2000/svg" width="37.092" height="45" viewBox="0 0 37.092 45">
  <g id="sore-throat" transform="translate(-44.915 0)">
    <path id="Path_193" data-name="Path 193" d="M55.844,35.2H52.256a3.613,3.613,0,0,1-3.613-3.617l.01-7.256a.66.66,0,0,0-.351-.584l-2.066-1.09,2.534-4.418a2.083,2.083,0,0,0,.275-1.034v-4.95A4.557,4.557,0,0,1,50.43,8.986l.5-.48h2.556a5.878,5.878,0,0,1,5.872,5.872v.014a.66.66,0,1,0,1.321,0v-.014a7.2,7.2,0,0,0-7.192-7.192h-2.7a2.409,2.409,0,0,1-2.406-2.406V1.634a.314.314,0,0,1,.314-.314H63.254A17.446,17.446,0,0,1,74.454,5.4.66.66,0,0,0,75.3,4.384,18.769,18.769,0,0,0,63.254,0H48.688a1.636,1.636,0,0,0-1.634,1.634V4.779a3.732,3.732,0,0,0,2.284,3.436,5.886,5.886,0,0,0-1.612,4.033V17.2a.76.76,0,0,1-.1.377l-2.534,4.418a1.318,1.318,0,0,0,.526,1.82l1.715.908-.009,6.858a4.933,4.933,0,0,0,4.933,4.94h2.927V44.34a.66.66,0,1,0,1.321,0V35.858a.66.66,0,0,0-.66-.66Z" transform="translate(0 0)" fill="#fff"/>
    <path id="Path_194" data-name="Path 194" d="M226.966,70.644a.66.66,0,0,0-.995.869,17.427,17.427,0,0,1,3.907,15.119l-2.852-.309a.66.66,0,0,0-.142,1.313l2.664.289a17.429,17.429,0,0,1-5.239,8.171l-3.256,2.847a.949.949,0,0,1-1.341-.091l-4.081-4.686a.952.952,0,0,1,.086-1.333l2.4-2.136a3.466,3.466,0,0,0,1.163-2.589v-1.3l4.722.512a.66.66,0,0,0,.142-1.313l-5.044-.547a3.462,3.462,0,0,0-6.745,1.1v1.267l-1.988,1.42a.072.072,0,0,1-.114-.059V81.424a.66.66,0,1,0-1.321,0v7.767a1.393,1.393,0,0,0,2.2,1.133l2.265-1.618a.66.66,0,0,0,.277-.537V86.562a2.142,2.142,0,0,1,4.284,0v1.544a2.143,2.143,0,0,1-.72,1.6l-2.4,2.136a2.277,2.277,0,0,0-.2,3.188l4.081,4.686a2.271,2.271,0,0,0,.644.513v8.327a.66.66,0,1,0,1.321,0v-8.076a2.253,2.253,0,0,0,1.241-.546l3.256-2.847a18.752,18.752,0,0,0,1.788-26.445Z" transform="translate(-149.581 -64.218)" fill="#fff"/>
    <path id="Path_195" data-name="Path 195" d="M109.695,342.423H106.9a.66.66,0,1,0,0,1.321h2.794a4.341,4.341,0,0,1,4.336,4.336v6.726a.66.66,0,0,0,1.321,0V348.08A5.663,5.663,0,0,0,109.695,342.423Z" transform="translate(-55.926 -312.277)" fill="#fff"/>
    <path id="Path_196" data-name="Path 196" d="M109.645,308.785H105.9a.66.66,0,0,0,0,1.321h3.746a9.409,9.409,0,0,1,9.4,9.4v4.626a.66.66,0,0,0,1.321,0V319.5a10.731,10.731,0,0,0-10.719-10.719Z" transform="translate(-55.013 -281.601)" fill="#fff"/>
  </g>
</svg>
