<svg id="Group_506" data-name="Group 506" xmlns="http://www.w3.org/2000/svg" width="45.35" height="45.35" viewBox="0 0 45.35 45.35">
  <path id="Path_216" data-name="Path 216" d="M346.332,375.748l-.45-1.256a2.78,2.78,0,0,1-1.1.144l-.017,1.334A8.45,8.45,0,0,0,346.332,375.748Z" transform="translate(-314.09 -341.173)" fill="#fff"/>
  <path id="Path_217" data-name="Path 217" d="M106.625,84.637a3.832,3.832,0,0,0-2.78-1.131l-3.21.041c-1.443-1.338-2.777-3.551-5-3.464a3.831,3.831,0,0,0-2.766,1.167l-2.238,2.3c-1.965.074-4.477-.546-5.99,1.089a3.831,3.831,0,0,0-1.131,2.78l.041,3.21c-1.338,1.443-3.551,2.777-3.464,5A3.831,3.831,0,0,0,81.249,98.4l2.3,2.238c.075,1.972-.549,4.471,1.089,5.99a3.835,3.835,0,0,0,2.78,1.131l3.21-.041c1.443,1.338,2.777,3.551,5,3.464a3.831,3.831,0,0,0,2.766-1.167l2.238-2.3,1.66.021.017-1.334-2.233-.029-2.638,2.708a2.527,2.527,0,0,1-3.62,0l-2.638-2.708-3.783.049a2.527,2.527,0,0,1-2.559-2.559l.049-3.783-2.708-2.638a2.527,2.527,0,0,1,0-3.62l2.708-2.638L84.84,87.4A2.527,2.527,0,0,1,87.4,84.841l3.783.049,2.638-2.708a2.527,2.527,0,0,1,3.62,0l2.638,2.708,3.783-.049a2.527,2.527,0,0,1,2.559,2.559l-.049,3.783,2.708,2.638a2.527,2.527,0,0,1,0,3.62l-2.708,2.638.049,3.783a2.5,2.5,0,0,1-.762,1.841l.932.955c1.68-1.521,1.048-4.037,1.123-6.023,1.338-1.443,3.551-2.777,3.464-5a3.831,3.831,0,0,0-1.167-2.766l-2.3-2.238.041-3.21a3.832,3.832,0,0,0-1.131-2.78Z" transform="translate(-72.955 -72.956)" fill="#fff"/>
  <path id="Path_218" data-name="Path 218" d="M179.024,160.66a3.335,3.335,0,0,0-.46-1.692l-1.15.678a2,2,0,1,1-.726-.72l.669-1.155a3.336,3.336,0,1,0,1.667,2.889Z" transform="translate(-157.016 -143.323)" fill="#fff"/>
  <path id="Path_219" data-name="Path 219" d="M281.077,269.034a3.337,3.337,0,0,0,0-6.673A3.337,3.337,0,0,0,281.077,269.034Zm0-5.338a2,2,0,0,1,0,4A2,2,0,0,1,281.077,263.7Z" transform="translate(-253.064 -239.019)" fill="#fff"/>
  <path id="Path_220" data-name="Path 220" d="M190.03,288.7v-1.335h1.335v-1.335H190.03v-1.335H188.7v1.335h-1.335v1.335H188.7V288.7Z" transform="translate(-170.691 -259.363)" fill="#fff"/>
  <path id="Path_221" data-name="Path 221" d="M289.186,163.14a2,2,0,0,0,1.416-.585l1.887-1.887a2,2,0,0,0-2.831-2.831l-1.887,1.887A2.012,2.012,0,0,0,289.186,163.14Zm-.472-2.473,1.887-1.887a.667.667,0,0,1,.944.944l-1.887,1.887A.667.667,0,0,1,288.714,160.667Z" transform="translate(-261.637 -143.249)" fill="#fff"/>
  <path id="Path_222" data-name="Path 222" d="M44.015,20.006v2h-2.7c-.165-2.432-1.875-4.006-3.525-5.591.045-2.29.142-4.612-1.461-6.449l1.911-1.911,1.416,1.416.944-.944L36.821,4.754l-.944.944,1.416,1.416L35.382,9.024c-1.837-1.6-4.16-1.507-6.449-1.461-1.587-1.652-3.16-3.36-5.591-3.525v-2.7h2V0H20.006V1.335h2v2.7C19.576,4.2,18,5.913,16.417,7.563H14.668V8.9h2.3c1.625-1.6,3.162-3.657,5.705-3.559,2.553-.094,4.077,1.954,5.705,3.559,2.283.015,4.825-.35,6.554,1.518,1.872,1.739,1.5,4.266,1.518,6.554,1.6,1.625,3.657,3.162,3.559,5.705.094,2.553-1.954,4.077-3.559,5.705-.015,2.285.35,4.824-1.518,6.554-1.739,1.872-4.266,1.5-6.554,1.518-1.625,1.6-3.162,3.657-5.705,3.559-2.553.094-4.077-1.954-5.705-3.559-2.283-.015-4.825.35-6.554-1.518C8.544,33.2,8.915,30.668,8.9,28.38c-1.6-1.625-3.657-3.162-3.559-5.705C5.245,20.122,7.292,18.6,8.9,16.97l0-2.883a5.194,5.194,0,0,1,4.521-5.148l-.169-1.324A6.474,6.474,0,0,0,9.97,9.026L8.057,7.113,9.472,5.7l-.944-.944L4.754,8.529l.944.944L7.113,8.057,9.027,9.97c-1.595,1.841-1.513,4.122-1.464,6.446C5.912,18,4.2,19.576,4.038,22.008h-2.7v-2H0v5.338H1.335v-2h2.7c.165,2.432,1.875,4.006,3.525,5.591-.045,2.29-.142,4.612,1.461,6.449L7.113,37.293,5.7,35.878l-.944.944L8.529,40.6l.944-.944L8.057,38.237l1.911-1.911c1.837,1.6,4.16,1.507,6.449,1.461,1.587,1.652,3.16,3.36,5.591,3.525v2.7h-2V45.35h5.338V44.015h-2v-2.7c2.432-.165,4.006-1.875,5.591-3.525,2.29.046,4.612.142,6.449-1.461l1.911,1.911-1.416,1.416.944.944L40.6,36.821l-.944-.944-1.416,1.416-1.911-1.911c1.6-1.837,1.507-4.16,1.461-6.449,1.652-1.587,3.36-3.16,3.525-5.591h2.7v2H45.35V20.006H44.016Z" transform="translate(0 0)" fill="#fff"/>
</svg>
