<svg xmlns="http://www.w3.org/2000/svg" width="41.447" height="41.447" viewBox="0 0 41.447 41.447">
  <g id="patient" transform="translate(0 0)">
    <path id="Path_197" data-name="Path 197" d="M226.674,32h-1.337v1.337H224v1.337h1.337v1.337h1.337V34.674h1.337V33.337h-1.337Zm0,0" transform="translate(-205.282 -29.326)" fill="#fff"/>
    <path id="Path_198" data-name="Path 198" d="M22.729,13.37V10.7h1.337A1.338,1.338,0,0,0,25.4,9.359V8.69h3.653L30.928,11.5l2.548-7.008L34.99,8.022h6.457V6.685H35.871L33.374.858l-2.8,7.7-.8-1.2H25.4V1.337A1.338,1.338,0,0,0,24.066,0H17.381a1.338,1.338,0,0,0-1.337,1.337V4.679H10.255L8.741,8.212,6.194,1.2,4.322,4.011H0V5.348H5.037l.8-1.2,2.8,7.7,2.5-5.827h4.907V9.359A1.338,1.338,0,0,0,17.381,10.7h1.337V13.37h1.337v4.011H16.712a7.383,7.383,0,0,0-3.288.776l-.464.232a3.336,3.336,0,0,0-3.173-2.345H7.353a3.309,3.309,0,0,0-2.006.686V14.038a2.006,2.006,0,0,0-4.011,0V24.066A1.338,1.338,0,0,0,0,25.4V26.74a1.338,1.338,0,0,0,1.337,1.337H3.342v7.361a3.34,3.34,0,1,0,4.011,0V28.077h26.74v7.357a3.343,3.343,0,1,0,4.011,0V28.077H40.11a1.338,1.338,0,0,0,1.337-1.337V25.4a1.338,1.338,0,0,0-1.337-1.337h-.034a7.361,7.361,0,0,0-7.32-6.685H21.392V13.37ZM7.353,17.381H9.787a2.006,2.006,0,0,1,0,4.011H7.353a2.006,2.006,0,0,1,0-4.011Zm2.674,5.348a2,2,0,0,1,1.882,1.337H5.471a2,2,0,0,1,1.882-1.337Zm-4.68-.686.021.017-.021.017Zm-2.674-8a.669.669,0,0,1,1.337,0V24.066H2.674ZM5.348,40.11A2.008,2.008,0,0,1,3.342,38.1a1.977,1.977,0,0,1,.126-.659,1.994,1.994,0,0,0,3.758,0,1.978,1.978,0,0,1,.126.658A2.008,2.008,0,0,1,5.348,40.11Zm.669-3.343a.669.669,0,0,1-1.337,0V28.077H6.016ZM36.1,40.11A2.008,2.008,0,0,1,34.094,38.1a1.978,1.978,0,0,1,.126-.658,1.994,1.994,0,0,0,3.758,0,1.978,1.978,0,0,1,.126.658A2.008,2.008,0,0,1,36.1,40.11Zm.669-3.343a.668.668,0,1,1-1.337,0V28.077h1.337Zm1.966-12.7H36.1V25.4H40.11V26.74H1.337V25.4H34.762V24.066H13.3a3.351,3.351,0,0,0-1.411-2.1,3.321,3.321,0,0,0,1.194-2.14l.937-.468a6.043,6.043,0,0,1,2.69-.635H32.757a6.023,6.023,0,0,1,5.977,5.348ZM17.381,1.337h6.685V9.359H17.381ZM21.392,10.7v1.337H20.055V10.7Zm0,0" transform="translate(0 0)" fill="#fff"/>
  </g>
</svg>
