<svg xmlns="http://www.w3.org/2000/svg" width="42.067" height="45.082" viewBox="0 0 42.067 45.082">
  <g id="intestine" transform="translate(-17.125 0.001)">
    <path id="Path_316" data-name="Path 316" d="M21.188,14.7a.7.7,0,1,0,1.205.73,7.326,7.326,0,0,1,.561-.795A.7.7,0,0,0,23,13.824c-.015-.024-1.459-2.4-.838-4.467a3.785,3.785,0,0,1,2.211-2.3.7.7,0,0,0,.4-.512c0-.026.5-2.643,2.387-3.678a4.561,4.561,0,0,1,3.992.09.7.7,0,0,0,.75-.142,3.9,3.9,0,0,1,5.657.175.7.7,0,0,0,.879.168,6.251,6.251,0,0,1,4.373-.87A3.2,3.2,0,0,1,44.233,3a.7.7,0,0,0,1.042-.02,4.021,4.021,0,0,1,3-1.569A5.8,5.8,0,0,1,51.883,3.12a.7.7,0,0,0,.87.124c.04-.024,4-2.311,6-.042a6.749,6.749,0,0,1,.6,6.65.7.7,0,0,0,.1.795A6.754,6.754,0,0,1,60.8,12.912a.7.7,0,1,0,1.332-.46,8.026,8.026,0,0,0-1.33-2.388A8.182,8.182,0,0,0,59.9,2.375a.73.73,0,0,0-.048-.063C58.02.187,55.015.558,52.511,1.78c-2.439-2.119-5.428-2.536-7.837-.214-.97-.63-3.135-1.5-6.427.1a5.316,5.316,0,0,0-6.976-.176,5.682,5.682,0,0,0-4.789.138,6.96,6.96,0,0,0-3.012,4.3c-3.242,1.688-3.535,4.99-1.9,8.2-.137.19-.264.381-.379.57Z" transform="translate(-3.166 0)" fill="#fff"/>
    <path id="Path_317" data-name="Path 317" d="M66.128,91.722a.7.7,0,0,0-.842.533c-.337,1.5-.749,1.594-.589,2.1a6.712,6.712,0,0,1-2.628,7.644.7.7,0,0,0-.317.689,5.857,5.857,0,0,1-1.022,4.739,6.3,6.3,0,0,1-4.147,1.913.7.7,0,0,0-.638.455,4.512,4.512,0,0,1-2.625,2.971c-2.009.659-4.262-.778-4.284-.792a.705.705,0,0,0-1.083.692,9.622,9.622,0,0,1-1.73,6.731h-.839c-2.071-4.773-3.891-12.87,1.215-13.62a6.461,6.461,0,0,1,4.336,1.252c.4.253.628.5,1.037.37,1.108-.357-.105-2.984,4.114-3.941a.7.7,0,0,0,.528-.857c-.665-2.668-.24-4.566,2.319-5.686a.7.7,0,0,0,.388-.854,7.41,7.41,0,0,1-.13-4.186c.41-1.517.942-1.648.8-2.2-.134-.51-.539-.41-1.227-1a4.042,4.042,0,0,1-1.308-2.55,7.2,7.2,0,0,1,.02-2.25.7.7,0,0,0-.66-.845c-.507-.022-.493.344-1.471.864-2.019,1.074-4.76.644-6.855-.166-.457-.177-.764-.385-1.144-.092a5.775,5.775,0,0,1-3.818,1.271,6.321,6.321,0,0,1-2.794-.79c-.64-.4-1.045.478-3,.379a5.713,5.713,0,0,1-3.242-1.261.7.7,0,0,0-1.152.662,3.25,3.25,0,0,1-.329,2.323A2.891,2.891,0,0,1,31.8,87.308a.7.7,0,0,0-.33,1.026,6.854,6.854,0,0,1,1.2,4.217,4.947,4.947,0,0,1-.785,2.286.7.7,0,0,0,.385,1.127c3.755.9,4.213,6.189,2.918,7.684-.63.726-.419,2.06-.293,3.09.121.987.288,2.339-.126,2.723a.989.989,0,0,1-1.227-.031c-.65-.443-.36-2.056-.168-3.124.181-1.011.3-1.678-.141-2.1A.886.886,0,0,0,32.4,104c-4.123.98-5.169-4.369-3.831-5.458A.7.7,0,0,0,28.5,97.4a6.576,6.576,0,0,1-1.861-1.921.7.7,0,0,0-1.2.735,7.9,7.9,0,0,0,1.676,1.905c-1.487,2.507.366,7.941,4.969,7.37-.221,1.433-.924,4.021.664,5.1a2.327,2.327,0,0,0,2.979-.1c1.2-1.117.541-3.445.449-5.09a10.475,10.475,0,0,0,6.216,2.267c-1.766,4.907,1.742,12.387,1.9,12.727a.7.7,0,0,0,.636.4H46.55a.7.7,0,0,0,.525-.234,10.247,10.247,0,0,0,2.353-6.823c3.263,1.365,6.173.446,7.669-3.04a7.445,7.445,0,0,0,4.7-2.362,6.987,6.987,0,0,0,1.4-5.428,8,8,0,0,0,2.923-8.718,8.6,8.6,0,0,0,.538-1.63.7.7,0,0,0-.533-.842ZM51.364,105.629A11.222,11.222,0,0,0,50.147,105a3.108,3.108,0,0,0,.084-2.218,10.037,10.037,0,0,0,2.924-2.175,4.776,4.776,0,0,0,1.15-4.428,6.984,6.984,0,0,0-4.378-4.085.182.182,0,0,1-.015-.336c1.32-.66,5.149-2.578,4.559-6.027a6.572,6.572,0,0,0,1.5-.565,6.175,6.175,0,0,0,1.426,4.14,5.076,5.076,0,0,1-2.412,1.568,1.751,1.751,0,0,0-.676,2.854,5.41,5.41,0,0,1,1.57,3.774,5.935,5.935,0,0,0-.777,4.757,4.987,4.987,0,0,0-3.735,3.375Zm-8.957-11.7a4.77,4.77,0,0,0-3.056.854,3.342,3.342,0,0,0-1.065,1.553,2.084,2.084,0,0,0-3.059-.292,5.492,5.492,0,0,0-1.743-1.163,6.244,6.244,0,0,0,.411-1.137c3.384,1.461,5.937.16,6.068-4.2.068-2.25,3-3.1,3.519-3.234A7.119,7.119,0,0,0,47.867,85a13.945,13.945,0,0,0,2.5.739c-1.128,1.816-3.725,2.687-5.836,2.975C41.867,89.075,41.327,91.486,42.407,93.93Zm15.72-3.318a8.6,8.6,0,0,0-.313,5.274,7.006,7.006,0,0,0-.635.382,7.014,7.014,0,0,0-1.849-3.512.341.341,0,0,1,.127-.559A7.022,7.022,0,0,0,58.127,90.613ZM41.025,85.8a4.43,4.43,0,0,0-2.471,3.7c-.051,1.7-.469,2.77-1.243,3.189-.956.517-2.415,0-3.215-.4a8.123,8.123,0,0,0-1.065-4.072,4.322,4.322,0,0,0,1.579-2.152,5.676,5.676,0,0,1,.515,3.766.7.7,0,1,0,1.362.361,6.986,6.986,0,0,0-.542-4.6,6.581,6.581,0,0,0,4.369-.1A7.492,7.492,0,0,0,41.025,85.8Zm-4.371,18.172a7.438,7.438,0,0,0-.435-6.634c.021-.111.049-.222.081-.332.439-.307,1.043.371,1.189.6a5.752,5.752,0,0,1,.7,1.336c.892,2.854,3.02,4.25,6.121,4.079a.7.7,0,0,0-.077-1.407,4.448,4.448,0,0,1-3.555-1.1c-1.587-1.579-1.432-3.889-.481-4.6a3.52,3.52,0,0,1,2.481-.554c1.276.136,1.758.47,5.866,2.547a.7.7,0,1,0,.636-1.257,39.525,39.525,0,0,0-4.988-2.4,3.938,3.938,0,0,1-.766-3.312,1.471,1.471,0,0,1,1.3-.828,11.063,11.063,0,0,0,5.7-2.308,5.353,5.353,0,0,0,1.432-1.867,9.645,9.645,0,0,0,1.227,0c.3,1.685-.9,3.11-3.8,4.559a1.591,1.591,0,0,0,.192,2.93,5.625,5.625,0,0,1,3.484,3.165,3.414,3.414,0,0,1-.867,3.09,8.742,8.742,0,0,1-2.506,1.847,11.567,11.567,0,0,0-4.67-3.323.7.7,0,1,0-.581,1.284c1.657.749,4.354,2.244,4.63,4.043a1.569,1.569,0,0,1-.155,1,5.332,5.332,0,0,0-5.69,1.73,9.209,9.209,0,0,1-6.464-2.285Z" transform="translate(-7.486 -75.718)" fill="#fff"/>
    <path id="Path_318" data-name="Path 318" d="M18.479,192.086a.7.7,0,1,0-.92.919A.7.7,0,0,0,18.479,192.086Z" transform="translate(0 -174.776)" fill="#fff"/>
  </g>
</svg>
