<svg xmlns="http://www.w3.org/2000/svg" width="31.595" height="42.584" viewBox="0 0 31.595 42.584">
  <g id="agiography" transform="translate(-9 -1)">
    <path id="Path_302" data-name="Path 302" d="M28.446,15.167a7.555,7.555,0,1,0-7.3,0A15.822,15.822,0,0,0,9,30.534v13.05H40.595V30.534A15.822,15.822,0,0,0,28.446,15.167Zm-9.83-6.612A6.182,6.182,0,1,1,24.8,14.737,6.189,6.189,0,0,1,18.616,8.555ZM39.221,42.211H36.474V24.353H35.1V42.211H14.495V24.353H13.121V42.211H10.374V30.534a14.424,14.424,0,0,1,28.847,0Z" fill="#fff"/>
    <path id="Path_303" data-name="Path 303" d="M30.676,32.136a3.376,3.376,0,0,0-1.58,4.846l.971,1.618a3.114,3.114,0,0,0,5.34,0l.971-1.618a3.376,3.376,0,0,0-1.58-4.846V29.121H33.369a4.8,4.8,0,0,0-9.561.687v4.065l-2.506-2H19v1.374h1.819l2.988,2.391v3.1H22.8l-1.374-2.061H19V38.05h1.693l1.374,2.061h1.741v1.745L19,45.976v2.376h1.374V46.608l4.085-3.5L26.2,44.844l-2.389,1.791v1.717h1.374v-1.03l2.2-1.653,7.232,1.973,2.24.024V46.292H34.889l-2.309-.63,2.471-2.118h1.806V42.171H34.543L30.98,45.226,27.6,44.3l-2.418-2.418V38.05h1.374V36.676H25.182V29.808a3.434,3.434,0,0,1,6.8-.687h-1.3Zm2.747-.267H32.05V30.495h1.374Zm2.061,3.376a2,2,0,0,1-.285,1.03l-.971,1.618a1.74,1.74,0,0,1-2.984,0l-.971-1.618a2,2,0,0,1,1.717-3.033h1.49A2,2,0,0,1,35.484,35.244Z" transform="translate(-3.132 -7.516)" fill="#fff"/>
    <path id="Path_304" data-name="Path 304" d="M38.125,38.78l-.918-.612-.762,1.143.918.612a1.877,1.877,0,0,1,.837,1.564h1.374a3.245,3.245,0,0,0-1.449-2.707Z" transform="translate(-8.595 -11.639)" fill="#fff"/>
  </g>
</svg>
