<svg xmlns="http://www.w3.org/2000/svg" width="41.929" height="41.357" viewBox="0 0 41.929 41.357">
  <g id="Outline" transform="translate(-16 -16.244)">
    <path id="Path_281" data-name="Path 281" d="M376.436,371.2a6.238,6.238,0,0,1-4.965,2.483h-2.759a.69.69,0,0,0-.513.228l-2.439,2.71,1.025.922,2.234-2.481h2.451a7.623,7.623,0,0,0,6.069-3.034Z" transform="translate(-319.61 -324.358)" fill="#fff"/>
    <path id="Path_282" data-name="Path 282" d="M43.236,55.5a2.171,2.171,0,0,1-1.573.72A2.215,2.215,0,0,1,39.448,54V53.96a2.174,2.174,0,0,1,.637-1.537L40.1,52.4l6.039-6.039-.975-.975-6.04,6.04a2.239,2.239,0,0,1-2.015.613,2.155,2.155,0,0,1-.841-.356,2.238,2.238,0,0,1-.308-3.419L42,42.227l-.975-.975-6.073,6.072a2.123,2.123,0,0,1-1.5.622h0a2.3,2.3,0,0,1-1.57-.6,2.231,2.231,0,0,1-.346-2.861l5.028-4.9a4.137,4.137,0,0,0,.811.08h7.966l1.188,1.336a14.522,14.522,0,0,0,10.846,4.87V44.5a13.142,13.142,0,0,1-9.815-4.407l-1.394-1.568a.69.69,0,0,0-.515-.231H37.433a2.8,2.8,0,0,1-2.813-2.806,2.762,2.762,0,0,1,2.758-2.711h13.1V31.395h-5.5l4.958-4.827h7.436V25.188h-6.02L54.22,22.4a3.586,3.586,0,0,0-3.789-5.925c-1.454.571-2.353,2-3.517,3.043l.873,1.057a14.028,14.028,0,0,0,1.721-1.77,3.391,3.391,0,0,1,2.1-1.2,2.183,2.183,0,0,1,1.862.863,2.252,2.252,0,0,1-.213,2.942L43.007,31.395H37.378a4.163,4.163,0,0,0-.426.022l9.8-9.8-.975-.975-4.547,4.547H36.1a7.537,7.537,0,0,0-5.364,2.222l-1.377,1.377.975.975,1.377-1.377A6.208,6.208,0,0,1,36.1,26.567h3.754L34.822,31.6l-7.55,7.55a2.3,2.3,0,0,1-1.638.691,2.23,2.23,0,0,1-1.761-.884,2.193,2.193,0,0,1-.434-1.051,2.23,2.23,0,0,1,.635-1.883L29.1,30.99l-.975-.975L23.1,35.045a3.615,3.615,0,0,0,2.129,6.146L16.2,50.217a.69.69,0,0,0-.2.488v6.207a.69.69,0,0,0,.688.69,12.264,12.264,0,0,0,8.731-3.616L28.9,50.5a.69.69,0,0,0,.2-.488V46.857l.718-.7a3.614,3.614,0,0,0,3.587,3.167h.561a3.612,3.612,0,0,0,4.14,4.093,3.6,3.6,0,0,0-.041.541v.021a3.6,3.6,0,0,0,3.491,3.62,3.55,3.55,0,0,0,2.7-1.175L46.353,54.1l-1.025-.922Zm-15.3-9.429a.69.69,0,0,0-.209.494v3.163L24.443,53.01a10.885,10.885,0,0,1-7.064,3.19V50.99L33.263,35.107a4.136,4.136,0,0,0,1.905,3.921Z" fill="#fff"/>
    <rect id="Rectangle_1238" data-name="Rectangle 1238" width="1.379" height="1.951" transform="translate(46.546 23.607) rotate(-45)" fill="#fff"/>
    <rect id="Rectangle_1239" data-name="Rectangle 1239" width="1.379" height="1.951" transform="translate(44.477 25.676) rotate(-45)" fill="#fff"/>
    <rect id="Rectangle_1240" data-name="Rectangle 1240" width="1.379" height="1.951" transform="translate(48.615 21.538) rotate(-45)" fill="#fff"/>
    <rect id="Rectangle_1241" data-name="Rectangle 1241" width="1.379" height="1.951" transform="translate(42.408 27.744) rotate(-45)" fill="#fff"/>
    <rect id="Rectangle_1242" data-name="Rectangle 1242" width="1.379" height="1.951" transform="translate(40.339 29.813) rotate(-45)" fill="#fff"/>
    <rect id="Rectangle_1243" data-name="Rectangle 1243" width="1.379" height="1.951" transform="translate(31.374 38.778) rotate(-45)" fill="#fff"/>
    <rect id="Rectangle_1244" data-name="Rectangle 1244" width="1.379" height="1.951" transform="translate(29.305 40.847) rotate(-45)" fill="#fff"/>
    <path id="Path_283" data-name="Path 283" d="M48.945,381.37a10.1,10.1,0,0,1-3.474,1.99l.436,1.309a11.471,11.471,0,0,0,3.946-2.261l3.876-3.391-.908-1.038Z" transform="translate(-26.931 -330.552)" fill="#fff"/>
  </g>
</svg>
