<svg xmlns="http://www.w3.org/2000/svg" width="23.235" height="38.389" viewBox="0 0 23.235 38.389">
  <path id="spine" d="M124.224,33.11l-.446-1.538a1.566,1.566,0,0,0-2.3-.915,7.538,7.538,0,0,1-1.687.729,1.311,1.311,0,0,0-1-1.131,2.274,2.274,0,0,0,.244-1,2.049,2.049,0,0,0-.294-1.06,1.312,1.312,0,0,0,.727-1.469l-.2-.932.483-.283a5.527,5.527,0,0,1,2.6-.753,1.631,1.631,0,0,0,1.511-2.085l-.329-1.136a1.632,1.632,0,0,0-2.392-.953,6.312,6.312,0,0,1-1.653.676,1.306,1.306,0,0,0-1.041-1.084,2.274,2.274,0,0,0,.24-.994,2.048,2.048,0,0,0-.268-1.015,1.16,1.16,0,0,0,.719-1.334l-.244-1.112a6.179,6.179,0,0,1,2.241-.5,1.463,1.463,0,0,0,1.154-.61,1.378,1.378,0,0,0,.2-1.213l-.4-1.316a1.43,1.43,0,0,0-.842-.908,1.5,1.5,0,0,0-1.292.08,6.91,6.91,0,0,1-.853.4l.036-.164a1.16,1.16,0,0,0-.667-1.312,2.272,2.272,0,0,0,.281-1.067,2.05,2.05,0,0,0-.384-1.2,1.246,1.246,0,0,0,.207-.2,1.231,1.231,0,0,0,.244-1.041l-.324-1.473a5.4,5.4,0,0,1,2.01-.461,1.406,1.406,0,0,0,1.3-1.8l-.375-1.294A1.406,1.406,0,0,0,119.365.82q-.259.152-.532.278A1.238,1.238,0,0,0,117.6,0h-2.064a.562.562,0,0,0,0,1.125H117.6a.113.113,0,0,1,.11.137l-.364,1.657a5.473,5.473,0,0,0,0,2.333l.364,1.657a.113.113,0,0,1-.11.137h-9.868a.113.113,0,0,1-.11-.137l.364-1.657a5.473,5.473,0,0,0,0-2.333l-.364-1.657a.113.113,0,0,1,.11-.137h5.175a.562.562,0,1,0,0-1.125h-5.175a1.237,1.237,0,0,0-1.229,1.1c-.181-.084-.359-.176-.532-.277a1.406,1.406,0,0,0-2.061.821l-.375,1.294a1.406,1.406,0,0,0,1.3,1.8,5.4,5.4,0,0,1,2.011.462l-.324,1.473a1.235,1.235,0,0,0,.451,1.244,2.05,2.05,0,0,0-.384,1.2,2.251,2.251,0,0,0,.281,1.067,1.16,1.16,0,0,0-.667,1.312l.036.164a6.9,6.9,0,0,1-.853-.4,1.5,1.5,0,0,0-1.292-.08,1.43,1.43,0,0,0-.842.909l-.4,1.316a1.378,1.378,0,0,0,.2,1.213,1.463,1.463,0,0,0,1.154.61,6.176,6.176,0,0,1,2.241.5l-.244,1.112a1.16,1.16,0,0,0,.719,1.334,2.049,2.049,0,0,0-.268,1.015,2.251,2.251,0,0,0,.24.994,1.306,1.306,0,0,0-1.041,1.084,6.318,6.318,0,0,1-1.653-.676,1.632,1.632,0,0,0-2.392.953l-.329,1.136a1.631,1.631,0,0,0,1.511,2.085,5.527,5.527,0,0,1,2.6.753l.483.283-.2.932a1.312,1.312,0,0,0,.727,1.469,2.049,2.049,0,0,0-.294,1.06,2.252,2.252,0,0,0,.244,1,1.311,1.311,0,0,0-1,1.131,7.538,7.538,0,0,1-1.687-.729,1.566,1.566,0,0,0-2.3.915l-.446,1.538a1.566,1.566,0,0,0,1.45,2,6.6,6.6,0,0,1,3.1.9l.06.035-.161.758a1.312,1.312,0,0,0,1.283,1.585H109.2a.562.562,0,1,0,0-1.125h-2.349a.187.187,0,0,1-.183-.227l.375-1.76a4.646,4.646,0,0,0,0-1.947l-.375-1.76a.187.187,0,0,1,.183-.227h11.644a.187.187,0,0,1,.183.227l-.375,1.76a4.647,4.647,0,0,0,0,1.947l.375,1.76a.187.187,0,0,1-.183.227h-6.673a.562.562,0,1,0,0,1.125h6.673a1.312,1.312,0,0,0,1.283-1.585l-.161-.758.06-.035a6.6,6.6,0,0,1,3.1-.9,1.566,1.566,0,0,0,1.45-2ZM108.366,30.22a.976.976,0,0,1-.937-.968.938.938,0,0,1,.937-.937h3.752a.562.562,0,0,0,0-1.125h-4.965a.187.187,0,0,1-.183-.228l.314-1.436a6.109,6.109,0,0,0,0-2.593L106.97,21.5a.187.187,0,0,1,.183-.228h11.033a.187.187,0,0,1,.183.228l-.314,1.436a6.11,6.11,0,0,0,0,2.593l.314,1.436a.187.187,0,0,1-.183.228h-3.441a.562.562,0,0,0,0,1.125h2.228a.938.938,0,0,1,.937.937.975.975,0,0,1-.937.968Zm-.583-11.011a.975.975,0,0,1,.937-.968h7.9a.938.938,0,0,1,.937.937.975.975,0,0,1-.937.968h-7.9A.938.938,0,0,1,107.783,19.21Zm-.441-2.092a.038.038,0,0,1-.037-.046l.246-1.119a8.417,8.417,0,0,0,0-3.59l-.246-1.119a.034.034,0,0,1,.007-.031.035.035,0,0,1,.029-.014h3.631a.562.562,0,1,0,0-1.125h-2.318a.976.976,0,0,1-.937-.968.938.938,0,0,1,.937-.937h8.027a.938.938,0,0,1,.937.937.975.975,0,0,1-.937.968h-3.077a.562.562,0,0,0,0,1.125H118a.038.038,0,0,1,.037.046l-.246,1.119a8.417,8.417,0,0,0,0,3.59l.246,1.119a.034.034,0,0,1-.007.031.035.035,0,0,1-.029.014ZM121.7,21.551a.507.507,0,0,1,.743.3l.329,1.136a.507.507,0,0,1-.469.648,6.657,6.657,0,0,0-3.128.907l-.122.071a4.971,4.971,0,0,1,.1-1.434l.159-.728a7.431,7.431,0,0,0,2.39-.9Zm-1.207-9.32a.376.376,0,0,1,.324-.019.311.311,0,0,1,.186.193l.4,1.316a.256.256,0,0,1-.04.23.348.348,0,0,1-.276.14,7.319,7.319,0,0,0-2.362.477,7.3,7.3,0,0,1,.093-1.639A8.065,8.065,0,0,0,120.5,12.231ZM119.933,1.79a.281.281,0,0,1,.412.164l.375,1.294a.281.281,0,0,1-.26.359,6.517,6.517,0,0,0-2.111.426,4.312,4.312,0,0,1,.1-.874l.167-.762a7.4,7.4,0,0,0,1.318-.607Zm-15.272,1.7a.277.277,0,0,1-.042-.243l.375-1.294a.281.281,0,0,1,.412-.164,7.4,7.4,0,0,0,1.318.607l.167.762a4.311,4.311,0,0,1,.1.874,6.519,6.519,0,0,0-2.111-.426A.276.276,0,0,1,104.661,3.491Zm-.69,10.46a.256.256,0,0,1-.04-.23l.4-1.316a.311.311,0,0,1,.186-.193.376.376,0,0,1,.324.019,8.063,8.063,0,0,0,1.673.7,7.3,7.3,0,0,1,.093,1.639,7.321,7.321,0,0,0-2.362-.477A.348.348,0,0,1,103.971,13.951Zm-.938,9.68a.507.507,0,0,1-.469-.648l.329-1.136a.507.507,0,0,1,.743-.3,7.43,7.43,0,0,0,2.39.9l.159.728a4.972,4.972,0,0,1,.1,1.434l-.122-.071a6.657,6.657,0,0,0-3.128-.907ZM102.6,33.987a.441.441,0,0,1-.409-.564l.446-1.538a.441.441,0,0,1,.647-.258,8.662,8.662,0,0,0,2.445.97l.206.969a3.524,3.524,0,0,1,.028,1.326,7.727,7.727,0,0,0-3.364-.9Zm20.474-.182a.439.439,0,0,1-.342.182,7.727,7.727,0,0,0-3.364.9,3.524,3.524,0,0,1,.028-1.326l.206-.969a8.658,8.658,0,0,0,2.445-.97.441.441,0,0,1,.647.258l.446,1.538a.438.438,0,0,1-.066.382Z" transform="translate(-101.052 0)" fill="#fff"/>
</svg>
