<svg xmlns="http://www.w3.org/2000/svg" width="41.353" height="41.353" viewBox="0 0 41.353 41.353">
  <g id="stomach" transform="translate(0)">
    <g id="Group_531" data-name="Group 531" transform="translate(0)">
      <g id="Group_530" data-name="Group 530" transform="translate(0)">
        <path id="Path_275" data-name="Path 275" d="M25.5,0V9.649A13.8,13.8,0,0,1,11.717,23.433H6.272a1.6,1.6,0,0,1-.956-.318l-.56-.424a2.984,2.984,0,0,0-3.882.276A2.95,2.95,0,0,0,0,25.067V41.353H1.378V25.067a1.593,1.593,0,0,1,2.548-1.274l.566.425a2.989,2.989,0,0,0,1.78.594h5.445A15.18,15.18,0,0,0,26.879,9.649V0Z" transform="translate(0)" fill="#fff"/>
      </g>
    </g>
    <g id="Group_533" data-name="Group 533" transform="translate(5.514)">
      <g id="Group_532" data-name="Group 532">
        <path id="Path_276" data-name="Path 276" d="M93.888,6.9a6.18,6.18,0,0,0-3.009.644V0H89.5V8.794a.689.689,0,0,0,1.121.538,4.851,4.851,0,0,1,3.212-1.058c2.766.111,4.627,3.433,4.627,8.267V18.9A19.028,19.028,0,0,1,79.453,37.907a13.991,13.991,0,0,1-11.663-6.244A2.068,2.068,0,0,0,64,32.81v8.543h1.378V32.806a.689.689,0,0,1,1.263-.382,15.369,15.369,0,0,0,12.812,6.86A20.409,20.409,0,0,0,99.839,18.9V16.541C99.839,10.914,97.447,7.039,93.888,6.9Z" transform="translate(-64)" fill="#fff"/>
      </g>
    </g>
    <g id="Group_535" data-name="Group 535" transform="translate(28.258 27.568)">
      <g id="Group_534" data-name="Group 534">
        <path id="Path_277" data-name="Path 277" d="M330.068,320a2.068,2.068,0,1,0,2.068,2.068A2.068,2.068,0,0,0,330.068,320Zm0,2.757a.689.689,0,1,1,.689-.689A.689.689,0,0,1,330.068,322.757Z" transform="translate(-328 -320)" fill="#fff"/>
      </g>
    </g>
    <g id="Group_537" data-name="Group 537" transform="translate(15.852 31.704)">
      <g id="Group_536" data-name="Group 536">
        <path id="Path_278" data-name="Path 278" d="M186.068,368a2.068,2.068,0,1,0,2.068,2.068A2.068,2.068,0,0,0,186.068,368Zm0,2.757a.689.689,0,1,1,.689-.689A.689.689,0,0,1,186.068,370.757Z" transform="translate(-184 -368)" fill="#fff"/>
      </g>
    </g>
    <g id="Group_539" data-name="Group 539" transform="translate(20.676 22.744)">
      <g id="Group_538" data-name="Group 538">
        <path id="Path_279" data-name="Path 279" d="M250.338,264a.689.689,0,0,0-.689.689.689.689,0,0,1-1.378,0,.689.689,0,0,0-.689-.689H240v1.378h7.01a2.068,2.068,0,0,0,3.9,0h7.01V264Z" transform="translate(-240 -264)" fill="#fff"/>
      </g>
    </g>
    <g id="Group_541" data-name="Group 541" transform="translate(22.718 32.924)">
      <g id="Group_540" data-name="Group 540" transform="translate(0 0)">
        <rect id="Rectangle_1234" data-name="Rectangle 1234" width="1.317" height="1.646" fill="#fff"/>
      </g>
    </g>
    <g id="Group_543" data-name="Group 543" transform="translate(11.853 28.973)">
      <g id="Group_542" data-name="Group 542" transform="translate(0 0)">
        <rect id="Rectangle_1235" data-name="Rectangle 1235" width="1.317" height="1.317" fill="#fff"/>
      </g>
    </g>
    <g id="Group_545" data-name="Group 545" transform="translate(17.12 24.693)">
      <g id="Group_544" data-name="Group 544" transform="translate(0 0)">
        <rect id="Rectangle_1236" data-name="Rectangle 1236" width="1.646" height="1.646" fill="#fff"/>
      </g>
    </g>
    <g id="Group_547" data-name="Group 547" transform="translate(21.365 25.501)">
      <g id="Group_546" data-name="Group 546">
        <path id="Path_280" data-name="Path 280" d="M250.068,296a2.068,2.068,0,1,0,2.068,2.068A2.068,2.068,0,0,0,250.068,296Zm0,2.757a.689.689,0,1,1,.689-.689A.689.689,0,0,1,250.068,298.757Z" transform="translate(-248 -296)" fill="#fff"/>
      </g>
    </g>
    <g id="Group_549" data-name="Group 549" transform="translate(35.229 25.351)">
      <g id="Group_548" data-name="Group 548" transform="translate(0 0)">
        <rect id="Rectangle_1237" data-name="Rectangle 1237" width="1.317" height="1.646" fill="#fff"/>
      </g>
    </g>
  </g>
</svg>
