<svg xmlns="http://www.w3.org/2000/svg" width="51.041" height="45.661" viewBox="0 0 51.041 45.661">
  <g id="fever" transform="translate(0 -26.986)">
    <path id="Path_205" data-name="Path 205" d="M46.106,44.3H45.017A11.958,11.958,0,0,0,34.436,33.956a4.14,4.14,0,0,0,.538-2.089,4.88,4.88,0,0,0-4.881-4.881h-3.03a10.072,10.072,0,0,0-7.65,3.514l-2.984,3.475A11.959,11.959,0,0,0,6.024,44.3H4.936A4.941,4.941,0,0,0,0,49.233v1.935a4.948,4.948,0,0,0,2.9,4.5A.748.748,0,1,0,3.518,54.3,3.45,3.45,0,0,1,1.5,51.168V49.233a3.444,3.444,0,0,1,3.44-3.44h.991c0,.023,0,3.48,0,3.521a4.994,4.994,0,0,0-1.392-.841.748.748,0,0,0-.513,1.4,2.953,2.953,0,0,1,1.9,2.618v3.076A13.121,13.121,0,0,0,19.033,68.676h8.382l.334.9a1.865,1.865,0,0,0,2.338,1.116l.628,1.495a.748.748,0,0,0,1.379-.579L31.459,70.1a1.854,1.854,0,0,0,.775-2.232l-2-5.405a.754.754,0,0,0-.457-.447,14.727,14.727,0,0,0-8.961.172.748.748,0,1,0,.583,1.377,10.936,10.936,0,0,1,3.877-.67l1.587,4.286H19.033A11.624,11.624,0,0,1,7.422,55.571V45.824a10.451,10.451,0,0,1,10.44-10.439H33.18a10.451,10.451,0,0,1,10.44,10.439v9.748a11.591,11.591,0,0,1-8.77,11.26.748.748,0,0,0,.365,1.45A13.083,13.083,0,0,0,45.1,56.1h1a4.941,4.941,0,0,0,4.936-4.936V49.233A4.941,4.941,0,0,0,46.106,44.3ZM30.631,68.852l-1,.417c-.146.025-.283.1-.484-.21l-2.26-6.1a10.665,10.665,0,0,1,2.067.371l1.874,5.063a.365.365,0,0,1-.2.464ZM20.548,31.475a8.579,8.579,0,0,1,6.516-2.993h3.03a3.384,3.384,0,0,1,3.385,3.385A2.681,2.681,0,0,1,32.6,33.89H24.572A16.2,16.2,0,0,1,28.006,31.9a.748.748,0,0,0-.577-1.38,19.917,19.917,0,0,0-2.106,1.062,9.346,9.346,0,0,0-2.839,2.307h-4.01Zm29,19.693a3.444,3.444,0,0,1-3.44,3.44h-.991V52.5a2.953,2.953,0,0,1,1.9-2.618.748.748,0,0,0-.513-1.4,4.993,4.993,0,0,0-1.392.841c0-.042,0-3.464,0-3.521h.991a3.444,3.444,0,0,1,3.44,3.44Z" fill="#fff"/>
    <path id="Path_206" data-name="Path 206" d="M121.529,262.663a2.121,2.121,0,1,1-4.242,0,.748.748,0,1,0-1.5,0,3.616,3.616,0,1,0,7.233,0,.748.748,0,1,0-1.5,0Z" transform="translate(-104.249 -211.509)" fill="#fff"/>
    <path id="Path_207" data-name="Path 207" d="M327.272,266.278a3.621,3.621,0,0,0,3.616-3.616.748.748,0,1,0-1.5,0,2.121,2.121,0,1,1-4.242,0,.748.748,0,1,0-1.5,0A3.62,3.62,0,0,0,327.272,266.278Z" transform="translate(-291.391 -211.508)" fill="#fff"/>
    <path id="Path_208" data-name="Path 208" d="M235.238,272.067a2.166,2.166,0,0,0-2.164,2.164v1.9a2.166,2.166,0,0,0,2.164,2.164h.243a2.166,2.166,0,0,0,2.164-2.164v-1.9a2.166,2.166,0,0,0-2.164-2.164Zm.912,2.164v1.9a.669.669,0,0,1-.669.669h-.243a.669.669,0,0,1-.669-.669v-1.9a.669.669,0,0,1,.669-.669h.243A.669.669,0,0,1,236.15,274.231Z" transform="translate(-209.839 -220.649)" fill="#fff"/>
    <path id="Path_209" data-name="Path 209" d="M166.785,136.814v-7.2a2.288,2.288,0,0,0-2.285-2.285H152.2a.748.748,0,1,0,0,1.5h12.3a.791.791,0,0,1,.79.79v7.2a.791.791,0,0,1-.79.79H146.853a.791.791,0,0,1-.79-.79v-7.2a.791.791,0,0,1,.79-.79h1.815a.748.748,0,1,0,0-1.5h-1.815a2.288,2.288,0,0,0-2.285,2.285v7.2a2.288,2.288,0,0,0,2.285,2.285H164.5A2.288,2.288,0,0,0,166.785,136.814Z" transform="translate(-130.156 -90.338)" fill="#fff"/>
    <path id="Path_210" data-name="Path 210" d="M222.49,163.119a.748.748,0,0,0,.748-.748v-4.3a.748.748,0,0,0-.748-.748h-6.663a.748.748,0,0,0-.748.748v4.3a.748.748,0,0,0,.748.748Zm-5.916-4.3h5.168v2.8h-5.168Z" transform="translate(-193.638 -117.348)" fill="#fff"/>
  </g>
</svg>
