<svg xmlns="http://www.w3.org/2000/svg" width="41.416" height="46.757" viewBox="0 0 41.416 46.757">
  <g id="heart_2_" data-name="heart (2)" transform="translate(-5.996 -1.994)">
    <path id="Path_284" data-name="Path 284" d="M53.344,34.675a.668.668,0,0,1-.668-.646,22.428,22.428,0,0,0-.415-3.619,24.071,24.071,0,0,0-1.372-4.559c-.037-.091-.051-.127-.063-.162-.079-.193-.18-.42-.287-.641a12.95,12.95,0,0,0-1.171-2,15.146,15.146,0,0,0-1.5-1.79,6.513,6.513,0,0,0-4.208-2.253.668.668,0,1,1,.007-1.336h.007a7.46,7.46,0,0,1,5.143,2.653,16.363,16.363,0,0,1,1.633,1.946,14.18,14.18,0,0,1,1.291,2.2c.117.241.23.5.334.756.035.089.049.124.061.16a25.146,25.146,0,0,1,1.431,4.766,23.8,23.8,0,0,1,.445,3.831.668.668,0,0,1-.646.689Z" transform="translate(-12.287 -5.206)" fill="#fff"/>
    <path id="Path_285" data-name="Path 285" d="M52.968,61.928a.668.668,0,0,1-.578-1c.307-.534.605-1.1.886-1.681a.668.668,0,1,1,1.2.582c-.3.61-.609,1.2-.931,1.765a.668.668,0,0,1-.579.336Z" transform="translate(-15.378 -18.888)" fill="#fff"/>
    <path id="Path_286" data-name="Path 286" d="M33.625,56.015c-.118,0-.236,0-.355-.014a19.845,19.845,0,0,1-6.813-1.8c-6.332-2.98-9.952-8.8-11.543-12.01a23.534,23.534,0,0,1-1.041-2.387c-2.091-4.88-1.975-8.883.359-11.848a10.553,10.553,0,0,1,4.635-3.246.668.668,0,1,1,.462,1.253,9.393,9.393,0,0,0-4.048,2.82c-2.008,2.553-2.064,6.1-.164,10.537a23.3,23.3,0,0,0,.994,2.279c1.515,3.049,4.948,8.586,10.913,11.392a18.5,18.5,0,0,0,6.355,1.675,3.48,3.48,0,0,0,2.573-.893c.169-.15.348-.331.54-.534a.668.668,0,1,1,.974.914c-.222.237-.43.444-.624.616a4.841,4.841,0,0,1-3.217,1.242Z" transform="translate(-2.123 -7.531)" fill="#fff"/>
    <path id="Path_287" data-name="Path 287" d="M56.849,52.474a.69.69,0,0,1-.182-.025.668.668,0,0,1-.461-.825c.186-.657.34-1.327.46-1.993a.668.668,0,0,1,1.315.235c-.127.709-.292,1.423-.489,2.121a.668.668,0,0,1-.643.487Z" transform="translate(-16.666 -15.637)" fill="#fff"/>
    <path id="Path_288" data-name="Path 288" d="M32.177,33.194a.668.668,0,0,1-.608-.945,6.3,6.3,0,0,0,.047-4.728,6.946,6.946,0,0,1,.029-6.137,30.329,30.329,0,0,1,6.493-8.851,1.937,1.937,0,0,0,.683-1.561,1.837,1.837,0,0,0-.774-1.421,1.924,1.924,0,0,0-2.316-.014,25.492,25.492,0,0,0-7.7,9.268,6.117,6.117,0,0,1-3.285,3.266,2.633,2.633,0,0,0-.639.55c-.315.317-.747.751-1.411,1.308a.668.668,0,0,1-.859-1.023c.618-.52,1.009-.912,1.324-1.228a3.266,3.266,0,0,1,1.1-.85,4.8,4.8,0,0,0,2.551-2.577,26.85,26.85,0,0,1,8.113-9.779,3.235,3.235,0,0,1,3.846-.045,3.2,3.2,0,0,1,1.384,2.485,3.265,3.265,0,0,1-1.146,2.637A29.023,29.023,0,0,0,32.834,22a5.622,5.622,0,0,0-.006,4.964,7.563,7.563,0,0,1-.043,5.845A.668.668,0,0,1,32.177,33.194Z" transform="translate(-5.185 -1.934)" fill="#fff"/>
    <path id="Path_289" data-name="Path 289" d="M23.344,19.7h-.059a5.9,5.9,0,0,1-4.321-2.107A7.024,7.024,0,0,1,17.69,12.88L15.7,10.573a1.16,1.16,0,0,1,.126-1.642l.906-.773a1.155,1.155,0,0,1,1.451-.046L19.959,9.44l.935-.857L19.8,6.888a1.159,1.159,0,0,1,.3-1.578l1.348-.959a1.162,1.162,0,0,1,1.656.327L24.168,6.36l.935-.478-.619-1.9a1.162,1.162,0,0,1,.78-1.477l1.6-.468a1.159,1.159,0,0,1,1.4.668l1.02,2.467a3.77,3.77,0,0,1,3.865,2.231.668.668,0,0,1-1.236.506A2.452,2.452,0,0,0,29,6.567a.668.668,0,0,1-.751-.4l-1.157-2.8-1.276.371.741,2.271a.668.668,0,0,1-.334.8L24.229,7.83a.668.668,0,0,1-.868-.239L22.078,5.547l-1.06.756,1.311,2.028a.668.668,0,0,1-.11.856L20.455,10.8a.668.668,0,0,1-.852.041L17.5,9.262l-.668.57,2.059,2.392a.668.668,0,0,1,.154.534,5.922,5.922,0,0,0,.974,4.012,4.625,4.625,0,0,0,3.384,1.6.669.669,0,1,1-.057,1.336Z" transform="translate(-3.131)" fill="#fff"/>
    <path id="Path_290" data-name="Path 290" d="M12.63,26.793a.693.693,0,0,1-.134-.013c-3.658-.731-5.664-3.93-6.358-5.273a1.3,1.3,0,0,1,.284-1.553l1.9-1.72a1.306,1.306,0,0,1,1.751.007,13.511,13.511,0,0,0,5.906,2.764.668.668,0,1,1-.255,1.311,14.641,14.641,0,0,1-6.54-3.081L7.32,20.945c.61,1.119,2.349,3.9,5.441,4.525a.668.668,0,0,1-.134,1.322Z" transform="translate(0 -5.283)" fill="#fff"/>
    <path id="Path_291" data-name="Path 291" d="M42.514,32.246a.664.664,0,0,1-.5-.224c-1.608-1.8-4.465-1.964-5.3-1.969a.668.668,0,1,1,0-1.336h0c1.252.008,4.37.26,6.292,2.416a.668.668,0,0,1-.5,1.112Z" transform="translate(-9.98 -8.875)" fill="#fff"/>
    <path id="Path_292" data-name="Path 292" d="M20.006,61.8h-2.33a1.62,1.62,0,0,1-1.618-1.618V50.131a.668.668,0,1,1,1.336,0V60.183a.283.283,0,0,0,.283.283h2.33a.283.283,0,0,0,.283-.283V56.465a.668.668,0,1,1,1.336,0v3.718A1.62,1.62,0,0,1,20.006,61.8Z" transform="translate(-3.341 -15.764)" fill="#fff"/>
    <path id="Path_293" data-name="Path 293" d="M30.752,69.21h-1.79a1.62,1.62,0,0,1-1.618-1.618V64.268a.668.668,0,1,1,1.336,0v3.327a.283.283,0,0,0,.283.283h1.79a.283.283,0,0,0,.283-.283V66.526a.668.668,0,0,1,1.336,0v1.069A1.62,1.62,0,0,1,30.752,69.21Z" transform="translate(-7.09 -20.459)" fill="#fff"/>
    <path id="Path_294" data-name="Path 294" d="M53.464,24.9a.668.668,0,0,1-.411-1.195L57.3,20.4a.891.891,0,0,0,.163-1.236l-1.049-1.391a.89.89,0,0,0-1.254-.164l-4.08,3.183a.668.668,0,0,1-.822-1.053l4.08-3.183a2.223,2.223,0,0,1,3.139.412l1.052,1.391a2.233,2.233,0,0,1-.408,3.1l-4.245,3.3a.668.668,0,0,1-.409.141Z" transform="translate(-14.613 -4.68)" fill="#fff"/>
    <path id="Path_295" data-name="Path 295" d="M56.813,34.093a.668.668,0,0,1-.111-1.326l4.82-.815a.89.89,0,0,0,.729-1.016l-.275-1.721a.888.888,0,0,0-1.025-.735l-5.438.916a.668.668,0,0,1-.222-1.318l5.439-.916A2.223,2.223,0,0,1,63.294,29l.276,1.721a2.229,2.229,0,0,1-1.825,2.544l-4.82.816A.646.646,0,0,1,56.813,34.093Z" transform="translate(-16.186 -8.348)" fill="#fff"/>
    <path id="Path_296" data-name="Path 296" d="M26.927,44.942a.668.668,0,0,1-.627-.9,4.148,4.148,0,0,0-.637-3.361,4.764,4.764,0,0,1-1.055-3.663,4.1,4.1,0,0,1,1.619-2.516.653.653,0,0,1,.1-.056c1.616-.71,1.64-1.763,1.64-1.807a.675.675,0,0,1,.657-.673.657.657,0,0,1,.679.634c0,.08.047,1.943-2.37,3.038a2.772,2.772,0,0,0-1.008,1.631,3.515,3.515,0,0,0,.826,2.63,5.436,5.436,0,0,1,.809,4.6.668.668,0,0,1-.633.44Z" transform="translate(-6.167 -9.955)" fill="#fff"/>
    <path id="Path_297" data-name="Path 297" d="M31.048,48.051a.668.668,0,0,1-.664-.6c-.156-1.594-3.206-1.827-3.236-1.829a.669.669,0,1,1,.08-1.336c.172.01,4.217.281,4.485,3.033a.668.668,0,0,1-.6.729A.493.493,0,0,1,31.048,48.051Z" transform="translate(-6.816 -14.044)" fill="#fff"/>
    <path id="Path_298" data-name="Path 298" d="M22.1,44.824a.668.668,0,0,1-.661-.584,4.65,4.65,0,0,1,.685-2.919,8.178,8.178,0,0,1,1.833-2.992.668.668,0,1,1,.678,1.152,11.836,11.836,0,0,0-1.312,2.435.712.712,0,0,1-.067.122,3.3,3.3,0,0,0-.488,2.04.668.668,0,0,1-.583.742A.677.677,0,0,1,22.1,44.824Z" transform="translate(-5.122 -12.036)" fill="#fff"/>
    <path id="Path_299" data-name="Path 299" d="M46.376,53.371h-.049a.668.668,0,0,1-.618-.715c.079-1.081-.509-1.4-.514-1.4a9.416,9.416,0,0,1-.817-.552,3.746,3.746,0,0,1-1.5-3.015,3.673,3.673,0,0,1,1.464-2.964l.053-.04a2.24,2.24,0,0,0,.468-.45,2.8,2.8,0,0,0,.206-3,3.486,3.486,0,0,1-.41-2.774.669.669,0,0,1,1.269.427,2.152,2.152,0,0,0,.289,1.658,4.126,4.126,0,0,1-.285,4.492,3.54,3.54,0,0,1-.745.722,2.376,2.376,0,0,0-.974,1.928,2.423,2.423,0,0,0,.97,1.95c.2.153.425.308.658.451a2.661,2.661,0,0,1,1.2,2.672A.668.668,0,0,1,46.376,53.371Z" transform="translate(-12.248 -11.958)" fill="#fff"/>
    <path id="Path_300" data-name="Path 300" d="M42.926,58.335a.668.668,0,0,1-.55-.289,6.244,6.244,0,0,1,.334-8.175.668.668,0,0,1,.925.964c-.113.11-2.725,2.722-.158,6.454a.668.668,0,0,1-.172.928.66.66,0,0,1-.379.118Z" transform="translate(-11.631 -15.838)" fill="#fff"/>
    <path id="Path_301" data-name="Path 301" d="M38.029,55.3a.668.668,0,0,1-.639-.48,4.567,4.567,0,0,1,.468-3.293,6.635,6.635,0,0,1,4.332-2.9.668.668,0,1,1,.343,1.291,5.4,5.4,0,0,0-3.5,2.243,3.2,3.2,0,0,0-.355,2.288.668.668,0,0,1-.645.848Z" transform="translate(-10.386 -15.481)" fill="#fff"/>
  </g>
</svg>
