<svg xmlns="http://www.w3.org/2000/svg" width="35.595" height="44.409" viewBox="0 0 35.595 44.409">
  <g id="heart" transform="translate(-5.941 0.001)">
    <path id="Path_214" data-name="Path 214" d="M40.131,19.414l-.261-.061.182-.2a1.823,1.823,0,0,0-.088-2.57l-.595-.555a1.821,1.821,0,0,0-2.57.088L34.99,18.06a14.868,14.868,0,0,0-4.515-4.178,5.486,5.486,0,0,0,1.786-.563h4.083a2.966,2.966,0,1,0,0-5.933H31.9A4.774,4.774,0,0,0,29.847,7a.371.371,0,0,1-.343-.257,10.591,10.591,0,0,0-.411-1.021l.683-.683a2.968,2.968,0,0,0,0-4.194,3.036,3.036,0,0,0-4.2,0l-.8.8a5.41,5.41,0,0,0-4.471.679.306.306,0,0,1-.393-.1A4.231,4.231,0,0,0,18.526.9a3.153,3.153,0,0,0-2.817.409c-.588.4-.6,1.267-.437,2.445a8.054,8.054,0,0,0,.335,1.295c.085.266.209.659.26.92l0,.168c0,.049,0,.076,0,.083a.766.766,0,0,1-.064.068.7.7,0,0,1-.074.073c-.028.023-.065.044-.1.066s-.069.048-.11.071-.084.041-.127.061-.086.043-.134.063-.105.039-.159.058-.091.035-.141.05-.131.036-.2.053c-.044.011-.086.024-.131.034-.077.017-.155.03-.234.042-.036.006-.071.014-.108.019-.088.012-.176.019-.265.024-.024,0-.05.006-.073.007a2.855,2.855,0,0,1-.329,0c-.17-.01-.333-.016-.491-.015L9.621,3.376a1.864,1.864,0,0,0-2.572,0l-.576.575a1.82,1.82,0,0,0,0,2.571l3.58,3.58c0,.076-.008.154-.01.234a20.729,20.729,0,0,1-.882,6.75c-.142.372-.274.755-.4,1.149-.108.329-.2.655-.3.98-.01.037-.022.07-.033.108l-.065.231c-.028.105-.062.212-.089.317l-.187.67.041-.01a17.043,17.043,0,0,0,4.494,16.074c4.88,5.236,11.248,7.8,19.406,7.8q1.413,0,2.9-.1A4.386,4.386,0,0,0,39.3,39.68a42.525,42.525,0,0,0-.389-6.316h0c-.117-.887-.217-1.783-.317-2.68a48,48,0,0,0-1.209-7.337l1.732.4A1.817,1.817,0,0,0,41.3,22.39l.185-.792A1.819,1.819,0,0,0,40.131,19.414ZM31.155,8.87h2.637a2.874,2.874,0,0,0,0,2.966H31.155a1.483,1.483,0,1,1,0-2.966Zm6.674,1.483A1.483,1.483,0,1,1,36.346,8.87,1.485,1.485,0,0,1,37.829,10.354ZM7.522,5.474a.362.362,0,0,1-.1-.237h0a.34.34,0,0,1,.022-.114A.33.33,0,0,1,7.522,5L8.1,4.425a.333.333,0,0,1,.472,0l3.982,3.982.334-.022a4.757,4.757,0,0,1,.649,0c.125.007.261.009.4,0,.085,0,.177-.012.267-.019.062-.005.12-.008.184-.016.093-.011.187-.027.282-.044.067-.011.133-.021.2-.035.09-.018.178-.042.268-.065s.151-.038.226-.061.164-.054.245-.083.16-.059.239-.092.146-.065.218-.1.159-.082.234-.126.127-.077.187-.119.143-.1.211-.161.106-.09.155-.139c.022-.022.05-.041.071-.064,1.245,1.012,2.3,2.473,1.658,4.324-.722,2.1-4.561,5.416-8.318,6.805.09-.262.176-.522.277-.788a22.149,22.149,0,0,0,.98-7.243c0-.174.018-.327.033-.481l.032-.347Zm29.6,25.372c.1.908.2,1.813.321,2.71a40.854,40.854,0,0,1,.377,6.094,2.945,2.945,0,0,1-3,3.173c-9.1.629-16-1.738-21.118-7.229a15.527,15.527,0,0,1-3.97-15.471c4.246-1.2,9.229-5.078,10.251-8.047.8-2.332-.15-4.581-2.674-6.369a8.387,8.387,0,0,0-.3-1.109,7.133,7.133,0,0,1-.28-1.048,4.77,4.77,0,0,1-.067-1.1,1.844,1.844,0,0,1,1.18-.232,3.046,3.046,0,0,1,.877.885,1.793,1.793,0,0,0,2.367.466,3.9,3.9,0,0,1,3.609-.394l.452.178,1.47-1.471a1.483,1.483,0,1,1,2.1,2.1L27.28,5.434l.258.484a8.984,8.984,0,0,1,.563,1.3,1.87,1.87,0,0,0,.93,1.066c-.065.066-.116.143-.174.215s-.119.135-.17.21a2.756,2.756,0,0,0-.152.28c-.039.074-.085.143-.117.22a2.98,2.98,0,0,0-.11.354c-.019.067-.047.129-.06.2a2.87,2.87,0,0,0,.014,1.232c.015.067.041.13.061.2a2.873,2.873,0,0,0,.142.4c.033.072.073.138.112.207a3.08,3.08,0,0,0,.2.323c.049.066.1.127.156.188a2.932,2.932,0,0,0,.263.263c.035.03.062.069.1.1a1.286,1.286,0,0,0-.61.884,1.3,1.3,0,0,0,.64,1.376,13.6,13.6,0,0,1,4.487,4.027l.193.3c.021.031.039.064.06.095A14.645,14.645,0,0,1,35.6,22.57l.133.389h0A41.482,41.482,0,0,1,37.125,30.846Zm2.92-9.586-.185.792a.335.335,0,0,1-.4.251l-2.587-.6a.083.083,0,0,1,0-.01,16.479,16.479,0,0,0-1.055-2.337l2.073-2.22a.334.334,0,0,1,.232-.107.357.357,0,0,1,.24.09l.595.554a.336.336,0,0,1,.016.474l-1.932,2.07,2.758.641A.337.337,0,0,1,40.045,21.261Z" transform="translate(0 0)" fill="#fff"/>
    <path id="Path_215" data-name="Path 215" d="M38.1,37.884l-1.856,1.238a27.267,27.267,0,0,1-3.4-2.1h2.7a.742.742,0,0,0,0-1.483H31.1c-.016,0-.03.008-.046.009a12.258,12.258,0,0,1-3.72-5.906,10.092,10.092,0,0,1-.288-3.124c.009-.006.02-.007.029-.013a4.071,4.071,0,0,1,4.523,0,10.052,10.052,0,0,1,1.809,1.276.737.737,0,0,0-.082.336v2.966a.742.742,0,1,0,1.483,0v-1.9a18.054,18.054,0,0,1,1.242,1.581.742.742,0,1,0,1.216-.849,19.224,19.224,0,0,0-1.643-2.042l1.853-1.39a.741.741,0,1,0-.889-1.186l-2.032,1.524A11.8,11.8,0,0,0,32.3,25.2a5.741,5.741,0,0,0-4.995-.485,11.726,11.726,0,0,1,1.443-3.593.742.742,0,0,0-1.225-.837,12.847,12.847,0,0,0-1.7,9.349.723.723,0,0,0-.321.159c-3.281,2.945-3.4,8.2-.319,11.852l-.012,2.044a.741.741,0,0,0,.737.746h0a.741.741,0,0,0,.742-.737l.008-1.488h1.475a.742.742,0,1,0,0-1.483h-1.78c-2.524-2.946-2.554-7.135-.1-9.594a14.417,14.417,0,0,0,4.1,5.785v3.809a.742.742,0,0,0,1.483,0V38.118a28.612,28.612,0,0,0,3.708,2.314v1.775a.742.742,0,0,0,1.483,0V40.379l1.895-1.263a.741.741,0,1,0-.822-1.232Z" transform="translate(-4.395 -5.158)" fill="#fff"/>
  </g>
</svg>
