<svg id="kidneys" xmlns="http://www.w3.org/2000/svg" width="47" height="47" viewBox="0 0 47 47">
  <g id="Group_529" data-name="Group 529" transform="translate(0)">
    <g id="Group_528" data-name="Group 528" transform="translate(0)">
      <path id="Path_252" data-name="Path 252" d="M283.926,108.7l-.258-.431a8.826,8.826,0,0,0-6.628-4.21,7.75,7.75,0,0,0-.91-.058,7.577,7.577,0,0,0-6.021,12.181A7.465,7.465,0,0,0,268.9,118.5l-2.458,2.458a8.451,8.451,0,0,0-.926,1.111v-2.9H264v6.823h.046a8.421,8.421,0,0,0-.046.866v14.295h1.516V126.85a6.778,6.778,0,0,1,2-4.824l1.047-1.046a7.438,7.438,0,0,0,.351,2.053l-.325.325a5.266,5.266,0,0,0-1.555,3.752v14.036h1.516V127.11a3.757,3.757,0,0,1,1.038-2.592,7.588,7.588,0,0,0,6.543,3.74,7.723,7.723,0,0,0,.9-.057,8.831,8.831,0,0,0,6.639-4.211l.258-.431a14.442,14.442,0,0,0,0-14.861Zm-1.3,14.08-.258.431a7.315,7.315,0,0,1-5.506,3.484,6.145,6.145,0,0,1-.732.049,6.041,6.041,0,0,1-6.065-6,5.92,5.92,0,0,1,1.1-3.435,7.551,7.551,0,0,0,4.966,1.857v-1.516a6.063,6.063,0,1,1,.744-12.08,7.306,7.306,0,0,1,5.494,3.483l.258.431a12.925,12.925,0,0,1,0,13.3Z" transform="translate(-238.984 -94.145)" fill="#fff"/>
      <path id="Path_253" data-name="Path 253" d="M397.2,139.228l-.259-.433a5.776,5.776,0,0,0-4.34-2.753A5.129,5.129,0,0,0,392,136v1.516a3.633,3.633,0,0,1,.433.033,4.263,4.263,0,0,1,3.205,2.025l.259.433a9.888,9.888,0,0,1,1,2.274l1.454-.432A11.372,11.372,0,0,0,397.2,139.228Z" transform="translate(-354.855 -123.113)" fill="#fff"/>
      <path id="Path_254" data-name="Path 254" d="M448.438,214.864l-1.5.215a9.963,9.963,0,0,1,.1,1.409h1.516A11.63,11.63,0,0,0,448.438,214.864Z" transform="translate(-404.585 -194.504)" fill="#fff"/>
      <path id="Path_255" data-name="Path 255" d="M107.032,140.548a3.039,3.039,0,0,1-.982,2.23l1.026,1.117A4.546,4.546,0,0,0,104,136v1.516A3.035,3.035,0,0,1,107.032,140.548Z" transform="translate(-94.145 -123.113)" fill="#fff"/>
      <path id="Path_256" data-name="Path 256" d="M105.212,213.328a2.993,2.993,0,0,1-1.212.253V215.1a4.5,4.5,0,0,0,1.82-.381Z" transform="translate(-94.145 -193.113)" fill="#fff"/>
      <rect id="Rectangle_1233" data-name="Rectangle 1233" width="2" height="24" transform="translate(25)" fill="#fff"/>
      <path id="Path_257" data-name="Path 257" d="M20.468,27.92a8.453,8.453,0,0,0-.926-1.111l-2.457-2.458a7.486,7.486,0,0,0-1.208-2.315A7.577,7.577,0,0,0,9.855,9.855a7.745,7.745,0,0,0-.9.057,8.831,8.831,0,0,0-6.639,4.211l-.259.431a14.445,14.445,0,0,0,0,14.861l.259.431a8.824,8.824,0,0,0,6.628,4.21,7.751,7.751,0,0,0,.91.058,7.588,7.588,0,0,0,6.543-3.74,3.76,3.76,0,0,1,1.038,2.592V47h1.516V32.964A5.273,5.273,0,0,0,17.4,29.212l-.325-.325a7.416,7.416,0,0,0,.351-2.053l1.047,1.046a6.781,6.781,0,0,1,2,4.824V47h1.516V32.705a8.437,8.437,0,0,0-.046-.866h.046V0H20.468ZM9.111,32.548a7.306,7.306,0,0,1-5.494-3.483l-.259-.431a12.923,12.923,0,0,1,0-13.3l.259-.431a7.315,7.315,0,0,1,5.506-3.484,6.144,6.144,0,0,1,.732-.049,6.065,6.065,0,1,1,0,12.129v1.516a7.551,7.551,0,0,0,4.967-1.858,5.932,5.932,0,0,1,1.1,3.436A6.06,6.06,0,0,1,9.111,32.548Z" transform="translate(0)" fill="#fff"/>
    </g>
  </g>
</svg>
