<svg xmlns="http://www.w3.org/2000/svg" width="45.447" height="41.523" viewBox="0 0 45.447 41.523">
  <g id="speak" transform="translate(-0.001 -0.094)">
    <path id="Path_226" data-name="Path 226" d="M36.423,24.012l-4.378-9.459a13.892,13.892,0,0,0-4.889-10.2A16.972,16.972,0,0,0,16.008.094C9.279.094,2.9,4.2.826,9.873-.676,13.017.2,19.106.9,24c.18,1.254.35,2.438.464,3.457l.074,13.15a.775.775,0,0,0,.777.769l19.67.239h.01a.825.825,0,0,0,.574-.213.778.778,0,0,0,.256-.546V35.523l4.794.148a4.283,4.283,0,0,0,4.409-4.248l.06-6.207,3.742-.088a.786.786,0,0,0,.694-1.117Zm-5.235-.35a.787.787,0,0,0-.768.779l-.07,6.967a2.72,2.72,0,0,1-2.8,2.692l-11.21-.345a.789.789,0,0,0-.81.762.8.8,0,0,0,.784.81l4.842.148v4.586L3.029,39.829,2.948,27.409a.743.743,0,0,0-.01-.082c-.116-1.053-.293-2.265-.477-3.549-.676-4.7-1.518-10.556-.2-13.254.012-.025.023-.051.032-.077A12.881,12.881,0,0,1,7.556,4.165a15.876,15.876,0,0,1,8.453-2.5,15.378,15.378,0,0,1,10.1,3.863,12.316,12.316,0,0,1,4.364,9.2.788.788,0,0,0,.073.331l3.946,8.524Zm0,0" transform="translate(0)" fill="#fff"/>
    <path id="Path_227" data-name="Path 227" d="M369.154,271.454a.786.786,0,0,0,0,1.112,5.013,5.013,0,0,1,0,7.06.787.787,0,1,0,1.115,1.11,6.588,6.588,0,0,0,0-9.28A.787.787,0,0,0,369.154,271.454Zm0,0" transform="translate(-332.642 -244.47)" fill="#fff"/>
    <path id="Path_228" data-name="Path 228" d="M417.942,244.362a.786.786,0,0,0,0,1.112,8.9,8.9,0,0,1,0,12.508.787.787,0,1,0,1.121,1.1,10.481,10.481,0,0,0,0-14.724A.786.786,0,0,0,417.942,244.362Zm0,0" transform="translate(-376.629 -220.041)" fill="#fff"/>
  </g>
</svg>
