<svg id="_004---Pregnant-Woman" data-name="004---Pregnant-Woman" xmlns="http://www.w3.org/2000/svg" width="29.595" height="45.227" viewBox="0 0 29.595 45.227">
  <path id="Shape" d="M6.791,38.468A16.614,16.614,0,0,0,5.52,44.474a.754.754,0,0,0,.754.754H28.887a.754.754,0,0,0,.743-.878c-.062-.377-1.56-9.226-4.591-15.288a11.674,11.674,0,0,1-1.033-4.89,46.527,46.527,0,0,0,4.824.7l.057,0a.754.754,0,0,0,.731-.571c1.214-4.855.994-11.577.849-16.026-.038-1.183-.075-2.21-.075-2.985a5.729,5.729,0,0,0-1.616-3.98A4.077,4.077,0,0,0,25.834,0H16.953a2.247,2.247,0,0,0-1.935,1.094,13.755,13.755,0,0,1-3.985,4.328,6.97,6.97,0,0,1-1.269.663,4.455,4.455,0,0,0-2.83,4.393,5.31,5.31,0,0,0,1.725,3.731,4.133,4.133,0,0,0-.461.2,3.4,3.4,0,0,0-1.832,2.286A11.955,11.955,0,0,0,1,27.136c0,6.256,3.019,9.589,5.794,11.332ZM16.307,1.874a.754.754,0,0,1,.646-.366h3.593c-.157,1.46-.829,4.523-3.718,4.523a19.569,19.569,0,0,1-3.662-.347,16.734,16.734,0,0,0,3.142-3.809ZM8.441,10.426a2.94,2.94,0,0,1,1.878-2.94,8.442,8.442,0,0,0,1.235-.627,20.858,20.858,0,0,0,5.277.678c3.762,0,5.026-3.6,5.239-6.03h1.35A40.173,40.173,0,0,0,22.7,16.7a26.147,26.147,0,0,0-3.534-.435,13.382,13.382,0,0,1-2.852-.394c-.633-.211-1.281-.477-1.9-.734a17.353,17.353,0,0,0-3.043-1.045,4.075,4.075,0,0,1-2.928-3.663Zm.431,5.324a3.21,3.21,0,0,1,2.08-.21.8.8,0,0,0,.191.038,16.96,16.96,0,0,1,2.691.949c.648.267,1.318.543,2,.771a14.219,14.219,0,0,0,3.216.467c2.148.161,4.583.342,6.37,1.682a.754.754,0,1,0,.9-1.206,7.98,7.98,0,0,0-2.016-1.073,38.1,38.1,0,0,1,.654-15.662h.871a2.638,2.638,0,0,1,1.866.86,4.3,4.3,0,0,1,1.186,2.909c0,.805.034,1.849.075,3.051C29.1,12.5,29.3,18.7,28.306,23.3a50.336,50.336,0,0,1-17.065-5.076,6.656,6.656,0,0,0-3.281-1.57,1.94,1.94,0,0,1,.912-.9ZM7.016,18.091h.011a5.062,5.062,0,0,1,3.236,1.287.777.777,0,0,0,.172.129A46.692,46.692,0,0,0,22.48,23.854a13.365,13.365,0,0,0,1.206,5.88c2.392,4.776,3.836,11.585,4.3,13.986H7.066A15.071,15.071,0,0,1,8.121,39.2a17.385,17.385,0,0,0,7.458,1.621,18.82,18.82,0,0,0,2.088-.116.754.754,0,0,0-.167-1.5,16.037,16.037,0,0,1-9.364-1.688C5.566,36.083,2.5,33.122,2.5,27.136a10.412,10.412,0,0,1,4.511-9.045Z" transform="translate(-0.988 0)" fill="#fff"/>
  <path id="Shape-2" data-name="Shape" d="M10.177,41.223c.428.357.883.738,1.362,1.148a.754.754,0,0,0,.98,0c.479-.41.934-.791,1.362-1.148,2.521-2.1,4.179-3.487,4.179-5.637A3.456,3.456,0,0,0,14.668,32a3.623,3.623,0,0,0-2.638,1.134A3.623,3.623,0,0,0,9.391,32,3.456,3.456,0,0,0,6,35.587C6,37.736,7.658,39.123,10.177,41.223Zm-.785-7.716a2.331,2.331,0,0,1,1.966,1.215.754.754,0,0,0,.668.411h0a.758.758,0,0,0,.671-.411,2.33,2.33,0,0,1,1.967-1.215,1.946,1.946,0,0,1,1.884,2.079c0,1.444-1.368,2.587-3.636,4.48-.284.237-.58.484-.887.743-.307-.259-.6-.506-.887-.743-2.267-1.893-3.636-3.036-3.636-4.48a1.946,1.946,0,0,1,1.884-2.079Z" transform="translate(-2.221 -7.879)" fill="#fff"/>
</svg>
