<svg xmlns="http://www.w3.org/2000/svg" width="38.834" height="39" viewBox="0 0 38.834 39">
  <g id="pain" transform="translate(-1.087)">
    <path id="Path_243" data-name="Path 243" d="M459.376,92.628a.571.571,0,1,0-1.109-.274,21.6,21.6,0,0,1-.855,2.694,22.574,22.574,0,0,0-1.559,8.581l.059,4.255a17.532,17.532,0,0,0,.842,5.134.571.571,0,0,0,1.088-.35,16.394,16.394,0,0,1-.787-4.8l-.059-4.255a21.437,21.437,0,0,1,1.48-8.149A22.785,22.785,0,0,0,459.376,92.628Z" transform="translate(-420.123 -84.918)" fill="#fff"/>
    <path id="Path_244" data-name="Path 244" d="M39.192,392.688c-.174-.3-.341-.6-.5-.907a.571.571,0,0,0-1.019.516c.166.328.344.654.53.97a4.14,4.14,0,0,1-3.569,6.239H32.2a4.147,4.147,0,0,1-.779-.074l-1.589-.3a45.145,45.145,0,0,0-8.473-.8,16.293,16.293,0,0,0-5.327.893,5.274,5.274,0,0,1-1.722.29l-2.811-.025a10.083,10.083,0,0,1-1.8-.179,11.226,11.226,0,0,0-2.849-.175l-1.606.106a2.827,2.827,0,0,1-3.014-2.82v-.886a.656.656,0,0,1,.655-.655H5.426a16.917,16.917,0,0,0,3.036-.275.571.571,0,0,0-.206-1.124,15.771,15.771,0,0,1-2.83.257H2.885a1.8,1.8,0,0,0-1.8,1.8v.886a3.969,3.969,0,0,0,4.232,3.96l1.606-.106a10.077,10.077,0,0,1,2.559.157,11.241,11.241,0,0,0,2.007.2l2.816.025a6.424,6.424,0,0,0,2.1-.352,15.153,15.153,0,0,1,4.954-.831,44,44,0,0,1,8.258.784l1.589.3a5.3,5.3,0,0,0,.994.094h2.437a5.283,5.283,0,0,0,4.554-7.961Z" transform="translate(0 -361.649)" fill="#fff"/>
    <path id="Path_245" data-name="Path 245" d="M123.576,32.261a22,22,0,0,0,5.453-2.4l3.416-2.2a10.8,10.8,0,0,0,4.966-9.112l-.037-17.214a.19.19,0,0,1,.19-.191h13.645a.191.191,0,0,1,.19.19v.945a21.616,21.616,0,0,1-.157,2.6.571.571,0,0,0,1.134.138,22.777,22.777,0,0,0,.166-2.737V1.333A1.335,1.335,0,0,0,151.211,0H137.565a1.333,1.333,0,0,0-1.333,1.336l.037,17.213a9.659,9.659,0,0,1-4.443,8.15l-3.416,2.2a23.058,23.058,0,0,1-5.028,2.25.571.571,0,0,0,.194,1.109Z" transform="translate(-112.631)" fill="#fff"/>
    <path id="Path_246" data-name="Path 246" d="M348.178,369.762a1.714,1.714,0,0,0,.654-3.365,1.714,1.714,0,1,0-.654,3.365Zm-.234-1.791a.568.568,0,0,1,.241-.365.6.6,0,0,1,.428-.087.571.571,0,1,1-.67.452Z" transform="translate(-319.371 -338.459)" fill="#fff"/>
    <path id="Path_247" data-name="Path 247" d="M380.006,356.727a.569.569,0,0,0,.223-.046,4,4,0,0,0,1.34-6.433.571.571,0,1,0-.83.786,2.857,2.857,0,0,1-.957,4.6.571.571,0,0,0,.224,1.1Z" transform="translate(-349.527 -323.404)" fill="#fff"/>
    <path id="Path_248" data-name="Path 248" d="M319.627,341.518a.571.571,0,0,0-.494-1.03,4,4,0,0,0-1.144,6.394.571.571,0,1,0,.82-.8,2.857,2.857,0,0,1,.817-4.568Z" transform="translate(-291.72 -314.5)" fill="#fff"/>
    <path id="Path_249" data-name="Path 249" d="M391.768,339.534a.569.569,0,0,0,.223-.046,6.285,6.285,0,0,0,2.106-10.109.571.571,0,0,0-.83.785,5.143,5.143,0,0,1-1.723,8.272.571.571,0,0,0,.224,1.1Z" transform="translate(-360.394 -304.125)" fill="#fff"/>
    <path id="Path_250" data-name="Path 250" d="M287.02,317.666a6.293,6.293,0,0,0,1.661,5.578.571.571,0,1,0,.82-.8,5.143,5.143,0,0,1,1.471-8.222.571.571,0,0,0-.494-1.03A6.316,6.316,0,0,0,287.02,317.666Z" transform="translate(-264.047 -289.287)" fill="#fff"/>
    <path id="Path_251" data-name="Path 251" d="M333.8,161.256a.571.571,0,1,0-1.093-.333l-.432,1.42,0,.012a1.294,1.294,0,0,0,.2,1.132,1.253,1.253,0,0,0,.995.5l2.234.039-.568,3.442a1.083,1.083,0,0,0,2.025.684l2.856-5.38.013-.027a1.237,1.237,0,0,0-.072-1.173,1.3,1.3,0,0,0-1.061-.619l-1.4-.052,1.289-3.322a.543.543,0,0,0,.019-.057,1.046,1.046,0,0,0-.991-1.319l-2.862-.05a1.071,1.071,0,0,0-1.039.829l-.43,1.412a.571.571,0,0,0,1.093.333L335,157.3v0l2.641.046-1.45,3.738a.69.69,0,0,0,.617.939l2.036.076a.158.158,0,0,1,.128.075.091.091,0,0,1,.013.084l-2.676,5.041.594-3.6a.69.69,0,0,0-.669-.8l-2.758-.048c-.071,0-.091-.029-.1-.038a.163.163,0,0,1-.015-.136Z" transform="translate(-305.909 -144.256)" fill="#fff"/>
  </g>
</svg>
