<svg xmlns="http://www.w3.org/2000/svg" width="39.595" height="39.595" viewBox="0 0 39.595 39.595">
  <g id="chest-pain" transform="translate(-1 -1)">
    <path id="Path_321" data-name="Path 321" d="M35.643,15.365l1.559-.779L35.866,13.25l4.428-2.767L39.618,9.4l-5.79,3.619,1.218,1.218-.651.326a12.047,12.047,0,0,0-1.948-.884l-1.006-.35L34.125,9.3H31.937L33.53,5.056l-1.2-.448-2.24,5.972h1.644l-1.543,2.315L27.622,12a2.558,2.558,0,0,1-1.715-2.413V9a16.9,16.9,0,0,0,6.108-7.092L32.431,1H9.164l.417.906A16.9,16.9,0,0,0,15.688,9v.589A2.557,2.557,0,0,1,13.973,12L9.148,13.677A12.144,12.144,0,0,0,1,25.138V33.57a7.033,7.033,0,0,0,7.025,7.025h32.57V25.138a12.143,12.143,0,0,0-4.951-9.773ZM11.193,2.277H30.4a15.57,15.57,0,0,1-9.6,7.641,15.573,15.573,0,0,1-9.6-7.641Zm28.124,37.04H32.931V27.977A5.864,5.864,0,0,1,34.66,23.8l-.9-.9a7.132,7.132,0,0,0-2.1,5.077v11.34H12.205l7.609-7.065,2.432-.406A4.441,4.441,0,0,0,24.671,30.6l5.122-5.122a1.99,1.99,0,0,0-.607-3.231,1.985,1.985,0,0,0-.639-3.193,1.975,1.975,0,0,0,.552-1.371,1.993,1.993,0,0,0-3.4-1.409l-.6.6a1.99,1.99,0,0,0-3.229-.6l-2.443,2.443a4.36,4.36,0,0,0-1.844-2.752,1.625,1.625,0,0,0-2.529,1.35v.658a3.081,3.081,0,0,1-.907,2.192l-.976.976A4.441,4.441,0,0,0,11.857,24.3v1.98L9.941,28.2v-.219a7.132,7.132,0,0,0-2.1-5.077l-.9.9a5.866,5.866,0,0,1,1.728,4.174v1.5L4.38,33.757l.9.9,7.851-7.851V24.3a3.175,3.175,0,0,1,.935-2.258l.976-.976a4.346,4.346,0,0,0,1.282-3.095v-.658a.359.359,0,0,1,.542-.289A3.1,3.1,0,0,1,18.243,19.6v.294l-2.367,2.367-.033.033.9.9.033-.033,2.742-2.742,3.248-3.248a.716.716,0,0,1,1.013,1.013L19.069,22.9l.9.9,4.712-4.712L26.6,17.175a.716.716,0,0,1,1.013,1.013l-1.277,1.277-5.351,5.351.9.9,5.351-5.351a.716.716,0,0,1,1.013,1.013l-1.277,1.277L22.9,26.732l.9.9,4.074-4.074a.716.716,0,0,1,1.013,1.013L23.768,29.7a3.173,3.173,0,0,1-1.733.892l-2.809.468-8.9,8.262h-2.3A5.755,5.755,0,0,1,2.277,33.57V25.138a10.866,10.866,0,0,1,7.29-10.254l4.825-1.678a3.83,3.83,0,0,0,2.56-3.459,16.929,16.929,0,0,0,3.682,1.45l.163.043.162-.043a16.916,16.916,0,0,0,3.682-1.45,3.83,3.83,0,0,0,2.56,3.459l2.261.786-.895,1.342,1.063.708,1.078-1.617,1.319.459c.326.113.641.245.95.387l-3.525,1.762.572,1.142,4.32-2.16a10.87,10.87,0,0,1,4.974,9.123Z" transform="translate(0 0)" fill="#fff"/>
    <path id="Path_322" data-name="Path 322" d="M31.832,9.916h1.277C33.109,8.842,31.987,8,30.554,8S28,8.842,28,9.916h1.277c0-.261.5-.639,1.277-.639S31.832,9.655,31.832,9.916Z" transform="translate(-9.757 -2.53)" fill="#fff"/>
  </g>
</svg>
