<svg xmlns="http://www.w3.org/2000/svg" width="47.917" height="47.658" viewBox="0 0 47.917 47.658">
  <g id="infection" transform="translate(0 -1.348)">
    <g id="Group_552" data-name="Group 552" transform="translate(0 1.348)">
      <g id="Group_551" data-name="Group 551">
        <path id="Path_319" data-name="Path 319" d="M38.1,38.268a6.957,6.957,0,0,0-4.854-4.731L25.625,31.5V29.579a9.261,9.261,0,0,0,3.315-4.426,3.838,3.838,0,0,0,3.6-3.82V13.647a12.3,12.3,0,0,0-24.6,0v7.687a3.838,3.838,0,0,0,3.6,3.82,9.244,9.244,0,0,0,3.315,4.426v1.936L7.915,33.5a6.885,6.885,0,0,0-4.736,4.7L0,49.006H41.258ZM29.346,23.537a9.2,9.2,0,0,0,.123-1.434V19.169a2.292,2.292,0,0,1-.123,4.368Zm-19.863-2.2a2.3,2.3,0,0,1,1.537-2.165V22.1a9.179,9.179,0,0,0,.123,1.434A2.3,2.3,0,0,1,9.483,21.334Zm1.537-7.687v3.921a3.817,3.817,0,0,0-1.537.71V13.647a10.761,10.761,0,1,1,21.523,0v4.632a3.806,3.806,0,0,0-1.537-.71v-.456a8.489,8.489,0,0,0-1.853-5.282L25.736,9.48l-1.312,1.094a13.288,13.288,0,0,1-8.49,3.073ZM12.558,22.1V15.184h3.376a14.828,14.828,0,0,0,9.475-3.431l.107-.088.9,1.125a6.94,6.94,0,0,1,1.516,4.321V22.1a7.687,7.687,0,0,1-15.373,0Zm11.53,8.375v1.36a5.012,5.012,0,0,1-7.687,0V30.477a9.12,9.12,0,0,0,7.687,0Zm8.449,11.516-1.525.191.66,5.285H9.585l.66-5.285-1.525-.191-.685,5.476H2.055l2.6-8.834a5.355,5.355,0,0,1,3.683-3.655l7.017-2a6.545,6.545,0,0,0,9.788-.008l7.707,2.055a5.412,5.412,0,0,1,3.776,3.68L39.2,47.468h-5.98Z" transform="translate(0 -1.348)" fill="#fff"/>
      </g>
    </g>
    <g id="Group_554" data-name="Group 554" transform="translate(34.081 15.184)">
      <g id="Group_553" data-name="Group 553">
        <path id="Path_320" data-name="Path 320" d="M366.226,163.8v-6.149h1.537v-12.3h-4.612v1.537h-3.075v2.408l-3.959.566a1.655,1.655,0,0,0,0,3.278l3.959.566v2.408h3.075v1.537h1.537V163.8h-2.306v12.3a3.075,3.075,0,1,0,6.149,0V163.8Zm-6.149-11.648-3.742-.534a.117.117,0,0,1,0-.232l3.742-.535Zm3.075,2.424h-1.537v-6.149h1.537Zm1.537-7.687h1.537v9.224h-1.537Zm2.306,29.21a1.537,1.537,0,0,1-3.075,0V165.334h3.075Z" transform="translate(-354.696 -145.348)" fill="#fff"/>
      </g>
    </g>
  </g>
</svg>
