<svg xmlns="http://www.w3.org/2000/svg" width="44.634" height="49.6" viewBox="0 0 44.634 49.6">
  <g id="sugar-blood-level" transform="translate(-25.628)">
    <g id="Group_550" data-name="Group 550" transform="translate(25.628)">
      <path id="Path_305" data-name="Path 305" d="M395,143.46a2.642,2.642,0,1,0,2.641,2.641A2.645,2.645,0,0,0,395,143.46Zm0,3.832a1.189,1.189,0,1,1,1.188-1.191A1.192,1.192,0,0,1,395,147.292Z" transform="translate(-356.827 -129.562)" fill="#fff"/>
      <path id="Path_306" data-name="Path 306" d="M319.206,143.46a2.642,2.642,0,1,0,2.641,2.641A2.645,2.645,0,0,0,319.206,143.46Zm0,3.832a1.189,1.189,0,1,1,1.188-1.191A1.192,1.192,0,0,1,319.206,147.292Z" transform="translate(-288.378 -129.562)" fill="#fff"/>
      <path id="Path_307" data-name="Path 307" d="M327.971,39.439H317.781a1.222,1.222,0,0,0-1.22,1.22v4.874a1.222,1.222,0,0,0,1.22,1.22H321.3a.727.727,0,0,0,0-1.453h-3.283V40.892h9.721V45.3h-2.9a.727.727,0,0,0,0,1.453h3.141a1.22,1.22,0,0,0,1.217-1.22V40.659A1.22,1.22,0,0,0,327.971,39.439Z" transform="translate(-288.377 -35.618)" fill="#fff"/>
      <path id="Path_308" data-name="Path 308" d="M65.883,0H54.369a4.385,4.385,0,0,0-4.38,4.38V18.256a7.438,7.438,0,0,0,7.4,7.429v3.838H47.3a7.159,7.159,0,0,0,.117-4.1A6.779,6.779,0,0,0,45,21.7a2.413,2.413,0,0,0-2.4-.3,2.44,2.44,0,0,0-1.364,2.091c-.234,2.4-.955,4-2.2,4.864a9,9,0,0,1-3.809,1.167H33.255V29.21a1.039,1.039,0,0,0-1.036-1.039H26.667a1.04,1.04,0,0,0-1.039,1.039v7.043a.727.727,0,0,0,1.453,0v-6.63H31.8v17H27.081V39.6a.727.727,0,0,0-1.453,0v7.436a1.04,1.04,0,0,0,1.039,1.039h5.551a1.039,1.039,0,0,0,1.036-1.039v-.313H34.8a3.942,3.942,0,0,1,2.678,1.113A7.329,7.329,0,0,0,41.526,49.6a.724.724,0,0,0,.078,0H54.539a3.14,3.14,0,0,0,2.376-.956,3.043,3.043,0,0,0,.813-2.1,3.1,3.1,0,0,0-.628-1.881,2.993,2.993,0,0,0,1.772-2.776,3.1,3.1,0,0,0-.628-1.882,2.941,2.941,0,0,0,.961-.675,3.043,3.043,0,0,0,.813-2.1,3.129,3.129,0,0,0-.438-1.6h2.992a3.053,3.053,0,0,0,.293-6.1v-3.85a7.438,7.438,0,0,0,7.4-7.429V4.38A4.385,4.385,0,0,0,65.883,0Zm-4.47,29.7a1.285,1.285,0,0,1-2.57,0V22.1h2.57ZM55.856,47.648a1.751,1.751,0,0,1-1.317.5H48.39a1.62,1.62,0,0,1-1.317-2.7,1.751,1.751,0,0,1,1.317-.5h6.149a1.62,1.62,0,0,1,1.317,2.7Zm-.174-4.156H48.39a1.622,1.622,0,0,1-1.318-2.706,1.752,1.752,0,0,1,1.318-.5h7.293a1.607,1.607,0,1,1,0,3.2Zm2.882-6.258a1.581,1.581,0,0,1-1.736,1.6H48.39a1.621,1.621,0,0,1-1.319-2.7,1.753,1.753,0,0,1,1.318-.5h8.439A1.581,1.581,0,0,1,58.565,37.234Zm5.743-4.656a1.581,1.581,0,0,1-1.736,1.6H48.39a3.069,3.069,0,0,0-2.136,5.381,3.1,3.1,0,0,0,0,4.658,2.9,2.9,0,0,0-.242.228,3.043,3.043,0,0,0-.813,2.1,3.129,3.129,0,0,0,.438,1.6H41.644a5.854,5.854,0,0,1-3.283-1.46A5.3,5.3,0,0,0,34.8,45.272H33.255v-14.3H35.3a10.711,10.711,0,0,0,4.573-1.428c1.618-1.126,2.539-3.061,2.817-5.915a1.048,1.048,0,0,1,.511-.906.973.973,0,0,1,.945.148,5.728,5.728,0,0,1,1.418,7.042.727.727,0,0,0,.646,1.059h11.5a2.737,2.737,0,0,0,4.839,0h.026a1.581,1.581,0,0,1,1.736,1.6Zm4.5-14.323a5.983,5.983,0,0,1-5.944,5.976v-2.4a1.183,1.183,0,0,0-1.182-1.182H58.568a1.182,1.182,0,0,0-1.179,1.182v2.4a5.983,5.983,0,0,1-5.947-5.976V4.38a2.93,2.93,0,0,1,2.927-2.927H65.883A2.93,2.93,0,0,1,68.809,4.38V18.256Z" transform="translate(-25.628)" fill="#fff"/>
    </g>
  </g>
</svg>
