<svg xmlns="http://www.w3.org/2000/svg" width="50.226" height="45" viewBox="0 0 50.226 45">
  <g id="diet" transform="translate(0 -26.637)">
    <g id="Group_489" data-name="Group 489" transform="translate(15.441 42.788)">
      <g id="Group_488" data-name="Group 488">
        <path id="Path_199" data-name="Path 199" d="M161.381,192.024a2.29,2.29,0,0,0-3.979,1.506.736.736,0,0,0,.723.748h.013a.736.736,0,0,0,.735-.723.817.817,0,0,1,.832-.8.808.808,0,0,1,.589.265.736.736,0,1,0,1.086-.992Z" transform="translate(-157.402 -191.28)" fill="#fff"/>
      </g>
    </g>
    <g id="Group_491" data-name="Group 491" transform="translate(19.383 44.652)">
      <g id="Group_490" data-name="Group 490" transform="translate(0 0)">
        <path id="Path_200" data-name="Path 200" d="M201.544,211.561a2.1,2.1,0,0,0-3.9.093.736.736,0,1,0,1.38.512.633.633,0,0,1,.811-.372.622.622,0,0,1,.36.343.736.736,0,0,0,1.354-.576Z" transform="translate(-197.594 -210.283)" fill="#fff"/>
      </g>
    </g>
    <g id="Group_493" data-name="Group 493" transform="translate(26.127 39.199)">
      <g id="Group_492" data-name="Group 492">
        <path id="Path_201" data-name="Path 201" d="M268.288,154.908a.736.736,0,0,0-1.04,0l-.694.695a.736.736,0,0,0,1.042,1.039l.694-.695A.736.736,0,0,0,268.288,154.908Z" transform="translate(-266.339 -154.693)" fill="#fff"/>
      </g>
    </g>
    <g id="Group_495" data-name="Group 495" transform="translate(21.782 48.912)">
      <g id="Group_494" data-name="Group 494">
        <path id="Path_202" data-name="Path 202" d="M223.765,253.709h-.981a.736.736,0,1,0,0,1.471h.981a.736.736,0,1,0,0-1.471Z" transform="translate(-222.049 -253.709)" fill="#fff"/>
      </g>
    </g>
    <g id="Group_497" data-name="Group 497" transform="translate(29.301 48.912)">
      <g id="Group_496" data-name="Group 496">
        <path id="Path_203" data-name="Path 203" d="M300.408,253.709h-.981a.736.736,0,0,0,0,1.471h.981a.736.736,0,0,0,0-1.471Z" transform="translate(-298.692 -253.709)" fill="#fff"/>
      </g>
    </g>
    <g id="Group_499" data-name="Group 499" transform="translate(0 26.637)">
      <g id="Group_498" data-name="Group 498" transform="translate(0 0)">
        <path id="Path_204" data-name="Path 204" d="M50.2,62.178l-.192-1.034a1.4,1.4,0,0,0-1.625-1.117l-3.9.717,1.766-1.181a1.39,1.39,0,0,0,.439-1.842l-.535-.947a1.391,1.391,0,0,0-1.4-.7,18.611,18.611,0,0,0,.3-3.323,1.23,1.23,0,0,0-.731-1.123,5.642,5.642,0,0,0,.045-4.269.893.893,0,0,0-.5-.5,5.6,5.6,0,0,0-2.08-.4q-.137,0-.273.007a3.879,3.879,0,0,0-4.673-3.61,6.062,6.062,0,0,0-.343-3.238.9.9,0,0,0-.509-.513,6.047,6.047,0,0,0-5.466.5A7.277,7.277,0,0,0,28.8,36.838a1.249,1.249,0,0,0-1.768,0l-3.562,3.57A3.7,3.7,0,0,0,21,39.469a3.721,3.721,0,0,0-2.656,1.115,3.7,3.7,0,0,0-2.743-.2V37.637a3.473,3.473,0,0,0-3.406-3.471v-1.56A1.227,1.227,0,0,0,13.208,31.4V27.863a1.228,1.228,0,0,0-1.226-1.226H6a1.228,1.228,0,0,0-1.226,1.226V31.4A1.227,1.227,0,0,0,5.79,32.606v1.56a3.473,3.473,0,0,0-3.406,3.471V59.11A7.028,7.028,0,0,0,0,64.335c0,4.027,3.534,7.3,7.878,7.3l29.448-.009a3.368,3.368,0,0,0,3.332-3.894l5.882,1.057a1.4,1.4,0,0,0,.247.022,1.395,1.395,0,0,0,1.381-1.188l.159-1.069a1.391,1.391,0,0,0-1.068-1.563l-2.073-.476,3.9-.716a1.393,1.393,0,0,0,1.12-1.624ZM41.792,47.934a4.126,4.126,0,0,1,1.3.208,4.167,4.167,0,0,1-.352,3.383H40.755l.632-.634a.736.736,0,0,0-1.042-1.039l-.335.335a3.412,3.412,0,0,0-.791-1.358A4.114,4.114,0,0,1,41.792,47.934Zm-4.149-3.686a2.416,2.416,0,0,1,2.41,2.417c0,.025,0,.049,0,.074a5.59,5.59,0,0,0-2.1,1.246c-.1-.037-.2-.071-.3-.1a3.413,3.413,0,0,0-2.034-2.53A2.406,2.406,0,0,1,37.643,44.248Zm-3.889-4.1a4.558,4.558,0,0,1,1.464.241,4.609,4.609,0,0,1-.182,3.4,3.907,3.907,0,0,0-.943,1.307,3.473,3.473,0,0,0-.392.045,3.436,3.436,0,0,0-1.564.713,3.893,3.893,0,0,0-.557-.773l1.687-1.691a.736.736,0,0,0-1.042-1.039L30.381,44.2a3.846,3.846,0,0,0-1.129-.335,4.592,4.592,0,0,1,4.5-3.714ZM28.116,51.525h-.638a.735.735,0,0,0-1.369,0h-.75a.735.735,0,0,0-1.147-.9l-.693.695a.732.732,0,0,0-.145.209h-1.5a5.819,5.819,0,0,1-.944-2.969H32.6a5.819,5.819,0,0,1-.944,2.969H30.1a.733.733,0,0,0-.145-.209l-.693-.695a.735.735,0,0,0-1.147.9ZM26.4,47.085a2.408,2.408,0,0,1,4.652,0Zm1.5-9.047a5.818,5.818,0,0,1,1.389,2.6,6.059,6.059,0,0,0-.934,1.339.731.731,0,0,0-.383-.109H27a.736.736,0,1,0,0,1.471h.86a6.092,6.092,0,0,0-.113.616,3.848,3.848,0,0,0-.832.325,3.714,3.714,0,0,0-2.265-1.73v-.006a3.725,3.725,0,0,0-.3-.942Zm-13.3,6.639a2.221,2.221,0,0,1-.1-.369,2.246,2.246,0,0,1,1.828-2.591,2.27,2.27,0,0,1,.388-.034,2.223,2.223,0,0,1,1.339.447.736.736,0,0,0,1.054-.183,2.228,2.228,0,0,1,1.488-.974A2.27,2.27,0,0,1,21,40.94a2.231,2.231,0,0,1,2.2,1.855,2.255,2.255,0,0,1,.033.381.736.736,0,0,0,.671.732,2.239,2.239,0,0,1,1.847,1.319,3.879,3.879,0,0,0-.85,1.858h-4.2a1.251,1.251,0,0,0-1.156.778,5.614,5.614,0,0,0-5.231-.568.892.892,0,0,0-.5.5,5.637,5.637,0,0,0-.343,1.308,2.239,2.239,0,0,1,.748-3.509A.736.736,0,0,0,14.609,44.677ZM16.8,51.324l.2.2H15.236a4.169,4.169,0,0,1-.135-2.95,4.139,4.139,0,0,1,4.526,1.339,7.268,7.268,0,0,0,.563,1.611H19.082l-1.238-1.241A.736.736,0,0,0,16.8,51.324Zm-3.133.2H11.046a2.42,2.42,0,0,1,1.141-1.678,3.7,3.7,0,0,0,1.342,1.112A5.69,5.69,0,0,0,13.669,51.525ZM6.244,28.108h5.493v3.045H6.244Zm4.476,4.516v1.539H7.261V32.625Zm-6.865,8H8.633a.736.736,0,0,0,0-1.471H3.855V37.637a2,2,0,0,1,2-2h6.281a2,2,0,0,1,2,2v1.512H12.753a.736.736,0,0,0,0,1.471h1.374v.653a3.708,3.708,0,0,0-1.065,3.285v.008A3.718,3.718,0,0,0,11.5,48.261c.015.084.033.167.053.249a3.9,3.9,0,0,0-.981.771H3.855Zm0,10.132H9.722a3.86,3.86,0,0,0-.16.773H9.438A1.23,1.23,0,0,0,8.21,52.755a18.618,18.618,0,0,0,.319,3.437c-.211-.017-.428-.026-.649-.026a6.7,6.7,0,0,0-2.387.4c-.993.392-1.268.949-1.328,1.334-.105.052-.209.108-.311.164V50.753Zm9.316,9.038a2.786,2.786,0,0,1,.521.522h-.027a4.572,4.572,0,0,1-2.015-.639,5.3,5.3,0,0,1-.844-.573.736.736,0,0,0-.951,0,5.271,5.271,0,0,1-.844.573,4.571,4.571,0,0,1-2.016.639H6.967a2.782,2.782,0,0,1,.521-.522.736.736,0,0,0-.374-1.305,3.515,3.515,0,0,1-1.385-.4,4.19,4.19,0,0,1,2.151-.449,4.586,4.586,0,0,1,2.089.409.736.736,0,0,0,.72,0,4.588,4.588,0,0,1,2.089-.409,4.19,4.19,0,0,1,2.151.449,3.513,3.513,0,0,1-1.385.4.736.736,0,0,0-.374,1.305ZM11.7,68.746l.025.136a3.351,3.351,0,0,0,.53,1.283H7.878c-3.532,0-6.406-2.616-6.406-5.831a5.78,5.78,0,0,1,3.32-5.107,3.161,3.161,0,0,0,.846.434,1.743,1.743,0,0,0-.248.727,1.2,1.2,0,0,0,.293.907,1.67,1.67,0,0,0,1.313.49,6.076,6.076,0,0,0,2.728-.823q.322-.178.607-.375.284.2.607.375a6.079,6.079,0,0,0,2.728.823h0a1.67,1.67,0,0,0,1.312-.49,1.2,1.2,0,0,0,.293-.907,1.743,1.743,0,0,0-.248-.727,3.168,3.168,0,0,0,.846-.434,5.952,5.952,0,0,1,3.153,3.785l-5.2,1.977A3.364,3.364,0,0,0,11.7,68.746Zm27.09.727a1.9,1.9,0,0,1-1.465.684h-.772l-.482-2.6a.736.736,0,0,0-1.447.268l.433,2.338H32.525L32.2,68.4a.736.736,0,0,0-1.447.268l.277,1.494-5.888,0L24.7,67.769a.736.736,0,0,0-1.447.268l.394,2.125-8.6,0h0a1.9,1.9,0,0,1-1.874-1.552l-.025-.136a1.893,1.893,0,0,1,1.194-2.113l2.892-1.1.215,1.163a.736.736,0,0,0,.722.6.746.746,0,0,0,.135-.012.736.736,0,0,0,.589-.857l-.264-1.426L22.922,63.1a.736.736,0,0,0-.522-1.376l-2,.759a7.456,7.456,0,0,0-3.909-4.59c-.06-.385-.335-.942-1.328-1.334a6.7,6.7,0,0,0-2.387-.4,7.464,7.464,0,0,0-1.713.191v-.444a.735.735,0,0,0-1.19-.578A17.187,17.187,0,0,1,9.683,53H33.647a.736.736,0,0,0,0-1.471h-.3a7.283,7.283,0,0,0,.733-3.19,1.252,1.252,0,0,0-1.13-1.245,1.939,1.939,0,0,1,1-.5,1.984,1.984,0,0,1,.339-.029,1.944,1.944,0,0,1,1.919,1.616,1.967,1.967,0,0,1,.028.333.736.736,0,0,0,.671.732,1.95,1.95,0,0,1,1.749,1.608,1.923,1.923,0,0,1-.005.678h-.789a.736.736,0,0,0,0,1.471h5.718a16.959,16.959,0,0,1-.516,3.947L39.08,59.3a3.377,3.377,0,0,0-4.447-2.216L26.421,60.2a.736.736,0,0,0,.522,1.376l1.082-.411.336,1.814a.736.736,0,0,0,.723.6.745.745,0,0,0,.135-.012.736.736,0,0,0,.589-.857l-.385-2.077,5.732-2.177a1.91,1.91,0,0,1,1.615.119,1.89,1.89,0,0,1,.939,1.308L39.2,67.919A1.882,1.882,0,0,1,38.79,69.473Zm2.625-5.759a.736.736,0,0,0-.032,1.441l5.478,1.256-.137.918-6.35-1.141-.993-5.359,5.531-3.265.461.816L40.708,61.5a.736.736,0,0,0,.542,1.335l7.328-1.346.163.881Z" transform="translate(0 -26.637)" fill="#fff"/>
      </g>
    </g>
  </g>
</svg>
