<svg xmlns="http://www.w3.org/2000/svg" width="49.055" height="44.293" viewBox="0 0 49.055 44.293">
  <g id="family" transform="translate(0 -24.849)">
    <path id="Path_323" data-name="Path 323" d="M44.777,28.348a11.621,11.621,0,0,0-9.53-3.451,16.655,16.655,0,0,0-9.623,4.334c-.308.277-.555.51-.752.7-.122.116-.246.233-.345.322-.1-.09-.227-.21-.351-.328-.2-.186-.44-.418-.743-.691A16.666,16.666,0,0,0,13.807,24.9a11.615,11.615,0,0,0-9.528,3.451,15.562,15.562,0,0,0,0,21.436l.011.011L22.632,67.976a4.887,4.887,0,0,0,1.428,1.091,1.6,1.6,0,0,0,1.648-.465c.165-.147.649-.558.716-.626l10.6-10.506a.718.718,0,0,0-1.011-1.02l-3.356,3.327c-.512-2.408-2.752-3.007-4.443-3.458l-.349-.094c-.063-.017-.271-.125-.626-.774a5.786,5.786,0,0,0,2.528-4.559s-.008-.83-.008-.866a5.92,5.92,0,0,0-1.62-4.3l-.048-.046c.5-.176,1.032-.321,1.556-.461a5.438,5.438,0,0,0,8.573,0c2.728.733,4.381,1.4,4.381,4.085v.614l-3.97,3.936a.718.718,0,0,0,1.011,1.02l5.127-5.082.011-.011A15.568,15.568,0,0,0,44.777,28.348ZM16.4,59.776,7.5,50.957,6.455,49.919v-.613c0-2.687,1.653-3.352,4.382-4.085a5.437,5.437,0,0,0,8.572,0c.522.14,1.051.285,1.551.46l-.05.048a5.919,5.919,0,0,0-1.622,4.3v.866a5.786,5.786,0,0,0,2.528,4.559c-.355.649-.563.757-.627.774l-.347.093c-1.691.451-3.93,1.05-4.443,3.458ZM12.837,43.72a5.456,5.456,0,0,0,.839.436,3.51,3.51,0,0,0,2.936,0,5.458,5.458,0,0,0,.811-.418,2.948,2.948,0,0,0,.618.874,4,4,0,0,1-5.838,0A3.02,3.02,0,0,0,12.837,43.72Zm-1.331-4.806V37.878h1.852a5.529,5.529,0,0,0,3.1-.813,3.216,3.216,0,0,0,2.315.8l.01,1.046a4.5,4.5,0,0,1-2.719,3.913,2.1,2.1,0,0,1-1.843,0,4.5,4.5,0,0,1-2.716-3.913ZM27.967,57.74c2.093.565,3.359,1.087,3.359,3.122v.231s-6.657,6.449-6.8,6.508c-.143-.059-6.8-6.509-6.8-6.509v-.23c0-2.035,1.266-2.557,3.359-3.122a4.379,4.379,0,0,0,6.881,0Zm-5.552-.664a4.395,4.395,0,0,0,.669-.95,3.7,3.7,0,0,0,2.885,0,4.4,4.4,0,0,0,.669.95,2.934,2.934,0,0,1-4.223,0ZM28.329,50.9A4.476,4.476,0,0,1,25.5,54.767a2.322,2.322,0,0,1-1.953,0A4.476,4.476,0,0,1,20.725,50.9l.007-.339a13.782,13.782,0,0,1,1.58-.17,6.875,6.875,0,0,0,3.208-.71c.053-.037.145-.1.215-.144.007,0,.107.077.157.115a4.882,4.882,0,0,0,2.433,1.062Zm-.057-1.651a3.727,3.727,0,0,1-1.688-.873,1.408,1.408,0,0,0-1.878.12,6.458,6.458,0,0,1-2.5.461c-.494.036-.973.07-1.411.135a3.746,3.746,0,0,1,7.476.158Zm5.66-3.371a3.984,3.984,0,0,1-2.92-1.265,2.939,2.939,0,0,0,.639-.932c.182.092.368.178.559.253a4.3,4.3,0,0,0,3.443,0c.191-.075.377-.16.559-.253a2.932,2.932,0,0,0,.639.933,3.976,3.976,0,0,1-2.918,1.264ZM35.127,42.6a2.884,2.884,0,0,1-2.391,0,5.407,5.407,0,0,1-3.406-4.675l0-.287a3.25,3.25,0,0,0,2.048-.822A11.191,11.191,0,0,0,36.635,38.1a8.877,8.877,0,0,0,1.9-.195v.015A5.406,5.406,0,0,1,35.127,42.6Zm-5.749-6.409c.089-1.333.394-2.287,1.724-2.634a.718.718,0,0,0,.377-.243,3.709,3.709,0,0,1,4.138-1.042,4.508,4.508,0,0,1,2.888,4.169,9.294,9.294,0,0,1-6.657-1.023.956.956,0,0,0-.528-.173,1.15,1.15,0,0,0-.809.412,1.673,1.673,0,0,1-1.133.535ZM43.99,48.523a4.435,4.435,0,0,0-1.86-3.262,10.9,10.9,0,0,0-3.64-1.453l-.439-.118c-.293-.08-.483-.466-.617-.8a6.611,6.611,0,0,0,2.536-4.97s0-.009,0-.014-.011-.929-.011-.955A6.059,6.059,0,0,0,36.1,30.913a5.166,5.166,0,0,0-5.582,1.313c-2.5.786-2.565,3.178-2.6,4.63,0,.01-.019,1.046-.019,1.046s0,.008,0,.012a6.612,6.612,0,0,0,2.536,4.97c-.135.339-.326.724-.618.8l-.444.119a15.371,15.371,0,0,0-2.688.9,5.252,5.252,0,0,0-2-.485A6.563,6.563,0,0,0,24.04,43.1a5.265,5.265,0,0,1-.945-3.393,7.986,7.986,0,0,0-1.472-6.76,8.191,8.191,0,0,0-6.179-2.928A8.5,8.5,0,0,0,11,31.154a.718.718,0,0,0,.723,1.242,7.165,7.165,0,0,1,3.7-.941A6.739,6.739,0,0,1,20.5,33.848a6.689,6.689,0,0,1,1.165,5.661.721.721,0,0,0-.013.155A6.664,6.664,0,0,0,22.845,43.9c.116.173.224.337.324.513a5.172,5.172,0,0,0-.8.294,15.5,15.5,0,0,0-2.685-.9l-.442-.119c-.316-.086-.522-.531-.666-.9a5.761,5.761,0,0,0,1.644-3.887l-.017-1.754a.718.718,0,0,0-.713-.711h-.059c-1.5-.01-1.557-.011-2.489-.855a.718.718,0,0,0-1.018.054,3.6,3.6,0,0,1-2.567.8h-2.57a.718.718,0,0,0-.718.718v1.754a5.75,5.75,0,0,0,1.617,3.854c-.146.365-.366.834-.685.921l-.435.117a11.164,11.164,0,0,0-3.576,1.409,4.424,4.424,0,0,1,.665-1.32,6.664,6.664,0,0,0,1.189-4.231.717.717,0,0,0-.013-.155A6.977,6.977,0,0,1,9.483,34.6a.718.718,0,1,0-1.243-.72,8.359,8.359,0,0,0-.834,5.824,5.267,5.267,0,0,1-.945,3.39A6.538,6.538,0,0,0,5.3,47.428a5.3,5.3,0,0,0-.24,1.092,14.119,14.119,0,0,1,.25-19.174c4.864-5.039,12.47-3.27,17.159.954.289.261.525.485.715.665.56.532.87.827,1.338.827h.008c.465,0,.773-.293,1.329-.82.191-.182.43-.408.724-.672,4.686-4.224,12.292-5.993,17.158-.954a14.124,14.124,0,0,1,.247,19.178Z" transform="translate(0 0)" fill="#fff"/>
  </g>
</svg>
