<svg xmlns="http://www.w3.org/2000/svg" width="46" height="40.638" viewBox="0 0 46 40.638">
  <g id="Page-1" transform="translate(-0.003)">
    <g id="_037---Coloured-Contacts" data-name="037---Coloured-Contacts" transform="translate(0.003 0)">
      <path id="Shape" d="M27.834,14a3.834,3.834,0,1,0,3.834,3.834A3.834,3.834,0,0,0,27.834,14Zm0,6.134a2.3,2.3,0,1,1,2.3-2.3A2.3,2.3,0,0,1,27.834,20.134Z" transform="translate(-5.601 -3.266)" fill="#fff"/>
      <path id="Shape-2" data-name="Shape" d="M41.474,18.862c1.113-1.185,1.967-2.2,2.5-2.881a2.266,2.266,0,0,0,0-2.822A47.133,47.133,0,0,0,39.411,8.19C35.436,4.454,29.233,0,22.236,0,11.716,0,2.936,10.07.5,13.157a2.266,2.266,0,0,0,0,2.822C2.879,18.994,11.313,28.667,21.5,29.115a12.26,12.26,0,1,0,19.97-10.253Zm1.3-3.834c-.43.544-1.274,1.572-2.429,2.8a18.728,18.728,0,0,0,.289-3.262,18.394,18.394,0,0,0-.3-3.274c1.033,1.1,1.854,2.082,2.434,2.814a.731.731,0,0,1,0,.92ZM38.214,9.172a16.682,16.682,0,0,1,.89,5.4,17.13,17.13,0,0,1-.214,2.684,12.173,12.173,0,0,0-5.153-1.15c-.307,0-.6.024-.9.045A10.714,10.714,0,0,0,16.634,5.421a3.029,3.029,0,0,0-3.545,3.544,10.713,10.713,0,0,0,8.789,16.319,12.191,12.191,0,0,0-.369,2.3c-6.052-.289-11.5-4.123-15.247-7.618a16.719,16.719,0,0,1,0-10.788c3.9-3.635,9.632-7.641,15.974-7.641,6.414,0,12.2,4.121,15.974,7.639ZM22.375,23.763c-.046,0-.093.006-.139.006a9.194,9.194,0,0,1-8.3-13.165,3.067,3.067,0,0,0,4.335-4.335,9.143,9.143,0,0,1,12.97,10.089,12.308,12.308,0,0,0-8.867,7.405ZM17.636,8.434A1.533,1.533,0,1,1,16.1,6.9,1.533,1.533,0,0,1,17.636,8.434ZM1.7,15.028a.731.731,0,0,1,0-.92c.524-.662,1.353-1.662,2.434-2.812a18.147,18.147,0,0,0,0,6.545c-1.08-1.151-1.908-2.15-2.434-2.812ZM33.737,39.1A10.734,10.734,0,1,1,44.471,28.369,10.734,10.734,0,0,1,33.737,39.1Z" transform="translate(-0.003 0)" fill="#fff"/>
      <path id="Shape-3" data-name="Shape" d="M42.834,32a3.834,3.834,0,1,0,3.834,3.834A3.834,3.834,0,0,0,42.834,32Zm0,6.134a2.3,2.3,0,1,1,2.3-2.3A2.3,2.3,0,0,1,42.834,38.134Z" transform="translate(-9.1 -7.464)" fill="#fff"/>
      <path id="Shape-4" data-name="Shape" d="M43.767,29.067a.767.767,0,0,0,.767-.767V26.767a.767.767,0,1,0-1.533,0V28.3A.767.767,0,0,0,43.767,29.067Z" transform="translate(-10.033 -6.065)" fill="#fff"/>
      <path id="Shape-5" data-name="Shape" d="M43.767,44a.767.767,0,0,0-.767.767V46.3a.767.767,0,1,0,1.533,0V44.767A.767.767,0,0,0,43.767,44Z" transform="translate(-10.033 -10.264)" fill="#fff"/>
      <path id="Shape-6" data-name="Shape" d="M51.767,36a.767.767,0,0,0,0,1.533H53.3A.767.767,0,1,0,53.3,36Z" transform="translate(-11.899 -8.397)" fill="#fff"/>
      <path id="Shape-7" data-name="Shape" d="M35.3,37.533A.767.767,0,1,0,35.3,36H33.767a.767.767,0,0,0,0,1.533Z" transform="translate(-7.7 -8.397)" fill="#fff"/>
      <path id="Shape-8" data-name="Shape" d="M48.882,31.325a.767.767,0,0,0,1.084,0l1.084-1.084a.767.767,0,0,0-1.084-1.084l-1.084,1.084A.767.767,0,0,0,48.882,31.325Z" transform="translate(-11.352 -6.751)" fill="#fff"/>
      <path id="Shape-9" data-name="Shape" d="M38.319,41.882a.767.767,0,0,0-1.084,0l-1.084,1.084a.767.767,0,1,0,1.084,1.084l1.084-1.084A.767.767,0,0,0,38.319,41.882Z" transform="translate(-8.381 -9.717)" fill="#fff"/>
      <path id="Shape-10" data-name="Shape" d="M49.963,41.879a.767.767,0,1,0-1.084,1.084l1.084,1.084a.767.767,0,0,0,1.084-1.084Z" transform="translate(-11.349 -9.714)" fill="#fff"/>
      <path id="Shape-11" data-name="Shape" d="M37.241,31.325a.767.767,0,1,0,1.084-1.084l-1.084-1.084a.767.767,0,0,0-1.084,1.084Z" transform="translate(-8.386 -6.751)" fill="#fff"/>
      <path id="Shape-12" data-name="Shape" d="M46.539,29.655a.78.78,0,0,0,.294.058.767.767,0,0,0,.708-.473l.588-1.416a.767.767,0,1,0-1.417-.588l-.587,1.417a.767.767,0,0,0,.414,1Z" transform="translate(-10.748 -6.243)" fill="#fff"/>
      <path id="Shape-13" data-name="Shape" d="M40.815,43.447a.767.767,0,0,0-1,.415l-.588,1.416a.767.767,0,1,0,1.417.588l.587-1.417A.767.767,0,0,0,40.815,43.447Z" transform="translate(-9.139 -10.121)" fill="#fff"/>
      <path id="Shape-14" data-name="Shape" d="M52.865,39.712l-1.417-.588a.767.767,0,1,0-.587,1.417l1.417.587a.767.767,0,1,0,.587-1.416Z" transform="translate(-11.756 -9.113)" fill="#fff"/>
      <path id="Shape-15" data-name="Shape" d="M34.231,33.64l1.417.588a.767.767,0,1,0,.587-1.417l-1.417-.587a.767.767,0,1,0-.587,1.416Z" transform="translate(-7.872 -7.501)" fill="#fff"/>
      <path id="Shape-16" data-name="Shape" d="M52.284,32.237l-1.417.586a.767.767,0,0,0,.585,1.418l1.418-.586a.767.767,0,0,0-.586-1.418Z" transform="translate(-11.757 -7.506)" fill="#fff"/>
      <path id="Shape-17" data-name="Shape" d="M36.652,39.531a.767.767,0,0,0-1-.416l-1.418.586a.767.767,0,1,0,.586,1.418l1.417-.586A.767.767,0,0,0,36.652,39.531Z" transform="translate(-7.878 -9.111)" fill="#fff"/>
      <path id="Shape-18" data-name="Shape" d="M47.528,43.859a.767.767,0,1,0-1.416.586l.586,1.418a.767.767,0,1,0,1.417-.587Z" transform="translate(-10.743 -10.114)" fill="#fff"/>
      <path id="Shape-19" data-name="Shape" d="M39.823,29.235a.767.767,0,1,0,1.416-.586l-.588-1.418a.767.767,0,0,0-1.417.587Z" transform="translate(-9.141 -6.242)" fill="#fff"/>
    </g>
  </g>
</svg>
