<svg xmlns="http://www.w3.org/2000/svg" width="60.548" height="38.293" viewBox="0 0 60.548 38.293">
  <g id="braces" transform="translate(-11 -101.106)">
    <path id="Path_327" data-name="Path 327" d="M77.323,376H60.979a.741.741,0,0,0,0,1.483H77.323a.741.741,0,1,0,0-1.483Z" transform="translate(-43.154 -240.926)" fill="#fff"/>
    <path id="Path_328" data-name="Path 328" d="M37.85,376h-.608a.741.741,0,1,0,0,1.483h.608a.741.741,0,1,0,0-1.483Z" transform="translate(-22.349 -240.926)" fill="#fff"/>
    <path id="Path_329" data-name="Path 329" d="M70.9,121.511c-.948-.122-1.9-.237-2.856-.347a25.1,25.1,0,0,1,1.389-3.859c.008-.019.018-.037.025-.057a23.7,23.7,0,0,0,2.041-8.259,7.394,7.394,0,0,0-9.317-7.621l-2.652.723a11.955,11.955,0,0,1-6.3,0l-2.647-.723a7.389,7.389,0,0,0-9.312,6.557,7.389,7.389,0,0,0-9.307-6.556l-2.652.723a11.955,11.955,0,0,1-6.3,0l-2.647-.723a7.4,7.4,0,0,0-9.323,7.622,23.727,23.727,0,0,0,2.03,8.233c.009.028.075.155.087.182a21.623,21.623,0,0,1,1.306,3.762c-.943.109-1.889.225-2.824.345a.741.741,0,0,0-.647.736v16.4a.752.752,0,0,0,.741.754H70.807a.752.752,0,0,0,.741-.754v-16.4A.741.741,0,0,0,70.9,121.511Zm-2.818-4.82c-.01.021-.021.043-.029.065a23.194,23.194,0,0,0-2.191,9.624v3.743A1.867,1.867,0,0,1,64,132.031a2,2,0,0,1-1.327-.508,5.613,5.613,0,0,1-1.995-4.231v-2.056a4.369,4.369,0,0,0-1.3-3.123,4.308,4.308,0,0,0-3.074-1.25H56.3a4.4,4.4,0,0,0-4.4,4.392v2.036a5.565,5.565,0,0,1-1.916,4.231,2.034,2.034,0,0,1-1.343.508,1.922,1.922,0,0,1-1.931-1.908V126.38a22.693,22.693,0,0,0-1.9-9.356l-.141-.334a21.226,21.226,0,0,1-1.064-2.871h9.155v1.6a.75.75,0,0,0,.748.748h6.042a.75.75,0,0,0,.747-.748v-1.6h8.851A21.227,21.227,0,0,1,68.083,116.691Zm-13.835-2.006V111.1h1.483v3.583Zm2.966,0V111.1h1.606v3.583ZM44.7,104.1a5.879,5.879,0,0,1,5.5-1.3l2.647.723a13.438,13.438,0,0,0,7.078,0l2.652-.723a5.913,5.913,0,0,1,7.449,6.1,22.557,22.557,0,0,1-.486,3.441H60.3v-1.973a.782.782,0,0,0-.783-.746H53.507a.745.745,0,0,0-.741.746v1.973H43.23a22.548,22.548,0,0,1-.487-3.441,5.908,5.908,0,0,1,1.952-4.8Zm-3.421,5.036a24.034,24.034,0,0,0,.44,3.2h-.879a24.04,24.04,0,0,0,.439-3.2Zm.8,4.683a22.494,22.494,0,0,0,1.12,3.192l.124.293a21.577,21.577,0,0,1,1.1,3.03h-6.31a24.99,24.99,0,0,1,1.143-3.031l.108-.277a21.6,21.6,0,0,0,1.121-3.208Zm-29.056-1.483a22.548,22.548,0,0,1-.487-3.441,5.913,5.913,0,0,1,7.452-6.1l2.647.723a13.438,13.438,0,0,0,7.078,0l2.652-.723a5.913,5.913,0,0,1,7.448,6.1,22.573,22.573,0,0,1-.485,3.441H29.906v-1.973a.711.711,0,0,0-.7-.746H23.192a.711.711,0,0,0-.7.746v1.973ZM28.423,111.1v3.583H26.94V111.1Zm-2.966,0v3.583H23.975V111.1Zm44.608,26.814H12.483V122.9c.761-.1,1.526-.187,2.288-.275a22.413,22.413,0,0,1,.307,3.756v3.743a3.387,3.387,0,0,0,3.391,3.391,3.511,3.511,0,0,0,2.312-.881,7,7,0,0,0,1.473-1.767.739.739,0,0,0-.644-1.105h0a.74.74,0,0,0-.645.379,5.057,5.057,0,0,1-1.164,1.372,2,2,0,0,1-1.326.514,1.9,1.9,0,0,1-1.915-1.9V126.38a22.826,22.826,0,0,0-2.014-9.542c-.01-.031-.056-.117-.07-.147A21.271,21.271,0,0,1,13.4,113.82h9.1v1.6a.75.75,0,0,0,.748.748h5.966a.7.7,0,0,0,.7-.7V113.82h9.033a21.267,21.267,0,0,1-1.033,2.791l-.144.368a22.537,22.537,0,0,0-2.049,9.4v3.743a1.894,1.894,0,0,1-1.9,1.908,2.121,2.121,0,0,1-1.372-.508,5.662,5.662,0,0,1-2.04-4.231v-2.056a4.341,4.341,0,0,0-1.268-3.123,4.24,4.24,0,0,0-3.044-1.25h-.007a4.348,4.348,0,0,0-4.33,4.392v.058a.74.74,0,0,0,.74.74h0a.74.74,0,0,0,.74-.74v-.058a2.864,2.864,0,0,1,2.849-2.91h0a2.768,2.768,0,0,1,2,.816,2.869,2.869,0,0,1,.833,2.074v2.056a7.127,7.127,0,0,0,2.54,5.353,3.588,3.588,0,0,0,2.343.868,3.411,3.411,0,0,0,3.4-3.391V126.38a20.386,20.386,0,0,1,.517-4.559l7.065,0a22.628,22.628,0,0,1,.45,4.563v3.743a3.415,3.415,0,0,0,3.424,3.391,3.458,3.458,0,0,0,2.3-.868,7.051,7.051,0,0,0,2.436-5.353v-2.036a2.919,2.919,0,0,1,2.915-2.91h0a2.835,2.835,0,0,1,2.027.816,2.9,2.9,0,0,1,.862,2.074v2.056a7.1,7.1,0,0,0,2.511,5.353,3.467,3.467,0,0,0,2.3.868,3.371,3.371,0,0,0,3.349-3.391V126.38a19.8,19.8,0,0,1,.364-3.763c.783.09,1.57.184,2.354.282Z" fill="#fff"/>
  </g>
</svg>
