<svg xmlns="http://www.w3.org/2000/svg" width="27.409" height="47" viewBox="0 0 27.409 47">
  <g id="old-man_1_" data-name="old-man (1)" transform="translate(-5.005)">
    <g id="Group_555" data-name="Group 555" transform="translate(14.799)">
      <path id="Path_324" data-name="Path 324" d="M15.881,11.75a5.875,5.875,0,1,1,5.875-5.875,5.882,5.882,0,0,1-5.875,5.875Zm0-9.792A3.917,3.917,0,1,0,19.8,5.875,3.921,3.921,0,0,0,15.881,1.958Z" transform="translate(-10.006)" fill="#fff"/>
    </g>
    <g id="Group_556" data-name="Group 556" transform="translate(6.965 27.417)">
      <path id="Path_325" data-name="Path 325" d="M6.985,33.583a.98.98,0,0,1-.979-.979V14.979a.979.979,0,1,1,1.958,0V32.6A.98.98,0,0,1,6.985,33.583Z" transform="translate(-6.006 -14)" fill="#fff"/>
    </g>
    <g id="Group_557" data-name="Group 557" transform="translate(5.005 13.708)">
      <path id="Path_326" data-name="Path 326" d="M27.51,40.292a.98.98,0,0,1-.979-.979V36.4a10.732,10.732,0,0,1,1.809-5.975l.627-.94a8.716,8.716,0,0,0,1.484-5.015c-.139-7.442-1.486-12.122-4.242-14.729a2.91,2.91,0,0,0-2.021-.785H21.909a6.844,6.844,0,0,0-5.7,3.053l-1.014,1.522A4.906,4.906,0,0,1,13.31,15.2l-5.665,2.84a1.234,1.234,0,0,0-.257,2.035,1.2,1.2,0,0,0,.981.288l3.147-.45A2.935,2.935,0,0,0,13.05,19.2l4.363-3.87a1.959,1.959,0,0,1,3.261,1.463V39.313a.979.979,0,0,1-1.958,0V16.792l-4.363,3.87A4.894,4.894,0,0,1,11.8,21.844l-3.149.45a3.194,3.194,0,0,1-3.644-3.159,3.174,3.174,0,0,1,1.763-2.853l5.665-2.84a2.95,2.95,0,0,0,1.13-1l1.014-1.522A8.8,8.8,0,0,1,21.911,7h2.28a4.862,4.862,0,0,1,3.366,1.32c3.161,2.992,4.7,8.113,4.855,16.113A10.663,10.663,0,0,1,30.6,30.572l-.627.94A8.779,8.779,0,0,0,28.491,36.4v2.912A.982.982,0,0,1,27.51,40.292Z" transform="translate(-5.005 -7)" fill="#fff"/>
    </g>
  </g>
</svg>
