<svg xmlns="http://www.w3.org/2000/svg" width="34.257" height="45.692" viewBox="0 0 34.257 45.692">
  <g id="businessman" transform="translate(-64.068 0)">
    <path id="Path_237" data-name="Path 237" d="M249.824,334.567a.669.669,0,1,0-1.339,0v.4a.669.669,0,1,0,1.339,0Z" transform="translate(-167.959 -304.1)" fill="#fff"/>
    <path id="Path_238" data-name="Path 238" d="M249.824,376.567a.669.669,0,1,0-1.339,0v.4a.669.669,0,1,0,1.339,0Z" transform="translate(-167.959 -342.352)" fill="#fff"/>
    <path id="Path_239" data-name="Path 239" d="M249.824,418.567a.669.669,0,1,0-1.339,0v.4a.669.669,0,1,0,1.339,0Z" transform="translate(-167.959 -380.604)" fill="#fff"/>
    <path id="Path_240" data-name="Path 240" d="M249.154,459.9a.669.669,0,0,0-.669.669v.4a.669.669,0,1,0,1.339,0v-.4A.669.669,0,0,0,249.154,459.9Z" transform="translate(-167.959 -418.855)" fill="#fff"/>
    <path id="Path_241" data-name="Path 241" d="M285.812,368.416a.669.669,0,0,0,0-1.339h-.733a1.053,1.053,0,0,0-1.052,1.052v1.629a1.053,1.053,0,0,0,1.052,1.052h4.59a1.053,1.053,0,0,0,1.052-1.052v-1.629a1.053,1.053,0,0,0-1.052-1.052h-.733a.669.669,0,0,0,0,1.339h.446v1.055h-4.016v-1.055Z" transform="translate(-200.329 -334.318)" fill="#fff"/>
    <path id="Path_242" data-name="Path 242" d="M97.655,37.473a.669.669,0,0,0,.669-.669V33.45a6.6,6.6,0,0,0-3.9-6.023l-.013-.005-8.985-3.48V22.194a7.024,7.024,0,0,0,2.832-4.828A3.243,3.243,0,0,0,91.3,14.206a3.359,3.359,0,0,0-.814-2.168V9.077A9.088,9.088,0,0,0,81.4,0h-.417A9.088,9.088,0,0,0,71.91,9.078V12.12a3.139,3.139,0,0,0,2.223,5.246,6.946,6.946,0,0,0,2.827,4.819v1.728l-8.983,3.508-.011,0a6.6,6.6,0,0,0-3.9,6.023V43.862a1.832,1.832,0,0,0,1.83,1.83h30.6a1.832,1.832,0,0,0,1.83-1.83V39.927a.669.669,0,1,0-1.339,0v3.935a.492.492,0,0,1-.492.492H92.952V32.766a.669.669,0,0,0-1.339,0V44.353H70.78V32.766a.669.669,0,1,0-1.339,0V44.353H65.9a.492.492,0,0,1-.492-.492V33.45a5.308,5.308,0,0,1,3.064-4.783l5.589-2.183,3.375,2.8a1.3,1.3,0,0,0,1.911-.274l.736-1.09h2.23l.736,1.09a1.3,1.3,0,0,0,1.911.274l3.36-2.786,5.6,2.171a5.3,5.3,0,0,1,3.063,4.782V36.8a.669.669,0,0,0,.669.669Zm-7.7-23.266a1.891,1.891,0,0,1-1.647,1.8V12.629a1.982,1.982,0,0,0,.532-.136c.208-.087,1.115.648,1.115,1.714ZM74.082,16.013a1.882,1.882,0,0,1-1.647-1.8,1.961,1.961,0,0,1,.91-1.589h0a.239.239,0,0,1,.166-.027,2.857,2.857,0,0,0,.571.04v3.374ZM73.695,11.3a.446.446,0,0,1-.446-.446V9.078a7.739,7.739,0,0,1,7.739-7.739H81.4a7.739,7.739,0,0,1,7.739,7.739v2.09a1.5,1.5,0,0,0-.819.091,1.318,1.318,0,0,1-.908-.12,1.657,1.657,0,0,1-.943-1.488.788.788,0,0,0-.6-.765h0l-.019,0a.861.861,0,0,0-.893.443A3.813,3.813,0,0,1,81.62,11.3H73.695Zm1.726,5.225V12.638h6.2a5.163,5.163,0,0,0,3.814-1.687,3.031,3.031,0,0,0,1.537,1.456v4.118a5.693,5.693,0,0,1-5.678,5.683h-.012a5.719,5.719,0,0,1-5.862-5.683Zm2.838,11.7-2.773-2.3,1.922-.751,1.866,1.547Zm3.981-2.512a1.308,1.308,0,0,0-.465.866H80.619a1.313,1.313,0,0,0-.465-.866l-1.869-1.55a1.746,1.746,0,0,0,.015-.208V22.946a7.331,7.331,0,0,0,5.788.017v1a1.342,1.342,0,0,0,.016.2Zm1.895,2.512-1.015-1.5L84.962,25.2l1.927.746Z" transform="translate(0)" fill="#fff"/>
  </g>
</svg>
