<svg id="Layer_1" data-name="Layer 1" xmlns="http://www.w3.org/2000/svg" viewBox="0 0 589 409"><defs><style>.cls-1{fill:#47a3da;}.cls-2{fill:#df4343;}</style></defs><path class="cls-1" d="M23.05,390.91V24.55c2.21.12,4.42.31,6.62.36,48.6,1.05,97.28-1.85,145.79,3,22.2,2.24,43.59,7.78,63.43,18.32,11.28,6,21.47,13.47,29.95,23.32a114.42,114.42,0,0,0-27.59,37.58c-6.26,14-11.24,28.52-16.63,42.44-8.19-20.79-24.49-34.82-46.1-42.61-21.1-7.6-43-9.36-65.15-6.75v216.3c12.16,0,24,.17,35.76,0a79.91,79.91,0,0,0,36.36-9.5c25.58-13.45,40.33-35.21,45.94-62.54,3.8-18.48,4.41-37.66,5.78-56.58,1.57-21.75,7.29-42.34,15.78-62.27,11-25.74,28.75-46.56,49.79-64.19a179.19,179.19,0,0,1,40.43-25.36,177.16,177.16,0,0,1,60.13-15.2c23.26-1.77,46.32-1.46,69.22,3.54,29.32,6.41,55.25,19.73,78.61,38.28,4.17,3.31,7.83,7.26,11.92,11.1L502.77,132.1c-18.1-17.42-39.35-28.6-64.72-30.37-28.75-2-54.94,5.43-76.91,24.46-19.21,16.64-28.67,38.78-31.57,63.6-1.6,13.73-.88,27.73-2.54,41.44-2.86,23.69-7.77,47-19.55,68.17-17.76,31.92-42.58,56.88-74.93,73.88-26.06,13.71-54.7,17-83.5,17.45C107.06,391.4,65.05,390.9,23.05,390.91Z"/><path class="cls-2" d="M294,347.94a194.4,194.4,0,0,0,46.15-85.54c16.84,31.44,42,50.41,77,53.84,34.6,3.38,64.59-6.52,86.46-34.58l59.94,60.16C510.11,409.92,365.74,420.94,294,347.94Z"/></svg>