<svg xmlns="http://www.w3.org/2000/svg" width="76.102" height="74.767" viewBox="0 0 76.102 74.767">
  <g id="Group_71" data-name="Group 71" transform="translate(-32 -32)">
    <path id="Path_113" data-name="Path 113" d="M74.724,464H32v2.67H74.964a4.008,4.008,0,0,1-.24-1.335Z" transform="translate(0 -359.903)" fill="#2778a7"/>
    <path id="Path_114" data-name="Path 114" d="M264,232h4.005v5.34H264Z" transform="translate(-193.281 -166.622)" fill="#ea6666"/>
    <path id="Path_115" data-name="Path 115" d="M120,320h24.032v2.67H120Z" transform="translate(-73.314 -239.936)" fill="#ea6666"/>
    <path id="Path_116" data-name="Path 116" d="M200,352h8.011v16.021H200Z" transform="translate(-139.962 -266.595)" fill="#ea6666"/>
    <path id="Path_117" data-name="Path 117" d="M176,232h5.34v5.34H176Z" transform="translate(-119.968 -166.622)" fill="#ea6666"/>
    <path id="Path_118" data-name="Path 118" d="M88,152h5.34v5.34H88Z" transform="translate(-46.654 -99.973)" fill="#ea6666"/>
    <path id="Path_119" data-name="Path 119" d="M136,352h8.011v16.021H136Z" transform="translate(-86.643 -266.595)" fill="#ea6666"/>
    <path id="Path_120" data-name="Path 120" d="M176,152h5.34v5.34H176Z" transform="translate(-119.968 -99.973)" fill="#ea6666"/>
    <path id="Path_121" data-name="Path 121" d="M88,232h5.34v5.34H88Z" transform="translate(-46.654 -166.622)" fill="#ea6666"/>
    <path id="Path_122" data-name="Path 122" d="M88.043,125.351V117.34a1.335,1.335,0,0,1,1.335-1.335h8.011a1.335,1.335,0,0,1,1.335,1.335v5.34h2.67V112H88.043v1.335a1.335,1.335,0,0,1-1.335,1.335H70.686a1.335,1.335,0,0,1-1.335-1.335V112H56v56.075H66.681V152.054H65.346a1.335,1.335,0,0,1-1.335-1.335v-5.34a1.335,1.335,0,0,1,1.335-1.335h26.7a1.335,1.335,0,0,1,1.335,1.335v5.34a1.335,1.335,0,0,1-1.335,1.335H90.713v16.021h4.005V140.038h-5.34a1.335,1.335,0,0,1-1.335-1.335v-8.011a1.335,1.335,0,0,1,1.335-1.335h5.34v-2.67h-5.34A1.335,1.335,0,0,1,88.043,125.351ZM69.351,138.7a1.335,1.335,0,0,1-1.335,1.335H60.005A1.335,1.335,0,0,1,58.67,138.7v-8.011a1.335,1.335,0,0,1,1.335-1.335h8.011a1.335,1.335,0,0,1,1.335,1.335Zm0-13.351a1.335,1.335,0,0,1-1.335,1.335H60.005a1.335,1.335,0,0,1-1.335-1.335V117.34a1.335,1.335,0,0,1,1.335-1.335h8.011a1.335,1.335,0,0,1,1.335,1.335ZM84.038,138.7a1.335,1.335,0,0,1-1.335,1.335H74.692a1.335,1.335,0,0,1-1.335-1.335v-8.011a1.335,1.335,0,0,1,1.335-1.335H82.7a1.335,1.335,0,0,1,1.335,1.335Zm0-13.351a1.335,1.335,0,0,1-1.335,1.335H74.692a1.335,1.335,0,0,1-1.335-1.335V117.34a1.335,1.335,0,0,1,1.335-1.335H82.7a1.335,1.335,0,0,1,1.335,1.335Z" transform="translate(-19.995 -66.649)" fill="#2778a7"/>
    <path id="Path_123" data-name="Path 123" d="M326.708,184H297.335A1.335,1.335,0,0,0,296,185.335v46.729a1.335,1.335,0,0,0,1.335,1.335h29.373a1.335,1.335,0,0,0,1.335-1.335V185.335A1.335,1.335,0,0,0,326.708,184Zm-1.335,44.059a1.335,1.335,0,0,1-1.335,1.335H300.005a1.335,1.335,0,0,1-1.335-1.335V188.005a1.335,1.335,0,0,1,1.335-1.335h24.032a1.335,1.335,0,0,1,1.335,1.335Z" transform="translate(-219.941 -126.633)" fill="#2778a7"/>
    <path id="Path_124" data-name="Path 124" d="M328,253.383h21.362V216H328Zm10.681-33.378a8.019,8.019,0,0,1,8.011,8.011c0,2.64-2.67,6.928-4.717,9.837,2.083.662,3.382,1.951,3.382,3.514,0,2.283-2.869,4.005-6.676,4.005s-6.676-1.722-6.676-4.005c0-1.563,1.3-2.852,3.382-3.514-2.047-2.909-4.717-7.2-4.717-9.837A8.019,8.019,0,0,1,338.681,220.005Z" transform="translate(-246.6 -153.292)" fill="#ea6666"/>
    <path id="Path_125" data-name="Path 125" d="M269.34,152H264v5.34h5.047a3.051,3.051,0,0,1,.294-.294Z" transform="translate(-193.281 -99.973)" fill="#ea6666"/>
    <path id="Path_126" data-name="Path 126" d="M373.047,361.561a1.335,1.335,0,0,1-2.083,0c-.093-.116-.284-.358-.541-.689-1.661.3-2.423.984-2.423,1.19,0,.267,1.288,1.335,4.005,1.335s4.005-1.068,4.005-1.335c0-.206-.762-.895-2.423-1.19-.256.331-.447.573-.541.689Z" transform="translate(-279.925 -273.986)" fill="#ea6666"/>
    <path id="Path_127" data-name="Path 127" d="M370.681,261.34a5.34,5.34,0,0,0-10.681,0c0,2.031,2.948,6.638,5.34,9.833C367.733,267.979,370.681,263.371,370.681,261.34Z" transform="translate(-273.26 -186.617)" fill="#2778a7"/>
    <path id="Path_128" data-name="Path 128" d="M165.351,32H152V45.351h13.351Zm-1.335,8.011h-4.005v4.005h-2.67V40.011h-4.005V37.34h4.005V33.335h2.67V37.34h4.005Z" transform="translate(-99.973)" fill="#ea6666"/>
    <path id="Path_129" data-name="Path 129" d="M56,80H69.351v2.67H56Z" transform="translate(-19.995 -39.989)" fill="#ea6666"/>
    <path id="Path_130" data-name="Path 130" d="M248,80h13.351v2.67H248Z" transform="translate(-179.952 -39.989)" fill="#ea6666"/>
  </g>
</svg>
