<svg xmlns="http://www.w3.org/2000/svg" width="74.837" height="80.159" viewBox="0 0 74.837 80.159">
  <g id="Group_70" data-name="Group 70" transform="translate(-16.996)">
    <path id="Path_110" data-name="Path 110" d="M88.993,380.609H68.384V375.62h18.97l-3-9.147H70.036c-4.3,4.1-8.268,7.869-11.826,12.746l-3.795,5.2-3.794-5.2c-3.59-4.922-7.649-8.758-11.826-12.746H24.48l-3,9.147h18.97v4.989H19.836L17,389.257H91.833l-2.84-8.648Z" transform="translate(0 -309.098)" fill="#ea6666"/>
    <path id="Path_111" data-name="Path 111" d="M108.17,67.354c11.322-15.52,27.44-21.508,27.44-39.913C135.611,11.716,123.894,0,108.17,0S80.73,11.716,80.73,27.44C80.73,45.844,96.854,51.839,108.17,67.354Zm0-46.366a7.484,7.484,0,1,1-7.484,7.484A7.5,7.5,0,0,1,108.17,20.988Z" transform="translate(-53.756)" fill="#2778a7"/>
    <circle id="Ellipse_10" data-name="Ellipse 10" cx="13.034" cy="13.034" r="13.034" transform="translate(42.274 14.012)" fill="#ea6666"/>
    <path id="Path_112" data-name="Path 112" d="M216.646,139.246h3.347v-6.695h6.695V129.2h-6.695v-6.695h-3.347V129.2h-6.695v3.347h6.695Z" transform="translate(-162.746 -103.329)" fill="#fff"/>
  </g>
</svg>
