<svg xmlns="http://www.w3.org/2000/svg" width="81.6" height="80.168" viewBox="0 0 81.6 80.168">
  <g id="Working_hour" data-name="Working hour" transform="translate(-24 -32)">
    <path id="Path_60" data-name="Path 60" d="M64,121.432v5.039l13.387,10.708h19.54v-2.863a2.863,2.863,0,0,1,2.863-2.863h2.863a2.863,2.863,0,0,1,2.863,2.863v2.863h19.54l13.387-10.708v-5.039A1.432,1.432,0,0,0,137.011,120H65.432A1.432,1.432,0,0,0,64,121.432Z" transform="translate(-32.842 -72.253)" fill="#2778a7"/>
    <path id="Path_61" data-name="Path 61" d="M44.042,256a20.042,20.042,0,1,0,20.042,20.042A20.042,20.042,0,0,0,44.042,256Zm0,37.221a17.179,17.179,0,1,1,17.179-17.179A17.179,17.179,0,0,1,44.042,293.221Z" transform="translate(0 -183.916)" fill="#ea6666"/>
    <path id="Path_62" data-name="Path 62" d="M82.1,302.651a1.432,1.432,0,0,1,1.432-1.432h1.359a14.163,14.163,0,0,0-1.2-4.438l-1.167.673a1.432,1.432,0,1,1-1.448-2.47l.017-.01,1.161-.67A14.419,14.419,0,0,0,79,291.055l-.67,1.161a1.432,1.432,0,0,1-2.489-1.415l.009-.016.673-1.167a14.14,14.14,0,0,0-4.438-1.2v1.351a1.432,1.432,0,0,1-2.863,0v-1.359a14.172,14.172,0,0,0-4.438,1.2l.673,1.167a1.432,1.432,0,0,1-2.47,1.448l-.009-.016-.67-1.161a14.413,14.413,0,0,0-3.255,3.251l1.161.67a1.432,1.432,0,1,1-1.415,2.489l-.017-.01-1.167-.673a14.172,14.172,0,0,0-1.2,4.438h1.351a1.432,1.432,0,1,1,0,2.863H56.408a14.172,14.172,0,0,0,1.2,4.438l1.167-.673a1.432,1.432,0,1,1,1.448,2.47l-.017.01-1.161.67a14.416,14.416,0,0,0,3.251,3.251l.67-1.161a1.432,1.432,0,0,1,2.48,1.432l-.673,1.167a14.172,14.172,0,0,0,4.438,1.2v-1.347a1.432,1.432,0,0,1,2.863,0v1.359a14.141,14.141,0,0,0,4.438-1.2l-.673-1.167a1.432,1.432,0,0,1,2.47-1.448l.009.016.67,1.161A14.415,14.415,0,0,0,82.242,311l-1.161-.67a1.432,1.432,0,0,1,1.432-2.48l1.167.673a14.161,14.161,0,0,0,1.2-4.438H83.535a1.432,1.432,0,0,1-1.432-1.432v-.006Zm-11.453,2.863a2.832,2.832,0,0,1-1.419-.391l-2.825,1.631a1.432,1.432,0,0,1-1.432-2.48l2.812-1.623a2.853,2.853,0,0,1,1.432-2.465v-6.124a1.432,1.432,0,0,1,2.863,0v6.124a2.855,2.855,0,0,1-1.432,5.328Z" transform="translate(-26.609 -210.524)" fill="#2778a7"/>
    <path id="Path_63" data-name="Path 63" d="M137.011,215.185a1.432,1.432,0,0,0,1.432-1.432V176.648l-11.989,9.592a1.431,1.431,0,0,1-.895.314H105.516v5.726a2.863,2.863,0,0,1-2.863,2.863H99.789a2.863,2.863,0,0,1-2.863-2.863v-5.726H76.884a1.431,1.431,0,0,1-.895-.314L64,176.648v15.318a22.867,22.867,0,0,1,35.371,23.219Z" transform="translate(-32.842 -118.764)" fill="#ea6666"/>
    <path id="Path_64" data-name="Path 64" d="M112,88h2.863v2.863H112Z" transform="translate(-72.253 -45.979)" fill="#2778a7"/>
    <path id="Path_65" data-name="Path 65" d="M264,232h2.863v5.726H264Z" transform="translate(-197.053 -164.211)" fill="#ea6666"/>
    <path id="Path_66" data-name="Path 66" d="M192,44.884h1.432V36.295a2.863,2.863,0,0,1,2.863-2.863h20.042a2.863,2.863,0,0,1,2.863,2.863v8.589h1.432V36.295A4.3,4.3,0,0,0,216.337,32H196.295A4.3,4.3,0,0,0,192,36.295Z" transform="translate(-137.937)" fill="#2778a7"/>
    <path id="Path_67" data-name="Path 67" d="M264,200h2.863v2.863H264Z" transform="translate(-197.053 -137.937)" fill="#2778a7"/>
    <path id="Path_68" data-name="Path 68" d="M416,88h2.863v2.863H416Z" transform="translate(-321.853 -45.979)" fill="#2778a7"/>
  </g>
</svg>
