<svg xmlns="http://www.w3.org/2000/svg" width="75.817" height="75.8" viewBox="0 0 75.817 75.8">
  <g id="globe" transform="translate(0 -0.056)">
    <g id="Group_93" data-name="Group 93" transform="translate(40.133 0.056)">
      <g id="Group_92" data-name="Group 92">
        <path id="Path_178" data-name="Path 178" d="M277.546,8.324A74.812,74.812,0,0,0,271.024.057v17.9a33.1,33.1,0,0,0,10.692-2.613A66.96,66.96,0,0,0,277.546,8.324Z" transform="translate(-271.024 -0.057)" fill="#2778a7"/>
      </g>
    </g>
    <g id="Group_95" data-name="Group 95" transform="translate(46.81 1.033)">
      <g id="Group_94" data-name="Group 94">
        <path id="Path_179" data-name="Path 179" d="M316.113,6.653c1.114,1.4,2.282,2.966,3.453,4.683a72.052,72.052,0,0,1,4.551,7.632,39.6,39.6,0,0,0,6.855-5.011A37.578,37.578,0,0,0,316.113,6.653Z" transform="translate(-316.113 -6.653)" fill="#2778a7"/>
      </g>
    </g>
    <g id="Group_97" data-name="Group 97" transform="translate(40.133 19.374)">
      <g id="Group_96" data-name="Group 96">
        <path id="Path_180" data-name="Path 180" d="M283.6,130.51a37.86,37.86,0,0,1-12.579,3.04v13.205h16.514A48.9,48.9,0,0,0,283.6,130.51Z" transform="translate(-271.024 -130.51)" fill="#2778a7"/>
      </g>
    </g>
    <g id="Group_99" data-name="Group 99" transform="translate(40.133 40.068)">
      <g id="Group_98" data-name="Group 98">
        <path id="Path_181" data-name="Path 181" d="M271.024,270.261v13.46a37.862,37.862,0,0,1,12.585,3.042,48.766,48.766,0,0,0,3.943-16.5H271.024Z" transform="translate(-271.024 -270.261)" fill="#2778a7"/>
      </g>
    </g>
    <g id="Group_101" data-name="Group 101" transform="translate(24.981 0.056)">
      <g id="Group_100" data-name="Group 100">
        <path id="Path_182" data-name="Path 182" d="M172.881,8.323a66.982,66.982,0,0,0-4.181,7.04,32.976,32.976,0,0,0,10.7,2.594V.056A74.8,74.8,0,0,0,172.881,8.323Z" transform="translate(-168.7 -0.056)" fill="#ea6666"/>
      </g>
    </g>
    <g id="Group_103" data-name="Group 103" transform="translate(19.169 19.382)">
      <g id="Group_102" data-name="Group 102">
        <path id="Path_183" data-name="Path 183" d="M133.385,130.565a48.889,48.889,0,0,0-3.932,16.237h16.514V133.6A38.036,38.036,0,0,1,133.385,130.565Z" transform="translate(-129.453 -130.565)" fill="#ea6666"/>
      </g>
    </g>
    <g id="Group_105" data-name="Group 105" transform="translate(19.156 40.068)">
      <g id="Group_104" data-name="Group 104">
        <path id="Path_184" data-name="Path 184" d="M129.364,270.263a48.751,48.751,0,0,0,3.94,16.494,38.041,38.041,0,0,1,12.588-3.034v-13.46Z" transform="translate(-129.364 -270.263)" fill="#ea6666"/>
      </g>
    </g>
    <g id="Group_107" data-name="Group 107" transform="translate(14.108 1.033)">
      <g id="Group_106" data-name="Group 106">
        <path id="Path_185" data-name="Path 185" d="M95.271,13.989a39.861,39.861,0,0,0,4.889,3.776q.99.649,1.995,1.225a72.034,72.034,0,0,1,4.563-7.655c1.171-1.718,2.339-3.283,3.453-4.683A37.582,37.582,0,0,0,95.271,13.989Z" transform="translate(-95.271 -6.652)" fill="#ea6666"/>
      </g>
    </g>
    <g id="Group_109" data-name="Group 109" transform="translate(0.014 11.376)">
      <g id="Group_108" data-name="Group 108">
        <path id="Path_186" data-name="Path 186" d="M16.5,80.9a44.15,44.15,0,0,1-5.623-4.4A37.677,37.677,0,0,0,.092,100.745h14.7a51.981,51.981,0,0,1,3.368-15.711q.472-1.253,1.01-2.5Q17.816,81.772,16.5,80.9Z" transform="translate(-0.092 -76.503)" fill="#ea6666"/>
      </g>
    </g>
    <g id="Group_111" data-name="Group 111" transform="translate(0 40.068)">
      <g id="Group_110" data-name="Group 110">
        <path id="Path_187" data-name="Path 187" d="M18.081,286.243A51.886,51.886,0,0,1,14.7,270.262H0a37.68,37.68,0,0,0,10.815,24.482,44.164,44.164,0,0,1,5.607-4.386q1.313-.867,2.664-1.625Q18.553,287.489,18.081,286.243Z" transform="translate(0 -270.262)" fill="#ea6666"/>
      </g>
    </g>
    <g id="Group_113" data-name="Group 113" transform="translate(56.724 40.068)">
      <g id="Group_112" data-name="Group 112">
        <path id="Path_188" data-name="Path 188" d="M387.455,270.261h0a51.887,51.887,0,0,1-3.38,15.981q-.473,1.255-1.012,2.507,1.333.753,2.628,1.611a43.69,43.69,0,0,1,5.612,4.422,37.682,37.682,0,0,0,10.853-24.521h-14.7Z" transform="translate(-383.063 -270.261)" fill="#2778a7"/>
      </g>
    </g>
    <g id="Group_115" data-name="Group 115" transform="translate(56.719 11.337)">
      <g id="Group_114" data-name="Group 114">
        <path id="Path_189" data-name="Path 189" d="M391.291,76.241a43.655,43.655,0,0,1-5.629,4.438q-1.3.861-2.633,1.614.54,1.258,1.017,2.519a51.98,51.98,0,0,1,3.368,15.711h14.7A37.68,37.68,0,0,0,391.291,76.241Z" transform="translate(-383.029 -76.241)" fill="#2778a7"/>
      </g>
    </g>
    <g id="Group_117" data-name="Group 117" transform="translate(46.856 62.59)">
      <g id="Group_116" data-name="Group 116">
        <path id="Path_190" data-name="Path 190" d="M326.333,423.561q-.965-.635-1.945-1.2a72.017,72.017,0,0,1-4.56,7.65c-1.155,1.694-2.307,3.24-3.407,4.625a37.576,37.576,0,0,0,14.793-7.278A39.4,39.4,0,0,0,326.333,423.561Z" transform="translate(-316.422 -422.36)" fill="#2778a7"/>
      </g>
    </g>
    <g id="Group_119" data-name="Group 119" transform="translate(40.133 57.984)">
      <g id="Group_118" data-name="Group 118">
        <path id="Path_191" data-name="Path 191" d="M271.024,391.255v17.872l.042,0a74.8,74.8,0,0,0,6.479-8.22,67.026,67.026,0,0,0,4.183-7.044A32.809,32.809,0,0,0,271.024,391.255Z" transform="translate(-271.024 -391.255)" fill="#2778a7"/>
      </g>
    </g>
    <g id="Group_121" data-name="Group 121" transform="translate(14.127 62.574)">
      <g id="Group_120" data-name="Group 120">
        <path id="Path_192" data-name="Path 192" d="M106.827,429.913a71.966,71.966,0,0,1-4.568-7.666q-1,.576-1.989,1.222a39.859,39.859,0,0,0-4.87,3.759,37.579,37.579,0,0,0,14.834,7.311C109.134,433.153,107.982,431.607,106.827,429.913Z" transform="translate(-95.4 -422.247)" fill="#ea6666"/>
      </g>
    </g>
    <g id="Group_123" data-name="Group 123" transform="translate(24.975 57.984)">
      <g id="Group_122" data-name="Group 122">
        <path id="Path_193" data-name="Path 193" d="M179.367,391.254a32.979,32.979,0,0,0-10.709,2.6A67.07,67.07,0,0,0,172.914,401a74.838,74.838,0,0,0,6.407,8.119l.046,0V391.254Z" transform="translate(-168.658 -391.254)" fill="#ea6666"/>
      </g>
    </g>
  </g>
</svg>
