<svg xmlns="http://www.w3.org/2000/svg" width="80.259" height="75.8" viewBox="0 0 80.259 75.8">
  <g id="Solid" transform="translate(-40 -48)">
    <path id="Path_172" data-name="Path 172" d="M233.486,178.973h14.863a1.486,1.486,0,0,0,0-2.973H233.486a1.486,1.486,0,0,0,0,2.973Z" transform="translate(-156.329 -104.22)" fill="#2778a7"/>
    <path id="Path_173" data-name="Path 173" d="M168,188.937h41.616V128H168Zm26.753-2.973H191.78v-2.973h2.973Zm5.945,0h-2.973v-2.973H200.7Zm2.973-2.973h2.973v2.973h-2.973Zm-22.294-49.047h14.863a4.459,4.459,0,0,1,0,8.918H181.376a4.459,4.459,0,0,1,0-8.918Z" transform="translate(-104.22 -65.137)" fill="#ea6666"/>
    <path id="Path_174" data-name="Path 174" d="M56.349,144.349a1.486,1.486,0,0,1-1.486,1.486H45.945a1.486,1.486,0,0,1-1.486-1.486V128H40v60.937H60.808V128H56.349Z" transform="translate(0 -65.137)" fill="#2778a7"/>
    <path id="Path_175" data-name="Path 175" d="M80,128h5.945v14.863H80Z" transform="translate(-32.569 -65.137)" fill="#ea6666"/>
    <path id="Path_176" data-name="Path 176" d="M419.89,130.973V128H408v2.973h4.459v54.992H408v2.973h11.89v-2.973h-4.459V130.973Z" transform="translate(-299.631 -65.137)" fill="#2778a7"/>
    <path id="Path_177" data-name="Path 177" d="M102.424,52.459H63.78V48H60.808v4.459H42.973V48H40V59.89h2.973V55.431H60.808V59.89H63.78V55.431h38.643V59.89H105.4V48h-2.973Z" fill="#2778a7"/>
  </g>
</svg>
