<svg xmlns="http://www.w3.org/2000/svg" width="80.148" height="80.159" viewBox="0 0 80.148 80.159">
  <g id="Group_76" data-name="Group 76" transform="translate(-421.208 -89.446)">
    <g id="medical-list" transform="translate(421.208 89.446)">
      <g id="Group_78" data-name="Group 78" transform="translate(0 9.707)">
        <g id="Group_77" data-name="Group 77">
          <path id="Path_149" data-name="Path 149" d="M57.561,112.023a6.875,6.875,0,0,1-1.085.708v7.979a2.347,2.347,0,0,1-2.348,2.348H11.778A2.347,2.347,0,0,1,9.43,120.71V62H7.081A7.032,7.032,0,0,0,.164,67.711a8.02,8.02,0,0,0-.128,1.335v56.362a7.024,7.024,0,0,0,7.045,7.045H58.825a7.024,7.024,0,0,0,7.045-7.045V103.7Z" transform="translate(-0.036 -62)" fill="#ea6666"/>
        </g>
      </g>
      <g id="Group_80" data-name="Group 80" transform="translate(56.44 9.707)">
        <g id="Group_79" data-name="Group 79">
          <path id="Path_150" data-name="Path 150" d="M362.884,62h-2.348V79.89c9.831-9.83,8.17-8.236,9.394-9.2V69.045A7.012,7.012,0,0,0,362.884,62Z" transform="translate(-360.536 -62)" fill="#2778a7"/>
        </g>
      </g>
      <g id="Group_82" data-name="Group 82" transform="translate(66.406 20.382)">
        <g id="Group_81" data-name="Group 81">
          <path id="Path_151" data-name="Path 151" d="M425.857,132.411l-1.666,1.666,9.945,9.944,1.614-1.617C442.28,136.2,432.726,125.542,425.857,132.411Z" transform="translate(-424.191 -130.186)" fill="#ea6666"/>
        </g>
      </g>
      <g id="Group_84" data-name="Group 84" transform="translate(41.597 62.622)">
        <g id="Group_83" data-name="Group 83">
          <path id="Path_152" data-name="Path 152" d="M268.295,402.95a7.033,7.033,0,0,1-2.564.482h10.146v-3.447Z" transform="translate(-265.731 -399.985)" fill="#2778a7"/>
        </g>
      </g>
      <g id="Group_86" data-name="Group 86" transform="translate(14.169)">
        <g id="Group_85" data-name="Group 85">
          <path id="Path_153" data-name="Path 153" d="M115.733,45.492A7.1,7.1,0,0,1,117.3,43.1l10.806-10.805V9.55h-2.759a7.056,7.056,0,0,0-6.634-4.677l-2.75-.177A7.06,7.06,0,0,0,109.323,0a7.221,7.221,0,0,0-6.644,4.874H99.93A7.056,7.056,0,0,0,93.3,9.55H90.536V66.069h27.429a7.049,7.049,0,0,1-6.55-9.637Zm5.332-17h-14.09a2.349,2.349,0,0,1,0-4.7h14.09A2.349,2.349,0,0,1,121.065,28.494ZM99.93,9.57h4.7a2.347,2.347,0,0,0,2.348-2.348,2.355,2.355,0,1,1,4.7,0A2.347,2.347,0,0,0,114.02,9.57h4.7a2.348,2.348,0,0,1,0,4.7H99.93a2.348,2.348,0,1,1,0-4.7ZM97.581,23.8a2.348,2.348,0,1,1-2.348,2.348A2.348,2.348,0,0,1,97.581,23.8Zm0,9.394a2.348,2.348,0,1,1-2.348,2.348A2.348,2.348,0,0,1,97.581,33.191Zm9.394,23.484h-2.348v2.348a2.349,2.349,0,0,1-4.7,0V56.675H97.581a2.349,2.349,0,0,1,0-4.7H99.93V49.63a2.349,2.349,0,0,1,4.7,0v2.348h2.348A2.349,2.349,0,0,1,106.975,56.675Zm0-18.787a2.349,2.349,0,0,1,0-4.7h13.957a2.349,2.349,0,0,1,0,4.7Z" transform="translate(-90.536)" fill="#2778a7"/>
        </g>
      </g>
      <g id="Group_88" data-name="Group 88" transform="translate(39.245 48.647)">
        <g id="Group_87" data-name="Group 87">
          <path id="Path_154" data-name="Path 154" d="M254.632,310.725l-3.756,9.514a2.351,2.351,0,0,0,3.039,3.05l9.506-3.713Z" transform="translate(-250.707 -310.725)" fill="#ea6666"/>
        </g>
      </g>
      <g id="Group_90" data-name="Group 90" transform="translate(45.925 27.594)">
        <g id="Group_89" data-name="Group 89">
          <path id="Path_155" data-name="Path 155" d="M325.464,184.572l-1.683-1.682-3.3,3.305-9.948-9.947-17.16,17.159,9.93,10,17.16-17.193,1.678,1.678a2.339,2.339,0,0,1,0,3.307l-6.623,6.669a2.35,2.35,0,0,0,3.334,3.312l6.616-6.664A7.046,7.046,0,0,0,325.464,184.572Z" transform="translate(-293.373 -176.248)" fill="#ea6666"/>
        </g>
      </g>
    </g>
  </g>
</svg>
