<svg xmlns="http://www.w3.org/2000/svg" width="65.749" height="74.493" viewBox="0 0 65.749 74.493">
  <g id="Group_75" data-name="Group 75" transform="translate(-30.05)">
    <path id="Path_140" data-name="Path 140" d="M383.615,0A7.715,7.715,0,0,0,375.9,7.715V30.734h13.247a2.182,2.182,0,0,0,2.182-2.182V7.715A7.715,7.715,0,0,0,383.615,0Z" transform="translate(-295.531)" fill="#ea6666"/>
    <path id="Path_141" data-name="Path 141" d="M52.065,54.851A24.032,24.032,0,0,1,76.149,30.846V8.655A12.967,12.967,0,0,1,79.452,0H40.959A10.922,10.922,0,0,0,30.05,10.909V72.271a2.184,2.184,0,0,0,3.76,1.509L36.6,70.864l2.949,2.951a2.184,2.184,0,0,0,3.086,0l2.795-2.793,2.823,2.8a2.183,2.183,0,0,0,3.074,0L54.2,70.978l2.869,2.843a2.181,2.181,0,0,0,3.071,0l.556-.55A23.973,23.973,0,0,1,52.065,54.851ZM47.705,17.6h4.307V13.3a2.182,2.182,0,1,1,4.365,0V17.6h4.307a2.182,2.182,0,1,1,0,4.365H56.377v4.307a2.182,2.182,0,1,1-4.365,0V21.97H47.705a2.182,2.182,0,1,1,0-4.365ZM41.1,32.889H55.8a2.182,2.182,0,0,1,0,4.365H41.1a2.182,2.182,0,1,1,0-4.365ZM48.382,54.7h-7.3a2.182,2.182,0,1,1,0-4.365h7.3a2.182,2.182,0,0,1,0,4.365Zm1.455-8.715H41.093a2.182,2.182,0,0,1,0-4.365h8.744a2.182,2.182,0,1,1,0,4.365Z" transform="translate(0)" fill="#2778a7"/>
    <path id="Path_142" data-name="Path 142" d="M231,242a19.642,19.642,0,1,0,19.642,19.642A19.664,19.664,0,0,0,231,242Zm2.189,28.047v.207a2.182,2.182,0,1,1-4.365,0v-.037a8.373,8.373,0,0,1-2.6-1.089,2.182,2.182,0,1,1,2.39-3.653,3.807,3.807,0,0,0,3.089.466,1.558,1.558,0,0,0,.882-1.145c.108-.966-1.406-1.505-2.31-1.862a7.122,7.122,0,0,1-4.059-3,5.084,5.084,0,0,1,2.611-7.043v-.11a2.182,2.182,0,0,1,4.363-.035,5.485,5.485,0,0,1,2.089,1.173,2.182,2.182,0,1,1-2.959,3.208,2.042,2.042,0,0,0-1.946-.142.745.745,0,0,0-.339.834c.461.832,2.875,1.117,4.7,2.541a5.562,5.562,0,0,1-1.543,9.684Z" transform="translate(-154.932 -206.79)" fill="#ea6666"/>
  </g>
</svg>
