<svg xmlns="http://www.w3.org/2000/svg" width="70.012" height="73.407" viewBox="0 0 70.012 73.407">
  <g id="Group_74" data-name="Group 74" transform="translate(-11.84)">
    <path id="Path_135" data-name="Path 135" d="M384.744,96.452a6.452,6.452,0,0,0-12.9,0V102.9h12.9Z" transform="translate(-308.386 -77.096)" fill="#ea6666"/>
    <path id="Path_136" data-name="Path 136" d="M371.84,397.342l4.3,4.3v5.848h4.3v-5.848l4.3-4.3V390h-12.9Z" transform="translate(-308.386 -334.085)" fill="#ea6666"/>
    <path id="Path_137" data-name="Path 137" d="M390.238,223.265A12.312,12.312,0,0,1,384.744,213v-3h-12.9v21.506h12.9v-7.339a16.667,16.667,0,0,0,3.108,2.677Z" transform="translate(-308.386 -179.892)" fill="#ea6666"/>
    <path id="Path_138" data-name="Path 138" d="M32.272,8.789,20.629,20.432H32.272Z" transform="translate(-7.529 -7.529)" fill="#ea6666"/>
    <path id="Path_139" data-name="Path 139" d="M29.045,17.2H11.84v56.2H59.153V0H29.045Zm-4.3,47.313h-4.3v-4.3h4.3Zm0-8.6h-4.3v-4.3h4.3Zm0-8.6h-4.3v-4.3h4.3Zm25.807,17.2H29.045v-4.3H50.551Zm0-8.6H29.045v-4.3H50.551Zm0-8.6H29.045v-4.3H50.551ZM39.8,25.807A6.436,6.436,0,0,1,37.647,13.3V8.6h4.3v4.7a6.441,6.441,0,0,1,4.3,6.056h-4.3A2.151,2.151,0,1,0,39.8,21.506a6.436,6.436,0,0,1,2.151,12.507v4.7h-4.3v-4.7a6.441,6.441,0,0,1-4.3-6.056h4.3A2.151,2.151,0,1,0,39.8,25.807Z" fill="#2778a7"/>
  </g>
</svg>
