<svg xmlns="http://www.w3.org/2000/svg" width="67.304" height="76.255" viewBox="0 0 67.304 76.255">
  <g id="Group_62" data-name="Group 62" transform="translate(-30.05)">
    <path id="Path_75" data-name="Path 75" d="M383.8,0a7.9,7.9,0,0,0-7.9,7.9V31.461h13.561a2.234,2.234,0,0,0,2.234-2.234V7.9A7.9,7.9,0,0,0,383.8,0Z" transform="translate(-294.341)" fill="#ea6666"/>
    <path id="Path_76" data-name="Path 76" d="M52.585,56.148A24.6,24.6,0,0,1,77.24,31.575V8.86A13.273,13.273,0,0,1,80.62,0h-39.4A11.181,11.181,0,0,0,30.05,11.167V73.98A2.236,2.236,0,0,0,33.9,75.525l2.858-2.985,3.019,3.02a2.236,2.236,0,0,0,3.159,0L45.8,72.7l2.889,2.866a2.235,2.235,0,0,0,3.147,0l2.936-2.91,2.937,2.91a2.232,2.232,0,0,0,3.144,0l.569-.563A24.54,24.54,0,0,1,52.585,56.148ZM48.123,18.021h4.409V13.612a2.234,2.234,0,0,1,4.468,0v4.409h4.409a2.234,2.234,0,1,1,0,4.468H57V26.9a2.234,2.234,0,0,1-4.468,0V22.489H48.123a2.234,2.234,0,1,1,0-4.468ZM41.361,33.667H56.4a2.234,2.234,0,1,1,0,4.468H41.361a2.234,2.234,0,1,1,0-4.468Zm7.454,22.325H41.347a2.234,2.234,0,1,1,0-4.468h7.469a2.234,2.234,0,1,1,0,4.468Zm1.49-8.921H41.354a2.234,2.234,0,0,1,0-4.468h8.951a2.234,2.234,0,0,1,0,4.468Z" transform="translate(0)" fill="#2778a7"/>
    <path id="Path_77" data-name="Path 77" d="M231.468,242a20.106,20.106,0,1,0,20.106,20.106A20.129,20.129,0,0,0,231.468,242Zm2.241,28.71v.212a2.234,2.234,0,0,1-4.468,0v-.038a8.572,8.572,0,0,1-2.665-1.114,2.234,2.234,0,1,1,2.446-3.739,3.9,3.9,0,0,0,3.162.477,1.6,1.6,0,0,0,.9-1.172c.111-.989-1.439-1.541-2.365-1.907a7.291,7.291,0,0,1-4.155-3.068,5.2,5.2,0,0,1,2.673-7.21v-.112a2.233,2.233,0,0,1,4.466-.036,5.615,5.615,0,0,1,2.138,1.2,2.234,2.234,0,1,1-3.029,3.284,2.091,2.091,0,0,0-1.992-.145.763.763,0,0,0-.347.854c.472.852,2.943,1.144,4.813,2.6a5.694,5.694,0,0,1-1.58,9.913Z" transform="translate(-154.308 -205.958)" fill="#ea6666"/>
  </g>
</svg>
