<svg xmlns="http://www.w3.org/2000/svg" width="54.777" height="81.257" viewBox="0 0 54.777 81.257">
  <g id="Group_67" data-name="Group 67" transform="translate(-83.426)">
    <path id="Path_98" data-name="Path 98" d="M192.112,94.25A14.854,14.854,0,1,0,177.257,109.1,14.871,14.871,0,0,0,192.112,94.25Zm-23.176,2.381V91.87h5.941V85.928h4.762V91.87h5.941v4.761h-5.941v5.941h-4.762V96.631Z" transform="translate(-66.443 -66.795)" fill="#ea6666"/>
    <path id="Path_99" data-name="Path 99" d="M138.2,27.389a27.389,27.389,0,1,0-54.777,0c0,17.272,21.553,36.09,27.389,40.867C116.65,63.479,138.2,44.661,138.2,27.389Zm-47,.066a19.616,19.616,0,1,1,19.616,19.616A19.638,19.638,0,0,1,91.2,27.455Z" fill="#2778a7"/>
    <path id="Path_100" data-name="Path 100" d="M148.863,419.68a20.4,20.4,0,0,0-5.318-2,51.824,51.824,0,0,0-6.385-1.129c-4.54,4.289-8,6.929-8.208,7.089l-1.44,1.093-1.439-1.093c-.211-.16-3.668-2.8-8.208-7.089a51.887,51.887,0,0,0-6.385,1.129,20.4,20.4,0,0,0-5.318,2c-2.386,1.411-2.887,3.05-2.887,4.177s.5,2.766,2.887,4.176a20.388,20.388,0,0,0,5.318,2,69.152,69.152,0,0,0,16.033,1.671,69.152,69.152,0,0,0,16.033-1.671,20.388,20.388,0,0,0,5.318-2c2.386-1.41,2.887-3.05,2.887-4.176s-.5-2.766-2.887-4.177Z" transform="translate(-16.697 -350.444)" fill="#ea6666"/>
  </g>
</svg>
