<svg xmlns="http://www.w3.org/2000/svg" width="64.518" height="73.407" viewBox="0 0 64.518 73.407">
  <g id="prescription" transform="translate(-31)">
    <path id="Path_143" data-name="Path 143" d="M378.2,23.8V8.746a8.6,8.6,0,1,0-17.2,0v17.2h15.054A2.151,2.151,0,0,0,378.2,23.8Z" transform="translate(-282.687)" fill="#ea6666"/>
    <path id="Path_144" data-name="Path 144" d="M33.151,73.407H67.615a11.073,11.073,0,0,1-2.205-6.6,10.77,10.77,0,0,1,8.6-10.535V8.746A13.172,13.172,0,0,1,77.368,0H41.753A10.876,10.876,0,0,0,31,10.9v60.36a2.151,2.151,0,0,0,2.151,2.151ZM48.2,13.047h2.151V10.9a2.151,2.151,0,1,1,4.3,0v2.151h2.151a2.151,2.151,0,0,1,0,4.3H54.656V19.5a2.151,2.151,0,1,1-4.3,0V17.348H48.2a2.151,2.151,0,0,1,0-4.3Zm0,12.9h17.2a2.151,2.151,0,1,1,0,4.3H48.2a2.151,2.151,0,0,1,0-4.3Zm0,8.6h17.2a2.151,2.151,0,1,1,0,4.3H48.2a2.151,2.151,0,1,1,0-4.3Zm0,8.6h17.2a2.151,2.151,0,1,1,0,4.3H48.2a2.151,2.151,0,1,1,0-4.3Zm0,8.6h17.2a2.151,2.151,0,1,1,0,4.3H48.2a2.151,2.151,0,0,1,0-4.3ZM39.6,25.95A2.151,2.151,0,1,1,37.452,28.1,2.151,2.151,0,0,1,39.6,25.95Zm0,8.6A2.151,2.151,0,1,1,37.452,36.7,2.151,2.151,0,0,1,39.6,34.553Zm0,8.6a2.151,2.151,0,1,1-2.151,2.151A2.151,2.151,0,0,1,39.6,43.155Zm0,8.6a2.151,2.151,0,1,1-2.151,2.151A2.151,2.151,0,0,1,39.6,51.757Z" fill="#2778a7"/>
    <path id="Path_145" data-name="Path 145" d="M311.753,434.047V421h-4.3A6.452,6.452,0,0,0,301,427.452a6.576,6.576,0,0,0,6.452,6.6Z" transform="translate(-231.289 -360.64)" fill="#ea6666"/>
    <path id="Path_146" data-name="Path 146" d="M416.753,427.452A6.452,6.452,0,0,0,410.3,421H406v13.047h4.3A6.576,6.576,0,0,0,416.753,427.452Z" transform="translate(-321.235 -360.64)" fill="#ea6666"/>
  </g>
</svg>
