<svg xmlns="http://www.w3.org/2000/svg" width="73.62" height="77.8" viewBox="0 0 73.62 77.8">
  <g id="Group_124" data-name="Group 124" transform="translate(-240 -887)">
    <g id="Page-1" transform="translate(221.756 888.912)">
      <g id="_005---Italy-Location" data-name="005---Italy-Location" transform="translate(18.244 0.088)">
        <path id="Shape" d="M62.709,279.705a9.159,9.159,0,0,0-.616-1.875,3.911,3.911,0,0,0-3.265-2.63c-1.435.032-2.3,1.416-3.52,1.987-1.424.666-3.636-.213-3.98,1.888a6.272,6.272,0,0,0,.719,2.883c.923,2.741-.158,5.713-.218,8.606a5.1,5.1,0,0,0,.616,2.843,3.249,3.249,0,0,0,2.347,1.474,3.909,3.909,0,0,0,2.707-1.145c.971-.677,2.745-.18,3.464-1.083a3.376,3.376,0,0,0,.579-1.58c.238-1.4.306-2.825.541-4.226a36.928,36.928,0,0,0,.827-4.986A9.091,9.091,0,0,0,62.709,279.705Z" transform="translate(-46.429 -234.465)" fill="#ea6666"/>
        <path id="Shape-2" data-name="Shape" d="M81.768,49.311c-.393-1.273-1.76-2.207-3.073-3.127-.7-.487-.757-.5-1.218-.812a4.185,4.185,0,0,1-4.6.081,33.843,33.843,0,0,1-8.65-8.19c-1.916.26-3.434-1.614-4.535-2.274-2.721-1.611-3.4-4.034-3.98-6.173-.582-2.071-1.029-3.7-3.222-4.589a1.3,1.3,0,0,1-.542-.393,7.752,7.752,0,0,0-1.8-1.462c-1.259-.812-2.965-1.949-2.626-4.454a4.867,4.867,0,0,1,.623-1.665,3.11,3.11,0,0,0,.3-.69c.041-.135.027-.2-.122-.569a4.385,4.385,0,0,1-.365-1.327C47.545,9.784,53.1,10.192,54,9.741c.7-.325.8-.921.745-2.68a13.864,13.864,0,0,1,0-1.679c.176-1.665-.162-1.8-.514-1.936-1.522-.623-3.919-.36-5.821-1.53-.311-.19-.6-.393-.88-.582a5.509,5.509,0,0,0-2.9-1.246A15.924,15.924,0,0,0,39.22,1c-.629.2-1.229,1.317-2.125,1.99a5.044,5.044,0,0,1-3.52.569A1.738,1.738,0,0,0,32.8,4a5.926,5.926,0,0,1-1.164.731,3.811,3.811,0,0,1-3.533-.46c-.894-.474-.921-.447-1.164-.19a8.266,8.266,0,0,1-5.374,3.141c-1.246.19-1.543.42-1.6.7a2.448,2.448,0,0,0,.122.907,4.209,4.209,0,0,1,.108,2.315c-.39,1.385-1.512,1.9-1.8,2.477a3.222,3.222,0,0,0-.068,1.733c.433,2.734,2.4,5.293,4.454,7.649.19.217,1.272.013,2.477-.772a9.315,9.315,0,0,0,1.692-1.774c.406-.487.826-.988,1.259-1.421,1.246-1.191,3.1.068,4.725,1.164.162.108.3.2.379.244a7.084,7.084,0,0,1,3.614,3.831,12.3,12.3,0,0,1,.46,2.423,12.154,12.154,0,0,0,.217,1.408c.5,2.1,2.274,3.858,4.115,5.428,1.584,1.354,3.1,2.8,4.576,4.183a9.689,9.689,0,0,1,1.394,1.57c.19.257.393.514.609.758a5.608,5.608,0,0,0,1.056.772,7.794,7.794,0,0,1,1.394,1.015,2.709,2.709,0,0,0,.379.311c.988.677,3.028-.158,4.711,1.367a17.162,17.162,0,0,0,2.031,1.489,11.389,11.389,0,0,1,4.291,4.1A4.737,4.737,0,0,0,64.44,51.26a.571.571,0,0,0,.393.068A2.177,2.177,0,0,1,67.12,52.9c.081.2.217.447.365.731,1.218,2.41,2.234,4.684,1.232,6.227a10.7,10.7,0,0,1-3.032,3.723,7.25,7.25,0,0,1-2.559.894,49.66,49.66,0,0,1-7.039,1.5c-1.558.118-2.6-.991-3.208-1.164a7.641,7.641,0,0,0-3.059.325,2.457,2.457,0,0,0-1.746,2.18,1.392,1.392,0,0,0,.88,1.611,6.488,6.488,0,0,0,.65.162c2.323.406,3.591,1.817,5.239,2.816a3.415,3.415,0,0,0,1.069.271,10.089,10.089,0,0,1,1.11.23,4.685,4.685,0,0,1,2.531,1.746,5.324,5.324,0,0,0,3.533,1.733.835.835,0,0,0,.406-.068,2.056,2.056,0,0,0,.068-.338c.054-.2.095-.433.176-.663a11.881,11.881,0,0,1,.447-1.11,4.443,4.443,0,0,0,.433-1.191,5.469,5.469,0,0,0-.257-1.327c-.352-1.34-.934-3.587,1.015-4.643,1.381-.731,2.661-.15,3.29-.284,1.286-.352,2.383-2.572,2.762-4.481a5.107,5.107,0,0,1,.487-1.624A3.093,3.093,0,0,1,74.3,58.611c.6-.122.6-.122.663-.46a3.73,3.73,0,0,0-.663-3.032c-.42-.6-1.612-1.03-2.342-2.261a3.434,3.434,0,0,1,2.234-5.185,5.749,5.749,0,0,1,4.251,1.76A10.166,10.166,0,0,1,79.561,50.6c1.124,1.286,1.367,1.354,1.679,1.191.718-.393.812-1.557.528-2.477Z" transform="translate(-18.244 -0.088)" fill="#2778a7"/>
      </g>
    </g>
    <g id="Page-1-2" data-name="Page-1" transform="translate(-27.89 837.585)">
      <g id="_005---Italy-Location-2" data-name="005---Italy-Location" transform="translate(310.89 49.415)">
        <path id="Shape-3" data-name="Shape" d="M326.2,57.984a7.658,7.658,0,1,0,5.415,2.243A7.658,7.658,0,0,0,326.2,57.984Zm0,18.379a10.721,10.721,0,1,1,10.721-10.721A10.721,10.721,0,0,1,326.2,76.363ZM327.676,49.5A15.184,15.184,0,0,0,310.89,64.4,26.892,26.892,0,0,0,315.9,79.9c.015.015.015.015.015.031a34.818,34.818,0,0,0,9.4,9.067,1.685,1.685,0,0,0,1.792,0c.214-.138.536-.368.919-.628a.08.08,0,0,1,.061-.031c3.446-2.435,12.421-9.848,13.355-21.9A15.622,15.622,0,0,0,327.676,49.5Z" transform="translate(-310.89 -49.415)" fill="#ea6666"/>
      </g>
    </g>
  </g>
</svg>
