<svg xmlns="http://www.w3.org/2000/svg" width="81.031" height="80.168" viewBox="0 0 81.031 80.168">
  <g id="Group_60" data-name="Group 60" transform="translate(0 -2.725)">
    <path id="Path_69" data-name="Path 69" d="M44.565,63.988H25.384V59.23H44.4a17.485,17.485,0,0,1,16.03-15.613V2.725H0V82.893H60.434V78.427A17.49,17.49,0,0,1,44.565,63.988ZM15.6,46.537a2.379,2.379,0,1,1-2.379,2.379A2.421,2.421,0,0,1,15.6,46.537ZM13.218,35.713A2.379,2.379,0,1,1,15.6,38.092,2.406,2.406,0,0,1,13.218,35.713ZM15.6,59.74a2.379,2.379,0,1,1-2.379,2.379A2.421,2.421,0,0,1,15.6,59.74Zm0-34.851a2.379,2.379,0,1,1,2.379-2.379A2.421,2.421,0,0,1,15.6,24.889ZM46.772,51.04H25.384V46.282H46.772Zm0-12.948H25.384V33.334H46.772Zm0-12.948H25.384V20.386H46.772Z" transform="translate(0 0)" fill="#2778a7"/>
    <path id="Path_70" data-name="Path 70" d="M312.916,302.185l2.977-3.711,7.116,5.707,9.884-8.263a12.626,12.626,0,1,0,2.141,4.412l-11.962,10Z" transform="translate(-260.982 -242.525)" fill="#ea6666"/>
    <path id="Path_71" data-name="Path 71" d="M454.378,295.892a12.671,12.671,0,0,1,2.141,4.412l6.978-5.833-3.051-3.651Z" transform="translate(-382.466 -242.5)" fill="#2778a7"/>
  </g>
</svg>
