<svg xmlns="http://www.w3.org/2000/svg" width="81.031" height="80.899" viewBox="0 0 81.031 80.899">
  <g id="Group_61" data-name="Group 61" transform="translate(0 -0.1)">
    <circle id="Ellipse_7" data-name="Ellipse 7" cx="7.991" cy="7.991" r="7.991" transform="translate(4.887 0.1)" fill="#ea6666"/>
    <path id="Path_72" data-name="Path 72" d="M3.962,53.829h.792v15.85a3.974,3.974,0,0,0,3.962,3.962h8.321A3.974,3.974,0,0,0,21,69.678v-.924a10.016,10.016,0,0,1-1.189-4.623V43.395a9.883,9.883,0,0,1,5.944-9.048V32.762A3.974,3.974,0,0,0,21.793,28.8H3.962A3.974,3.974,0,0,0,0,32.762v17.1A3.931,3.931,0,0,0,3.962,53.829Z" transform="translate(0 -9.746)" fill="#2778a7"/>
    <circle id="Ellipse_8" data-name="Ellipse 8" cx="7.991" cy="7.991" r="7.991" transform="translate(60.229 0.1)" fill="#ea6666"/>
    <path id="Path_73" data-name="Path 73" d="M83.7,32.662v1.585a9.882,9.882,0,0,1,5.944,9.048V63.966a9.276,9.276,0,0,1-1.188,4.623v.925a3.974,3.974,0,0,0,3.962,3.962h8.321a3.974,3.974,0,0,0,3.962-3.962V53.663h.792a3.974,3.974,0,0,0,3.962-3.962V32.662a3.974,3.974,0,0,0-3.962-3.962H87.661A3.974,3.974,0,0,0,83.7,32.662Z" transform="translate(-28.424 -9.712)" fill="#2778a7"/>
    <path id="Path_74" data-name="Path 74" d="M39.1,48.862h0V69.6a3.974,3.974,0,0,0,3.962,3.962h1.519V92.25a3.974,3.974,0,0,0,3.962,3.962H59.176a3.974,3.974,0,0,0,3.962-3.962V73.495h1.519a3.974,3.974,0,0,0,3.962-3.962V48.862h0A3.974,3.974,0,0,0,64.658,44.9h-21.6A3.931,3.931,0,0,0,39.1,48.862Z" transform="translate(-13.278 -15.214)" fill="#ea6666"/>
    <circle id="Ellipse_9" data-name="Ellipse 9" cx="9.18" cy="9.18" r="9.18" transform="translate(31.369 8.025)" fill="#2778a7"/>
  </g>
</svg>
