<svg xmlns="http://www.w3.org/2000/svg" width="57.738" height="75.8" viewBox="0 0 57.738 75.8">
  <g id="Group_91" data-name="Group 91" transform="translate(-61)">
    <path id="Path_161" data-name="Path 161" d="M175.051,303.13a3.705,3.705,0,0,0-3.7-3.7H144.7a3.705,3.705,0,0,0-3.7,3.7v.74h34.051Z" transform="translate(-68.156 -255.099)" fill="#2778a7"/>
    <path id="Path_162" data-name="Path 162" d="M65.877,313.145A33.486,33.486,0,0,1,61,306.674v15.953a8.152,8.152,0,0,0,8.143,8.143h8.182l2.14-16.264H69.076A4.441,4.441,0,0,1,65.877,313.145Z" transform="translate(0 -261.272)" fill="#ea6666"/>
    <path id="Path_163" data-name="Path 163" d="M339.865,313.144a4.441,4.441,0,0,1-3.2,1.36H326.278l2.14,16.264H336.6a8.152,8.152,0,0,0,8.143-8.143V306.673a33.491,33.491,0,0,1-4.877,6.471Z" transform="translate(-226.004 -261.271)" fill="#ea6666"/>
    <path id="Path_164" data-name="Path 164" d="M151,104.974a15.557,15.557,0,0,0,4.668,11.1h21.754A15.544,15.544,0,1,0,151,104.974Z" transform="translate(-76.676 -76.189)" fill="#2778a7"/>
    <path id="Path_165" data-name="Path 165" d="M378.23,209.429h-8.923a20,20,0,0,1-3.621,9.424,8.154,8.154,0,0,1,5.228,7.6v.035a28.677,28.677,0,0,0,7.316-17.06Z" transform="translate(-259.578 -178.424)" fill="#ea6666"/>
    <path id="Path_166" data-name="Path 166" d="M145.749,8.922V0A28.746,28.746,0,0,0,129.2,6.871l6.3,6.305A19.89,19.89,0,0,1,145.749,8.922Z" transform="translate(-58.101)" fill="#ea6666"/>
    <path id="Path_167" data-name="Path 167" d="M365.683,84.178h8.922a28.746,28.746,0,0,0-6.871-16.552l-6.3,6.3A19.891,19.891,0,0,1,365.683,84.178Z" transform="translate(-255.951 -57.614)" fill="#ea6666"/>
    <path id="Path_168" data-name="Path 168" d="M287.552,6.871A28.746,28.746,0,0,0,271,0V8.922a19.892,19.892,0,0,1,10.247,4.254Z" transform="translate(-178.91)" fill="#ea6666"/>
    <path id="Path_169" data-name="Path 169" d="M70.5,209.429H61.582a28.676,28.676,0,0,0,7.316,17.06v-.035a8.154,8.154,0,0,1,5.228-7.6,20.007,20.007,0,0,1-3.621-9.424Z" transform="translate(-0.496 -178.424)" fill="#ea6666"/>
    <path id="Path_170" data-name="Path 170" d="M74.747,73.931l-6.3-6.3a28.745,28.745,0,0,0-6.871,16.552h8.922a19.892,19.892,0,0,1,4.254-10.247Z" transform="translate(-0.486 -57.614)" fill="#ea6666"/>
    <path id="Path_171" data-name="Path 171" d="M212.586,359.573H200.759l-2.639,20.056a2.221,2.221,0,0,0,2.2,2.51h12.7a2.221,2.221,0,0,0,2.2-2.51Z" transform="translate(-116.803 -306.339)" fill="#ea6666"/>
  </g>
</svg>
