<svg xmlns="http://www.w3.org/2000/svg" width="41" height="40" viewBox="0 0 41 40">
  <g id="Group_159" data-name="Group 159" transform="translate(-838 -126)">
    <rect id="Rectangle_77" data-name="Rectangle 77" width="41" height="40" transform="translate(838 126)" fill="none"/>
    <g id="user" transform="translate(843.315 128.723)">
      <g id="Group_128" data-name="Group 128" transform="translate(6.074)">
        <g id="Group_127" data-name="Group 127" transform="translate(0)">
          <path id="Path_206" data-name="Path 206" d="M130.111,0a9.111,9.111,0,1,0,9.111,9.111A9.121,9.121,0,0,0,130.111,0Z" transform="translate(-121 0)" fill="#fff"/>
        </g>
      </g>
      <g id="Group_130" data-name="Group 130" transform="translate(0 20.247)">
        <g id="Group_129" data-name="Group 129" transform="translate(0)">
          <path id="Path_207" data-name="Path 207" d="M57.521,303.928A12.988,12.988,0,0,0,48.21,300H44.161a12.988,12.988,0,0,0-9.311,3.928A13.278,13.278,0,0,0,31,313.3a1.012,1.012,0,0,0,1.012,1.012H60.358A1.012,1.012,0,0,0,61.37,313.3,13.278,13.278,0,0,0,57.521,303.928Z" transform="translate(-31 -300)" fill="#fff"/>
        </g>
      </g>
    </g>
  </g>
</svg>
