<svg xmlns="http://www.w3.org/2000/svg" width="41" height="40" viewBox="0 0 41 40">
  <g id="Group_159" data-name="Group 159" transform="translate(-838 -126)">
    <rect id="Rectangle_77" data-name="Rectangle 77" width="41" height="40" transform="translate(838 126)" fill="none"/>
    <path id="Path_225" data-name="Path 225" d="M36.414,40.828h.924l2.335,3.5a.631.631,0,0,0,.525.281h.039a.631.631,0,0,0,.525-.347l1.717-3.435h.794A1.888,1.888,0,0,1,45.1,42.248l.761,3.721-1.039,2.425h-.37l-.663-2.323a3.311,3.311,0,0,0-.628-3.8l-.892.892a2.045,2.045,0,0,1,0,2.892.631.631,0,0,0-.185.446v1.892H37.044V42.72H35.783v5.675H34.522V42.72A1.894,1.894,0,0,1,36.414,40.828Zm11.565,7.567,1.351-3.153H47.549L46.2,48.395Zm-7.86-5.668.949-1.9H38.853Zm-.553-8.835a1.894,1.894,0,0,0-1.892,1.892v.369l.815-.815a.631.631,0,0,1,.728-.118,5.373,5.373,0,0,0,2.24.562A1.894,1.894,0,0,0,39.567,33.892Zm-2.19-.373a.945.945,0,1,0-.892,1.6A3.151,3.151,0,0,1,37.377,33.518Zm4.082,3.522a6.645,6.645,0,0,1-2.386-.5L37.691,37.92a1.892,1.892,0,0,0,3.767-.245Zm22.7,2.526a1.894,1.894,0,0,0-1.892-1.892H59.745a.631.631,0,0,0,0,1.261h.631a.631.631,0,0,1,.446.185l1.707,1.707h1.631Zm-15.723,3.85-.282.564h2.225a1.254,1.254,0,0,0,1.128-.7l.282-.564H49.564A1.254,1.254,0,0,0,48.436,43.417ZM61.821,41.9l-1.446-1.446v1a1.892,1.892,0,0,0,3.675.631H62.267a.631.631,0,0,1-.446-.185Zm-4.6,14.057h1.261V54.7H57.222ZM44.611,59.745v1.892h1.261V59.745a.631.631,0,0,1,.631-.631h1.892V57.853H46.5a.631.631,0,0,1-.631-.631V55.331H44.611v1.892a.631.631,0,0,1-.631.631H42.089v1.261h1.892A.631.631,0,0,1,44.611,59.745ZM32,50.917H55.961V49.656H32ZM58.483,66.681a.631.631,0,0,0,.631.631h2.522V66.05H59.114A.631.631,0,0,0,58.483,66.681ZM32,52.178H55.961v4.414a.631.631,0,0,0,.631.631h1.892v7.567H32Zm8.828,7.567a.631.631,0,0,0,.631.631H43.35v1.892a.631.631,0,0,0,.631.631H46.5a.631.631,0,0,0,.631-.631V60.375h1.892a.631.631,0,0,0,.631-.631V57.222a.631.631,0,0,0-.631-.631H47.133V54.7a.631.631,0,0,0-.631-.631H43.981a.631.631,0,0,0-.631.631v1.892H41.458a.631.631,0,0,0-.631.631Zm-7.567-4.414h1.261V54.07H33.261Zm0,6.306h1.261V56.592H33.261ZM64.789,54.7H59.745V64.789h1.892V55.961H62.9v8.828h1.892Zm1.261,1.261h1.261V54.72l-1.261-.013ZM64.789,66.05H62.9v1.261h1.892Zm.631-21.439H59.114A1.894,1.894,0,0,0,57.222,46.5v6.936h1.261V46.5h1.261v6.936h5.044V46.5H66.05v6.936h1.261V46.5A1.894,1.894,0,0,0,65.42,44.611ZM54.07,38.936H49.025a.631.631,0,0,1-.631-.631V37.044a.631.631,0,0,0-.281-.525l-1.1-.736,1.1-.736a.631.631,0,0,0,.281-.525V32.631A.631.631,0,0,1,49.025,32H54.07a.631.631,0,0,1,.631.631v5.675A.631.631,0,0,1,54.07,38.936Zm-1.892-3.153H50.917v1.892h1.261Zm0-2.522H50.917v1.261h1.261Z" transform="translate(808.844 96.344)" fill="#fff"/>
  </g>
</svg>
