<svg id="clock" xmlns="http://www.w3.org/2000/svg" width="46.396" height="46.396" viewBox="0 0 46.396 46.396">
  <g id="Group_26" data-name="Group 26" transform="translate(21.401 10.763)">
    <g id="Group_25" data-name="Group 25">
      <path id="Path_17" data-name="Path 17" d="M246.232,135.311l-6.469-4.852v-9.883a1.8,1.8,0,0,0-3.594,0v10.782a1.793,1.793,0,0,0,.719,1.438l7.188,5.391a1.8,1.8,0,0,0,2.156-2.875Z" transform="translate(-236.169 -118.779)" fill="#34ACE0"/>
    </g>
  </g>
  <g id="Group_28" data-name="Group 28">
    <g id="Group_27" data-name="Group 27">
      <path id="Path_18" data-name="Path 18" d="M23.2,0A23.2,23.2,0,1,0,46.4,23.2,23.223,23.223,0,0,0,23.2,0Zm0,42.8A19.6,19.6,0,1,1,42.8,23.2,19.628,19.628,0,0,1,23.2,42.8Z" fill="#34ACE0"/>
    </g>
  </g>
</svg>
