<svg xmlns="http://www.w3.org/2000/svg" width="39.805" height="46.396" viewBox="0 0 39.805 46.396">
  <path id="Path_19" data-name="Path 19" d="M70.795,44.87l-.811-6.729a10.341,10.341,0,0,0-8.1-8.94,4.965,4.965,0,0,0-3.238-3.881,10.526,10.526,0,0,0,2.424-6.743V13.359a4.079,4.079,0,0,0,2.654-3.844V8.609a6.724,6.724,0,0,0-6.634-6.8H54.6L48.532.257A8.232,8.232,0,0,0,46.492,0a8.53,8.53,0,0,0-8.415,8.621v.894a4.079,4.079,0,0,0,2.654,3.844v5.218A10.523,10.523,0,0,0,43.393,25.6a4.986,4.986,0,0,0-2.568,3.459,10.31,10.31,0,0,0-9,9.084L31.01,44.87a1.382,1.382,0,0,0,.323,1.067,1.314,1.314,0,0,0,.994.459H69.478a1.313,1.313,0,0,0,.994-.459A1.382,1.382,0,0,0,70.795,44.87ZM60.632,37.153a1.36,1.36,0,1,1-1.327,1.359A1.345,1.345,0,0,1,60.632,37.153ZM59.056,29h-2.4V27.775h.442A2.207,2.207,0,0,1,59.056,29ZM40.73,9.515V8.621a5.84,5.84,0,0,1,5.761-5.9,5.638,5.638,0,0,1,1.4.176l6.23,1.6a1.29,1.29,0,0,0,.322.041h2.654a4.035,4.035,0,0,1,3.98,4.078v.906a1.345,1.345,0,0,1-1.327,1.359A4.986,4.986,0,0,1,56.156,9.35l-.777-.8a1.3,1.3,0,0,0-1.876,0l-.777.8a4.987,4.987,0,0,1-3.592,1.524H42.057A1.345,1.345,0,0,1,40.73,9.515Zm2.654,9.062V13.593h5.75a7.582,7.582,0,0,0,5.307-2.16,7.6,7.6,0,0,0,3.98,2.042v5.1a7.521,7.521,0,1,1-15.037,0ZM54,28.5v1.29l-3.1,3.172-3.1-3.172V28.5A9.947,9.947,0,0,0,54,28.5Zm-8.845-.683V29h-1.52A2.226,2.226,0,0,1,45.153,27.821ZM33.828,43.678l.627-5.2a7.632,7.632,0,0,1,6.276-6.66v.968a5.872,5.872,0,0,0-4.423,5.73v1.812a1.343,1.343,0,0,0,1.327,1.359H39.4a1.36,1.36,0,0,0,0-2.719h-.442v-.453a3.1,3.1,0,1,1,6.192,0v.453h-.442a1.36,1.36,0,0,0,0,2.719H46.48a1.343,1.343,0,0,0,1.327-1.359V38.513a5.872,5.872,0,0,0-4.423-5.73V31.716H45.93l4.034,4.133a1.3,1.3,0,0,0,1.876,0l4.034-4.133h3.431v2.952a4.079,4.079,0,0,0-2.654,3.844,3.982,3.982,0,1,0,7.961,0,4.079,4.079,0,0,0-2.654-3.844V32.014a7.664,7.664,0,0,1,5.391,6.46l.627,5.2Z" transform="translate(-31 0)" fill="#34ACE0"/>
</svg>
