<svg id="enter" xmlns="http://www.w3.org/2000/svg" width="44.889" height="46.396" viewBox="0 0 44.889 46.396">
  <path id="Path_20" data-name="Path 20" d="M20.632,211.019H1.51a1.51,1.51,0,0,1,0-3.019H20.632a1.51,1.51,0,0,1,0,3.019Zm0,0" transform="translate(0 -189.203)" fill="#fefefe"/>
  <path id="Path_21" data-name="Path 21" d="M124.181,146.1a1.511,1.511,0,0,1-1.067-2.579l6.482-6.481-6.482-6.48a1.51,1.51,0,1,1,2.136-2.136l7.548,7.548a1.51,1.51,0,0,1,0,2.136l-7.548,7.548A1.507,1.507,0,0,1,124.181,146.1Zm0,0" transform="translate(-112.146 -116.674)" fill="#fefefe"/>
  <path id="Path_22" data-name="Path 22" d="M302.693,46.471a3.952,3.952,0,0,1-4.026-3.866V7.808a3.906,3.906,0,0,1,2.725-3.671L313.487.265a4.044,4.044,0,0,1,5.31,3.677v34.8a3.907,3.907,0,0,1-2.723,3.669l-12.1,3.874a4.371,4.371,0,0,1-1.282.189Zm12.078-43.5a1.229,1.229,0,0,0-.36.05L302.368,6.882a1,1,0,0,0-.68.926V42.6a1.056,1.056,0,0,0,1.367.916L315.1,39.665a1,1,0,0,0,.68-.926V3.942A.989.989,0,0,0,314.771,2.975Zm0,0" transform="translate(-273.908 -0.075)" fill="#fefefe"/>
  <path id="Path_23" data-name="Path 23" d="M172.178,10.065a1.51,1.51,0,0,1-1.51-1.51V5.536A5.54,5.54,0,0,1,176.2,0h22.645a1.51,1.51,0,1,1,0,3.019H176.2a2.519,2.519,0,0,0-2.516,2.516V8.555A1.51,1.51,0,0,1,172.178,10.065Zm0,0" transform="translate(-157.985)" fill="#fefefe"/>
  <path id="Path_24" data-name="Path 24" d="M184.255,351.4H176.2a5.54,5.54,0,0,1-5.535-5.536v-3.019a1.51,1.51,0,1,1,3.019,0v3.019a2.519,2.519,0,0,0,2.516,2.516h8.052a1.51,1.51,0,1,1,0,3.019Zm0,0" transform="translate(-156.223 -311.039)" fill="#fefefe"/>
</svg>
