<svg xmlns="http://www.w3.org/2000/svg" width="97.678" height="97.678" viewBox="0 0 97.678 97.678">
  <path id="Path_82" data-name="Path 82" d="M83.394,14.326a48.839,48.839,0,1,0-.042,69.069A48.839,48.839,0,0,0,83.394,14.326ZM55.658,79.83a1.364,1.364,0,0,1-1.364,1.364H43.384A1.364,1.364,0,0,1,42.02,79.83v-40.5a1.364,1.364,0,0,1,1.364-1.364h10.91a1.363,1.363,0,0,1,1.364,1.364ZM48.839,32.3a7.91,7.91,0,1,1,7.91-7.909A7.919,7.919,0,0,1,48.839,32.3Z" transform="translate(0 0)" fill="#f46d6d"/>
</svg>
