<svg xmlns="http://www.w3.org/2000/svg" width="22.417" height="24.658" viewBox="0 0 22.417 24.658">
  <g id="Group_570" data-name="Group 570" transform="translate(-311.963 -306.98)">
    <path id="Path_122" data-name="Path 122" d="M139.083,451.362A4.21,4.21,0,0,0,143.2,448h-8.236A4.21,4.21,0,0,0,139.083,451.362Zm0,0" transform="translate(184.089 -119.725)" fill="#d94d4d"/>
    <path id="Union_2" data-name="Union 2" d="M-3537.909,1002.174h-.005a2.056,2.056,0,0,1-2.015-1.438l0-.017,0-.018h0c-.007-.027-.013-.053-.019-.081l0-.02,0-.008,0-.019,0-.019v-.007a1.955,1.955,0,0,1,.49-1.661,2.058,2.058,0,0,1,.193-.184q.069-.058.136-.117a7.562,7.562,0,0,0,1.7-2.2,7.585,7.585,0,0,0,.808-3.182h.01q0-.119,0-.237v-3.125a7.845,7.845,0,0,1,7.845-7.845,7.846,7.846,0,0,1,7.845,7.845v3.125q0,.119,0,.237h.01a7.585,7.585,0,0,0,.808,3.182,7.561,7.561,0,0,0,1.7,2.2l.136.117a2.065,2.065,0,0,1,.191.182,1.956,1.956,0,0,1,.492,1.664.049.049,0,0,1,0,.006l0,.019,0,.019v.008l0,.02q-.011.052-.024.1l0,.014a2.056,2.056,0,0,1-2.015,1.438Z" transform="translate(3851.963 -675.02)" fill="#c3c3c3"/>
  </g>
</svg>
