<svg xmlns="http://www.w3.org/2000/svg" width="22.248" height="30.113" viewBox="0 0 22.248 30.113">
  <g id="Group_569" data-name="Group 569" transform="translate(-267.352 -498)">
    <path id="Path_142" data-name="Path 142" d="M59.2,0A11.136,11.136,0,0,0,48.08,11.124a12.834,12.834,0,0,0,.944,4.283,17.938,17.938,0,0,0,1.286,2.4l7.627,11.556a1.451,1.451,0,0,0,2.535,0L68.1,17.811a17.864,17.864,0,0,0,1.286-2.4,12.831,12.831,0,0,0,.943-4.283A11.136,11.136,0,0,0,59.2,0Zm8.974,14.9a16.439,16.439,0,0,1-1.172,2.192L59.378,28.648c-.15.228-.2.228-.349,0L51.4,17.091A16.444,16.444,0,0,1,50.23,14.9a11.649,11.649,0,0,1-.841-3.774,9.815,9.815,0,0,1,19.63,0A11.659,11.659,0,0,1,68.178,14.9Z" transform="translate(219.272 498)" fill="#fff"/>
    <path id="Path_143" data-name="Path 143" d="M117.969,64.008a5.889,5.889,0,1,0,5.889,5.889A5.9,5.9,0,0,0,117.969,64.008Zm0,10.469a4.58,4.58,0,1,1,4.58-4.58A4.586,4.586,0,0,1,117.969,74.477Z" transform="translate(160.507 440.584)" fill="#fff"/>
  </g>
</svg>
