<svg id="x-ray" xmlns="http://www.w3.org/2000/svg" width="57.649" height="50.668" viewBox="0 0 57.649 50.668">
  <path id="Path_106" data-name="Path 106" d="M91,162.772v10.134a1.689,1.689,0,1,0,3.378,0,7.114,7.114,0,0,1,3.955-6.4,5.041,5.041,0,0,0,2.8-4.531V151.07A11.84,11.84,0,0,0,91,162.772Zm0,0" transform="translate(-80.754 -134.06)" fill="#c7c7c7"/>
  <path id="Path_107" data-name="Path 107" d="M331,151.07v10.905a5.041,5.041,0,0,0,2.8,4.531,7.114,7.114,0,0,1,3.955,6.4,1.689,1.689,0,1,0,3.378,0V162.772A11.84,11.84,0,0,0,331,151.07Zm0,0" transform="translate(-293.731 -134.06)" fill="#c7c7c7"/>
  <path id="Path_108" data-name="Path 108" d="M57.649,3.378H44.025V0H40.647V3.378H17V0H13.624V3.378H0v47.29H57.649ZM50.781,38.845a5.067,5.067,0,1,1-10.134,0,3.755,3.755,0,0,0-2.088-3.378,8.4,8.4,0,0,1-4.667-7.552V26.033l-5.067-5.067-5.067,5.067v1.882a8.4,8.4,0,0,1-4.667,7.552A3.755,3.755,0,0,0,17,38.845a5.067,5.067,0,0,1-10.134,0V28.712a15.217,15.217,0,0,1,15.2-15.2h1.689v7.745l3.378-3.378V10.134h3.378v7.745l3.378,3.378V13.511H35.58a15.217,15.217,0,0,1,15.2,15.2Zm0,0" fill="#c7c7c7"/>
</svg>
