<svg xmlns="http://www.w3.org/2000/svg" width="18.611" height="17.615" viewBox="0 0 18.611 17.615">
  <path id="Path_126" data-name="Path 126" d="M16.869,15.446a5.956,5.956,0,0,0-8.414,0L1.243,22.658a4.25,4.25,0,0,0,6.01,6.01l6.611-6.611a2.55,2.55,0,1,0-3.606-3.606L5.935,22.774a.85.85,0,1,0,1.2,1.2l4.323-4.323a.85.85,0,1,1,1.2,1.2L6.051,27.466A2.55,2.55,0,0,1,2.445,23.86l7.212-7.212a4.25,4.25,0,1,1,6.01,6.01L8.455,29.87a.85.85,0,0,0,1.2,1.2l7.212-7.212a5.949,5.949,0,0,0,0-8.414Z" transform="translate(-0.001 -13.707)" fill="#fff"/>
</svg>
