<svg xmlns="http://www.w3.org/2000/svg" width="31.968" height="31" viewBox="0 0 31.968 31">
  <path id="Exclusion_2" data-name="Exclusion 2" d="M-3960.32,5051.2a15.637,15.637,0,0,1-10.949-4.394,14.668,14.668,0,0,1-4.535-10.606,14.668,14.668,0,0,1,4.535-10.606,15.639,15.639,0,0,1,10.949-4.393,15.638,15.638,0,0,1,10.949,4.393,14.667,14.667,0,0,1,4.535,10.606,14.669,14.669,0,0,1-4.535,10.606A15.636,15.636,0,0,1-3960.32,5051.2Zm-1.975-14.528v7.481h2.994v-7.481h2.215l.1-1.176.179-1.818h-2.378v-1.2a.632.632,0,0,1,.658-.714h1.68V5029.2h-2.312a2.915,2.915,0,0,0-3.149,3.132v1.346h-1.492v2.994Z" transform="translate(3976.304 -5020.701)" fill="#b4b4b4" stroke="rgba(0,0,0,0)" stroke-miterlimit="10" stroke-width="1"/>
</svg>
