<svg id="phone" xmlns="http://www.w3.org/2000/svg" width="18.863" height="18.863" viewBox="0 0 18.863 18.863">
  <g id="Group_140" data-name="Group 140" transform="translate(13.297 11.104)">
    <g id="Group_139" data-name="Group 139">
      <path id="Path_83" data-name="Path 83" d="M366,304.207l-2.344-2.345a1.7,1.7,0,0,0-2.345,0l-.391.391,4.689,4.689.391-.391A1.657,1.657,0,0,0,366,304.207Z" transform="translate(-360.917 -301.393)" fill="#b4b4b4"/>
    </g>
  </g>
  <g id="Group_142" data-name="Group 142" transform="translate(0 1.674)">
    <g id="Group_141" data-name="Group 141" transform="translate(0)">
      <path id="Path_84" data-name="Path 84" d="M12.494,56.493a1.243,1.243,0,0,1-1.648-.085L6.211,51.77a1.244,1.244,0,0,1-.085-1.648L1.447,45.443a5.967,5.967,0,0,0,.287,8.1L9.07,60.884a5.933,5.933,0,0,0,8.1.287Z" transform="translate(0 -45.443)" fill="#b4b4b4"/>
    </g>
  </g>
  <g id="Group_144" data-name="Group 144" transform="translate(2.196 0)">
    <g id="Group_143" data-name="Group 143" transform="translate(0 0)">
      <path id="Path_85" data-name="Path 85" d="M64.692,2.814,62.348.469A1.7,1.7,0,0,0,60,.469L59.612.86,64.3,5.549l.391-.391A1.657,1.657,0,0,0,64.692,2.814Z" transform="translate(-59.612 0)" fill="#b4b4b4"/>
    </g>
  </g>
</svg>
