<svg xmlns="http://www.w3.org/2000/svg" width="37.069" height="50.173" viewBox="0 0 37.069 50.173">
  <g id="pin" transform="translate(-30)">
    <g id="Group_97" data-name="Group 97" transform="translate(0 0)">
      <g id="Group_96" data-name="Group 96" transform="translate(0)">
        <path id="Path_66" data-name="Path 66" d="M66.614,0A18.555,18.555,0,0,0,48.08,18.534a21.384,21.384,0,0,0,1.572,7.136,29.888,29.888,0,0,0,2.142,4.007L64.5,48.932a2.417,2.417,0,0,0,4.224,0L81.435,29.677a29.763,29.763,0,0,0,2.142-4.007,21.379,21.379,0,0,0,1.571-7.136A18.555,18.555,0,0,0,66.614,0ZM81.567,24.824a27.386,27.386,0,0,1-1.953,3.652L66.905,47.732c-.251.38-.33.38-.581,0L53.615,28.476a27.4,27.4,0,0,1-1.953-3.653,19.411,19.411,0,0,1-1.4-6.289,16.354,16.354,0,1,1,32.708,0A19.426,19.426,0,0,1,81.567,24.824Z" transform="translate(-18.08)" fill="#fff"/>
        <path id="Path_67" data-name="Path 67" d="M121.892,64.008A9.812,9.812,0,1,0,131.7,73.82,9.824,9.824,0,0,0,121.892,64.008Zm0,17.444a7.632,7.632,0,1,1,7.632-7.632A7.641,7.641,0,0,1,121.892,81.452Z" transform="translate(-73.358 -53.025)" fill="#fff"/>
      </g>
    </g>
  </g>
</svg>
