<svg xmlns="http://www.w3.org/2000/svg" width="30.968" height="30.968" viewBox="0 0 30.968 30.968">
  <path id="Path_180" data-name="Path 180" d="M26.623,4.345A14.836,14.836,0,0,0,3.14,22L0,30.968l8.972-3.14A14.835,14.835,0,0,0,26.623,4.345Zm-3.156,16-1.713,1.713c-1.419,1.419-5.444-.306-8.991-3.853S7.491,10.632,8.91,9.214L10.622,7.5a.908.908,0,0,1,1.284,0l2.141,2.141a.908.908,0,0,1,0,1.284L12.763,12.21A12.6,12.6,0,0,0,18.757,18.2l1.284-1.284a.908.908,0,0,1,1.284,0l2.141,2.141A.908.908,0,0,1,23.467,20.345Z" fill="#b4b4b4"/>
</svg>
