<svg xmlns="http://www.w3.org/2000/svg" width="29.086" height="34.904" viewBox="0 0 29.086 34.904">
  <g id="notification" transform="translate(0)">
    <g id="Group_91" data-name="Group 91" transform="translate(0)">
      <g id="Group_90" data-name="Group 90">
        <path id="Path_162" data-name="Path 162" d="M71.658,29.44l-2.5-4.162A12.364,12.364,0,0,1,67.4,18.917V15.271a10.193,10.193,0,0,0-7.272-9.751V2.909a2.909,2.909,0,1,0-5.817,0V5.519a10.193,10.193,0,0,0-7.272,9.751v3.646a12.371,12.371,0,0,1-1.761,6.36l-2.5,4.162a.728.728,0,0,0,.622,1.1H71.034a.727.727,0,0,0,.624-1.1Z" transform="translate(-42.675)" fill="#fff"/>
      </g>
    </g>
    <g id="Group_93" data-name="Group 93" transform="translate(9.963 31.995)">
      <g id="Group_92" data-name="Group 92">
        <path id="Path_163" data-name="Path 163" d="M188.815,469.333a5.06,5.06,0,0,0,9.159,0Z" transform="translate(-188.815 -469.333)" fill="#fff"/>
      </g>
    </g>
  </g>
</svg>
