<svg xmlns="http://www.w3.org/2000/svg" width="16.343" height="16.643" viewBox="0 0 16.343 16.643">
  <path id="Path_215" data-name="Path 215" d="M11.575,0h-.027a8.165,8.165,0,0,0-6.4,13.253L3.955,16.022a.444.444,0,0,0,.232.584.453.453,0,0,0,.254.031l4.366-.767a7.867,7.867,0,0,0,2.72.473A8.172,8.172,0,0,0,11.575,0Zm-2.8,6.537h2.408a.446.446,0,0,1,0,.892H8.775a.446.446,0,0,1,0-.892ZM14.3,9.659H8.775a.446.446,0,0,1,0-.892H14.3a.446.446,0,1,1,0,.892Z" transform="translate(-3.366)" fill="#48a3da"/>
</svg>
