<svg id="doctor" xmlns="http://www.w3.org/2000/svg" width="22.55" height="22.55" viewBox="0 0 22.55 22.55">
  <path id="Path_218" data-name="Path 218" d="M113.706,113.129a4.872,4.872,0,0,0,9.6,0h.1a1.428,1.428,0,0,0,0-2.856h-.035v-.529a7.066,7.066,0,0,1-3.712-2.161,11.957,11.957,0,0,1-6.032,2.674l-.166.023a1.428,1.428,0,0,0,.131,2.85Z" transform="translate(-107.233 -102.845)" fill="#48a3da"/>
  <path id="Path_219" data-name="Path 219" d="M145.384,6.071c3.969-.739,5.561-2.725,5.577-2.746l.607-.777.488.856a5.31,5.31,0,0,0,3.072,2.13V4.872a4.872,4.872,0,0,0-9.744,0Z" transform="translate(-138.981 0)" fill="#48a3da"/>
  <path id="Path_220" data-name="Path 220" d="M374.047,422h-.206a1.091,1.091,0,0,0-1.09,1.089v1.553h2.385v-1.553A1.091,1.091,0,0,0,374.047,422Z" transform="translate(-356.335 -403.414)" fill="#48a3da"/>
  <circle id="Ellipse_33" data-name="Ellipse 33" cx="0.881" cy="0.881" r="0.881" transform="translate(4.06 19.467)" fill="#48a3da"/>
  <path id="Path_221" data-name="Path 221" d="M223.177,350.683a6.179,6.179,0,0,1-3.171,0l1.585,2.223Z" transform="translate(-210.316 -335.238)" fill="#48a3da"/>
  <path id="Path_222" data-name="Path 222" d="M2.738,331.444a2.206,2.206,0,0,1,1.541-2.1v-3.914l-1.8.846A4.322,4.322,0,0,0,0,330.173v3.473H4.94a2.2,2.2,0,0,1-2.2-2.2Z" transform="translate(0 -311.096)" fill="#48a3da"/>
  <path id="Path_223" data-name="Path 223" d="M416.63,326.274l-1.8-.846v3a2.415,2.415,0,0,1,1.853,2.345v2.874h2.427v-3.473A4.322,4.322,0,0,0,416.63,326.274Z" transform="translate(-396.557 -311.095)" fill="#48a3da"/>
  <path id="Path_224" data-name="Path 224" d="M124.181,306.474v-3.618l-.835-.392c-.167.209-4.839,6.623-4.839,6.623s-4.672-6.413-4.839-6.623l-.835.392v4.534a2.2,2.2,0,0,1-.661,4.3h10.155v-2.874A2.415,2.415,0,0,1,124.181,306.474Z" transform="translate(-107.233 -289.144)" fill="#48a3da"/>
</svg>
