<svg xmlns="http://www.w3.org/2000/svg" width="13.883" height="19.499" viewBox="0 0 13.883 19.499">
  <path id="hand" d="M3.743,19.5H7.934a3.207,3.207,0,0,0,2.824-1.779l3.626-6.963-.2-.168-.011-.01A1.557,1.557,0,0,0,13,10.16a1.592,1.592,0,0,0-1.123.594l-1.046,1.273a.3.3,0,0,1-.531-.19l-.006-8.759A1.042,1.042,0,0,0,9.3,2a1.037,1.037,0,0,0-.991,1.041c0,.885,0,1.848,0,2.764,0,2.073,0,3.862,0,4.036a.3.3,0,0,1-.3.3h0a.3.3,0,0,1-.3-.3c0-.175,0-1.963,0-4.037,0-.895,0-1.834,0-2.7,0-.007,0-.014,0-.021s0-.033,0-.05V1.078A1.037,1.037,0,0,0,6.719,0h-.03a1.041,1.041,0,0,0-1,1.075V9.84a.3.3,0,1,1-.6,0V2.208a1.034,1.034,0,0,0-.982-1.083,1.034,1.034,0,0,0-.985,1.083V9.84a.3.3,0,1,1-.6,0v-4.5a1.033,1.033,0,0,0-1-1.065H1.495A1.032,1.032,0,0,0,.5,5.345C.5,7.8.5,12.137.5,16.017A3.371,3.371,0,0,0,3.743,19.5Zm0,0" transform="translate(-0.5 0)" fill="#fff"/>
</svg>
