<svg id="microphone-black-shape" xmlns="http://www.w3.org/2000/svg" width="42.355" height="61.178" viewBox="0 0 42.355 61.178">
  <g id="Group_94" data-name="Group 94">
    <path id="Path_166" data-name="Path 166" d="M157.944,42.353a11.8,11.8,0,0,0,11.764-11.764V11.765a11.327,11.327,0,0,0-3.455-8.309,11.716,11.716,0,0,0-16.618,0,11.328,11.328,0,0,0-3.456,8.309V30.589a11.8,11.8,0,0,0,11.765,11.764Z" transform="translate(-136.767)" fill="#48a3da"/>
    <path id="Path_167" data-name="Path 167" d="M114.742,183.423a2.353,2.353,0,0,0-4.007,1.654v4.706a16.457,16.457,0,0,1-28.108,11.636,15.861,15.861,0,0,1-4.834-11.636v-4.706a2.353,2.353,0,0,0-4.706,0v4.706a21.174,21.174,0,0,0,18.824,21.029v4.854H82.5a2.353,2.353,0,0,0,0,4.707h23.529a2.353,2.353,0,0,0,0-4.707H96.618v-4.854a21.177,21.177,0,0,0,18.824-21.029v-4.706A2.26,2.26,0,0,0,114.742,183.423Z" transform="translate(-73.087 -159.194)" fill="#48a3da"/>
  </g>
</svg>
