<svg id="video-camera" xmlns="http://www.w3.org/2000/svg" width="20.556" height="12.077" viewBox="0 0 20.556 12.077">
  <g id="Group_157" data-name="Group 157" transform="translate(0 0)">
    <g id="Group_156" data-name="Group 156" transform="translate(0 0)">
      <path id="Path_216" data-name="Path 216" d="M11.627,96.512H2.249A2.256,2.256,0,0,0,0,98.761v7.579a2.256,2.256,0,0,0,2.249,2.249h9.378a2.256,2.256,0,0,0,2.249-2.249V98.761A2.241,2.241,0,0,0,11.627,96.512Z" transform="translate(0 -96.512)" fill="#48a3da"/>
    </g>
  </g>
  <g id="Group_159" data-name="Group 159" transform="translate(15.001 1.201)">
    <g id="Group_158" data-name="Group 158" transform="translate(0 0)">
      <path id="Path_217" data-name="Path 217" d="M345.395,123.884a1.146,1.146,0,0,0-.382.157l-3.508,2.024v5.218l3.531,2.024a1.337,1.337,0,0,0,1.844-.495,1.374,1.374,0,0,0,.18-.675v-6.949A1.354,1.354,0,0,0,345.395,123.884Z" transform="translate(-341.504 -123.847)" fill="#48a3da"/>
    </g>
  </g>
</svg>
