<svg xmlns="http://www.w3.org/2000/svg" width="75" height="75" viewBox="0 0 75 75">
  <g id="Group_180" data-name="Group 180" transform="translate(-911 -448)">
    <circle id="Ellipse_28" data-name="Ellipse 28" cx="37.5" cy="37.5" r="37.5" transform="translate(911 448)" fill="#ea6666"/>
    <g id="info-letter-interface-sign" transform="translate(763.113 463)">
      <g id="Group_178" data-name="Group 178" transform="translate(177.887 0)">
        <path id="Path_246" data-name="Path 246" d="M191.206,177.288h-1.48V153.813a1.5,1.5,0,0,0-1.479-1.48h-8.88a1.5,1.5,0,0,0-1.48,1.48v2.96a1.5,1.5,0,0,0,1.48,1.481h1.48v19.035h-1.48a1.5,1.5,0,0,0-1.48,1.48v2.96a1.5,1.5,0,0,0,1.48,1.481h11.839a1.5,1.5,0,0,0,1.48-1.481v-2.96a1.5,1.5,0,0,0-1.48-1.48Z" transform="translate(-177.887 -140.295)" fill="#fff"/>
        <circle id="Ellipse_39" data-name="Ellipse 39" cx="4.972" cy="4.972" r="4.972" transform="translate(2.123 0)" fill="#fff"/>
      </g>
    </g>
  </g>
</svg>
