<svg id="map" xmlns="http://www.w3.org/2000/svg" width="105.263" height="114.834" viewBox="0 0 105.263 114.834">
  <g id="Group_19" data-name="Group 19" transform="translate(0)">
    <g id="Group_18" data-name="Group 18">
      <path id="Path_18" data-name="Path 18" d="M173.257,133.181a23.924,23.924,0,1,0-23.924-23.924A23.952,23.952,0,0,0,173.257,133.181Zm0-43.063a19.139,19.139,0,1,1-19.139,19.139A19.159,19.159,0,0,1,173.257,90.118Z" transform="translate(-120.625 -66.194)" fill="#2778A7"/>
      <path id="Path_19" data-name="Path 19" d="M126.409,111.5,112.055,78.007a2.4,2.4,0,0,0-2.2-1.451h-8.5l2.935-2.925a43.065,43.065,0,1,0-60.65,0l2.939,2.93h-8.5a2.4,2.4,0,0,0-2.2,1.451L21.527,111.5a2.4,2.4,0,0,0,2.2,3.334h100.48a2.4,2.4,0,0,0,2.2-3.334ZM35.69,43.063a38.278,38.278,0,1,1,65.23,27.176L73.968,97.1,47.016,70.234A38.019,38.019,0,0,1,35.69,43.063Zm-8.336,66.986L39.662,81.341h11.72l20.9,20.833a2.386,2.386,0,0,0,3.374,0l20.9-20.833h11.717l12.308,28.708Z" transform="translate(-21.336)" fill="#2778A7"/>
    </g>
  </g>
  <text id="_" data-name="+" transform="translate(37.139 56.324)" fill="#ea6666" font-size="49" font-family="GESSTwoMedium-Medium, GE SS Two" font-weight="500"><tspan x="0" y="0">+</tspan></text>
</svg>
