<svg xmlns="http://www.w3.org/2000/svg" width="164.011" height="117.793" viewBox="0 0 164.011 117.793">
  <g id="Group_72" data-name="Group 72" transform="translate(-890.681 -337.574)">
    <g id="Group_71" data-name="Group 71">
      <path id="Path_37" data-name="Path 37" d="M161.607,184.94h0l-9.194.011-.01-7.755a2.4,2.4,0,0,0-2.4-2.4h0a2.4,2.4,0,0,0-2.4,2.407l.01,7.755L111.632,185l-.036-30.81,24.894-.029a4.753,4.753,0,0,0,4.749-4.76l-.029-25.12a4.754,4.754,0,0,0-4.754-4.749h-.006l-24.894.029-.012-9.943,35.969-.041.064,56.726a2.4,2.4,0,0,0,2.4,2.4h0a2.4,2.4,0,0,0,2.4-2.407l-.064-56.727,4.732-.005a6.632,6.632,0,0,0,6.616-6.632l-.006-6.306a6.635,6.635,0,0,0-6.626-6.62h-.009l-15.4.016a2.4,2.4,0,0,0,0,4.809h0l15.4-.016h0a1.821,1.821,0,0,1,1.818,1.817l.006,6.306a1.818,1.818,0,0,1-1.814,1.818l-45.51.052-.012-9.941,19.208-.023a2.4,2.4,0,0,0,0-4.809h0l-19.208.023-.013-11.289a6.636,6.636,0,0,0-6.637-6.629h-.008l-45.986.053a6.637,6.637,0,0,0-6.629,6.644l.013,11.29-45.51.053A6.626,6.626,0,0,0,.135,96.814l.007,6.307a6.623,6.623,0,0,0,6.624,6.616h.008l4.76-.005v7.2a2.4,2.4,0,0,0,4.809,0v-7.2l35.942-.042.012,9.942-24.892.029a4.753,4.753,0,0,0-4.749,4.76l.029,25.12a4.754,4.754,0,0,0,4.754,4.749h.006l24.892-.029.036,30.81-36.03.042V127.83a2.4,2.4,0,1,0-4.809,0v57.283l-9.133.011a2.4,2.4,0,0,0,0,4.809h0l159.2-.184a2.4,2.4,0,0,0,0-4.809Zm-25.2-60.6.029,25.012-24.84.029-.029-25.012ZM6.769,104.929h0a1.815,1.815,0,0,1-1.816-1.813l-.007-6.307a1.818,1.818,0,0,1,1.814-1.821l45.51-.053.012,9.941Zm20.723,44.547-.029-25.012,24.838-.029.029,25.012ZM57.058,78.831A1.828,1.828,0,0,1,58.884,77l45.986-.053h0a1.83,1.83,0,0,1,1.828,1.826L106.823,185l-6.009.007-.049-42.4a7.626,7.626,0,0,0-2.191-5.369A7.418,7.418,0,0,0,93.247,135h-.009l-22.587.026a7.417,7.417,0,0,0-5.331,2.255,7.623,7.623,0,0,0-2.179,5.375l.049,42.4-6.01.007ZM67.95,142.648a2.842,2.842,0,0,1,.808-2.006,2.644,2.644,0,0,1,1.9-.809l22.587-.026h0a2.645,2.645,0,0,1,1.9.8,2.845,2.845,0,0,1,.812,2l.049,42.4L68,185.048Z" transform="translate(890.681 265.435)" fill="#2778A7"/>
      <path id="Path_38" data-name="Path 38" d="M197.628,141.754h.006l8.017-.009.009,8.017a4.494,4.494,0,0,0,4.488,4.483h.006l6.092-.007a4.488,4.488,0,0,0,4.483-4.494l-.009-8.017,8.016-.009a4.494,4.494,0,0,0,4.484-4.494l-.007-6.093a4.489,4.489,0,0,0-4.489-4.483h-.006l-8.017.009-.009-8.017a4.488,4.488,0,0,0-4.488-4.483H216.2l-6.092.007a4.489,4.489,0,0,0-4.483,4.494l.009,8.017-8.017.009a4.488,4.488,0,0,0-4.483,4.494l.007,6.092a4.488,4.488,0,0,0,4.488,4.483Zm10.415-10.273a2.4,2.4,0,0,0,2.4-2.407l-.012-10.1,5.452-.006.012,10.1a2.4,2.4,0,0,0,2.4,2.4h0l10.1-.012.006,5.452-10.1.012a2.4,2.4,0,0,0-2.4,2.407l.012,10.1-5.452.006-.012-10.1a2.4,2.4,0,0,0-2.4-2.4h0l-10.1.012-.006-5.452Z" transform="translate(759.415 236.876)" fill="#ea6666"/>
    </g>
  </g>
</svg>
