<svg xmlns="http://www.w3.org/2000/svg" width="123.989" height="139.799" viewBox="0 0 123.989 139.799">
  <g id="Group_74" data-name="Group 74" transform="translate(-176.567 -312.952)">
    <path id="Path_36" data-name="Path 36" d="M152.853,132.641l-6.184-36.207a10.306,10.306,0,0,0-7.223-8.178l-16.681-5.033a18.605,18.605,0,0,0-12.91-16.157c.528-.586,1.018-1.17,1.467-1.741a32.377,32.377,0,0,0,6.631-14.4h1.287a6.077,6.077,0,0,0,6.07-6.07V41.747a6.112,6.112,0,0,0-3.146-5.308V28.957a2.047,2.047,0,1,0-4.094,0v8.4a12.619,12.619,0,0,0-2.722.787,2.055,2.055,0,0,0-.288.129c-.22.1-.44.206-.659.325V22.1a8.275,8.275,0,0,0-8.266-8.266h-5.651a8.493,8.493,0,0,0-5.362,1.913l-.555.453a5.719,5.719,0,0,1-7.24,0l-.554-.453a8.495,8.495,0,0,0-5.362-1.913H75.76A8.275,8.275,0,0,0,67.494,22.1V38.6c-.219-.119-.439-.225-.659-.325a2.053,2.053,0,0,0-.288-.129,12.624,12.624,0,0,0-2.722-.787V16.117A12.036,12.036,0,0,1,75.847,4.094h30.2a12.036,12.036,0,0,1,12.022,12.022v3.218a2.047,2.047,0,1,0,4.094,0V16.117A16.135,16.135,0,0,0,106.046,0h-30.2A16.135,16.135,0,0,0,59.731,16.117V36.439a6.112,6.112,0,0,0-3.146,5.308v3.112a6.077,6.077,0,0,0,6.07,6.07h1.287a32.374,32.374,0,0,0,6.631,14.4c.449.571.938,1.154,1.465,1.74A18.673,18.673,0,0,0,59.129,83.224L42.448,88.257a10.305,10.305,0,0,0-7.223,8.178l-2.511,14.7a2.047,2.047,0,0,0,4.036.689l2.511-14.7a6.234,6.234,0,0,1,4.37-4.947l15.428-4.655v4.05a10.243,10.243,0,0,0-7.785,6.446,10.383,10.383,0,0,0-.608,2.78l-1.491,19.139a5.2,5.2,0,0,0,5.188,5.608h2.552a2.047,2.047,0,1,0,0-4.094H54.362a1.109,1.109,0,0,1-1.106-1.2l1.491-19.139a6.286,6.286,0,0,1,.368-1.684,6.191,6.191,0,0,1,5.795-3.945l.337,0h.047a6.134,6.134,0,0,1,5.716,3.666,6.28,6.28,0,0,1,.479,1.966l1.492,19.14a1.109,1.109,0,0,1-1.106,1.195H65.324a2.047,2.047,0,1,0,0,4.094h2.552a5.2,5.2,0,0,0,5.188-5.608L71.572,100.8a10.369,10.369,0,0,0-.791-3.245,10.135,10.135,0,0,0-7.628-5.995V86.286l7.037-2.123c.64,1.349,1.909,4.263,4.423,10.545,2.533,6.338,5.682,14.463,8.7,22.361q.032.1.074.194c2.015,5.273,3.97,10.437,5.642,14.892a2.047,2.047,0,0,0,3.834,0c1.672-4.455,3.626-9.619,5.642-14.892a2.042,2.042,0,0,0,.074-.194c3.017-7.893,6.164-16.013,8.7-22.349,2.517-6.29,3.787-9.207,4.427-10.556l7.037,2.123V98.378a10.591,10.591,0,1,0,4.094.009V87.522l15.429,4.655a6.234,6.234,0,0,1,4.37,4.947l6.184,36.207a2.033,2.033,0,0,1-2,2.375H35.079a2.033,2.033,0,0,1-2-2.375l2.041-11.949a2.047,2.047,0,0,0-4.036-.689L29.04,132.641a6.126,6.126,0,0,0,6.039,7.158H146.814a6.127,6.127,0,0,0,6.039-7.158Zm-34.76-91.114a8.785,8.785,0,0,1,1.976-.267,2.093,2.093,0,0,0,1-.238,1.94,1.94,0,0,1,.145.725v3.112a1.978,1.978,0,0,1-1.976,1.976h-1.146ZM63.8,46.835H62.654a1.978,1.978,0,0,1-1.976-1.976V41.748a1.942,1.942,0,0,1,.145-.724,2.088,2.088,0,0,0,1,.237,9.127,9.127,0,0,1,1.976.268v5.307Zm4.094,2.3V43.752A2.873,2.873,0,0,0,71.588,41V22.1a4.176,4.176,0,0,1,4.172-4.172H81.41a4.389,4.389,0,0,1,2.77.988l.554.453a9.814,9.814,0,0,0,12.423,0l.554-.453a4.388,4.388,0,0,1,2.77-.988h5.651A4.176,4.176,0,0,1,110.3,22.1V41A2.873,2.873,0,0,0,114,43.754V49.13c0,2.989-2.066,8.793-5.9,13.664a26.991,26.991,0,0,1-4.907,4.862,2.049,2.049,0,0,0-.183.138,19.956,19.956,0,0,1-24.133,0,2.078,2.078,0,0,0-.182-.137,27.011,27.011,0,0,1-4.907-4.862C69.961,57.924,67.894,52.12,67.894,49.13Zm36.464,33.075L90.947,92.23,77.535,82.206a9.709,9.709,0,0,0,2.075-5.8v-3.3a24.042,24.042,0,0,0,22.674,0v3.3A9.709,9.709,0,0,0,104.359,82.206ZM74.118,79.921a5.6,5.6,0,0,0-3.452-.174c-.05.012-.1.025-.147.039l-7.073,2.134A14.544,14.544,0,0,1,75.515,70.45v5.959A5.414,5.414,0,0,1,74.118,79.921Zm5.556,16.434-.011-.028-.308-.777-.055-.138-.3-.743-.02-.052q-.455-1.144-.877-2.2l-.061-.153-.239-.594-.086-.214-.227-.562-.066-.164-.4-.979-.105-.259-.15-.366-.159-.389-.06-.146-.046-.111q-.355-.862-.674-1.625l-.005-.012c-.114-.271-.225-.536-.331-.788l-.164-.386,11.535,8.621-4.82,2.048-.026.011-2.012.855Zm4.885,12.535q-.607-1.574-1.22-3.159-.958-2.473-1.832-4.71l.764-.325,3.121,3.629Zm6.427,16.639a2.038,2.038,0,0,0-.209-.344c-.925-2.445-2.1-5.539-3.4-8.943l1.911-10.464H92.6l1.911,10.464C93.153,119.808,91.93,123.033,90.986,125.529Zm2.385-23.845h-4.85l-2.295-2.668,4.72-2,4.72,2Zm5.183,4.048q-.612,1.581-1.22,3.159l-.834-4.566,3.121-3.629.764.325Q99.51,103.261,98.554,105.731ZM106.4,86.059c-.1.239-.207.49-.314.746l-.042.1c-.106.254-.214.513-.326.783l-.022.055c-.1.233-.2.473-.3.718l-.055.134-.069.168-.136.332-.17.415-.056.137q-.214.524-.439,1.079l-.07.173-.225.557-.089.221-.237.588-.067.168q-.417,1.037-.865,2.164l-.029.074-.293.738-.055.14-.309.781-.006.014-.341.863-2.014-.856-.021-.009-4.823-2.049,11.535-8.621Q106.478,85.862,106.4,86.059Zm4.979-6.272h0l-.005,0a5.6,5.6,0,0,0-3.592.136,5.412,5.412,0,0,1-1.4-3.512V70.447a14.43,14.43,0,0,1,12.077,11.476Zm15.888,28.988a6.5,6.5,0,1,1-6.5-6.5A6.506,6.506,0,0,1,127.262,108.775Z" transform="translate(147.615 312.952)" fill="#2778A7"/>
    <text id="_" data-name="+" transform="translate(201 429.028)" fill="#ea6666" font-size="25" font-family="GESSTwoMedium-Medium, GE SS Two" font-weight="500"><tspan x="0" y="0">+</tspan></text>
  </g>
</svg>
