<svg xmlns="http://www.w3.org/2000/svg" width="27.229" height="17.341" viewBox="0 0 27.229 17.341">
  <path id="Path_55" data-name="Path 55" d="M578.851,82.546c-1.889.028-3.777.028-5.665.028-.54,0-1.093-.028-1.619,0-.113,0-.283.127-.283.2-.014,1.094-.014,2.186-.014,3.323h4.614a2.333,2.333,0,0,1-.155.553,4.457,4.457,0,0,1-5.212,2.755,5.076,5.076,0,0,1-4.16-6.049,5.388,5.388,0,0,1,.341-1.179,5.1,5.1,0,0,1,5.68-2.854,4.68,4.68,0,0,1,2.171,1.122L577.09,77.9a1.231,1.231,0,0,1-.213-.184,8.3,8.3,0,0,0-7.014-1.917,8.713,8.713,0,0,0-6.673,11.657,8.739,8.739,0,0,0,9.129,5.495,7.733,7.733,0,0,0,5.012-2.343,8.863,8.863,0,0,0,2.2-7.511c-.057-.468-.241-.554-.682-.554Zm8.59.27h-.568V82.3c0-.724.014-1.448,0-2.187,0-.113-.142-.326-.2-.326-.652-.028-1.32-.028-2.015-.028v3.024h-3.054v.554c.029.54.044,1.093.086,1.633.526.028,1.051.056,1.6.056.442.014.895,0,1.377,0v2.982c.753-.014,1.448,0,2.2,0V85.031h2.981V82.816Z" transform="translate(-562.626 -75.667)" fill="#dd5050" fill-rule="evenodd"/>
</svg>
