<svg xmlns="http://www.w3.org/2000/svg" width="32.986" height="21.008" viewBox="0 0 32.986 21.008">
  <path id="Path_55" data-name="Path 55" d="M582.282,84c-2.288.035-4.575.035-6.863.035-.654,0-1.324-.035-1.962,0-.137,0-.343.154-.343.241-.018,1.325-.018,2.649-.018,4.025h5.59a2.821,2.821,0,0,1-.188.67c-.844,2.546-3.475,3.8-6.313,3.338a6.149,6.149,0,0,1-5.039-7.328,6.529,6.529,0,0,1,.413-1.428,6.174,6.174,0,0,1,6.881-3.457,5.669,5.669,0,0,1,2.63,1.359l3.08-3.079a1.492,1.492,0,0,1-.258-.223,10.059,10.059,0,0,0-8.5-2.322,10.556,10.556,0,0,0-8.083,14.122,10.587,10.587,0,0,0,11.059,6.657,9.368,9.368,0,0,0,6.072-2.839c2.424-2.58,3.06-5.676,2.666-9.1-.069-.567-.292-.671-.826-.671Zm10.406.327H592v-.62c0-.878.017-1.755,0-2.649,0-.137-.172-.4-.242-.4-.79-.035-1.6-.035-2.441-.035v3.664h-3.7v.671c.035.654.053,1.324.1,1.978.637.035,1.273.068,1.943.068.535.017,1.084,0,1.669,0v3.612c.913-.017,1.755,0,2.667,0V87.011h3.611V84.328Z" transform="translate(-562.626 -75.667)" fill="#fff" fill-rule="evenodd"/>
</svg>
