<svg xmlns="http://www.w3.org/2000/svg" width="20.596" height="20.596" viewBox="0 0 20.596 20.596">
  <path id="Path_52" data-name="Path 52" d="M193.539,80.818a5.965,5.965,0,1,1,5.958,5.971,5.972,5.972,0,0,1-5.958-5.971Zm-.193-10.292h12.317a4.144,4.144,0,0,1,4.14,4.14V86.982a4.144,4.144,0,0,1-4.14,4.14H193.346a4.144,4.144,0,0,1-4.14-4.14V74.666a4.144,4.144,0,0,1,4.14-4.14Zm13.541,1.741a1.212,1.212,0,1,0,1.213,1.212,1.211,1.211,0,0,0-1.213-1.212Zm.142,8.551a7.532,7.532,0,1,0-7.532,7.531,7.532,7.532,0,0,0,7.532-7.531Z" transform="translate(-189.206 -70.526)" fill="#fff" fill-rule="evenodd"/>
</svg>
