<svg xmlns="http://www.w3.org/2000/svg" width="17.002" height="17.001" viewBox="0 0 17.002 17.001">
  <path id="Path_52" data-name="Path 52" d="M192.783,79.021a4.924,4.924,0,1,1,4.918,4.929,4.93,4.93,0,0,1-4.918-4.929Zm-.16-8.5H202.79a3.421,3.421,0,0,1,3.417,3.418V84.11a3.421,3.421,0,0,1-3.417,3.417H192.624a3.421,3.421,0,0,1-3.418-3.417V73.944a3.421,3.421,0,0,1,3.418-3.418ZM203.8,71.963a1,1,0,1,0,1,1,1,1,0,0,0-1-1Zm.117,7.058a6.217,6.217,0,1,0-6.217,6.217,6.217,6.217,0,0,0,6.217-6.217Z" transform="translate(-189.206 -70.526)" fill="#c9ac87" fill-rule="evenodd"/>
</svg>
