<svg xmlns="http://www.w3.org/2000/svg" width="17.001" height="17.001" viewBox="0 0 17.001 17.001">
  <path id="Path_54" data-name="Path 54" d="M692.5,324.818v8.323h3.963V321.8H692.5Zm16.907.469c-.261-2.148-1.241-3.483-4.141-3.483-1.7,0-2.847.626-3.327,1.533h-.052V321.8h-3.161v11.337h3.306V327.52c0-1.482.292-2.91,2.108-2.91s1.96,1.689,1.96,3.014v5.518h3.4v-6.227a13.275,13.275,0,0,0-.094-1.627Zm-14.925-9.147a1.982,1.982,0,1,0,1.981,1.982,1.981,1.981,0,0,0-1.981-1.982Z" transform="translate(-692.5 -316.14)" fill="#246a89" fill-rule="evenodd"/>
</svg>
