<svg xmlns="http://www.w3.org/2000/svg" width="20.595" height="20.596" viewBox="0 0 20.595 20.596">
  <path id="Path_54" data-name="Path 54" d="M692.5,326.653v10.083h4.8V323h-4.8Zm20.482.568c-.316-2.6-1.5-4.22-5.017-4.22-2.059,0-3.449.758-4.03,1.858h-.063V323h-3.829v13.735h4.005v-6.81c0-1.795.354-3.525,2.553-3.525s2.374,2.047,2.374,3.651v6.684H713.1v-7.543a16.093,16.093,0,0,0-.113-1.971ZM694.9,316.14a2.4,2.4,0,1,0,2.4,2.4,2.4,2.4,0,0,0-2.4-2.4Z" transform="translate(-692.5 -316.14)" fill="#fff" fill-rule="evenodd"/>
</svg>
