<svg xmlns="http://www.w3.org/2000/svg" width="19.973" height="15.976" viewBox="0 0 19.973 15.976">
  <path id="Path_51" data-name="Path 51" d="M709.54,197.12a8.74,8.74,0,0,1-2.35.639A4.042,4.042,0,0,0,709,195.517a8.344,8.344,0,0,1-2.61.986,4.115,4.115,0,0,0-7.1,2.751,4.217,4.217,0,0,0,.12.921,11.632,11.632,0,0,1-8.449-4.214,3.982,3.982,0,0,0,1.257,5.384,3.965,3.965,0,0,1-1.852-.5v.054a3.816,3.816,0,0,0,.281,1.451,4.086,4.086,0,0,0,3.012,2.491,4.03,4.03,0,0,1-1.084.151,3.651,3.651,0,0,1-.77-.087,4.132,4.132,0,0,0,3.824,2.816,8.287,8.287,0,0,1-5.081,1.722c-.336,0-.649-.022-.985-.055a11.825,11.825,0,0,0,6.282,1.809,11.4,11.4,0,0,0,11.383-9.033,11.081,11.081,0,0,0,.271-2.437v-.52a8.474,8.474,0,0,0,2.036-2.091Z" transform="translate(-689.567 -195.225)" fill="#4a9fd1" fill-rule="evenodd"/>
</svg>
