<svg xmlns="http://www.w3.org/2000/svg" width="24.196" height="19.354" viewBox="0 0 24.196 19.354">
  <path id="Path_51" data-name="Path 51" d="M713.762,197.521a10.588,10.588,0,0,1-2.847.774,4.9,4.9,0,0,0,2.191-2.716,10.107,10.107,0,0,1-3.162,1.194,4.985,4.985,0,0,0-8.6,3.333,5.114,5.114,0,0,0,.145,1.116,14.092,14.092,0,0,1-10.235-5.1,4.824,4.824,0,0,0,1.522,6.522,4.8,4.8,0,0,1-2.243-.6v.066a4.622,4.622,0,0,0,.341,1.758,4.95,4.95,0,0,0,3.649,3.018,4.882,4.882,0,0,1-1.313.183,4.423,4.423,0,0,1-.932-.1,5.006,5.006,0,0,0,4.633,3.412,10.04,10.04,0,0,1-6.155,2.087c-.407,0-.787-.027-1.193-.066a14.325,14.325,0,0,0,7.61,2.191,13.809,13.809,0,0,0,13.79-10.943,13.429,13.429,0,0,0,.328-2.952v-.63a10.266,10.266,0,0,0,2.467-2.533Z" transform="translate(-689.567 -195.225)" fill="#fff" fill-rule="evenodd"/>
</svg>
