<svg xmlns="http://www.w3.org/2000/svg" width="17" height="17" viewBox="0 0 17 17">
  <path id="Exclusion_1" data-name="Exclusion 1" d="M898.334,5310.4a8.5,8.5,0,0,1-5.535-2.049l-2.775.521,1-2.628a8.5,8.5,0,1,1,7.307,4.157Zm-2.688-11.774a.652.652,0,0,0-.5.237l-.025.025a2.025,2.025,0,0,0-.646,1.541,1.97,1.97,0,0,0,.111.629,3.972,3.972,0,0,0,.624,1.246l.039.056.033.048a7.409,7.409,0,0,0,3.191,2.775,5.705,5.705,0,0,0,1.852.531,1.016,1.016,0,0,0,.26-.035,1.008,1.008,0,0,1,.159-.028,1.9,1.9,0,0,0,1.277-.893,1.508,1.508,0,0,0,.1-.893,1.058,1.058,0,0,0-.357-.2l-.264-.13-.026-.013c-.347-.17-.87-.429-.995-.479l-.023-.006a.759.759,0,0,0-.189-.036.256.256,0,0,0-.222.145,7.922,7.922,0,0,1-.6.724.255.255,0,0,1-.2.114.459.459,0,0,1-.2-.056l-.1-.044a4.639,4.639,0,0,1-1.418-.891,5.538,5.538,0,0,1-1.055-1.285.291.291,0,0,1,.063-.384l.013-.016a2.091,2.091,0,0,0,.281-.311l.009-.012a.363.363,0,0,0,.068-.085,1.343,1.343,0,0,0,.092-.167l.006-.013.02-.041a.291.291,0,0,0-.017-.323c-.032-.091-.41-1.018-.578-1.4-.113-.284-.233-.32-.325-.32-.018,0-.035,0-.051,0l-.04,0c-.058,0-.114,0-.177-.008S895.713,5298.626,895.646,5298.626Z" transform="translate(-889.834 -5293.4)" fill="#63ae3e"/>
</svg>
