<svg xmlns="http://www.w3.org/2000/svg" width="20.594" height="20.595" viewBox="0 0 20.594 20.595">
  <path id="Union_1" data-name="Union 1" d="M3854.237,8090.345l-3.366.631,1.214-3.188a10.32,10.32,0,1,1,2.152,2.557Zm2.834-11.492-.026.024a2.441,2.441,0,0,0-.788,1.871,2.357,2.357,0,0,0,.134.764,4.868,4.868,0,0,0,.756,1.507c.022.03.039.055.049.069a.165.165,0,0,1,.024.037l.018.026a8.806,8.806,0,0,0,3.863,3.359,6.905,6.905,0,0,0,2.244.642,1.228,1.228,0,0,0,.315-.042,1.269,1.269,0,0,1,.193-.033,2.256,2.256,0,0,0,1.546-1.083,1.875,1.875,0,0,0,.124-1.083,1.3,1.3,0,0,0-.433-.246l-.4-.2c-.4-.2-1.005-.5-1.152-.554l-.031-.008a.91.91,0,0,0-.228-.044.308.308,0,0,0-.268.177,10.815,10.815,0,0,1-.721.875.306.306,0,0,1-.248.14.57.57,0,0,1-.238-.067c-.028-.014-.063-.028-.1-.044l-.028-.012a5.7,5.7,0,0,1-1.712-1.077,6.751,6.751,0,0,1-1.278-1.558.35.35,0,0,1,.079-.469l.012-.014a2.822,2.822,0,0,0,.352-.392.48.48,0,0,0,.083-.1,1.592,1.592,0,0,0,.107-.2l.008-.018c.008-.016.016-.035.026-.053a.347.347,0,0,0-.02-.392c-.041-.114-.5-1.241-.7-1.692-.136-.343-.282-.386-.392-.386l-.063,0-.014,0-.035,0c-.067,0-.134,0-.2-.01h-.01l-.012,0c-.071,0-.142-.008-.217-.008A.787.787,0,0,0,3857.071,8078.853Z" transform="translate(-3850.639 -8072.234)" fill="#fff"/>
</svg>
