<svg xmlns="http://www.w3.org/2000/svg" width="32.884" height="31.912" viewBox="0 0 32.884 31.912">
  <g id="password" transform="translate(0 -7.194)">
    <g id="Group_139" data-name="Group 139" transform="translate(0 7.194)">
      <path id="Path_227" data-name="Path 227" d="M16.1,352.316a.472.472,0,0,0-.642-.169l-1.175.682v-1.358a.466.466,0,0,0-.932,0v1.358l-1.175-.682a.469.469,0,0,0-.473.811l1.182.689-1.182.689a.469.469,0,1,0,.473.811l1.175-.682v1.358a.466.466,0,0,0,.932,0v-1.358l1.175.682a.469.469,0,1,0,.473-.811l-1.182-.689,1.182-.689A.467.467,0,0,0,16.1,352.316Z" transform="translate(-10.696 -327.781)" fill="#fff"/>
      <path id="Path_228" data-name="Path 228" d="M143.033,354.878a.472.472,0,0,0,.642.169l1.175-.682v1.358a.466.466,0,1,0,.932,0v-1.358l1.175.682a.469.469,0,0,0,.473-.811l-1.182-.689,1.182-.689a.469.469,0,0,0-.473-.811l-1.175.682v-1.358a.466.466,0,1,0-.932,0v1.358l-1.175-.676a.469.469,0,0,0-.473.811l1.182.689-1.182.682A.472.472,0,0,0,143.033,354.878Z" transform="translate(-133.313 -327.688)" fill="#fff"/>
      <path id="Path_229" data-name="Path 229" d="M131.5,457.164v.824a.36.36,0,0,0,.358.358h5.532a.36.36,0,0,0,.358-.358v-.824a.36.36,0,0,0-.358-.358h-5.532A.356.356,0,0,0,131.5,457.164Z" transform="translate(-122.617 -426.434)" fill="#fff"/>
      <path id="Path_230" data-name="Path 230" d="M150.2,14.889h-.041V13.052a5.831,5.831,0,0,0-5.8-5.857,5.721,5.721,0,0,0-5.613,5.708v.176a.481.481,0,0,0,.48.48h1.533a.481.481,0,0,0,.48-.48v-.054a3.294,3.294,0,0,1,3.006-3.33,3.215,3.215,0,0,1,3.418,3.2v1.986h-4.729v.007h-4.371a1.507,1.507,0,0,0-1.466,1.5V24.7a1.508,1.508,0,0,0,1.506,1.506H150.2A1.508,1.508,0,0,0,151.7,24.7V16.4A1.5,1.5,0,0,0,150.2,14.889Zm-4.9,6.032a.325.325,0,0,0-.149.3c.007.608.007,1.216,0,1.831h0a.641.641,0,0,1-.345.615.714.714,0,0,1-1.067-.615V21.219a.319.319,0,0,0-.135-.29,1.388,1.388,0,0,1-.459-1.716,1.42,1.42,0,0,1,2.716.561A1.286,1.286,0,0,1,145.3,20.921Z" transform="translate(-127.839 -7.194)" fill="#fff"/>
      <path id="Path_231" data-name="Path 231" d="M262.9,457.164v.824a.36.36,0,0,0,.358.358h5.532a.36.36,0,0,0,.358-.358v-.824a.36.36,0,0,0-.358-.358h-5.532A.36.36,0,0,0,262.9,457.164Z" transform="translate(-245.141 -426.434)" fill="#fff"/>
      <path id="Path_232" data-name="Path 232" d="M274.433,354.878a.472.472,0,0,0,.642.169l1.175-.682v1.358a.466.466,0,1,0,.932,0v-1.358l1.175.682a.469.469,0,0,0,.473-.811l-1.182-.689,1.182-.689a.469.469,0,0,0-.473-.811l-1.175.682v-1.358a.466.466,0,0,0-.932,0v1.358l-1.175-.682a.469.469,0,0,0-.473.811l1.182.689-1.182.689A.472.472,0,0,0,274.433,354.878Z" transform="translate(-255.836 -327.688)" fill="#fff"/>
      <path id="Path_233" data-name="Path 233" d="M400.19,456.806h-5.532a.36.36,0,0,0-.358.358v.824a.36.36,0,0,0,.358.358h5.532a.36.36,0,0,0,.358-.358v-.824A.36.36,0,0,0,400.19,456.806Z" transform="translate(-367.665 -426.434)" fill="#fff"/>
      <path id="Path_234" data-name="Path 234" d="M.358,458.346H5.89a.36.36,0,0,0,.358-.358v-.824a.36.36,0,0,0-.358-.358H.358a.36.36,0,0,0-.358.358v.824A.36.36,0,0,0,.358,458.346Z" transform="translate(0 -426.434)" fill="#fff"/>
      <path id="Path_235" data-name="Path 235" d="M405.892,354.878a.472.472,0,0,0,.642.169l1.175-.682v1.358a.466.466,0,0,0,.932,0v-1.358l1.175.682a.469.469,0,0,0,.473-.811l-1.182-.689,1.182-.689a.469.469,0,1,0-.473-.811l-1.175.682v-1.358a.466.466,0,0,0-.932,0v1.358l-1.175-.682a.469.469,0,1,0-.473.811l1.182.689-1.182.689A.466.466,0,0,0,405.892,354.878Z" transform="translate(-378.412 -327.688)" fill="#fff"/>
    </g>
  </g>
</svg>
