<svg xmlns="http://www.w3.org/2000/svg" width="27.029" height="18.459" viewBox="0 0 27.029 18.459">
  <g id="eye" transform="translate(0 -98.725)">
    <path id="Path_236" data-name="Path 236" d="M13.515,98.725c-5.164,0-9.847,3.237-13.3,8.494a1.371,1.371,0,0,0,0,1.463c3.456,5.264,8.139,8.5,13.3,8.5s9.847-3.237,13.3-8.494a1.371,1.371,0,0,0,0-1.463C23.362,101.962,18.679,98.725,13.515,98.725Zm.37,15.728c-3.428.247-6.259-2.99-6.043-6.924.177-3.243,2.472-5.872,5.3-6.075,3.428-.247,6.259,2.99,6.043,6.924C19.005,111.616,16.711,114.244,13.885,114.453Zm-.171-3a3.538,3.538,0,0,1-.393-7,3.538,3.538,0,0,1,.393,7Z" transform="translate(0 0)" fill="#fff"/>
  </g>
</svg>
