<svg xmlns="http://www.w3.org/2000/svg" width="28.039" height="28.009" viewBox="0 0 28.039 28.009">
  <g id="global" transform="translate(0 -0.256)">
    <g id="Group_141" data-name="Group 141" transform="translate(15.317 0.256)">
      <g id="Group_140" data-name="Group 140">
        <path id="Path_237" data-name="Path 237" d="M260.113.256A28.365,28.365,0,0,1,263.8,7.782a16.26,16.26,0,0,0,5.534-1.939l.5-.312A14.039,14.039,0,0,0,260.113.256Z" transform="translate(-260.113 -0.256)" fill="#fff"/>
      </g>
    </g>
    <g id="Group_143" data-name="Group 143" transform="translate(10.03 10.04)">
      <g id="Group_142" data-name="Group 142">
        <path id="Path_238" data-name="Path 238" d="M177.833,166.4a30.879,30.879,0,0,1-7.035,0,19.2,19.2,0,0,0-.472,3.216h7.98A19.2,19.2,0,0,0,177.833,166.4Z" transform="translate(-170.326 -166.4)" fill="#fff"/>
      </g>
    </g>
    <g id="Group_145" data-name="Group 145" transform="translate(11.055 20.29)">
      <g id="Group_144" data-name="Group 144">
        <path id="Path_239" data-name="Path 239" d="M190.7,340.48a29.15,29.15,0,0,0-2.965.154,26.975,26.975,0,0,0,2.965,6.139,26.978,26.978,0,0,0,2.965-6.139A29.15,29.15,0,0,0,190.7,340.48Z" transform="translate(-187.733 -340.48)" fill="#fff"/>
      </g>
    </g>
    <g id="Group_147" data-name="Group 147" transform="translate(19.532 15.265)">
      <g id="Group_146" data-name="Group 146">
        <path id="Path_240" data-name="Path 240" d="M332.169,255.147a21.282,21.282,0,0,1-.479,3.523,17.988,17.988,0,0,1,6.074,2.183l.568.354a13.977,13.977,0,0,0,1.865-6.06Z" transform="translate(-331.69 -255.147)" fill="#fff"/>
      </g>
    </g>
    <g id="Group_149" data-name="Group 149" transform="translate(19.532 7.196)">
      <g id="Group_148" data-name="Group 148">
        <path id="Path_241" data-name="Path 241" d="M338.332,118.118l-.568.354a17.989,17.989,0,0,1-6.074,2.188,21.288,21.288,0,0,1,.479,3.517H340.2A13.976,13.976,0,0,0,338.332,118.118Z" transform="translate(-331.69 -118.118)" fill="#fff"/>
      </g>
    </g>
    <g id="Group_151" data-name="Group 151" transform="translate(10.03 15.265)">
      <g id="Group_150" data-name="Group 150">
        <path id="Path_242" data-name="Path 242" d="M170.325,255.147a19.186,19.186,0,0,0,.474,3.216,30.993,30.993,0,0,1,7.035,0,19.191,19.191,0,0,0,.47-3.216Z" transform="translate(-170.325 -255.147)" fill="#fff"/>
      </g>
    </g>
    <g id="Group_153" data-name="Group 153" transform="translate(0 7.196)">
      <g id="Group_152" data-name="Group 152">
        <path id="Path_243" data-name="Path 243" d="M2.433,118.472l-.568-.354A13.977,13.977,0,0,0,0,124.177H8.028a21.288,21.288,0,0,1,.479-3.517A17.99,17.99,0,0,1,2.433,118.472Z" transform="translate(0 -118.118)" fill="#fff"/>
      </g>
    </g>
    <g id="Group_155" data-name="Group 155" transform="translate(2.994 20.74)">
      <g id="Group_154" data-name="Group 154">
        <path id="Path_244" data-name="Path 244" d="M56.879,348.109a16.279,16.279,0,0,0-5.534,1.938l-.5.313a14.035,14.035,0,0,0,9.728,5.275A28.342,28.342,0,0,1,56.879,348.109Z" transform="translate(-50.842 -348.109)" fill="#fff"/>
      </g>
    </g>
    <g id="Group_157" data-name="Group 157" transform="translate(11.055 1.938)">
      <g id="Group_156" data-name="Group 156">
        <path id="Path_245" data-name="Path 245" d="M190.7,28.826a26.99,26.99,0,0,0-2.965,6.138,28.661,28.661,0,0,0,5.929,0A26.988,26.988,0,0,0,190.7,28.826Z" transform="translate(-187.733 -28.826)" fill="#fff"/>
      </g>
    </g>
    <g id="Group_159" data-name="Group 159" transform="translate(15.314 20.74)">
      <g id="Group_158" data-name="Group 158">
        <path id="Path_246" data-name="Path 246" d="M269.291,350.046a16.281,16.281,0,0,0-5.534-1.938,28.34,28.34,0,0,1-3.694,7.525,14.035,14.035,0,0,0,9.728-5.275Z" transform="translate(-260.062 -348.108)" fill="#fff"/>
      </g>
    </g>
    <g id="Group_161" data-name="Group 161" transform="translate(2.997 0.256)">
      <g id="Group_160" data-name="Group 160" transform="translate(0 0)">
        <path id="Path_247" data-name="Path 247" d="M50.893,5.533l.5.312a16.261,16.261,0,0,0,5.534,1.939A28.363,28.363,0,0,1,60.621.257,14.039,14.039,0,0,0,50.893,5.533Z" transform="translate(-50.893 -0.257)" fill="#fff"/>
      </g>
    </g>
    <g id="Group_163" data-name="Group 163" transform="translate(0 15.265)">
      <g id="Group_162" data-name="Group 162">
        <path id="Path_248" data-name="Path 248" d="M8.028,255.147H0a13.976,13.976,0,0,0,1.865,6.06l.568-.354a17.99,17.99,0,0,1,6.074-2.183A21.274,21.274,0,0,1,8.028,255.147Z" transform="translate(0 -255.147)" fill="#fff"/>
      </g>
    </g>
  </g>
</svg>
