<svg id="calendar" xmlns="http://www.w3.org/2000/svg" width="26.18" height="23.624" viewBox="0 0 26.18 23.624">
  <path id="Path_12" data-name="Path 12" d="M26.18,32.363V29.346a2.3,2.3,0,0,0-2.3-2.3h-.307v2.812a.767.767,0,1,1-1.534,0V25.767a.767.767,0,0,0-1.534,0v1.278H15.391v2.812a.767.767,0,1,1-1.534,0V25.767a.767.767,0,0,0-1.534,0v1.278H7.21v2.812a.767.767,0,1,1-1.534,0V25.767a.767.767,0,0,0-1.534,0v1.278H2.3a2.3,2.3,0,0,0-2.3,2.3v3.017Z" transform="translate(0 -25)" fill="#c7c7c7"/>
  <path id="Path_13" data-name="Path 13" d="M0,199v12.425a2.3,2.3,0,0,0,2.3,2.3H23.879a2.3,2.3,0,0,0,2.3-2.3V199Zm7.363,10.636H5.727a.767.767,0,1,1,0-1.534H7.363a.767.767,0,1,1,0,1.534Zm0-3.273H5.727a.767.767,0,0,1,0-1.534H7.363a.767.767,0,0,1,0,1.534Zm0-3.273H5.727a.767.767,0,0,1,0-1.534H7.363a.767.767,0,0,1,0,1.534Zm6.545,6.545H12.272a.767.767,0,1,1,0-1.534h1.636a.767.767,0,1,1,0,1.534Zm0-3.273H12.272a.767.767,0,1,1,0-1.534h1.636a.767.767,0,0,1,0,1.534Zm0-3.273H12.272a.767.767,0,1,1,0-1.534h1.636a.767.767,0,0,1,0,1.534Zm6.545,6.545H18.817a.767.767,0,1,1,0-1.534h1.636a.767.767,0,1,1,0,1.534Zm0-3.273H18.817a.767.767,0,0,1,0-1.534h1.636a.767.767,0,1,1,0,1.534Zm0-3.273H18.817a.767.767,0,0,1,0-1.534h1.636a.767.767,0,1,1,0,1.534Z" transform="translate(0 -190.103)" fill="#c7c7c7"/>
</svg>
