<svg id="calendar" xmlns="http://www.w3.org/2000/svg" width="31.178" height="28.133" viewBox="0 0 31.178 28.133">
  <path id="Path_12" data-name="Path 12" d="M31.178,33.769V30.176a2.743,2.743,0,0,0-2.74-2.74h-.365v3.349a.913.913,0,1,1-1.827,0V25.913a.913.913,0,1,0-1.827,0v1.522h-6.09v3.349a.913.913,0,1,1-1.827,0V25.913a.913.913,0,1,0-1.827,0v1.522H8.586v3.349a.913.913,0,1,1-1.827,0V25.913a.913.913,0,1,0-1.827,0v1.522H2.74A2.743,2.743,0,0,0,0,30.176v3.593Z" transform="translate(0 -25)" fill="#fff"/>
  <path id="Path_13" data-name="Path 13" d="M0,199v14.8a2.743,2.743,0,0,0,2.74,2.74h25.7a2.743,2.743,0,0,0,2.74-2.74V199Zm8.769,12.666H6.82a.913.913,0,1,1,0-1.827H8.769a.913.913,0,1,1,0,1.827Zm0-3.9H6.82a.913.913,0,1,1,0-1.827H8.769a.913.913,0,1,1,0,1.827Zm0-3.9H6.82a.913.913,0,1,1,0-1.827H8.769a.913.913,0,1,1,0,1.827Zm7.795,7.795H14.615a.913.913,0,1,1,0-1.827h1.949a.913.913,0,1,1,0,1.827Zm0-3.9H14.615a.913.913,0,1,1,0-1.827h1.949a.913.913,0,1,1,0,1.827Zm0-3.9H14.615a.913.913,0,1,1,0-1.827h1.949a.913.913,0,1,1,0,1.827Zm7.795,7.795H22.409a.913.913,0,1,1,0-1.827h1.949a.913.913,0,1,1,0,1.827Zm0-3.9H22.409a.913.913,0,1,1,0-1.827h1.949a.913.913,0,1,1,0,1.827Zm0-3.9H22.409a.913.913,0,1,1,0-1.827h1.949a.913.913,0,1,1,0,1.827Z" transform="translate(0 -188.404)" fill="#fff"/>
</svg>
