<svg xmlns="http://www.w3.org/2000/svg" width="25.642" height="21.317" viewBox="0 0 25.642 21.317">
  <path id="icon" d="M121.681,144.139l-.04.009H138.8l-5.394-5.411a1.418,1.418,0,0,1,0-1.993l.839-.841a1.4,1.4,0,0,1,1.982,0l9.246,9.254a1.416,1.416,0,0,1,0,1.99l-9.246,9.255a1.4,1.4,0,0,1-1.982,0l-.839-.841a1.39,1.39,0,0,1-.409-.992,1.349,1.349,0,0,1,.409-.973l5.455-5.441h-17.2a1.454,1.454,0,0,1-1.422-1.44v-1.189A1.426,1.426,0,0,1,121.681,144.139Z" transform="translate(-120.239 -135.493)" fill="#fdfcfc"/>
</svg>
