<svg xmlns="http://www.w3.org/2000/svg" width="24.6" height="24.6" viewBox="0 0 24.6 24.6">
  <g id="phone" transform="translate(0)">
    <g id="Group_100" data-name="Group 100" transform="translate(0 14.481)">
      <g id="Group_99" data-name="Group 99">
        <path id="Path_154" data-name="Path 154" d="M361.551,305.063,364.608,302a2.215,2.215,0,0,1,3.058,0l.51.51-6.116,6.115-.51-.51A2.16,2.16,0,0,1,361.551,305.063Z" transform="translate(-360.917 -301.393)" fill="#404040"/>
      </g>
    </g>
    <g id="Group_102" data-name="Group 102" transform="translate(2.205 2.183)">
      <g id="Group_101" data-name="Group 101">
        <path id="Path_155" data-name="Path 155" d="M6.1,59.853a1.622,1.622,0,0,0,2.149-.111L14.3,53.694a1.622,1.622,0,0,0,.111-2.149l6.1-6.1a7.782,7.782,0,0,1-.375,10.567l-9.566,9.57A7.737,7.737,0,0,1,0,65.955Z" transform="translate(0 -45.443)" fill="#404040"/>
      </g>
    </g>
    <g id="Group_104" data-name="Group 104" transform="translate(14.477 0)">
      <g id="Group_103" data-name="Group 103">
        <path id="Path_156" data-name="Path 156" d="M60.246,3.67,63.3.612a2.215,2.215,0,0,1,3.058,0l.51.51L60.755,7.237l-.51-.51A2.16,2.16,0,0,1,60.246,3.67Z" transform="translate(-59.612 0)" fill="#404040"/>
      </g>
    </g>
  </g>
</svg>
