<svg id="document" xmlns="http://www.w3.org/2000/svg" width="23.8" height="23.8" viewBox="0 0 23.8 23.8">
  <g id="Group_125" data-name="Group 125" transform="translate(13.909)">
    <g id="Group_124" data-name="Group 124">
      <path id="Path_73" data-name="Path 73" d="M303.419,4.064a2.079,2.079,0,0,0-.613-1.479L300.834.613A2.138,2.138,0,0,0,299.342,0h-.12V4.184h4.2v-.12Z" transform="translate(-299.222)" fill="#cfcfcf"/>
    </g>
  </g>
  <g id="Group_127" data-name="Group 127">
    <g id="Group_126" data-name="Group 126">
      <path id="Path_74" data-name="Path 74" d="M12.734,14.389A2.8,2.8,0,0,1,13.4,13.3l4.721-4.7V5.578h-4.9a.678.678,0,0,1-.675-.7V0H2.092A2.094,2.094,0,0,0,0,2.092V21.708A2.094,2.094,0,0,0,2.092,23.8H16.015a2.11,2.11,0,0,0,2.11-2.092V16.5l-.766.748a2.773,2.773,0,0,1-1.084.669l-2.217.74-.338.018a1.743,1.743,0,0,1-1.652-2.3ZM3.486,12.551h6.95a.7.7,0,0,1,0,1.395H3.486a.7.7,0,1,1,0-1.395Zm-.7-2.092a.7.7,0,0,1,.7-.7h6.95a.7.7,0,1,1,0,1.395H3.486A.7.7,0,0,1,2.789,10.459Zm0,5.578a.7.7,0,0,1,.7-.7h6.95a.7.7,0,1,1,0,1.395H3.486A.7.7,0,0,1,2.789,16.037Zm10.436,3.486a.7.7,0,0,1,0,1.395H9.042a.7.7,0,0,1,0-1.395ZM3.486,8.367a.7.7,0,1,1,0-1.395h9.739a.7.7,0,0,1,0,1.395Z" fill="#cfcfcf"/>
    </g>
  </g>
  <g id="Group_129" data-name="Group 129" transform="translate(13.372 15.006)">
    <g id="Group_128" data-name="Group 128">
      <path id="Path_75" data-name="Path 75" d="M288.288,322.808l-.607,1.82a.349.349,0,0,0,.441.441l1.819-.607Z" transform="translate(-287.663 -322.808)" fill="#cfcfcf"/>
    </g>
  </g>
  <g id="Group_131" data-name="Group 131" transform="translate(14.82 9.265)">
    <g id="Group_130" data-name="Group 130">
      <path id="Path_76" data-name="Path 76" d="M323.412,199.307,318.82,203.9l1.98,1.98,4.592-4.592Z" transform="translate(-318.82 -199.307)" fill="#cfcfcf"/>
    </g>
  </g>
  <g id="Group_133" data-name="Group 133" transform="translate(20.398 6.877)">
    <g id="Group_132" data-name="Group 132">
      <path id="Path_77" data-name="Path 77" d="M441.811,148.336a1.456,1.456,0,0,0-1.979,0l-1.013,1.013,1.98,1.98,1.013-1.013A1.4,1.4,0,0,0,441.811,148.336Z" transform="translate(-438.819 -147.949)" fill="#cfcfcf"/>
    </g>
  </g>
  <g id="Group_136" data-name="Group 136" transform="translate(23.392 9.232)">
    <g id="Group_135" data-name="Group 135">
      <g id="Group_134" data-name="Group 134">
        <path id="Path_78" data-name="Path 78" d="M503.215,198.812h0l0,0Z" transform="translate(-503.215 -198.798)" fill="#cfcfcf"/>
        <path id="Path_79" data-name="Path 79" d="M503.3,198.681l.006-.006Z" transform="translate(-503.299 -198.672)" fill="#cfcfcf"/>
        <path id="Path_80" data-name="Path 80" d="M503.436,198.6Z" transform="translate(-503.426 -198.602)" fill="#cfcfcf"/>
      </g>
    </g>
  </g>
</svg>
