<svg id="document" xmlns="http://www.w3.org/2000/svg" width="35.004" height="35.004" viewBox="0 0 35.004 35.004">
  <g id="Group_125" data-name="Group 125" transform="translate(20.457)">
    <g id="Group_124" data-name="Group 124">
      <path id="Path_73" data-name="Path 73" d="M305.395,5.977a3.058,3.058,0,0,0-.9-2.175l-2.9-2.9a3.145,3.145,0,0,0-2.2-.9h-.176V6.153H305.4V5.977Z" transform="translate(-299.222 0)" fill="#cfcfcf"/>
    </g>
  </g>
  <g id="Group_127" data-name="Group 127">
    <g id="Group_126" data-name="Group 126">
      <path id="Path_74" data-name="Path 74" d="M18.728,21.162a4.116,4.116,0,0,1,.985-1.6l6.944-6.916V8.2H19.451a1,1,0,0,1-.992-1.026V0H3.077A3.08,3.08,0,0,0,0,3.077V31.928A3.08,3.08,0,0,0,3.077,35H23.554a3.1,3.1,0,0,0,3.1-3.077V24.274l-1.127,1.1a4.078,4.078,0,0,1-1.594.983l-3.261,1.089-.5.027a2.564,2.564,0,0,1-2.43-3.378Zm-13.6-2.7H15.349a1.026,1.026,0,1,1,0,2.051H5.128a1.026,1.026,0,1,1,0-2.051ZM4.1,15.383a1.025,1.025,0,0,1,1.026-1.026H15.349a1.026,1.026,0,1,1,0,2.051H5.128A1.025,1.025,0,0,1,4.1,15.383Zm0,8.2a1.025,1.025,0,0,1,1.026-1.026H15.349a1.026,1.026,0,1,1,0,2.051H5.128A1.025,1.025,0,0,1,4.1,23.587Zm15.349,5.128a1.026,1.026,0,1,1,0,2.051H13.3a1.026,1.026,0,0,1,0-2.051ZM5.128,12.306a1.026,1.026,0,1,1,0-2.051H19.451a1.026,1.026,0,1,1,0,2.051Z" fill="#fff"/>
    </g>
  </g>
  <g id="Group_129" data-name="Group 129" transform="translate(19.667 22.07)">
    <g id="Group_128" data-name="Group 128">
      <path id="Path_75" data-name="Path 75" d="M288.582,322.808l-.892,2.677a.513.513,0,0,0,.649.648l2.675-.893Z" transform="translate(-287.663 -322.808)" fill="#cfcfcf"/>
    </g>
  </g>
  <g id="Group_131" data-name="Group 131" transform="translate(21.797 13.626)">
    <g id="Group_130" data-name="Group 130">
      <path id="Path_76" data-name="Path 76" d="M325.574,199.307l-6.754,6.754,2.913,2.913,6.754-6.754Z" transform="translate(-318.82 -199.307)" fill="#cfcfcf"/>
    </g>
  </g>
  <g id="Group_133" data-name="Group 133" transform="translate(30.001 10.115)">
    <g id="Group_132" data-name="Group 132">
      <path id="Path_77" data-name="Path 77" d="M443.219,148.519a2.141,2.141,0,0,0-2.91,0l-1.49,1.49,2.912,2.912,1.49-1.49A2.064,2.064,0,0,0,443.219,148.519Z" transform="translate(-438.819 -147.949)" fill="#cfcfcf"/>
    </g>
  </g>
  <g id="Group_136" data-name="Group 136" transform="translate(34.404 13.578)">
    <g id="Group_135" data-name="Group 135">
      <g id="Group_134" data-name="Group 134">
        <path id="Path_78" data-name="Path 78" d="M503.215,198.814h0l.006-.006Z" transform="translate(-503.215 -198.794)" fill="#cfcfcf"/>
        <path id="Path_79" data-name="Path 79" d="M503.3,198.684l.009-.009Z" transform="translate(-503.297 -198.67)" fill="#cfcfcf"/>
        <path id="Path_80" data-name="Path 80" d="M503.436,198.607Z" transform="translate(-503.421 -198.602)" fill="#cfcfcf"/>
      </g>
    </g>
  </g>
</svg>
