<svg xmlns="http://www.w3.org/2000/svg" width="98.001" height="98.001" viewBox="0 0 98.001 98.001">
  <path id="Exclusion_1" data-name="Exclusion 1" d="M-10174.934,2150a48.692,48.692,0,0,1-19.073-3.851,48.835,48.835,0,0,1-15.576-10.5,48.841,48.841,0,0,1-10.5-15.575,48.708,48.708,0,0,1-3.851-19.073,48.708,48.708,0,0,1,3.851-19.073,48.842,48.842,0,0,1,10.5-15.575,48.835,48.835,0,0,1,15.576-10.5,48.692,48.692,0,0,1,19.073-3.851,48.691,48.691,0,0,1,19.072,3.851,48.835,48.835,0,0,1,15.576,10.5,48.842,48.842,0,0,1,10.5,15.575,48.708,48.708,0,0,1,3.851,19.073,48.708,48.708,0,0,1-3.851,19.073,48.841,48.841,0,0,1-10.5,15.575,48.835,48.835,0,0,1-15.576,10.5A48.691,48.691,0,0,1-10174.934,2150Zm-19.473-52.516a3.73,3.73,0,0,0-2.655,1.1l-1.771,1.771a3.725,3.725,0,0,0-1.1,2.653,3.73,3.73,0,0,0,1.1,2.658l14.138,14.141a2.506,2.506,0,0,0,1.771.734,2.516,2.516,0,0,0,1.771-.734l29.161-29.164a3.725,3.725,0,0,0,1.1-2.656,3.725,3.725,0,0,0-1.1-2.656l-1.771-1.771a3.722,3.722,0,0,0-2.654-1.1,3.732,3.732,0,0,0-2.657,1.1l-23.85,23.85-8.827-8.827A3.73,3.73,0,0,0-10194.406,2097.485Z" transform="translate(10223.935 -2052)" fill="#70b85b"/>
</svg>
