<svg id="x-ray" xmlns="http://www.w3.org/2000/svg" width="21.845" height="19.2" viewBox="0 0 21.845 19.2">
  <path id="Path_106" data-name="Path 106" d="M91,155.5v3.84a.64.64,0,1,0,1.28,0,2.7,2.7,0,0,1,1.5-2.425A1.91,1.91,0,0,0,94.84,155.2V151.07A4.487,4.487,0,0,0,91,155.5Zm0,0" transform="translate(-87.117 -144.625)" fill="#c7c7c7"/>
  <path id="Path_107" data-name="Path 107" d="M331,151.07V155.2a1.91,1.91,0,0,0,1.061,1.717,2.7,2.7,0,0,1,1.5,2.425.64.64,0,1,0,1.28,0V155.5A4.487,4.487,0,0,0,331,151.07Zm0,0" transform="translate(-316.877 -144.624)" fill="#c7c7c7"/>
  <path id="Path_108" data-name="Path 108" d="M21.845,1.28H16.683V0H15.4V1.28H6.443V0H5.163V1.28H0V19.2H21.845Zm-2.6,13.44a1.92,1.92,0,1,1-3.84,0,1.423,1.423,0,0,0-.791-1.28,3.183,3.183,0,0,1-1.769-2.862V9.865l-1.92-1.92L9,9.865v.713A3.183,3.183,0,0,1,7.234,13.44a1.423,1.423,0,0,0-.791,1.28,1.92,1.92,0,0,1-3.84,0V10.88a5.766,5.766,0,0,1,5.76-5.76H9V8.055l1.28-1.28V3.84h1.28V6.775l1.28,1.28V5.12h.64a5.766,5.766,0,0,1,5.76,5.76Zm0,0" fill="#c7c7c7"/>
</svg>
