<svg xmlns="http://www.w3.org/2000/svg" width="38.8" height="35.011" viewBox="0 0 38.8 35.011">
  <g id="Group_35" data-name="Group 35" transform="translate(0 -25)">
    <path id="Path_33" data-name="Path 33" d="M38.8,35.913V31.441a3.414,3.414,0,0,0-3.41-3.41h-.455V32.2a1.137,1.137,0,1,1-2.273,0V26.137a1.137,1.137,0,1,0-2.273,0v1.895H22.81V32.2a1.137,1.137,0,1,1-2.273,0V26.137a1.137,1.137,0,0,0-2.273,0v1.895H10.685V32.2a1.137,1.137,0,1,1-2.273,0V26.137a1.137,1.137,0,1,0-2.273,0v1.895H3.41A3.414,3.414,0,0,0,0,31.441v4.471Z" fill="#fff"/>
    <path id="Path_34" data-name="Path 34" d="M0,199v18.415a3.414,3.414,0,0,0,3.41,3.41H35.39a3.414,3.414,0,0,0,3.41-3.41V199Zm10.913,15.763H8.488a1.137,1.137,0,1,1,0-2.273h2.425a1.137,1.137,0,1,1,0,2.273Zm0-4.85H8.488a1.137,1.137,0,1,1,0-2.273h2.425a1.137,1.137,0,1,1,0,2.273Zm0-4.85H8.488a1.137,1.137,0,1,1,0-2.273h2.425a1.137,1.137,0,1,1,0,2.273Zm9.7,9.7H18.188a1.137,1.137,0,1,1,0-2.273h2.425a1.137,1.137,0,1,1,0,2.273Zm0-4.85H18.188a1.137,1.137,0,1,1,0-2.273h2.425a1.137,1.137,0,1,1,0,2.273Zm0-4.85H18.188a1.137,1.137,0,1,1,0-2.273h2.425a1.137,1.137,0,1,1,0,2.273Zm9.7,9.7H27.888a1.137,1.137,0,1,1,0-2.273h2.425a1.137,1.137,0,1,1,0,2.273Zm0-4.85H27.888a1.137,1.137,0,1,1,0-2.273h2.425a1.137,1.137,0,1,1,0,2.273Zm0-4.85H27.888a1.137,1.137,0,1,1,0-2.273h2.425a1.137,1.137,0,1,1,0,2.273Z" transform="translate(0 -160.814)" fill="#fff"/>
  </g>
</svg>
