<svg xmlns="http://www.w3.org/2000/svg" width="144.859" height="136.136" viewBox="0 0 144.859 136.136">
  <g id="Group_55" data-name="Group 55" transform="translate(0 -14.592)">
    <path id="Path_44" data-name="Path 44" d="M111.54,133.9a2.425,2.425,0,1,1-4.849,0V118.428l-1.34.67a2.425,2.425,0,1,1-2.169-4.337l4.849-2.425a2.426,2.426,0,0,1,3.509,2.169Zm19.4,0a2.425,2.425,0,0,1-4.85,0v-7.274h-7.274a2.425,2.425,0,0,1-2.425-2.425v-9.7a2.425,2.425,0,0,1,4.85,0v7.274h4.849V114.5a2.425,2.425,0,0,1,4.85,0Zm-46.071-10c0-24.189,25.836-40.257,47.354-29.279a1.82,1.82,0,0,0,2.657-1.612V36.524A12.124,12.124,0,0,0,122.754,24.4H109.879a1.818,1.818,0,0,0-1.819,1.819v8.648a2.482,2.482,0,0,1-2.258,2.5,2.426,2.426,0,0,1-2.592-2.419V17.017a2.424,2.424,0,0,0-2.585-2.42,2.479,2.479,0,0,0-2.264,2.5v7.3H76.532a1.818,1.818,0,0,0-1.819,1.819v8.732a2.424,2.424,0,0,1-2.585,2.42,2.479,2.479,0,0,1-2.264-2.5V17.017a2.424,2.424,0,0,0-2.585-2.42,2.479,2.479,0,0,0-2.264,2.5v7.3H43.185a1.818,1.818,0,0,0-1.819,1.819v8.732a2.426,2.426,0,0,1-2.592,2.419,2.481,2.481,0,0,1-2.258-2.5V17.017A2.426,2.426,0,0,0,33.925,14.6a2.481,2.481,0,0,0-2.258,2.5v7.3H12.124A12.124,12.124,0,0,0,0,36.524v11.8a2.425,2.425,0,0,0,2.425,2.425H113.881a2.48,2.48,0,0,1,2.5,2.263,2.425,2.425,0,0,1-2.42,2.586H2.425A2.425,2.425,0,0,0,0,58.028v69.51a12.124,12.124,0,0,0,12.124,12.124H86a1.816,1.816,0,0,0,1.659-2.557A32.4,32.4,0,0,1,84.867,123.9Zm23.49-53.042a8.032,8.032,0,1,1-8.032,8.032A8.041,8.041,0,0,1,108.357,70.859ZM26.521,119.051a8.032,8.032,0,1,1,8.032-8.032A8.041,8.041,0,0,1,26.521,119.051Zm0-32.128a8.032,8.032,0,1,1,8.032-8.032A8.041,8.041,0,0,1,26.521,86.923ZM53.8,119.051a8.032,8.032,0,1,1,8.032-8.032A8.041,8.041,0,0,1,53.8,119.051Zm0-32.128a8.032,8.032,0,1,1,8.032-8.032A8.041,8.041,0,0,1,53.8,86.923Zm19.247-8.032a8.032,8.032,0,1,1,8.032,8.032A8.041,8.041,0,0,1,73.046,78.891Z" transform="translate(0 0)" fill="#2778a7"/>
    <circle id="Ellipse_3" data-name="Ellipse 3" cx="27.885" cy="27.885" r="27.885" transform="translate(89.09 94.958)" fill="#ea6666"/>
    <path id="Path_45" data-name="Path 45" d="M364.975,372.137h7.161V357.814H386.46v-7.161H372.137V336.33h-7.161v14.323H350.652v7.161h14.323Z" transform="translate(-251.013 -230.315)" fill="#fff"/>
  </g>
</svg>
