<svg xmlns="http://www.w3.org/2000/svg" width="22.235" height="21.044" viewBox="0 0 22.235 21.044">
  <path id="Path_189" data-name="Path 189" d="M20.153,15.785a7.116,7.116,0,0,0-10.052,0L1.485,24.4a5.077,5.077,0,0,0,7.18,7.18l7.9-7.9a3.046,3.046,0,1,0-4.308-4.308L7.09,24.54a1.015,1.015,0,1,0,1.436,1.436l5.165-5.165a1.015,1.015,0,1,1,1.436,1.436l-7.9,7.9a3.046,3.046,0,0,1-4.308-4.308l8.616-8.616a5.077,5.077,0,1,1,7.18,7.18L10.1,33.017a1.015,1.015,0,0,0,1.436,1.436l8.616-8.616a7.108,7.108,0,0,0,0-10.052Z" transform="translate(-0.001 -13.707)" fill="#fff"/>
</svg>
