<svg xmlns="http://www.w3.org/2000/svg" width="25.405" height="22.924" viewBox="0 0 25.405 22.924">
  <g id="calendar" transform="translate(0 -25)">
    <path id="Path_158" data-name="Path 158" d="M25.4,32.145V29.218a2.235,2.235,0,0,0-2.233-2.233h-.3v2.729a.744.744,0,0,1-1.489,0V25.744a.744.744,0,1,0-1.489,0v1.24H14.935v2.729a.744.744,0,0,1-1.489,0V25.744a.744.744,0,1,0-1.489,0v1.24H7v2.729a.744.744,0,0,1-1.489,0V25.744a.744.744,0,1,0-1.489,0v1.24H2.233A2.235,2.235,0,0,0,0,29.218v2.927Z" fill="#cbcbcb"/>
    <path id="Path_159" data-name="Path 159" d="M0,199v12.057a2.235,2.235,0,0,0,2.233,2.233H23.172a2.235,2.235,0,0,0,2.233-2.233V199Zm7.145,10.321H5.557a.744.744,0,0,1,0-1.489H7.145a.744.744,0,0,1,0,1.489Zm0-3.176H5.557a.744.744,0,0,1,0-1.489H7.145a.744.744,0,0,1,0,1.489Zm0-3.176H5.557a.744.744,0,0,1,0-1.489H7.145a.744.744,0,0,1,0,1.489Zm6.351,6.351H11.908a.744.744,0,0,1,0-1.489H13.5a.744.744,0,0,1,0,1.489Zm0-3.176H11.908a.744.744,0,0,1,0-1.489H13.5a.744.744,0,0,1,0,1.489Zm0-3.176H11.908a.744.744,0,0,1,0-1.489H13.5a.744.744,0,0,1,0,1.489Zm6.351,6.351H18.26a.744.744,0,0,1,0-1.489h1.588a.744.744,0,1,1,0,1.489Zm0-3.176H18.26a.744.744,0,0,1,0-1.489h1.588a.744.744,0,1,1,0,1.489Zm0-3.176H18.26a.744.744,0,0,1,0-1.489h1.588a.744.744,0,1,1,0,1.489Z" transform="translate(0 -165.366)" fill="#cbcbcb"/>
  </g>
</svg>
