<svg xmlns="http://www.w3.org/2000/svg" width="39.343" height="40.065" viewBox="0 0 39.343 40.065">
  <path id="Path_214" data-name="Path 214" d="M23.129,0h-.064A19.655,19.655,0,0,0,7.649,31.9L4.783,38.57a1.068,1.068,0,0,0,.558,1.406,1.091,1.091,0,0,0,.612.075L16.462,38.2a18.939,18.939,0,0,0,6.548,1.138A19.671,19.671,0,0,0,23.129,0ZM16.387,15.737h5.8a1.073,1.073,0,1,1,0,2.147h-5.8a1.073,1.073,0,0,1,0-2.147ZM29.7,23.251H16.387a1.073,1.073,0,1,1,0-2.147H29.7a1.073,1.073,0,1,1,0,2.147Z" transform="translate(-3.366)" fill="#fff"/>
</svg>
