<svg xmlns="http://www.w3.org/2000/svg" width="35.2" height="33.477" viewBox="0 0 27.2 33.477">
  <g id="trash" transform="translate(-48)">
    <path id="Path_151" data-name="Path 151" d="M72.585,4.185H66.831V3.138A3.138,3.138,0,0,0,63.692,0H59.508a3.138,3.138,0,0,0-3.138,3.138V4.185H50.615A2.615,2.615,0,0,0,48,6.8V8.892a1.046,1.046,0,0,0,1.046,1.046H74.154A1.046,1.046,0,0,0,75.2,8.892V6.8A2.615,2.615,0,0,0,72.585,4.185ZM58.462,3.138a1.048,1.048,0,0,1,1.046-1.046h4.185a1.048,1.048,0,0,1,1.046,1.046V4.185H58.462Z" fill="#fff"/>
    <path id="Path_152" data-name="Path 152" d="M73.691,184a.327.327,0,0,0-.327.342l.863,18.114a3.135,3.135,0,0,0,3.135,2.989H93.249a3.135,3.135,0,0,0,3.135-2.989l.863-18.114a.327.327,0,0,0-.327-.342Zm15.8,2.615a1.046,1.046,0,0,1,2.092,0v13.6a1.046,1.046,0,0,1-2.092,0Zm-5.231,0a1.046,1.046,0,0,1,2.092,0v13.6a1.046,1.046,0,0,1-2.092,0Zm-5.231,0a1.046,1.046,0,0,1,2.092,0v13.6a1.046,1.046,0,0,1-2.092,0Z" transform="translate(-23.706 -171.969)" fill="#fff"/>
  </g>
</svg>
