<svg xmlns="http://www.w3.org/2000/svg" width="31.822" height="31.759" viewBox="0 0 31.822 31.759">
  <g id="Group_166" data-name="Group 166" transform="translate(-31.831 -7.855)">
    <g id="Group_102" data-name="Group 102" transform="translate(36.25 15.14)">
      <g id="Group_101" data-name="Group 101" transform="translate(0)">
        <path id="Path_171" data-name="Path 171" d="M332.833,199.307,318.82,213.32l6.043,6.043,14.012-14.014Z" transform="translate(-318.82 -199.307)" fill="#fff"/>
      </g>
    </g>
    <g id="Group_104" data-name="Group 104" transform="translate(53.272 7.855)">
      <g id="Group_103" data-name="Group 103" transform="translate(0)">
        <path id="Path_172" data-name="Path 172" d="M447.95,149.131a4.443,4.443,0,0,0-6.038,0l-3.092,3.092,6.042,6.042,3.092-3.092A4.283,4.283,0,0,0,447.95,149.131Z" transform="translate(-438.819 -147.949)" fill="#fff"/>
      </g>
    </g>
    <g id="Group_100" data-name="Group 100" transform="translate(31.831 32.659)">
      <g id="Group_99" data-name="Group 99">
        <path id="Path_170" data-name="Path 170" d="M289.571,322.808l-1.851,5.553a1.064,1.064,0,0,0,1.346,1.345l5.55-1.854Z" transform="translate(-287.663 -322.808)" fill="#fff"/>
      </g>
    </g>
  </g>
</svg>
