<svg xmlns="http://www.w3.org/2000/svg" width="28.03" height="28" viewBox="0 0 28.03 28">
  <g id="pencil" transform="translate(0 -0.246)">
    <path id="Path_140" data-name="Path 140" d="M17.309,82.473,1.887,97.9a.615.615,0,0,0-.16.282L.017,105.039a.607.607,0,0,0,.589.754.6.6,0,0,0,.147-.018l6.861-1.71a.606.606,0,0,0,.282-.16L23.319,88.483Zm0,0" transform="translate(0 -77.546)" fill="#585858"/>
    <path id="Path_141" data-name="Path 141" d="M342.441,2.823l-1.717-1.717a3.109,3.109,0,0,0-4.293,0l-2.1,2.1,6.01,6.01,2.1-2.1a3.037,3.037,0,0,0,0-4.293Zm0,0" transform="translate(-315.301 0)" fill="#585858"/>
  </g>
</svg>
