<svg xmlns="http://www.w3.org/2000/svg" width="40.867" height="40.866" viewBox="0 0 40.867 40.866">
  <g id="edit" transform="translate(0 -0.004)">
    <g id="Group_58" data-name="Group 58" transform="translate(0 2.923)">
      <g id="Group_57" data-name="Group 57">
        <path id="Path_47" data-name="Path 47" d="M33.569,51.651a1.46,1.46,0,0,0-1.46,1.46V67.706a1.46,1.46,0,0,1-1.46,1.46H4.379a1.46,1.46,0,0,1-1.46-1.46V38.516a1.46,1.46,0,0,1,1.46-1.46H21.893a1.459,1.459,0,1,0,0-2.919H4.379A4.379,4.379,0,0,0,0,38.516v29.19a4.379,4.379,0,0,0,4.379,4.379H30.65a4.379,4.379,0,0,0,4.379-4.379V53.11A1.46,1.46,0,0,0,33.569,51.651Z" transform="translate(0 -34.137)" fill="#48A3DA"/>
      </g>
    </g>
    <g id="Group_60" data-name="Group 60" transform="translate(8.758 0.004)">
      <g id="Group_59" data-name="Group 59" transform="translate(0 0)">
        <path id="Path_48" data-name="Path 48" d="M132.881,1.64a5.587,5.587,0,0,0-7.9,0L105.755,20.864a1.476,1.476,0,0,0-.352.571l-2.919,8.757a1.46,1.46,0,0,0,1.384,1.921,1.483,1.483,0,0,0,.461-.074l8.757-2.919a1.46,1.46,0,0,0,.571-.353L132.881,9.542A5.587,5.587,0,0,0,132.881,1.64Z" transform="translate(-102.409 -0.004)" fill="#48A3DA"/>
      </g>
    </g>
  </g>
</svg>
