<svg id="Group_20" data-name="Group 20" xmlns="http://www.w3.org/2000/svg" width="132.49" height="33.569" viewBox="0 0 132.49 33.569">
  <path id="Path_1" data-name="Path 1" d="M0,32.948V.422C.2.432.392.449.588.454,4.9.542,9.225.289,13.531.72a15.093,15.093,0,0,1,5.631,1.627,9.041,9.041,0,0,1,2.659,2.07,10.159,10.159,0,0,0-2.45,3.336c-.556,1.243-1,2.532-1.476,3.768A6.561,6.561,0,0,0,13.8,7.738a12.541,12.541,0,0,0-5.784-.6v19.2c1.08,0,2.131.015,3.175,0a7.094,7.094,0,0,0,3.228-.843A7.735,7.735,0,0,0,18.5,19.947a38.922,38.922,0,0,0,.513-5.023,17.187,17.187,0,0,1,1.4-5.529,15.35,15.35,0,0,1,4.42-5.7,15.911,15.911,0,0,1,3.589-2.252A15.728,15.728,0,0,1,33.763.095a21.083,21.083,0,0,1,6.146.314,16.954,16.954,0,0,1,6.979,3.4c.37.294.7.645,1.058.985L42.591,9.97a9.265,9.265,0,0,0-12.574-.525,8.481,8.481,0,0,0-2.8,5.647c-.142,1.219-.078,2.462-.226,3.679a16.212,16.212,0,0,1-1.736,6.052A16.05,16.05,0,0,1,18.6,31.383a16.13,16.13,0,0,1-7.413,1.549C7.459,32.992,3.729,32.947,0,32.948Z" transform="translate(0 -0.008)" fill="#fff"/>
  <path id="Path_2" data-name="Path 2" d="M270.95,250.115a17.26,17.26,0,0,0,4.1-7.594,8.386,8.386,0,0,0,6.836,4.78,8.13,8.13,0,0,0,7.676-3.07l5.322,5.341C290.137,255.617,277.319,256.6,270.95,250.115Z" transform="translate(-246.894 -220.989)" fill="#df4343"/>
  <path id="Path_3" data-name="Path 3" d="M594.231,18.33V47.21H587.16V18.33Z" transform="translate(-535.03 -16.703)" fill="#fff"/>
  <path id="Path_4" data-name="Path 4" d="M718.07,8.891a3.959,3.959,0,0,1,7.876,0,3.959,3.959,0,0,1-7.876,0Zm7.474,5.479v21h-7.071v-21Z" transform="translate(-654.318 -4.867)" fill="#fff"/>
  <path id="Path_5" data-name="Path 5" d="M858.04,100.4h6.546l.281,1.838a9.046,9.046,0,0,1,6.441-2.486c3.921,0,7.806,1.89,7.806,10.292V121.4h-7.071V110.043c0-2.818-1.208-3.974-3.344-3.974-2.292,0-3.588,1.628-3.588,3.974V121.4H858.04Z" transform="translate(-781.861 -90.895)" fill="#fff"/>
  <path id="Path_6" data-name="Path 6" d="M1146.66,8.891a3.96,3.96,0,0,1,7.877,0,3.96,3.96,0,0,1-7.877,0Zm7.474,5.479v21h-7.071v-21Z" transform="translate(-1044.856 -4.867)" fill="#fff"/>
  <path id="Path_7" data-name="Path 7" d="M1273.82,110.363c0-6.774,5.619-11.2,11.692-11.2a12.335,12.335,0,0,1,7.421,2.45l-3.22,5.023a5.74,5.74,0,0,0-3.781-1.421,5.14,5.14,0,0,0,.02,10.278,5.623,5.623,0,0,0,3.729-1.365l3.535,4.778a12.369,12.369,0,0,1-7.7,2.663C1279.439,121.564,1273.82,117.136,1273.82,110.363Z" transform="translate(-1160.727 -90.357)" fill="#fff"/>
</svg>
