<svg xmlns="http://www.w3.org/2000/svg" width="146.243" height="128.534" viewBox="0 0 146.243 128.534">
  <g id="Group_54" data-name="Group 54" transform="translate(0 -31)">
    <path id="Path_39" data-name="Path 39" d="M73.853,236.707A12.853,12.853,0,1,0,61,223.853,12.868,12.868,0,0,0,73.853,236.707Z" transform="translate(-43.576 -128.586)" fill="#ea6666"/>
    <path id="Path_40" data-name="Path 40" d="M228.138,73.845h8.569V56.707h17.138V48.138H236.707V31h-8.569V48.138H211v8.569h17.138Z" transform="translate(-150.732)" fill="#ea6666"/>
    <path id="Path_41" data-name="Path 41" d="M8.569,215.276V181H0v85.69H8.569V249.552H68.837V223.845H8.569Z" transform="translate(0 -107.155)" fill="#2778a7"/>
    <path id="Path_42" data-name="Path 42" d="M152.52,258.138h25.273V241h-4.284A21.456,21.456,0,0,0,152.52,258.138Z" transform="translate(-108.955 -150.017)" fill="#ea6666"/>
    <path id="Path_43" data-name="Path 43" d="M271,241v51.414h60.268v17.138h8.569V241Z" transform="translate(-193.594 -150.017)" fill="#2778a7"/>
  </g>
</svg>
