<svg id="medical-history" xmlns="http://www.w3.org/2000/svg" width="35.311" height="34.446" viewBox="0 0 25.311 34.446">
  <path id="Path_181" data-name="Path 181" d="M2.265,96.43H23.044a2.2,2.2,0,0,0,2.266-2.108v-25.2A2.21,2.21,0,0,0,23.044,67H19.619v1.924a.613.613,0,0,1-.592.622H6.242a.643.643,0,0,1-.627-.622V67H2.265A2.21,2.21,0,0,0,0,69.118v25.2A2.2,2.2,0,0,0,2.265,96.43ZM6.889,77.11a.6.6,0,0,1,.6-.6h3.07V73.44a.6.6,0,0,1,.6-.6h3a.6.6,0,0,1,.6.6v3.07h3.07a.6.6,0,0,1,.6.6v3a.6.6,0,0,1-.6.6h-3.07v3.07a.6.6,0,0,1-.6.6h-3a.6.6,0,0,1-.6-.6V80.7H7.488a.6.6,0,0,1-.6-.6Zm.244,10.334H18.177a.6.6,0,0,1,0,1.2H7.133a.6.6,0,0,1,0-1.2Zm-2.247,3H20.423a.6.6,0,0,1,0,1.2H4.886a.6.6,0,0,1,0-1.2Zm0,0" transform="translate(0.001 -61.983)" fill="#fff"/>
  <path id="Path_182" data-name="Path 182" d="M102.607,2.321H99.8a.6.6,0,0,1-.585-.473A2.44,2.44,0,0,0,96.8,0h-.007a2.491,2.491,0,0,0-2.416,1.871.6.6,0,0,1-.58.45H91V6.365h11.607Zm0,0" transform="translate(-84.186 0)" fill="#fff"/>
  <path id="Path_183" data-name="Path 183" d="M111.669,167.066v3.07h1.8v-3.07a.6.6,0,0,1,.6-.6h3.07v-1.8h-3.07a.6.6,0,0,1-.6-.6V161h-1.8v3.07a.6.6,0,0,1-.6.6H108v1.8h3.07A.6.6,0,0,1,111.669,167.066Zm0,0" transform="translate(-99.913 -148.944)" fill="#fff"/>
</svg>
