<svg id="XMLID_116_" xmlns="http://www.w3.org/2000/svg" width="35.417" height="32.072" viewBox="0 0 32.417 32.072">
  <path id="XMLID_346_" d="M17.828,27.228H10.155v-1.9h7.609a7,7,0,0,1,6.413-6.246V2.719H0V34.791H24.177V33A7,7,0,0,1,17.828,27.228ZM6.24,20.246a.952.952,0,1,1-.952.952A.968.968,0,0,1,6.24,20.246Zm-.952-4.33a.952.952,0,1,1,.952.952A.962.962,0,0,1,5.288,15.916Zm.952,9.612a.952.952,0,1,1-.952.952A.968.968,0,0,1,6.24,25.528Zm0-13.942a.952.952,0,1,1,.952-.952A.968.968,0,0,1,6.24,11.586ZM18.712,22.048H10.155v-1.9h8.556Zm0-5.18H10.155v-1.9h8.556Zm0-5.18H10.155v-1.9h8.556Z" transform="translate(0 -2.719)" fill="#fff"/>
  <path id="XMLID_372_" d="M310.54,294.768l1.191-1.485,2.847,2.283,3.954-3.306a5.051,5.051,0,1,0,.857,1.765l-4.785,4Z" transform="translate(-289.763 -271.991)" fill="#fff"/>
  <path id="XMLID_374_" d="M453.414,292.232a5.07,5.07,0,0,1,.857,1.765l2.792-2.334-1.221-1.461Z" transform="translate(-424.646 -271.963)" fill="#fff"/>
</svg>
