<svg xmlns="http://www.w3.org/2000/svg" width="129.372" height="131.539" viewBox="0 0 129.372 131.539">
  <g id="Group_58" data-name="Group 58" transform="translate(0 -13.385)">
    <g id="Group_57" data-name="Group 57" transform="translate(0 13.385)">
      <g id="Group_56" data-name="Group 56">
        <path id="Path_54" data-name="Path 54" d="M63.28,87.415A35.7,35.7,0,0,0,70.917,81l8.032,4.638L86.262,72.97l-8.016-4.628a35.27,35.27,0,0,0,1.731-9.833L89.1,56.9,86.555,42.5,77.438,44.1a35.458,35.458,0,0,0-5-8.636l5.96-7.1-11.2-9.4-5.955,7.1a35.206,35.206,0,0,0-9.378-3.423V13.385H37.235v9.254a35.211,35.211,0,0,0-9.378,3.423l-5.954-7.1-11.2,9.4,5.959,7.1a35.474,35.474,0,0,0-5,8.636L2.539,42.5,0,56.9l9.118,1.608a35.279,35.279,0,0,0,1.731,9.833L2.833,72.971l7.313,12.667L18.178,81a35.7,35.7,0,0,0,7.637,6.416l-3.17,8.71,13.745,5,3.166-8.7a35.457,35.457,0,0,0,9.985,0l3.166,8.7,13.744-5ZM44.547,76.009A18.679,18.679,0,1,1,63.226,57.331,18.7,18.7,0,0,1,44.547,76.009Z" transform="translate(0 -13.385)" fill="#2778a7"/>
        <path id="Path_55" data-name="Path 55" d="M257.292,232.708l-6.305,2.04a25.388,25.388,0,0,0-4.4-5.629l3.524-5.624-8.872-5.559-3.522,5.619a25.157,25.157,0,0,0-6.986-1.5l-.914-6.561-10.37,1.446.914,6.561a25.2,25.2,0,0,0-6.311,3.353l-4.922-4.443-7.015,7.772,4.926,4.448a25.383,25.383,0,0,0-2.69,6.617l-6.623-.24-.379,10.462,6.623.24a25.253,25.253,0,0,0,2.2,6.8l-5.226,4.073,6.436,8.257,5.236-4.081a25.617,25.617,0,0,0,6.049,3.794l-1.388,6.489,10.239,2.187,1.386-6.479a25.463,25.463,0,0,0,7.078-.987l3.105,5.854,9.25-4.905-3.108-5.861a25.6,25.6,0,0,0,4.781-5.3l6.152,2.495,3.934-9.7-6.14-2.49a25.357,25.357,0,0,0,.256-7.143l6.306-2.041Zm-26.472,27.91a13.371,13.371,0,1,1,11.4-15.088A13.387,13.387,0,0,1,230.82,260.618Z" transform="translate(-131.144 -147.694)" fill="#ea6666"/>
      </g>
    </g>
    <circle id="Ellipse_5" data-name="Ellipse 5" cx="16.381" cy="16.381" r="16.381" transform="translate(28.051 40.949)" fill="#ea6666"/>
    <path id="Path_56" data-name="Path 56" d="M110.507,135.951h4.207v-8.414h8.414v-4.207h-8.414v-8.414h-4.207v8.414h-8.414v4.207h8.414Z" transform="translate(-67.845 -67.47)" fill="#fff"/>
    <circle id="Ellipse_6" data-name="Ellipse 6" cx="11.601" cy="11.601" r="11.601" transform="translate(86.159 101.559)" fill="#2778a7"/>
    <path id="Path_57" data-name="Path 57" d="M275.879,304.836h2.979v-5.958h5.959V295.9h-5.959v-5.959h-2.979V295.9H269.92v2.979h5.959Z" transform="translate(-179.372 -183.78)" fill="#fff"/>
  </g>
</svg>
