<svg xmlns="http://www.w3.org/2000/svg" width="36.312" height="37.321" viewBox="0 0 36.312 37.321">
  <path id="Path_35" data-name="Path 35" d="M41.721,23.568,37.784,20.48a14.655,14.655,0,0,0,.131-1.819,14.655,14.655,0,0,0-.131-1.819l3.947-3.088a.93.93,0,0,0,.224-1.194L38.223,6.093a.923.923,0,0,0-1.138-.4L32.438,7.567a14.159,14.159,0,0,0-3.154-1.838l-.7-4.945A.96.96,0,0,0,27.651,0H20.187a.942.942,0,0,0-.924.784l-.7,4.945A13.809,13.809,0,0,0,15.41,7.567L10.764,5.691a.934.934,0,0,0-1.138.4L5.893,12.558a.935.935,0,0,0,.224,1.194l3.937,3.088a14.654,14.654,0,0,0-.131,1.819,14.654,14.654,0,0,0,.131,1.819L6.117,23.568a.93.93,0,0,0-.224,1.194l3.732,6.466a.923.923,0,0,0,1.138.4l4.646-1.875a14.159,14.159,0,0,0,3.154,1.838l.7,4.945a.942.942,0,0,0,.924.784h7.464a.942.942,0,0,0,.924-.784l.7-4.945a13.809,13.809,0,0,0,3.154-1.838l4.646,1.875a.934.934,0,0,0,1.138-.4l3.732-6.466A.935.935,0,0,0,41.721,23.568Zm-17.8,1.623a6.531,6.531,0,1,1,6.531-6.531A6.526,6.526,0,0,1,23.919,25.192Z" transform="translate(-5.768 0)" fill="#fff"/>
</svg>
