<svg xmlns="http://www.w3.org/2000/svg" width="75" height="75" viewBox="0 0 75 75">
  <g id="Group_176" data-name="Group 176" transform="translate(-1001 -545)">
    <circle id="Ellipse_28" data-name="Ellipse 28" cx="37.5" cy="37.5" r="37.5" transform="translate(1001 545)" fill="#63be59"/>
    <path id="correct" d="M12.8,25.867a1.706,1.706,0,0,1-2.414,0L.75,16.227a2.559,2.559,0,0,1,0-3.621L1.957,11.4a2.56,2.56,0,0,1,3.621,0L11.6,17.417l16.26-16.26a2.56,2.56,0,0,1,3.621,0l1.207,1.207a2.559,2.559,0,0,1,0,3.621Zm0,0" transform="translate(1021.623 568.885)" fill="#fff"/>
  </g>
</svg>
