<svg id="photo" xmlns="http://www.w3.org/2000/svg" width="23.864" height="20.508" viewBox="0 0 23.864 20.508">
  <path id="Path_190" data-name="Path 190" d="M15.614,70v5.733a.7.7,0,1,0,1.4,0v-2.47h1.4v2.47a2.1,2.1,0,1,1-4.195,0V70H0V81.952l6.386-3.67,5.762,3.306,5.5-1.848,6.218,2.611V70ZM4.894,76.991a2.1,2.1,0,1,1,2.1-2.1A2.1,2.1,0,0,1,4.894,76.991Zm0,0" transform="translate(0 -66.737)" fill="#fff"/>
  <path id="Path_191" data-name="Path 191" d="M90.7,160a.7.7,0,1,0,.7.7A.7.7,0,0,0,90.7,160Zm0,0" transform="translate(-85.805 -152.542)" fill="#fff"/>
  <path id="Path_192" data-name="Path 192" d="M12,285.512l-5.611-3.22L0,285.964v3.68H23.864v-3.378l-6.273-2.634Zm0,0" transform="translate(0 -269.135)" fill="#fff"/>
  <path id="Path_193" data-name="Path 193" d="M306.4,2.1a.7.7,0,0,1,.7-.7h2.8a.7.7,0,0,1,.658.466h1.426A2.1,2.1,0,0,0,309.894,0h-2.8A2.1,2.1,0,0,0,305,2.1V3.263h1.4Zm0,0" transform="translate(-290.784)" fill="#fff"/>
</svg>
