<svg xmlns="http://www.w3.org/2000/svg" width="16.282" height="18.525" viewBox="0 0 16.282 18.525">
  <g id="user" transform="translate(-31)">
    <g id="Group_128" data-name="Group 128" transform="translate(34.256)">
      <g id="Group_127" data-name="Group 127" transform="translate(0)">
        <path id="Path_206" data-name="Path 206" d="M125.885,0a4.885,4.885,0,1,0,4.885,4.885A4.89,4.89,0,0,0,125.885,0Z" transform="translate(-121 0)" fill="#fff"/>
      </g>
    </g>
    <g id="Group_130" data-name="Group 130" transform="translate(31 10.855)">
      <g id="Group_129" data-name="Group 129" transform="translate(0)">
        <path id="Path_207" data-name="Path 207" d="M45.218,302.106A6.963,6.963,0,0,0,40.226,300H38.055a6.963,6.963,0,0,0-4.992,2.106A7.119,7.119,0,0,0,31,307.128a.543.543,0,0,0,.543.543h15.2a.543.543,0,0,0,.543-.543A7.119,7.119,0,0,0,45.218,302.106Z" transform="translate(-31 -300)" fill="#fff"/>
      </g>
    </g>
  </g>
</svg>
