<svg xmlns="http://www.w3.org/2000/svg" width="116.849" height="119.167" viewBox="0 0 116.849 119.167">
  <g id="Glyph" transform="translate(0.04)">
    <path id="Path_46" data-name="Path 46" d="M205.445,0H145.862A1.862,1.862,0,0,0,144,1.862v24.8c3.957-5.322,4.545-5.987,7.052-6.165,6.432-.446,12.405,12,5.541,20.823C151.243,47.719,144,55.859,144,55.859V117.3a1.862,1.862,0,0,0,1.862,1.862h38.654a33.516,33.516,0,0,1,22.791-62.472V1.862A1.862,1.862,0,0,0,205.445,0ZM155.172,68.893a1.862,1.862,0,0,1-3.724,0V54a1.862,1.862,0,0,1,3.724,0Z" transform="translate(-110.515)" fill="#2778a7"/>
    <path id="Path_47" data-name="Path 47" d="M0,296v4.458a23.955,23.955,0,0,0,3.724,12.851v18.068H16.758V305.31a1.862,1.862,0,1,1,3.724,0v26.068h3.724V296Z" transform="translate(-0.031 -227.107)" fill="#2778a7"/>
    <path id="Path_48" data-name="Path 48" d="M95.935,464.793c3.452,3.516,4.3,8.493,3.419,10.987h2.182C105.415,475.78,103.235,466.268,95.935,464.793Z" transform="translate(-73.637 -356.614)" fill="#2778a7"/>
    <path id="Path_49" data-name="Path 49" d="M32.758,475.172H19.724A3.728,3.728,0,0,1,16,471.448v-5.586A1.862,1.862,0,0,1,17.862,464H25.31C33.968,464,37,475.172,32.758,475.172Z" transform="translate(-12.307 -356.005)" fill="#2778a7"/>
    <circle id="Ellipse_4" data-name="Ellipse 4" cx="28.046" cy="28.046" r="28.046" transform="translate(60.716 60.781)" fill="#ea6666"/>
    <path id="Path_50" data-name="Path 50" d="M320.994,344.939h7.2V330.533H342.6v-7.2H328.2V308.925h-7.2v14.406H306.588v7.2h14.406Z" transform="translate(-235.261 -237.023)" fill="#fff"/>
    <path id="Path_51" data-name="Path 51" d="M40.8,48.762c-1.5.107-10.573,13.185-11.971,14.891H20.451v-3.91A9.326,9.326,0,0,0,27.9,50.62V46.9c4.928,0-.516-14.9-13.034-14.9C.217,32-6.144,51.754,7.465,58.614a10.368,10.368,0,0,0-7.5,10.038v21.07H24.175c-.009-14.842.02-14.058-.023-14.9h6.6c5.237,0,11.16-11.569,12.386-13.034C48.183,55.305,43.6,48.569,40.8,48.762Z" transform="translate(0 -24.552)" fill="#2778a7"/>
    <path id="Path_52" data-name="Path 52" d="M433.862,62.9A1.862,1.862,0,0,1,432,61.034V49.862a1.862,1.862,0,1,1,3.724,0V61.034A1.862,1.862,0,0,1,433.862,62.9Z" transform="translate(-331.484 -36.828)" fill="#ea6666"/>
    <path id="Path_53" data-name="Path 53" d="M433.862,190.9A1.862,1.862,0,0,1,432,189.034V177.862a1.862,1.862,0,1,1,3.724,0v11.172A1.862,1.862,0,0,1,433.862,190.9Z" transform="translate(-331.484 -135.036)" fill="#ea6666"/>
  </g>
</svg>
