<svg id="Group_34" data-name="Group 34" xmlns="http://www.w3.org/2000/svg" width="32.866" height="32.866" viewBox="0 0 32.866 32.866">
  <g id="Group_22" data-name="Group 22" transform="translate(19.208)">
    <g id="Group_21" data-name="Group 21">
      <path id="Path_25" data-name="Path 25" d="M305.018,5.612a2.871,2.871,0,0,0-.846-2.042L301.448.846A2.953,2.953,0,0,0,299.387,0h-.165V5.777h5.8V5.612Z" transform="translate(-299.222)" fill="#fff"/>
    </g>
  </g>
  <g id="Group_24" data-name="Group 24">
    <g id="Group_23" data-name="Group 23">
      <path id="Path_26" data-name="Path 26" d="M17.585,19.87a3.865,3.865,0,0,1,.925-1.5l6.52-6.493V7.7H18.264a.936.936,0,0,1-.932-.963V0H2.889A2.892,2.892,0,0,0,0,2.889V29.978a2.892,2.892,0,0,0,2.889,2.889H22.115a2.914,2.914,0,0,0,2.914-2.889V22.791l-1.058,1.032a3.829,3.829,0,0,1-1.5.923l-3.062,1.022-.466.025a2.407,2.407,0,0,1-2.281-3.172ZM4.814,17.332h9.6a.963.963,0,1,1,0,1.926h-9.6a.963.963,0,1,1,0-1.926Zm-.963-2.889a.962.962,0,0,1,.963-.963h9.6a.963.963,0,1,1,0,1.926h-9.6A.962.962,0,0,1,3.852,14.443Zm0,7.7a.962.962,0,0,1,.963-.963h9.6a.963.963,0,1,1,0,1.926h-9.6A.962.962,0,0,1,3.852,22.146Zm14.412,4.814a.963.963,0,0,1,0,1.926H12.486a.963.963,0,0,1,0-1.926ZM4.814,11.555a.963.963,0,0,1,0-1.926H18.264a.963.963,0,0,1,0,1.926Z" fill="#fff"/>
    </g>
  </g>
  <g id="Group_26" data-name="Group 26" transform="translate(18.466 20.722)">
    <g id="Group_25" data-name="Group 25">
      <path id="Path_27" data-name="Path 27" d="M288.526,322.808l-.838,2.513a.481.481,0,0,0,.609.609l2.512-.839Z" transform="translate(-287.663 -322.808)" fill="#fff"/>
    </g>
  </g>
  <g id="Group_28" data-name="Group 28" transform="translate(20.466 12.794)">
    <g id="Group_27" data-name="Group 27">
      <path id="Path_28" data-name="Path 28" d="M325.161,199.307l-6.341,6.341,2.735,2.735,6.341-6.342Z" transform="translate(-318.82 -199.307)" fill="#fff"/>
    </g>
  </g>
  <g id="Group_30" data-name="Group 30" transform="translate(28.169 9.497)">
    <g id="Group_29" data-name="Group 29">
      <path id="Path_29" data-name="Path 29" d="M442.951,148.484a2.011,2.011,0,0,0-2.733,0l-1.4,1.4,2.734,2.734,1.4-1.4A1.938,1.938,0,0,0,442.951,148.484Z" transform="translate(-438.819 -147.949)" fill="#fff"/>
    </g>
  </g>
  <g id="Group_33" data-name="Group 33" transform="translate(32.303 12.749)">
    <g id="Group_32" data-name="Group 32">
      <g id="Group_31" data-name="Group 31">
        <path id="Path_30" data-name="Path 30" d="M503.215,198.814h0l.006-.006Z" transform="translate(-503.215 -198.795)" fill="#fff"/>
        <path id="Path_31" data-name="Path 31" d="M503.3,198.684l.009-.009Z" transform="translate(-503.297 -198.67)" fill="#fff"/>
        <path id="Path_32" data-name="Path 32" d="M503.436,198.606Z" transform="translate(-503.422 -198.602)" fill="#fff"/>
      </g>
    </g>
  </g>
</svg>
