<svg xmlns="http://www.w3.org/2000/svg" width="55.195" height="55.188" viewBox="0 0 55.195 55.188">
  <g id="Outline" transform="translate(-2 -2)">
    <path id="Path_15" data-name="Path 15" d="M56.739,38.472l-.013-.022a4.358,4.358,0,0,0-5.62-1.491l-5.894,3.014A5.073,5.073,0,0,0,38.775,38.4l-7.422,3.8a2.7,2.7,0,0,1-2.5-.016L23.794,39.5a11.744,11.744,0,0,0-12.271.743l-.571-2.724a.92.92,0,0,0-1.094-.71L2.726,38.347a.92.92,0,0,0-.706,1.087L6.172,59.221a.92.92,0,0,0,.9.736.977.977,0,0,0,.193-.02L14.4,58.4a.92.92,0,0,0,.706-1.088l-.368-1.77,2.438-.525a6.308,6.308,0,0,1,2.162-.083l11.467,1.257A9.841,9.841,0,0,0,37.593,54.6l18.37-12.324a2.775,2.775,0,0,0,.776-3.8ZM7.781,57.938,4.01,39.953,9.345,38.8,13.116,56.79Zm47.158-17.19L36.57,53.073a8.023,8.023,0,0,1-5.545,1.288L19.558,53.1a8.015,8.015,0,0,0-2.77.11l-2.43.522L11.933,42.2l.628-.438a9.91,9.91,0,0,1,10.369-.638l5.058,2.686a4.537,4.537,0,0,0,4.2.029l7.424-3.809a3.253,3.253,0,0,1,4.3,1.267.93.93,0,0,1-.326,1.264l-10.235,6.07a8.109,8.109,0,0,1-5.952.943l-9.23-2.207-.427,1.79,9.239,2.207a9.939,9.939,0,0,0,7.309-1.151l10.235-6.07a2.759,2.759,0,0,0,1.338-2.44l6.078-3.11a2.515,2.515,0,0,1,3.237.854l.01.016a.945.945,0,0,1-.248,1.285Z" transform="translate(0 -2.768)" fill="#fff"/>
    <rect id="Rectangle_113" data-name="Rectangle 113" width="1.839" height="1.838" transform="matrix(0.979, -0.206, 0.206, 0.979, 6.154, 38.598)" fill="#fff"/>
    <path id="Path_16" data-name="Path 16" d="M29.85,36.773a.92.92,0,0,0,1.083,0c9.229-6.731,14.91-13.15,16.974-19.138h4.727a2.759,2.759,0,1,0,0-1.839H48.419a14.934,14.934,0,0,0,.327-2.059,10.452,10.452,0,0,0-2.312-7.85A9.724,9.724,0,0,0,38.645,2a13.5,13.5,0,0,0-8.253,3.236A13.5,13.5,0,0,0,22.139,2a9.729,9.729,0,0,0-7.79,3.887,10.457,10.457,0,0,0-2.311,7.85C12.592,20.8,18.585,28.556,29.85,36.773ZM55.225,15.8a.92.92,0,1,1-.92.92A.92.92,0,0,1,55.225,15.8ZM15.717,7.116a.886.886,0,0,0,.115-.14,7.91,7.91,0,0,1,6.307-3.137c4.262,0,7.569,3.246,7.6,3.278a.92.92,0,0,0,1.3,0c.033-.034,3.317-3.278,7.6-3.278a7.85,7.85,0,0,1,6.307,3.137.886.886,0,0,0,.115.14,8.553,8.553,0,0,1,1.845,6.472,12.839,12.839,0,0,1-.377,2.207H39.2L35.789,9.818a.92.92,0,0,0-1.656.115L29.585,21.314l-2.914-9.468a.92.92,0,0,0-1.667-.2L22.513,15.8H16.6v1.839h6.438a.92.92,0,0,0,.788-.446l1.7-2.83,3.073,9.985a.92.92,0,0,0,.842.644h.04a.92.92,0,0,0,.854-.579l4.81-12.027,2.734,4.783a.92.92,0,0,0,.8.471h7.266C44.233,21.969,40,27.782,30.392,34.889,17.432,25.3,14.25,18.066,13.877,13.662a8.553,8.553,0,0,1,1.839-6.546Z" transform="translate(-0.8 0)" fill="#fff"/>
    <rect id="Rectangle_114" data-name="Rectangle 114" width="8" height="1" transform="translate(2 15.589)" fill="#fff"/>
  </g>
</svg>
