<svg xmlns="http://www.w3.org/2000/svg" width="60.067" height="60.065" viewBox="0 0 60.067 60.065">
  <g id="stethoscope" transform="translate(0 -0.007)">
    <path id="Path_8" data-name="Path 8" d="M58.524,5.387a7.563,7.563,0,0,0-6.088-3.033H51.414V1.767a1.76,1.76,0,1,0-3.519,0V6.459a1.76,1.76,0,1,0,3.519,0V5.873h1.022a4.106,4.106,0,0,1,3.948,5.234L51.714,27.454a10.683,10.683,0,0,1-20.543,0L26.5,11.107a4.106,4.106,0,0,1,3.948-5.234H31.47v.587a1.76,1.76,0,0,0,3.519,0V1.767a1.76,1.76,0,1,0-3.519,0v.587H30.448a7.625,7.625,0,0,0-7.332,9.72l4.671,16.347a14.1,14.1,0,0,0,5.1,7.437,14.391,14.391,0,0,0,1.66,1.079L39.683,49.05v1.27a6.233,6.233,0,0,1-12.465,0V38.252a10.089,10.089,0,0,0-20.178,0v4.166a8.8,8.8,0,1,0,3.519,0V38.252a6.57,6.57,0,0,1,13.139,0V50.32a9.752,9.752,0,0,0,19.5,0V49.05l5.132-12.114a14.379,14.379,0,0,0,1.66-1.079,14.094,14.094,0,0,0,5.1-7.437l4.671-16.347a7.563,7.563,0,0,0-1.244-6.687ZM14.078,51.039A5.279,5.279,0,1,1,8.8,45.76,5.285,5.285,0,0,1,14.078,51.039Zm27.365-6.857-2.4-5.663a14.333,14.333,0,0,0,4.8,0Z" fill="#fff"/>
    <ellipse id="Ellipse_1" data-name="Ellipse 1" cx="1.915" cy="1.724" rx="1.915" ry="1.724" transform="translate(6.895 49.346)" fill="#fff"/>
  </g>
</svg>
