<svg xmlns="http://www.w3.org/2000/svg" width="34.406" height="43.608" viewBox="0 0 34.406 43.608">
  <g id="stethoscope" transform="translate(0 0.07)">
    <path id="Path_146" data-name="Path 146" d="M93.494,24.855a4.916,4.916,0,0,0-.7,9.78v9.531a1.054,1.054,0,0,1-1.053,1.053h-1.4a1.054,1.054,0,0,1-1.053-1.053V42.059a2.458,2.458,0,0,0-4.916,0v7.022a1.054,1.054,0,0,1-1.053,1.053h-6.32a1.054,1.054,0,0,1-1.053-1.053V37.495h.7a.7.7,0,0,0,.7-.7v-3.71a11.253,11.253,0,0,0,9.129-11.036.7.7,0,0,0-.7-.7h-.7v-9.48a2.461,2.461,0,0,0-2.458-2.458h-.351V8.7a.7.7,0,0,0-.873-.681l-2.809.7a.7.7,0,0,0-.532.681v1.4a.7.7,0,0,0,.532.681l2.809.7a.7.7,0,0,0,.873-.681v-.7h.351a1.054,1.054,0,0,1,1.053,1.053v9.48h-.7a.7.7,0,0,0-.7.7,7.022,7.022,0,0,1-14.045,0,.7.7,0,0,0-.7-.7h-.7v-9.48a1.054,1.054,0,0,1,1.053-1.053h.351v.7a.7.7,0,0,0,.873.681l2.809-.7a.7.7,0,0,0,.532-.681v-1.4a.7.7,0,0,0-.532-.681l-2.809-.7a.7.7,0,0,0-.873.681v.7h-.351A2.461,2.461,0,0,0,65.4,11.863v9.48h-.7a.7.7,0,0,0-.7.7,11.253,11.253,0,0,0,9.129,11.036v3.71a.7.7,0,0,0,.7.7h.7V49.082a2.461,2.461,0,0,0,2.458,2.458h6.32a2.461,2.461,0,0,0,2.458-2.458V42.059a1.053,1.053,0,0,1,2.107,0v2.107a2.461,2.461,0,0,0,2.458,2.458h1.4A2.461,2.461,0,0,0,94.2,44.166V34.635a4.916,4.916,0,0,0-.7-9.78ZM80.854,10.612l-1.4-.351V9.954l1.4-.351ZM69.618,9.6l1.4.351v.307l-1.4.351ZM65.429,22.748h1.409a8.427,8.427,0,0,0,16.8,0h1.409a9.832,9.832,0,0,1-19.613,0Zm9.1,13.342V33.281h1.4V36.09Zm18.96-2.809a3.511,3.511,0,1,1,3.511-3.511A3.511,3.511,0,0,1,93.494,33.281Z" transform="translate(-64 -8.001)" fill="#fff"/>
    <path id="Path_147" data-name="Path 147" d="M370.809,224a2.809,2.809,0,1,0,2.809,2.809A2.809,2.809,0,0,0,370.809,224Zm0,4.213a1.4,1.4,0,1,1,1.4-1.4A1.4,1.4,0,0,1,370.809,228.213Z" transform="translate(-341.315 -205.04)" fill="#fff"/>
    <text id="_" data-name="+" transform="translate(5.472 16.93)" fill="#fff" font-size="18" font-family="GESSTwoMedium-Medium, GE SS Two" font-weight="500"><tspan x="0" y="0">+</tspan></text>
  </g>
</svg>
