<svg xmlns="http://www.w3.org/2000/svg" width="60.637" height="42.769" viewBox="0 0 60.637 42.769">
  <g id="video" transform="translate(0 -75.435)">
    <path id="Path_142" data-name="Path 142" d="M35.907,91.547a.89.89,0,0,0,.89-.89V79.741a2.529,2.529,0,0,1,2.526-2.526H83.054a2.529,2.529,0,0,1,2.526,2.526v6.644a.89.89,0,1,0,1.78,0V79.741a4.311,4.311,0,0,0-4.306-4.306H39.323a4.311,4.311,0,0,0-4.306,4.306V90.657a.89.89,0,0,0,.89.89Z" transform="translate(-30.87)" fill="#fff"/>
    <path id="Path_143" data-name="Path 143" d="M59.747,140.942H56.49V119.658a.89.89,0,0,0-1.78,0v21.283H52.5V135.42a.89.89,0,1,0-1.78,0v5.521H35.782a.89.89,0,0,0-.89.89v.685a.31.31,0,0,1-.31.31H23.67a.31.31,0,0,1-.31-.31v-.685a.89.89,0,0,0-.89-.89H9.919V110.92h40.8v20.94a.89.89,0,1,0,1.78,0V110.03a.89.89,0,0,0-.89-.89H9.029a.89.89,0,0,0-.89.89v30.912H5.927V123.93a.89.89,0,0,0-1.78,0v17.011H.89a.89.89,0,0,0-.89.89v2.707a3.383,3.383,0,0,0,3.379,3.379H57.258a3.383,3.383,0,0,0,3.379-3.379v-2.707a.89.89,0,0,0-.89-.89Zm-.89,3.6a1.6,1.6,0,0,1-1.6,1.6H3.379a1.6,1.6,0,0,1-1.6-1.6v-1.817H21.59a2.093,2.093,0,0,0,2.08,1.885H34.583a2.093,2.093,0,0,0,2.08-1.885H58.857Z" transform="translate(0 -29.713)" fill="#fff"/>
    <path id="Path_144" data-name="Path 144" d="M171.739,180.211a.888.888,0,0,0,.326,1.213,10.574,10.574,0,1,0-2.948-2.518.888.888,0,1,0,1.381-1.117,8.692,8.692,0,0,1-1.953-5.525,8.787,8.787,0,1,1,4.407,7.622A.888.888,0,0,0,171.739,180.211Z" transform="translate(-147.018 -76.044)" fill="#fff"/>
    <path id="Path_145" data-name="Path 145" d="M232.319,217.656a.887.887,0,0,0,.527-.173l5.809-4.275a.888.888,0,0,0,0-1.431l-5.809-4.275a.888.888,0,0,0-1.415.715v8.55a.888.888,0,0,0,.888.888Zm.888-7.681,3.422,2.518-3.422,2.518Z" transform="translate(-204.022 -116.274)" fill="#fff"/>
  </g>
</svg>
