<svg xmlns="http://www.w3.org/2000/svg" width="82.922" height="80.168">
  <g id="Group_73" data-name="Group 73" transform="translate(0 -8.5)">
    <path id="Path_58" data-name="Path 58" d="M232.178,8.5H183.429A2.428,2.428,0,0,0,181,10.929v41.3a2.428,2.428,0,0,0,2.429,2.429h43.89a2.431,2.431,0,0,1,2.429,2.429,2.429,2.429,0,1,0,4.859,0V10.929A2.428,2.428,0,0,0,232.178,8.5ZM207.723,44.94a2.429,2.429,0,1,1,2.429-2.429A2.429,2.429,0,0,1,207.723,44.94Zm3.646-13.124a2.446,2.446,0,0,0-1.217,2.107,2.429,2.429,0,1,1-4.859,0,7.312,7.312,0,0,1,3.642-6.311,2.43,2.43,0,1,0-3.642-2.107,2.429,2.429,0,0,1-4.859,0,7.288,7.288,0,1,1,10.934,6.311Z" transform="translate(-151.686)" fill="#fff"/>
    <path id="Path_59" data-name="Path 59" d="M2.429,252.087a2.428,2.428,0,0,0,2.429-2.429,2.431,2.431,0,0,1,2.429-2.429h43.89a2.428,2.428,0,0,0,2.429-2.429V222.935H31.743a7.3,7.3,0,0,1-7.288-7.288V203.5H2.429A2.428,2.428,0,0,0,0,205.929v43.728A2.428,2.428,0,0,0,2.429,252.087Zm9.717-34.011h5.021a2.429,2.429,0,0,1,0,4.859H12.147a2.429,2.429,0,0,1,0-4.859Zm0,9.717H41.461a2.429,2.429,0,0,1,0,4.859H12.147a2.429,2.429,0,0,1,0-4.859Z" transform="translate(0 -163.418)" fill="#fff"/>
  </g>
</svg>
