<svg xmlns="http://www.w3.org/2000/svg" width="39.272" height="42.065" viewBox="0 0 39.272 42.065">
  <g id="Group_103" data-name="Group 103" transform="translate(1.108 -0.149)">
    <path id="Subtraction_1" data-name="Subtraction 1" d="M6200.019-913.039h0a51.506,51.506,0,0,0-6.463-6.991c-4.29-4.081-7.994-7.605-7.994-14.036a14.454,14.454,0,0,1,4.123-10.336,14.455,14.455,0,0,1,10.335-4.122,14.453,14.453,0,0,1,10.334,4.122,14.456,14.456,0,0,1,4.122,10.336c0,6.431-3.7,9.955-7.991,14.034l-.005.005a51.448,51.448,0,0,0-6.459,6.988Zm-.259-28.1a6.876,6.876,0,0,0-6.869,6.867,6.875,6.875,0,0,0,6.869,6.867,6.874,6.874,0,0,0,6.866-6.867A6.874,6.874,0,0,0,6199.759-941.142Z" transform="translate(-6180.302 948.524)" fill="#fff"/>
    <path id="Path_110" data-name="Path 110" d="M54.929,373.921H44.071v-2.629h9.994l-1.583-4.819H44.941a49.717,49.717,0,0,0-6.231,6.716l-2,2.741-2-2.741a49.957,49.957,0,0,0-6.231-6.715H20.939l-1.583,4.819H29.35v2.629H18.493L17,378.477H56.425l-1.5-4.556Z" transform="translate(-16.996 -336.244)" fill="#fff"/>
    <path id="Path_112" data-name="Path 112" d="M213.478,131.327h1.764V127.8h3.527v-1.764h-3.527v-3.527h-1.764v3.527h-3.527V127.8h3.527Z" transform="translate(-194.339 -112.944)" fill="#fff"/>
  </g>
</svg>
