<svg xmlns="http://www.w3.org/2000/svg" width="99.946" height="75.522" viewBox="0 0 99.946 75.522">
  <g id="Group_65" data-name="Group 65" transform="translate(0 -63)">
    <path id="Path_84" data-name="Path 84" d="M153.872,135.543h-4.58v50.283a3.083,3.083,0,0,1-3.082,3.083H70.836v4.912a3.083,3.083,0,0,0,3.083,3.083h79.953a3.083,3.083,0,0,0,3.083-3.083v-55.2A3.083,3.083,0,0,0,153.872,135.543Z" transform="translate(-57.008 -58.382)" fill="#fff"/>
    <path id="Path_85" data-name="Path 85" d="M88.754,149.891H104.92v10.636H88.754Z" transform="translate(-71.429 -69.929)" fill="#fff"/>
    <path id="Path_86" data-name="Path 86" d="M86.118,121.307V66.053A3.054,3.054,0,0,0,83.065,63H3.053A3.054,3.054,0,0,0,0,66.053v55.254a3.054,3.054,0,0,0,3.053,3.053H83.065A3.054,3.054,0,0,0,86.118,121.307ZM75.3,117.659H56.276a3.083,3.083,0,0,1,0-6.165H75.3a3.083,3.083,0,1,1,0,6.165ZM56.276,101.727h8.632a3.083,3.083,0,0,1,0,6.165H56.276a3.083,3.083,0,0,1,0-6.165ZM11.16,93.68v-16.8A3.083,3.083,0,0,1,14.243,73.8h22.33a3.083,3.083,0,0,1,3.083,3.082v16.8a3.083,3.083,0,0,1-3.083,3.083H14.243A3.083,3.083,0,0,1,11.16,93.68Z" fill="#fff"/>
    <path id="Path_87" data-name="Path 87" d="M287.141,74.892a14.64,14.64,0,1,0,14.64,14.64,14.657,14.657,0,0,0-14.64-14.64Z" transform="translate(-219.307 -9.571)" fill="#fff"/>
    <path id="Path_88" data-name="Path 88" d="M317.141,116.6h-2.928v2.928a2.928,2.928,0,0,1-5.856,0V116.6h-2.928a2.928,2.928,0,0,1,0-5.856h2.928v-2.928a2.928,2.928,0,0,1,5.856,0v2.928h2.928a2.928,2.928,0,0,1,0,5.856Z" transform="translate(-243.451 -33.714)" fill="#fff"/>
  </g>
</svg>
