<svg xmlns="http://www.w3.org/2000/svg" width="60.214" height="79.051" viewBox="0 0 60.214 79.051">
  <g id="Group_63" data-name="Group 63" transform="translate(-61.003 0)">
    <path id="Path_78" data-name="Path 78" d="M118.9,9.419A43.6,43.6,0,0,1,94.729,1.946L92.395.39a2.31,2.31,0,0,0-2.569,0L87.491,1.946A43.594,43.594,0,0,1,63.319,9.419,2.315,2.315,0,0,0,61,11.735V38.023A43.1,43.1,0,0,0,90.377,78.932a2.3,2.3,0,0,0,1.465,0,43.1,43.1,0,0,0,29.374-40.909V11.735A2.315,2.315,0,0,0,118.9,9.419ZM91.11,55.738a16.211,16.211,0,1,1,16.212-16.212A16.231,16.231,0,0,1,91.11,55.738Z" transform="translate(0 0)" fill="#fff"/>
    <path id="Path_79" data-name="Path 79" d="M192.081,180a11.58,11.58,0,1,0,11.58,11.58A11.593,11.593,0,0,0,192.081,180Zm4.632,13.9H194.4v2.316a2.316,2.316,0,0,1-4.632,0V193.9h-2.316a2.316,2.316,0,0,1,0-4.632h2.316v-2.316a2.316,2.316,0,0,1,4.632,0v2.316h2.316a2.316,2.316,0,0,1,0,4.632Z" transform="translate(-101.048 -152.209)" fill="#fff"/>
  </g>
</svg>
