<svg xmlns="http://www.w3.org/2000/svg" width="80.275" height="79.246" viewBox="0 0 80.275 79.246">
  <g id="Group_68" data-name="Group 68" transform="translate(0 -2.612)">
    <path id="Path_101" data-name="Path 101" d="M167.184,236.845l13.482-7.925L167.184,221Z" transform="translate(-134.251 -175.365)" fill="#fff"/>
    <path id="Path_102" data-name="Path 102" d="M71.013,112.327H9.262A9.262,9.262,0,0,0,0,121.589V160.7a9.262,9.262,0,0,0,9.262,9.262h61.75a9.262,9.262,0,0,0,9.262-9.262V121.589A9.262,9.262,0,0,0,71.013,112.327Zm-18.884,30.2a1.957,1.957,0,0,1-.876.876L31.6,154.935a1.748,1.748,0,0,1-1.029.309l-.926-.309a1.853,1.853,0,0,1-.823-1.75V130.131a1.853,1.853,0,0,1,.823-1.75,1.75,1.75,0,0,1,1.956,0l19.657,11.527A1.956,1.956,0,0,1,52.129,142.532Z" transform="translate(0 -88.102)" fill="#fff"/>
    <path id="Path_103" data-name="Path 103" d="M45.421,64.2H104.6a2.058,2.058,0,0,0,0-4.117H45.421a2.058,2.058,0,1,0,0,4.117Z" transform="translate(-34.821 -46.149)" fill="#fff"/>
    <path id="Path_104" data-name="Path 104" d="M89.829,6.729h41.578a2.058,2.058,0,1,0,0-4.117H89.829a2.058,2.058,0,1,0,0,4.117Z" transform="translate(-70.481 0)" fill="#fff"/>
  </g>
</svg>
