<svg xmlns="http://www.w3.org/2000/svg" width="75.521" height="75.522" viewBox="0 0 75.521 75.522">
  <g id="Group_66" data-name="Group 66" transform="translate(-0.265)">
    <path id="Path_89" data-name="Path 89" d="M135.57,138.2a11.719,11.719,0,1,0-11.719-11.719A11.732,11.732,0,0,0,135.57,138.2Zm-7.812-15.625h3.906v-3.906a1.3,1.3,0,0,1,1.3-1.3h5.208a1.3,1.3,0,0,1,1.3,1.3v3.906h3.906a1.3,1.3,0,0,1,1.3,1.3v5.208a1.3,1.3,0,0,1-1.3,1.3h-3.906v3.906a1.3,1.3,0,0,1-1.3,1.3h-5.208a1.3,1.3,0,0,1-1.3-1.3v-3.906h-3.906a1.3,1.3,0,0,1-1.3-1.3v-5.208A1.3,1.3,0,0,1,127.757,122.571Z" transform="translate(-105.357 -97.832)" fill="#fff"/>
    <path id="Path_90" data-name="Path 90" d="M147.289,6.51V0H123.851V7.813h23.438Z" transform="translate(-105.357)" fill="#fff"/>
    <path id="Path_91" data-name="Path 91" d="M164.369,159.184v3.906h2.6v-3.906a1.3,1.3,0,0,1,1.3-1.3h3.906v-2.6h-3.906a1.3,1.3,0,0,1-1.3-1.3v-3.906h-2.6v3.906a1.3,1.3,0,0,1-1.3,1.3h-3.906v2.6h3.906A1.3,1.3,0,0,1,164.369,159.184Z" transform="translate(-135.458 -127.933)" fill="#fff"/>
    <path id="Path_92" data-name="Path 92" d="M56.743,17.655H44.536v2.6H54.953a1.3,1.3,0,0,1,1.3,1.3v62.5a1.3,1.3,0,0,1-1.3,1.3H4.171a1.3,1.3,0,0,1-1.3-1.3v-62.5a1.3,1.3,0,0,1,1.3-1.3H15.89v-2.6H2.381A2.118,2.118,0,0,0,.265,19.771V85.852a2.118,2.118,0,0,0,2.116,2.116H56.743a2.118,2.118,0,0,0,2.116-2.116V19.771A2.118,2.118,0,0,0,56.743,17.655Z" transform="translate(0 -15.051)" fill="#fff"/>
    <path id="Path_93" data-name="Path 93" d="M45.992,52.966H35.575v59.9H83.753v-59.9H74.638v1.3a1.3,1.3,0,0,1-1.3,1.3H47.294a1.3,1.3,0,0,1-1.3-1.3ZM62.919,95.935H47.294a1.3,1.3,0,0,1,0-2.6H62.919a1.3,1.3,0,1,1,0,2.6Zm9.115,3.906a1.3,1.3,0,0,1,0,2.6H56.409a1.3,1.3,0,1,1,0-2.6Zm-32.552-6.51h2.6a1.3,1.3,0,1,1,0,2.6h-2.6a1.3,1.3,0,1,1,0-2.6Zm0,6.51H51.2a1.3,1.3,0,1,1,0,2.6H39.481a1.3,1.3,0,1,1,0-2.6Zm2.6,9.115h-2.6a1.3,1.3,0,1,1,0-2.6h2.6a1.3,1.3,0,1,1,0,2.6Zm20.833,0H47.294a1.3,1.3,0,0,1,0-2.6H62.919a1.3,1.3,0,1,1,0,2.6Zm16.927,0H68.127a1.3,1.3,0,1,1,0-2.6H79.846a1.3,1.3,0,1,1,0,2.6Zm0-6.505h-2.6a1.3,1.3,0,1,1,0-2.6h2.6a1.3,1.3,0,1,1,0,2.6Zm0-9.12a1.3,1.3,0,1,1,0,2.6H68.127a1.3,1.3,0,1,1,0-2.6ZM60.315,59.476A14.323,14.323,0,1,1,45.992,73.8,14.34,14.34,0,0,1,60.315,59.476Z" transform="translate(-30.102 -45.153)" fill="#fff"/>
    <path id="Path_94" data-name="Path 94" d="M441.644,185.379h10.417v7.813H441.644Z" transform="translate(-376.274 -158.035)" fill="#fff"/>
    <path id="Path_95" data-name="Path 95" d="M441.644,256h10.417v18.229H441.644Z" transform="translate(-376.274 -218.239)" fill="#fff"/>
    <path id="Path_96" data-name="Path 96" d="M448.765,0H444.94a3.3,3.3,0,0,0-3.3,3.3V24.74h10.417V3.3a3.3,3.3,0,0,0-3.3-3.3Z" transform="translate(-376.274)" fill="#fff"/>
    <path id="Path_97" data-name="Path 97" d="M441.644,403.751a1.3,1.3,0,0,0,.26.781l3.646,4.861v3.473a1.3,1.3,0,1,0,2.6,0v-3.473l3.646-4.861a1.3,1.3,0,0,0,.26-.781v-6.51H441.644Z" transform="translate(-376.274 -338.647)" fill="#fff"/>
  </g>
</svg>
