<svg xmlns="http://www.w3.org/2000/svg" width="81.645" height="81.646" viewBox="0 0 81.645 81.646">
  <g id="Group_69" data-name="Group 69" transform="translate(-0.008)">
    <path id="Path_105" data-name="Path 105" d="M202.21,234.912a1.458,1.458,0,0,0,0-2.916h-8.748a1.458,1.458,0,1,0,0,2.916Z" transform="translate(-157.006 -189.716)" fill="#fff"/>
    <path id="Path_106" data-name="Path 106" d="M142.67,52.069a4.394,4.394,0,0,1,3.56-.982,4.5,4.5,0,0,1,3.645,4.471V55.4h11.664A1.458,1.458,0,0,0,163,53.944V1.458A1.458,1.458,0,0,0,161.538,0H129.464a1.458,1.458,0,0,0-1.458,1.458V53.944a1.458,1.458,0,0,0,1.458,1.458h11.664A4.364,4.364,0,0,1,142.67,52.069Zm11.579-27.284H144.043V21.869h10.206ZM144.043,17.5V11.664h2.916V17.5Zm5.832,0V11.664h2.916V17.5Zm5.832-5.832h2.916V17.5h-2.916Zm-13.121-7.29h11.664V7.29H142.585Zm-5.832,0h2.916V7.29h-2.916Zm4.374,7.29V17.5h-2.916V11.664Zm-4.374,10.206h4.374v2.916h-4.374Zm0,5.832h17.5v2.916h-17.5Zm14.579,5.832v2.916H139.669V33.533ZM135.3,17.5H132.38V11.664H135.3Zm1.458,26.243a4.374,4.374,0,0,1,4.374-4.374h8.748a4.374,4.374,0,1,1,0,8.748h-8.748A4.374,4.374,0,0,1,136.754,43.738Z" transform="translate(-104.671)" fill="#fff"/>
    <path id="Path_107" data-name="Path 107" d="M189.423,307.678a1.458,1.458,0,0,0-1.713,1.436,1.458,1.458,0,1,1-2.916,0,1.458,1.458,0,0,0-2.916,0,1.458,1.458,0,1,1-2.916,0,1.458,1.458,0,0,0-2.916,0,1.458,1.458,0,1,1-2.916,0V297.607a1.578,1.578,0,0,0-1.2-1.592,1.458,1.458,0,0,0-1.713,1.436v20.411a1.458,1.458,0,0,1-2.209,1.249l-6.078-3.645a1.107,1.107,0,0,0-1.071-.04l-.232.114a1.118,1.118,0,0,0-.146,1.908l8.748,6.248h21.4V309.27A1.578,1.578,0,0,0,189.423,307.678Z" transform="translate(-130.842 -242.049)" fill="#fff"/>
    <path id="Path_108" data-name="Path 108" d="M1.466,32A1.458,1.458,0,0,0,.008,33.457V74.279a1.458,1.458,0,0,0,1.458,1.458H17.5V32ZM5.84,34.915H8.756v2.916H5.84Zm5.832,7.29v4.374H8.756V42.2Zm-8.748,0H5.84v4.374H2.924ZM14.587,65.532H8.756a1.458,1.458,0,1,0,0,2.916h5.832v2.916H8.756a4.374,4.374,0,0,1,0-8.748h5.832Zm0-5.832H11.672V56.784h2.916Zm0-5.832H8.756V50.952h5.832Zm0-16.037H11.672V34.915h2.916Z" transform="translate(0 -26.167)" fill="#fff"/>
    <path id="Path_109" data-name="Path 109" d="M368.039,32H352V75.737h16.037a1.458,1.458,0,0,0,1.458-1.458V33.457A1.458,1.458,0,0,0,368.039,32Zm-13.122,2.916h7.29v2.916h-7.29Zm5.832,7.29v4.374h-2.916V42.2Zm-5.832,8.748h4.374v2.916h-4.374Zm0,5.832h2.916V59.7h-2.916Zm5.832,14.579h-5.832V68.448h5.832a1.458,1.458,0,0,0,0-2.916h-5.832V62.616h5.832a4.374,4.374,0,0,1,0,8.748Zm5.832-24.785h-2.916V42.2h2.916Z" transform="translate(-287.845 -26.167)" fill="#fff"/>
  </g>
</svg>
